<?xml version="1.0" encoding="UTF-8"?><svg id="Ebene_1" xmlns="http://www.w3.org/2000/svg" viewBox="0 0 500 500"><defs><style>.cls-1{fill:#00010d;}</style></defs><path d="M304.65,134.36c-2.03-.28-4.14,.52-6.11-.08-1.43-.53-1.99-2.49-1-3.65,.26-2.03,1.72-3.82,2.71-5.51,4.32-6.99,8.27-14.21,13.57-20.54,10.08-13.56,21.19-26.51,34.37-37.17,7.82-6.38,15.46-13.95,25.62-16.24,2.34-.58,5.81-1.06,7.28,1.29,4.28,5.96-7.82,22.46-9.76,29.61-4.09,9.52-8.47,19.45-15.29,27.32-3.4,4.03-7.44,7.7-11.37,11.14-3.32,2.88-6.3,6.25-10.17,8.43-3.7,2.15-7.97,2.81-12.11,3.65-5.86,1.12-11.75,2.42-17.75,1.74Zm41.9-52.06c-7.84,7.82-15.21,16.11-23.22,23.76-8.08,7.3-15.79,14.97-23.1,23.04,2.52-1.21,6.12-1.45,8.59-1.61,6.35-.72,13.4-1.94,19.55-2.8,4.93-.77,7.61-5.47,10.73-8.87,5.26-6.56,11.81-13.44,16.21-20.28,3.96-6.24,7.48-12.74,11.31-19.05,3.03-4.92,7.43-9.07,10.55-13.85,1.3-2.17,2.85-4.61,2.47-7.21-12.18,7.38-22.61,17.28-33.09,26.88Z"/><path d="M249.15,130.76c-33.78-2.1-67.78-1.27-101.13-7.44-7.88-1.57-32.18-4.57-29.86-15.86,5.4-9.61,18.18-10.09,27.84-12.33,17.66-2.1,35.39-3.73,53.13-5,14.19,.03,28.37,.26,42.56-.18,11.49-.37,22.97-.89,34.45,.01,17.2,.79,35.21-.48,52.06,2.93-.11-.38,.45-.74,.77-.37,2.06,2.05-2.37,2.23-3.62,2.44-13.19,1.73-26.52,1.04-39.78,1.44-11.11-.01-21.39-1.14-32.31-.54-17.69,.63-35.38,1.21-53.06,1.97-11.08,1.2-22.08,3.02-33.12,4.53-13.98,1.59-28.09,2.93-41.44,7.65,8.71,4,18.19,4.15,27.41,5.71,13.75,1.85,27.61,2.77,41.43,4.06,22.32,2.19,44.55,4.14,66.94,3.53,11.33-.61,22.67-.47,33.81,.93,1.7,.23,3.34-.12,4.83-.13,13.48-1.26,26.57-4.36,39.48-7.94,8.83-2.41,18.71-3.27,25.4-10.2,4.23-3.87-3.78-8.08-6.44-10.3-.95-.68-1.23-2.02-.68-3.04,.6-1.1,2.11-1.6,3.21-.93,3.57,2.2,7.33,4.31,9.87,7.74,5.83,6.51-.55,13.72-6.56,17.1-16.8,8.86-36.86,8.48-55.29,10.03-4.74,.32-9.29,.84-13.91,1.86-4.01,.31-8.33,.24-12.27,.67-11.4,.89-22.35,2.08-33.74,1.65Z"/><path d="M229.74,236.85c-26.91-1.56-51.85-15.48-70.74-34.18-16.56-14.79-29.37-31.28-32.77-53.75-2.4-9.28-3.72-18.75-4.38-28.31-.06-.76,.49-1.46,1.23-1.61,.79-.16,1.69,.37,1.81,1.2,.8,5.41,1.67,10.83,2.98,16.14,5.33,18.79,14.15,36.92,28.07,50.84,10.49,9.62,20.55,20.11,32.99,27.23,34.35,19.85,64.01,16.87,100.19,3.77,33.66-14.68,57.11-35.55,71.71-69.59,3.81-8.8,7.41-17.61,9.9-26.84,1.64-5.75,2.04-11.72,.34-17.45,0-.75-.97-1.7-.19-2.27,.4-.2,.73,.26,.59,.58,3.43,10.11,1.41,20.76-1.9,30.62-2.43,7.69-5.26,15.27-8.51,22.65-9.19,19.54-22.14,37.4-39.54,50.41-11.26,7.71-23.03,15.06-35.73,20.14-17.86,6.58-36.94,11.02-56.05,10.44Z"/><path d="M277.6,415.24c-24.21-36.58-24.64-51.53-25.17-94.02,.7-28.51-1.22-75.58,26.31-92.09,6.03-4.06,13.04-6.73,18.38-11.68,.49-.26,.89,.51,.39,.77-6.75,5.91-15.05,10.08-21.43,16.49-11.12,12.8-12.13,31.67-14.63,47.61-3.77,28.3-2.41,57.17,3.41,85.06,1.66,10.75,6.59,20.57,11.43,30.19,2.44,4.72,4.81,9.45,6.97,14.31,.68,1.49,.32,3.26-1.06,4.21-1.44,1-3.63,.68-4.6-.84Z"/><path d="M210.8,424.21c-1.31-.85-1.67-2.63-.85-3.93,4.41-7.27,9.37-14.16,13.76-21.44,3.19-5.96,5.8-12.21,7.34-18.8,4.19-16.08,4.55-32.77,5.31-49.28,1.7-15.4,.87-30.63-1.36-45.85-1.93-13.26-4.89-26.59-12.23-37.99-3.76-5.76-7.54-12.38-14.19-14.94-.42-.1-.84-.17-1.27-.16-.21,.11-.52,.08-.63-.22-.2-.57,.52-.66,.89-.66,9.16,1.51,14.88,10.43,19.4,17.67,8.2,13.26,10.68,29.05,13.19,44.2,2.4,12.57,3.67,25.28,3.46,38.08,.28,10.53,.96,21.09-.47,31.58-1.87,18.21-7.41,35.23-19.66,49.17-2.99,4-6,8-8.97,12.01-.84,1.13-2.58,1.28-3.72,.56Z"/><path d="M237.19,308.85c-.83-21.24-7.69-42.63-19.63-60.27-9.32-11.84-22.6-19.35-34.78-27.72-2.59-7.12,20.87,9.51,22.1,10.85-.58-.64-3.69-3.03-1.74-3.11,12.31,6.81,19.68,19.14,26.17,31.14,3.52,6.21,5.52,13.07,6.93,20.02,.12,.41-.36,.65-.66,.46,.34,2.21,.55,4.35,.96,6.53,.1,.45-.37,.89-.82,.71,1.05,6.17,1.66,12.41,2.21,18.64,.4,.08,.47,.59,.18,.83-.3,.53,.3,2.74-.93,1.91Zm-17.26-63.06l.04,.05c-3.92-5.7-8.74-10.79-14.43-14.71,5.19,4.48,10.08,9.31,14.39,14.65Z"/><path d="M220.27,245.34c-2.98-3.06-5.16-6.87-7.81-10.22-.12-.04-.23-.14-.28-.27-.02-.05-.03-.09-.02-.09-.16-.44-.94-.98-.4-1.43,.13-.1,.3-.1,.44-.03,2.34-1.66,5.88,6.28,7,7.96,.24,.75,3.1,4.59,1.07,4.08Zm-1.55-3.15c-1.77-2.84-3.03-6.42-5.84-8.32,0,.02,0,.04-.01,.05,.79,.89,1.5,1.83,2.23,2.77,.46,.06,.51,.62,.72,.94,.37,.74,1.54,1.47,1.28,2.35,.54,.74,1.08,1.47,1.62,2.2Z"/><path d="M229.94,468.24c-13.09-.26-25.75-3.81-38.24-7.39-6.24-1.66-12.63-3.47-17.86-7.41-5.85-4.86-13.63-12.92-13.52-20.93,2.07-12,11.66-21.83,22.63-26.48,4.63-1.76,9.12-2.64,13.81-3.93,4.9-1.18,13.33-4.46,15.09,2.59,.99,6.39-5.6,6.94-10.22,7.67-6.53,1.48-13.4,1.6-19.66,4.11-7.77,3.07-15.2,9.3-16.64,17.86,.79,4.11,4.16,7.35,6.87,10.37,7.73,8.6,19.86,8.83,30.33,11.53,22.04,5.25,44.84,4.5,67.23,2.4,19.36-1.99,39.89-3.76,56.36-15.02,4.97-3.42,12.42-8.71,10.78-15.53-4.65-6.72-11.94-10.89-18.76-15.08-8.76-4.48-18.38-6.83-28.03-8.46-7.09-1.58-18.5-1-21.01-9.29-.18-.35-.36-.7-.54-1.06-.25-.49,.52-.89,.77-.39,.17,.33,.34,.67,.52,1,4.23,1.23,9.09,.31,13.37,.59,10.24-.14,20.57,.91,30.34,4.04,6.86,1.92,13.12,5.31,19.01,9.27,10.43,6.35,21.34,16.6,12.03,28.92-5.22,7.27-13.58,11.3-21.39,15.2-11.26,5.68-23.94,7.59-36.24,9.78-18.92,2.42-37.93,5.64-57.04,5.63Z"/><path d="M143.11,122.97c-4.97-1.31,2.18-4.75,3.9-5.75,11.26-5.82,24.09-7.33,36.46-9.25,15.52-2.02,31.11-3.24,46.67-4.9,15.45-1.37,30.96-1.93,46.44-.76,10.08,.63,20.19,.12,30.27,.73,1.41,.08,2.53,1.32,2.44,2.73-.08,1.38-1.33,2.55-2.74,2.44-3.1-.25-6.2-.54-9.31-.64-10.99-.08-21.82-.01-32.73-.19-15.3,.48-30.56,1.79-45.87,2.35-21.04,1.15-60.35-2.28-76.43,11.96,.44,.43,1.29,.24,1.6,.82,.16,.45-.41,.74-.71,.47Z"/><path d="M151.37,165.32l.05-.02c.1,.02,.21,.03,.32,.03,.03,.05,.06,.09,.1,.14l.67,.91c-.38-.35-.76-.71-1.14-1.06Z"/><path d="M206.41,148.69c-23.95-2.74-48.23-7.12-70.53-16.51-.18,.31-.77,.27-.82-.19-.03-.25-.09-.47,.12-.66,.31-.27,.86-.02,1.19,.09,2.07,.37,4.14,.76,6.2,1.21,21.69,4.12,43.83,5.28,65.77,7.56,24.96,1.38,50.08,1.93,75.05,.48,23.27-1.23,46.09-5.88,68.76-11.06,2.81-.57,3.9,3.76,.93,4.45-27.66,7.7-56,12.79-84.67,14.3-20.66,.67-41.37,2.03-62.02,.33Z"/><path d="M305.62,129.42c-2.64-1.23,10.53-6.31,9.81-4.12,1.44-.04,11.57-2.93,11.05-.92-2,1.91-5.26,1.86-7.62,3.19-.66,.16-2.21,1.25-2.65,.5-.79,.07-5.03,1.8-4.24-.01,1.62-1.2,3.71-1.71,5.63-2.3-3.35,.44-6.45,1.77-9.7,2.62-.25,.09-.58,.14-.78-.05-.14,.08-.28,.16-.38,.22-.08,.04-.15,.09-.22,.14,.31,.53-.48,.86-.9,.74Zm10.17-2.2c-.21,.07-.42,.14-.63,.22,1.39-.42,2.9-.6,4.19-1.21-1.23,.22-2.38,.61-3.56,.99Zm4.79-1.7c.12,.1,.16,.25,.16,.39,.21-.06,.41-.13,.62-.19,1.08-.35,2.15-.69,3.2-1.12h-.04l.1-.03c-.4,.05-.79,.11-1.19,.17,.02,0,.04,0,.06-.01-1.18,.18-2.36,.38-3.54,.59,.22,.02,.44,.05,.62,.2Z"/><path d="M240,451.99c-12.38-.08-24.75-1.19-36.76-4.31-1.37-.33-2.35-1.59-2.08-3.03,.27-1.43,1.64-2.28,3.03-2.07,3.23,.47,6.46,.85,9.71,1.17,23.6,1.94,47.47,.42,70.75-3.87,13.53-2.79,28.69-3.53,40.2-11.52,.23-.53-.25-1.09-.8-.78-.53,.19-.82-.62-.29-.81,1.39-.63,2.37,.88,1.93,2.13-5.71,11.1-23.87,14.85-35.18,17.27-16.61,3.58-33.47,6.34-50.52,5.82Z"/><path d="M257.21,415.76c-6.8-.76-22.41-2.15-25.59-8.81-.42-1.14,1.15-1.6,2.03-1.54,10.57,.35,21.5,1.64,31.64-1.85,2.34-.72,4.95,.76,5.83,2.96,1.01,2.51-.24,5.44-2.75,6.45-3.58,1.39-7.25,3.04-11.17,2.79Z"/><path d="M264.16,249.46c0-.24,.21-.43,.44-.43s.43,.21,.43,.44c0,.24-.21,.43-.44,.43s-.43-.21-.43-.44Z"/><path d="M176.95,145.54c-7.7-.92-15.23-2.88-22.73-4.83-7.72-2.18-15.86-4-22.55-8.61-2.63-2.12-7.01-5.19-5.34-9.04,2.27-5.02,7.67-6.73,12.59-8.19,13.42-4.32,27.4-7.18,41.52-7.37,8.45-.39,16.89,.04,25.33,.48,13.21-.36,26.45-.2,39.64-.94,10.29-.84,20.4-2.71,30.73-2.84,5.76,.08,11.49-.11,17.24-.22,6.24-.06,12.48,.26,18.72,.41,.6,.01,.71,.79,.35,1.1,1.21,.18,7.49-.07,4.51,2.19-.28,.18-.68,.39-.98,.12-.34-.31,0-.8,.35-.76l.06-.03c.12-.07,.24-.15,.35-.23h0s0,0,.01,0c-10.64-1.09-21.46-.84-32.17-1.13-14.82,1.29-29.48,3.77-44.33,4.55-16,.16-32.11,.11-48.09,0-10.92,.5-21.45,3.42-32.2,5.15-7.43,1.68-27.01,2.97-30.45,9.4l-.04-.03c4.16,7.62,37.87,13.83,47.4,15.92,.84,.2,1.71,.35,2.53,.61,2.11,.66,1.89,3.96-.31,4.29-.71,.12-1.44,.07-2.15-.01Zm67.6-37.17c6.99-.51,13.92-1.49,20.89-2.13-11,1.12-21.98,2.44-33.07,2.36,4.06,.03,8.12,.01,12.17-.24Z"/><path d="M300.42,131.53c-.48-1.11,6.39-4.08,7.32-3.47,1.01,1.06-1.56,1.52-2.23,1.25-1.6,.58-3.11,1.37-4.48,2.35-.2,.13-.47,.07-.6-.13Z"/><path d="M328.27,109.66c-.05-.83,.62-1.66,1.48-1.66s1.61,.59,1.66,1.48c.05,.83-.62,1.66-1.48,1.66s-1.61-.59-1.66-1.48Z"/><path d="M340.15,100.89c-.09-1.75,1.33-3.52,3.15-3.52s3.42,1.26,3.52,3.15c.09,1.75-1.33,3.52-3.15,3.52s-3.42-1.26-3.52-3.15Z"/><path d="M346.49,87.05c-.09-1.79,1.37-3.62,3.24-3.62s3.51,1.3,3.62,3.24c.09,1.79-1.37,3.62-3.24,3.62s-3.51-1.3-3.62-3.24Z"/><path d="M138.58,133.25c-4.67-2.88-10.2-4.92-13.72-9.28-4.94-6.55,3.86-9.24,9.07-9.5,11.5-1.16,22.92-2.69,34.43-3.78,16.37-2.07,32.91-2.96,49.37-4.43,1.85,0,3.76-.21,5.59,.03,.37,.16,.28,.75-.12,.81-.85,0-1.93,.34-2.7-.03-12.29,.5-24.64,2.02-36.89,3.09-14.43,2.47-28.8,5.31-43.31,7.31-4.46,.77-9.27,.71-13.37,2.82-.22,1.58,1.76,3.04,2.89,4.04,3.23,2.4,6.6,4.63,9.88,6.96,1.17,.73,.08,2.62-1.13,1.96Z"/><path d="M196.26,146.84c-7.1,.14-14.05-1.86-21.09-1.9-.31,.02-.56-.33-.41-.62-.74-.33-4.44-.16-3.58-1.34,4.83,.61,9.9,1.25,14.77,2.12,5.31,.65,10.69,.53,16.01,.51,1.89,1.48-5.03,1.19-5.76,1.23h.05Z"/><path d="M304.23,127.56c-.34-.07-.49-.51-.24-.76-.94,.05-1.86,.34-2.79,.34-.2-.03-.36-.16-.4-.36-.03-.2,.09-.43,.3-.49,1.76-.32,3.56-.45,5.34-.56,.51,.04,1.16-.13,1.54,.28,.34,.43-.2,.82-.6,.88-.02,.23-.23,.39-.46,.38-.92-.11-1.78,.3-2.69,.28Z"/><path d="M306.73,126.75c-.01-.22,.18-.45,.41-.45s.44,.16,.45,.41c.01,.22-.18,.45-.41,.45s-.44-.16-.45-.41Z"/><path d="M139.16,177.84c-12.42-14.07-14.8-33.63-16.73-51.6-.61-5.18-1.21-10.37-1.48-15.59-.02-.6-.22-1.75,.63-1.79,.57,.09,.67,.78,.85,1.23,.47,.96,.8,2.23,1.67,2.87,.71,.06,.66,1.06-.06,.9-.35-.09-.67-.28-.9-.55,3.37,15.38,4.25,31.33,9,46.38,1.6,4.91,3.34,9.45,5.84,13.9,.35,.91,3.55,4.9,1.17,4.24Z"/><path d="M134.35,161.1c-7.55-8.56-10.92-19.73-13.68-30.61-.81-3.73-1.46-7.54-1.39-11.37-.25-2.87,1.22-5.8,.59-8.54-.26,.14-.6,.31-.84,.06-.32-.32,0-.81,.33-.77,.41-.3,1.02-.27,1.27,.27,.98-4.24,4.95-3.54,4.43,.83,3.71,12.12,5.33,24.89,8.83,37.1,1.2,3.39,1.81,7.2,2.92,10.71,1.24,1.82-.84,3.91-2.46,2.31Z"/><path d="M242.55,220.54c-17.02,.32-32.84-6.46-47.26-14.92-12.3-7.42-25.07-14.97-34.44-26.05-6.27-7.19-11.1-15.5-15.5-23.91-1.2-2.42-1.95-5.07-3.36-7.38-.21-.25-.49-.56-.81-.47-.64,.63-1.24-.42-.4-.77,2.23-.56,2.77,2.69,3.58,4.16,4.99,11.33,11.58,22.2,20.25,31.09,5.56,5.68,12.27,10.03,18.84,14.44,17.17,11.44,35.77,22.84,57.05,22.9,4.66,.18,9.25,.08,13.87-.49,.23-.03,.44,.18,.45,.41,.01,.25-.18,.43-.41,.46-3.94,.47-7.9,.66-11.86,.54Z"/><path d="M247.04,377.57c-1.19-15.26-.16-30.6-.26-45.9,.2-11.25-.66-22.49-1.06-33.72-.62-15.43,2.23-31.24-.47-46.52-6.17,6.68-7.26,16.17-7.45,24.81-.01,.47-.08,.94-.14,1.41-.07,.56-.93,.45-.86-.1,.49-4.68-1.5-9.2-1.23-14.05-.09-6.4,2.75-15.81,9.62-17.66,6.36-.54,4.98,12.38,5.3,16.55,.09,11.65-1.16,23.29-1.29,34.93,.41,18.83,.24,37.65-.37,56.46-.18,7.45-.46,14.89-.3,22.34-.05,.76,.38,1.86-.61,2.09-.4,.06-.83-.23-.87-.65Z"/><path d="M326.86,110.1c0-.8,.66-1.5,1.46-1.5s1.48,.65,1.5,1.46c0,.8-.66,1.5-1.46,1.5s-1.48-.65-1.5-1.46Z"/><path d="M356.51,78.86c0-.38,.31-.71,.7-.71s.7,.31,.71,.7c0,.38-.31,.71-.7,.71s-.7-.31-.71-.7Z"/><path d="M295.73,140.31c-1.12-.31-1.8-1.44-1.6-2.57,.08-.44,.19-.87,.31-1.3-.48-1.88,.62-3.8,1.17-5.56,.38-2.49,.51-5.24,2.43-7.1h0c1.49-1.5,4.13-.89,4.96,1.01,.53-1.37,6.42-13.59,7.81-11.12,.26,2.25-2.2,4.87-3.11,6.95-1.35,2.46-3.03,4.84-4.12,7.41-.03,.24,0,.44,.08,.63,.43,.48,.23,1.77-.55,1.33,1.36,4.84,11.21,2.18,14.68,1.17,4.06-1.09,8.07-2.38,12.18-3.27,4.66-4.13,7.98-9.57,12.26-14.05,.79-.87,1.61-1.73,2.56-2.41,1.24-.89,4.06-1.45,4.39,.66-.22,2.73-2.59,5.54-3.58,7.96-2.46,4.77-4.83,9.95-9.11,13.38-1.29,.94-2.86,1.4-4.45,1.43-4.59,1.52-9.26,2.83-14.05,3.53-7.38,1.27-14.95,.96-22.28,1.92Zm6.13-7.1c-.24,.59-.53,1.16-.86,1.71,1.32-.15,2.64-.36,3.95-.6,.29-.06,.58-.11,.87-.17-1.2-.34-2.47-.94-3.12-2.05-.09-.15-.17-.31-.24-.46-.19,.53-.39,1.05-.6,1.57Z"/><path d="M291.03,142.6c-11.33-.49,27.11-39.32,30.13-42.77,9.36-9.53,17.94-20.1,28.63-28.18,.45-.28,1.1-.79,1.64-.47,.46,.28,.06,.98-.4,.77-10.17,6.71-17,17.3-25.19,26.13-11.36,13.63-23.93,26.4-33.18,41.63,3.73-.94,7.14-2.77,10.57-4.44-.05-.05-.1-.1-.15-.16-.13-.17-.25-.33-.31-.53-1.26-.22-2.7-.91-2.67-2.38-.09-1.17,1.56-2.16,2.28-.99,1.48-.71,2.93-2.14,4.66-2,2.01,.89-.3,2.6-1.04,3.55,1.72-.28,9.86-5.19,9.57-1.66,2.72-.57,5.52-1.42,8.32-1.19,1.52,.09,3.13,0,4.4-.87-.7-.19-1.96,.66-2.24-.28-.03-.28,.17-.53,.45-.58,.9-.06,2.86-.41,2.85,.91-1.06,1.7-3.63,1.71-5.42,1.71-3.76,.48-7.3,2.04-11.01,2.81-7.35,2.46-13.83,8.49-21.87,8.98Z"/><path d="M328.42,110.03c0-.54,.46-.97,1-.97s.98,.47,.97,1c0,.54-.46,.97-1,.97s-.98-.47-.97-1Z"/><path class="cls-1" d="M197.69,177.08c0-.24,.2-.43,.43-.43s.43,.2,.43,.43-.2,.43-.43,.43-.43-.2-.43-.43Z"/><path class="cls-1" d="M206.35,438.19c-9.26-.52-20.09,1.33-27.99-4.52-3.64-2.98-2.43-8.12,.54-11.12,5.14-5.29,12.11-12.31,20.05-11.6,1.67,.34,2.15,1.93,.93,3.15-.72,.89-1.52,1.7-2.35,2.48-.18,.16-.45,.17-.62,0s-.17-.45,0-.61c.97-.95,1.93-1.84,2.68-2.96,.63-2.28-4.53-1.09-5.61-.65-5.44,2-19.95,12.15-16.5,18.78,5.32,7.9,20.54,5.59,29,6.12,3.92,.01,7.84,.03,11.76,.02,.26,0,.47,.21,.47,.47s-.21,.46-.47,.46c-3.96,0-7.93,0-11.9-.03Z"/><path class="cls-1" d="M210.53,176.89c0-1.25,1.04-2.29,2.29-2.29s2.29,1.04,2.29,2.29-1.04,2.29-2.29,2.29-2.29-1.04-2.29-2.29Z"/><path class="cls-1" d="M251.03,174.86c0-.58,.48-1.06,1.06-1.06s1.06,.48,1.06,1.06-.48,1.06-1.06,1.06-1.06-.48-1.06-1.06Z"/><path class="cls-1" d="M237.4,201.36c0-2.4,2.01-4.42,4.42-4.42s4.42,2.01,4.42,4.42-2.01,4.42-4.42,4.42-4.42-2.01-4.42-4.42Z"/><path class="cls-1" d="M280.51,189.86c0-2.3,1.92-4.22,4.22-4.22s4.22,1.92,4.22,4.22-1.92,4.22-4.22,4.22-4.22-1.92-4.22-4.22Z"/><path class="cls-1" d="M247.59,175.72c0-2.3,1.92-4.22,4.22-4.22s4.22,1.92,4.22,4.22c0,2.3-1.92,4.22-4.22,4.22s-4.22-1.92-4.22-4.22Z"/><path class="cls-1" d="M175.07,161.7c0-2.05,1.71-3.77,3.77-3.77s3.77,1.71,3.77,3.77-1.71,3.77-3.77,3.77-3.77-1.71-3.77-3.77Z"/></svg>