<?xml version="1.0" encoding="UTF-8"?><svg id="Ebene_1" xmlns="http://www.w3.org/2000/svg" viewBox="0 0 500 500"><path d="M150.13,399.37c-8.49-41.64-12.45-84.1-21.68-125.58-5.71-27.41-9.99-55.11-13.5-82.88-1.93-14.7-2.29-29.51-1.56-44.3,.02-.38-.02-.94,.27-1.23,.5-.41,.97,.22,.77,.7,.25,19.19,6.43,37.59,9.06,56.5,4.48,27.43,10.44,54.55,16.3,81.72,7.67,35.88,15.75,71.71,20.28,108.16,.24,2.9,1.7,6.07-.05,8.74-2.4,3.95-9.1,2.82-9.91-1.82Z"/><path d="M341.65,408.27c-3.8-.67-5.97-4.81-4.68-8.38,1.55-6.24,2.58-12.59,3.89-18.88,3.03-13.37,5.23-26.89,8.01-40.31,4.87-28.18,8.44-56.56,13.91-84.64,6.76-33.96,14.59-67.78,19.05-102.14,.12-1.08,.27-2.16,.34-3.25,2.07-2.84,.09,6.86,.1,7.46-3.87,31.57-7.55,63.18-12.74,94.57-2.94,21.68-5.17,43.45-7.98,64.99-2.21,20.8-6.63,41.25-9.61,61.94-.74,5.14-1.51,10.28-2.14,15.45-.61,5.52-.14,14.3-8.15,13.19Z"/><path d="M234.85,431.98c-23.7-.41-46.85-2.64-67.13-16.13-5.03-3.36-18-13.2-17.01-19.48,.67-3.04,4.17-2.89,6.37-1.58,23.45,15.66,40.06,22.57,68.76,22.86,12.41,.57,25.26,1.13,37.53-.75,14.65-2.23,29.03-5.92,43.37-9.6,9.51-2.45,17.39-4.86,26.41-8.03,3.48-1.01,7.03-3.38,10.74-2.21,5.71,1.7,6.41,10.26,.98,12.83-17.11,6.75-35.07,11.05-52.87,15.59-18.71,4.51-37.83,7.77-57.14,6.51Z"/><path d="M181.77,154.66c1.98-22.26,14.44-43.35,11.68-66.06-.54-4.88-2.27-11.88-8.16-12.3-5.55,1.5-8.74,7.1-12.95,10.64-7.17,5.24-12.77,12.64-13.29,21.78-.66,4.89-.42,9.87-1.46,14.71-1.55,9.58-14.35,15.22-10.99,25.8,.41,2.29-2.21-.26-2.58-.99-4.36-5.05-4.25-12.35-1.03-17.97,1.49-3,4.16-5.38,4.95-8.72,1.53-12.87,.53-28.27,11.52-37.41,2-1.78,4.45-2.95,6.44-4.73,2.44-3.06,4.44-6.58,7.83-8.72,6.64-5.4,16.3-3.09,19.9,4.65,3.35,7.98,3.13,17.12,2.28,25.6-2.21,16.44-9.86,31.61-12.33,48-.25,1.93-.38,3.87-.41,5.81,0,.43-.33,.64-.67,.64-.37,0-.76-.25-.74-.73Z"/><path d="M229.32,161.89c-2.49-.21-1.97-3.03-1.56-4.67,.94-7.31,3.43-14.36,6.56-21.02,2.77-6.45,8.18-12.71,7.52-20.05-2.45-6.32-10.95-4.56-15.84-2.37-4.26,1.68-8.82,3.46-13.48,2.64-3.26-.83-6.26-1.7-9.52-.48-2.9,.91-5.72,2.06-8.49,3.3-1.59,1.12-3.74,.52-3.78-1.63,.64-5.62,7.81-9.83,12.81-11.27,3.39-.84,6.34,1.26,9.39,2.34,5.44-.02,10.66-3.08,16.23-2.84,6.33-.03,14.95,3.84,14.72,11.16-1.27,8.28-7.2,15.1-10.08,22.81-1.62,4.25-1.85,8.71-1.86,13.2-.46,2.51,.97,8.81-2.62,8.87Z"/><path d="M317.11,176.65c-58.36-3.02-117.11-3.07-175.01-11.72-10.43-2.69-24.64-4.04-29.61-15.06-3.86-11.86,26.32-23.37,34.97-20.23,3.85,3.33-24,13.54-26.81,17.74,6.8,4.32,15.37,4.59,23.12,5.98,7.61,.88,15.24,1.37,22.88,1.92,27.11,2,54.27,3.27,81.42,4.59,18.33,.34,36.62,1.82,54.95,2.05,10.64,.48,21.3,1.39,31.94,.23,10.45-1.2,20.88-2.46,31.05-5.12,2.81-.8,5.76-1.6,7.87-3.75,.84-1.25-1.48-2.56-2.13-3.55-4.45-4.61-10.15-7.42-16.07-9.66-10.96-4.89-22.92-7.09-34.7-8.64-20.35-2.97-40.45-4.49-60.95-4.81-3.83-.07-7.66-.44-11.48-.27-2.99,.49-6.87,.29-7.18-3.54-.23-3.54,3.41-4.8,6.37-4.21,3.6-.17,7.19-.47,10.8-.35,16.91-.28,33.87,3.11,50.46,5.42,23.26,2.8,48.3,3.38,68.89,15.78,10.52,6.24,14.43,18.21,3.14,26.1-8.23,5.66-18.69,6.65-28.3,8.38-11.79,1.76-23.67,3.26-35.61,2.7Z"/><path d="M263.66,208.7c-18.14-.35-36.26-1.14-54.34-2.51-29.37-1.99-60.95-3.82-86.35-20.09-1.07-.87-2.32-1.65-3.21-2.72-.34-.54,.46-1.1,.81-.59,3.92,3.81,9.63,5.47,14.66,6.95,7.41,1.94,14.97,3.42,22.23,4.32,37.66,2.66,75.46,7.71,113.27,4.56,22.23-2.3,44.26-5.3,66.41-7.55,6.07-.58,11.8-2.59,17.65-4.13,7.54-1.75,13.83-2.26,20.83-4.73,5.35-1.01,8.12,6.37,3.16,9.01-12.79,4.28-25.38,9.76-38.75,12.1-14.42,2.63-29.14,2.71-43.7,4.12-10.85,.94-21.76,1.35-32.66,1.24Z"/><path d="M366.54,276.74c-.71-.14-1.21-.85-1.05-1.56,2.02-8.92,3.32-17.91,4.24-26.92-1.38,6.06-2.74,12.13-4.19,18.17-.14,1.84-2.13,2.53-2.52,.55-.52,1.27-.41,3.69-2.19,3.71-.66-.08-1.07-.62-.98-1.28,2.13-8.57,4.01-17.24,6.07-25.84,4.36-21.19,7.04-42.66,9.01-64.19,.61-5.07,.33-10.21,.62-15.3,.07-1.93,.07-4.7,2.43-5.16,1.64-.35,2.78,1.22,2.68,2.74,.69-3.2,1.41-6.39,2.28-9.53,.24-.73,.6-1.5,1.32-1.86,.2-.64,.23-1.39,.64-1.93,1.1-.73,.99,1.12,.82,1.74,2,.58,1.58,2.97,1.31,4.56-.46,3.26-1.04,6.52-1.66,9.75-1.76,6.97-1.81,14.14-2.95,21.2-1.57,9.4-5.24,18.35-6.38,27.81-.85,15.59-1.95,31.16-4.36,46.59-.79,5.37-2.12,10.64-3.59,15.86-.17,.64-.89,1.02-1.52,.89Z"/><path d="M187.97,196.58c-1.69-9.21-6.16-18.08-5.02-27.65-.4-.07-.52-.65-.19-.88,.24-.43,.84-.8,1.17-.24,.19,.61-.03,1.28-.03,1.91-.87,9.22,3.46,17.76,5.06,26.66,.13,.62-.86,.84-.98,.2Z"/><path d="M231.86,364.37c-1.11-.38-1.59-1.52-1.3-2.59,.91-3.54,1.81-7.13,1.43-10.8-.92-5.11-4.49-9.12-6.89-13.58-5.48-8.98-9.2-18.72-12.4-28.67-3.06-7.31-8.92-13-11.66-20.47-2.19-5.47-3.69-11.26-4.19-17.13-.38-5.04,1.09-10.22-.23-15.2-2.12-6.42-6.04-12.21-7.19-18.98-3.75-11.82,6.71-23.85,.56-35.13-.21-.61,.73-.94,.95-.33,.06,.17,.12,.33,.18,.5,2.31,4.24,2.42,9.36,1.26,13.96-5.67,17.53-1.51,23.97,5.75,39.37,1.49,4.3,.84,9.04,.79,13.5,.13,7.28,2,14.55,4.73,21.17,2.17,5.31,6.27,9.34,9.57,13.94,3.1,4.42,6.53,8.59,9.98,12.74,8.47,9.82,16.2,21.9,14.36,35.45-.53,3.88-1.69,7.58-3.21,11.2-.39,.93-1.56,1.36-2.49,1.05Z"/><path d="M203.34,383.24c-14.17-1.36-20.89-11.23-29.47-21.07-9.59-9.19-18.17-19.56-23.84-31.66-.73-1.42-1.22-2.87-1.68-4.34-.22-.6,.73-.94,.94-.33,2.36,5.05,5.89,9.7,9.13,14.05,5.86,7.85,14.15,12.94,21.64,19.01,5.21,4.23,9.92,9.28,16.15,12.01,8.65,2.7,18.51,4.5,27.29,1.53,3.46-1.55,5.37-5.12,6.88-8.41,2.68-5.41,10.85-1.5,8.32,4.01-5.88,13.36-21.96,17.65-35.36,15.19Z"/><path d="M251.64,374.94c-6.06-1.49-12.91-4.52-16.14-10.1-.22-.61,.73-.94,.95-.33,.13,.51,.49,.93,.91,1.23,21.35,13.19,33.17,3.42,33.87-20.07,.4-16.28-11.59-28.4-19.07-41.75-9.08-16.36-15.13-34.72-18.27-53.1-.71-16.71-3.8-32.97-7.9-49.11-2.05-8.67-5.03-17.42-4.18-26.44,.06-.56,.52-1.01,1.1-.97,.57,.04,.99,.54,.97,1.1-.14,1.71,.06,3.42,.26,5.11,2.74,14.34,10.05,27.31,11.12,42.22,1.93,9.61,.51,19.65,1.64,29.27,1.94,12.86,7.13,24.69,12.95,36.17,9.86,18.2,22.87,36.07,24.14,57.4,1.08,13.51-5.19,33.69-22.34,29.37Z"/><path d="M225.92,187.04c-2.88-5.47-2.35-12.26-.75-18.08,.85-3.07,1.66-6.14,2.27-9.26,.05-.27,.31-.45,.59-.4,.27,.05,.45,.32,.39,.59-.27,1.36-.56,2.72-.89,4.07,.69-.89,4.23-11.39,5.27-8.38-.05,.43-.36,.84-.75,.97-4.63,9.08-8.83,19.17-5.5,29.36,.25,.52,.13,1.51-.64,1.13Z"/><path d="M151.47,275.99c.05-.91,.82-1.48,1.69-1.48s1.54,.87,1.48,1.69c-.05,.91-.82,1.48-1.69,1.48s-1.54-.87-1.48-1.69Z"/><path d="M164.31,254.44c.05-.71,.65-1.17,1.33-1.17s1.22,.68,1.17,1.33c-.05,.71-.65,1.17-1.33,1.17s-1.22-.68-1.17-1.33Z"/><path d="M139.4,254.48c.02-.38,.34-.61,.69-.61s.63,.35,.61,.69c-.02,.38-.34,.61-.69,.61s-.63-.35-.61-.69Z"/><path d="M237.69,413.39c-18.68-2.65-37.03-7.44-55.27-12.17-4.84-1.37-9.39-3.6-13.84-5.88-3.49-1.86-8.42-2.85-9.23-7.4-1.77-1.67-3.14-.98-5.16-.17-.61,.21-.94-.73-.34-.95,1.04-.37,2.09-.74,3.14-1.1,.59-.98,1.52-1.72,2.68-1.92,4.86-9.87,15.5,.16,22.25,2.42,5.84,2.25,11.31,3.39,17.22,4.87,24.59,4.53,50.04,6.27,74.93,3.41,15.45-2.34,29.5-6.27,44-10.91,3.59-1.15,7.05-3,10.79-3.57,7.38-.68,10.35,9.93,3.66,13.21-30.25,11.27-61.97,23.17-94.82,20.16Z"/><path d="M287.83,368.04c-3.72-3-3.05-9.31,1.2-11.5-6.02-2.56-5.02-12.06,1.5-13.15,7.71-.69,15.37-2.11,22.66-4.76-6.79-.76-13.57-1.72-20.25-3.16-4.67-1.44-12.14-.91-13.26-6.96-.76-3.97,2.87-7.71,6.85-7.21,10.26,1.7,21.11,3.25,31.48,1.91,7.07-1.16,13.98-3.27,20.93-4.94,.75-.18,1.63-.47,2.35-.09v.02c2.43,1.62-8.1,6.14-9.4,7.22,2.39-.21,4.72-.75,7.06-1.25,4.67-1.26,9.95,2.33,9.57,7.36-1.15,7.77-10.25,10.68-16.28,14.06,5.95-.19,9.83,7.14,5.8,11.74-5.42,6.71-43.38,16.15-50.2,10.69Z"/><path d="M170.48,301.4c.05-1.41,1.23-2.45,2.62-2.45s2.49,1.27,2.45,2.62c-.05,1.41-1.23,2.45-2.62,2.45s-2.49-1.27-2.45-2.62Z"/><path d="M149.93,245.44c.02-.68,.59-1.17,1.25-1.17s1.19,.61,1.17,1.25c-.02,.68-.59,1.17-1.25,1.17s-1.19-.61-1.17-1.25Z"/><path d="M152.31,215.72c.05-1.18,1.03-2.04,2.18-2.04s2.08,1.06,2.04,2.18c-.05,1.18-1.03,2.04-2.18,2.04s-2.08-1.06-2.04-2.18Z"/><path d="M190.66,327.41c.07-1.86,1.63-3.22,3.45-3.22s3.28,1.68,3.22,3.45c-.07,1.86-1.63,3.22-3.45,3.22s-3.28-1.68-3.22-3.45Z"/><path d="M273.67,258.43c-.28,0-.47-.24-.48-.52-.06-5.87-.45-11.6-.8-17.43-.48-1.22-1.98-35.44,1.77-27.3h0s-.02-.03-.03-.03c.61,.55-.46,1.33-.82,.55-1.56,11.29-.07,22.65,.52,33.95,.26,3.42,.29,6.86,.38,10.29,0,.27-.26,.49-.52,.48Z"/><path d="M268.95,287.62c-5.5-.47-10.22-3.95-14.45-7.27-3.8-3.48-8.48-5.82-12.15-9.44-.58-.68-1.67-1.16-1.84-2.08,0-.63,1.08-.64,1.07-.02,3,3.15,6.57,5.46,10.14,7.89,3.44,2.72,16.79,14.17,20.14,8.19,2.81-5.92,1.27-12.77,1.14-19.06-.34-4.96-.31-9.81-.74-14.72-.7-13.09-.43-26.32-.66-39.37,.12-1.13,1.27-1.96,2.36-1.92,2.34,.12,2.35,2.57,2.2,4.34,1.67,16.32,.16,32.71-.97,49-.94,5.69,1.73,24.27-6.24,24.45Z"/><path d="M272.24,286.97c-.71-.18-1.55-.47-1.98-1.07-.22-.52,.46-.85,.79-.55,5.42,3.16,14.7-6.77,19.2-9.64,11.21-7.52,21.31-16.53,32.16-24.39,1.49-.99,3.41-1.4,4.67-2.68,1.8-3.15,2.13-6.84,3.07-10.27,1.66-9.39,3.94-18.67,5.78-28.02,.53-2.41,1.32-4.74,1.98-7.12,.17-.62,1.12-.32,.95,.3-.58,2.13-1.25,4.22-1.79,6.33-1.64,8.03-3.45,16.03-5.09,24.05-1.9,6.43-.37,15.49-6.26,19.8-5.33,4.82-10.02,10.41-16.13,14.3-5.94,4.31-12.6,7.4-18.9,11.12-5.72,3.24-11.51,8.36-18.46,7.85Z"/><path d="M329.55,167.08c-19.63-6.44-39.79-10.66-59.88-15.05-12.43-3.85-23.95,3.76-35.74,6.62-2.65,.69-5.39,.94-7.93,1.97-.56,.07-.77-.84-.22-.97,9.85-3.96,17.94-11.37,27.95-15.07,12.14-4.44,27.3,.43,39.1,4.42,12.39,3.72,24.22,8.74,35.82,14.38,1.26,.51,3.4,.83,2.89,2.67-.26,.84-1.18,1.27-1.98,1.03Z"/><path d="M277.54,203.75c-3.87-1.27-7.2-3.91-10.97-5.52-5.64-2.58-11.27-5.21-16.62-8.35-9.34-5.37-17.64-13.2-27.69-17.1h0c.17,.75-1.08,.8-1,.07,0-.23-.05-.52,.13-.71,2.07-1.99,13.43,6.9,16.28,8.29,11.06,8.66,23.87,14.11,36.24,20.53,1.49,.63,3.07,2.33,4.74,1.54,14.62-9.65,25.93-23.62,40.07-33.97,.5-.37,1.13,.45,.58,.82-5.14,4.17-10.3,8.27-15.18,12.72-5.7,5.63-11.72,10.91-17.8,16.13-2.7,2.05-5.31,5.03-8.77,5.55Z"/><path d="M144.33,176.33c.06-1.84,1.61-3.18,3.4-3.18s3.24,1.66,3.18,3.4c-.06,1.84-1.61,3.18-3.4,3.18s-3.24-1.66-3.18-3.4Z"/><path d="M167.9,130.44c.03-.95,.84-1.64,1.77-1.64s1.67,.86,1.64,1.77c-.03,.95-.84,1.64-1.77,1.64s-1.67-.86-1.64-1.77Z"/><path d="M173.66,104.21c.02-.55,.48-.95,1.02-.95s.97,.5,.95,1.02c-.02,.55-.48,.95-1.02,.95s-.97-.5-.95-1.02Z"/><path d="M180.63,90.13c.03-1.02,.88-1.75,1.88-1.75s1.79,.91,1.75,1.88c-.03,1.02-.88,1.75-1.88,1.75s-1.79-.91-1.75-1.88Z"/><path d="M152.61,292.35c.03-.95,.83-1.64,1.75-1.64s1.68,.85,1.64,1.75c-.03,.95-.83,1.64-1.75,1.64s-1.68-.85-1.64-1.75Z"/><path d="M146.86,264.32c.05-1.33,1.16-2.29,2.45-2.29s2.34,1.2,2.29,2.45c-.05,1.33-1.16,2.29-2.45,2.29s-2.34-1.2-2.29-2.45Z"/><path d="M168.83,231.7c.02-.63,.55-1.09,1.17-1.09s1.12,.57,1.09,1.17c-.02,.63-.55,1.09-1.17,1.09s-1.12-.57-1.09-1.17Z"/><path d="M192.62,306.06c.04-.99,.87-1.71,1.84-1.71s1.74,.89,1.71,1.84c-.04,.99-.87,1.71-1.84,1.71s-1.74-.89-1.71-1.84Z"/><path d="M206.59,364.96c.06-1.88,1.64-3.23,3.47-3.23s3.3,1.69,3.23,3.47c-.06,1.88-1.64,3.23-3.47,3.23s-3.3-1.69-3.23-3.47Z"/><path d="M175.64,342.48c.08-2.27,1.98-3.91,4.19-3.91s3.98,2.04,3.91,4.19c-.08,2.27-1.98,3.91-4.19,3.91s-3.98-2.04-3.91-4.19Z"/><path d="M320.55,320.32c-9.57-.02-18.93-2.2-27.92-5.36-2.93-1.19-6.18-2.11-8.66-4.13-.35-.39-.49-.69-.55-1.21-.44-.99,1.52-1.67,1.29-.4,12.92,2.58,25.55,4.49,38.49,2.58,4.75-.88,9.37-2.3,14.01-3.63,1.23-.36,2.7-.03,3.75,.65,3.6,2.17,2.57,8.01-1.53,8.88-6.17,1.55-12.49,2.7-18.87,2.61Z"/><path d="M227.58,164.8c-8.79-12.77,.27-32.47,10.81-41.67,9.73-6.42,21.89-3.15,32.44-.96,2.28,.38,4.58,.59,6.88,.83,.64,.07,.47,1.05-.17,.98-10.79-.98-24.05-4.74-32.33,4.46-2.67,4.51-4.14,9.65-7.05,14.05-3.65,6.17-7.87,12-10.45,18.73-.42,.8-.16,1.65,.3,2.36,.27,.43,.66,.86,.56,1.39-.1,.63-1.09,.48-.98-.16Z"/><path d="M236.36,369.08c-.27-.09-.4-.37-.32-.63,.21-.68,.3-1.31,.39-2.01-2.29,.78-.4-5.99-.61-7.21-.25,1.05-1.71,11.86-3.3,9.49,.06-3.75,1-7.5,1.56-11.22,.16-.7,.3-1.81,1.21-1.82,.47-2.9,.47-5.87,.28-8.77-1.19-4.35-2.45-8.66-4.25-12.78,.57-4.81,5.3,12.88,5.59,13.73,1.85-.02,1.34,8.09,1.45,9.73,.31,3.79-.08,7.6-1.37,11.17-.07,.27-.38,.41-.63,.33Zm.55-9.2c.04,.44,.07,.88,.09,1.32,0-.11,.01-.21,.02-.32,0-.55-.02-1.09-.03-1.64v.09c0-.13-.01-.26-.02-.39-.04,.31-.12,.62-.06,.94Zm-.66-3.23v.03c.03-.14,.04-.28,.05-.42v.06c.06-.69,.11-1.37,.15-2.06-.08,.76-.17,1.51-.26,2.26,.02,.04,.04,.08,.05,.12Z"/><path d="M216.13,282.67c0-.28,.24-.48,.52-.48s.49,.25,.48,.52c0,.28-.24,.48-.52,.48s-.49-.25-.48-.52Z"/><path d="M210.21,250.16c.05-1.61,1.41-2.78,2.98-2.78s2.84,1.45,2.78,2.98c-.05,1.61-1.41,2.78-2.98,2.78s-2.84-1.45-2.78-2.98Z"/><path d="M217.88,284.36c.03-1.01,.88-1.74,1.87-1.74s1.77,.91,1.74,1.87c-.03,1.01-.88,1.74-1.87,1.74s-1.77-.91-1.74-1.87Z"/><path d="M208.07,273.8c.05-1.3,1.14-2.25,2.41-2.25s2.3,1.17,2.25,2.41c-.05,1.3-1.14,2.25-2.41,2.25s-2.3-1.17-2.25-2.41Z"/><path d="M183.38,279.6c.02-.4,.34-.69,.73-.69s.7,.36,.69,.73c-.02,.4-.34,.69-.73,.69s-.7-.36-.69-.73Z"/><path d="M197.8,180.7c.09-2.35,2.06-4.07,4.37-4.07s4.15,2.12,4.07,4.37c-.09,2.35-2.06,4.07-4.37,4.07s-4.15-2.12-4.07-4.37Z"/><path d="M206.75,141.07c.06-1.79,1.56-3.09,3.3-3.09s3.14,1.61,3.09,3.3c-.06,1.79-1.56,3.09-3.3,3.09s-3.14-1.61-3.09-3.3Z"/><path d="M188.66,141.34c.05-1.46,1.27-2.52,2.7-2.52s2.57,1.31,2.52,2.7c-.05,1.46-1.27,2.52-2.7,2.52s-2.57-1.31-2.52-2.7Z"/><path d="M160.5,185.65c.06-1.79,1.56-3.09,3.3-3.09s3.15,1.61,3.09,3.3c-.06,1.79-1.56,3.09-3.3,3.09s-3.15-1.61-3.09-3.3Z"/><path d="M253.88,339.63c.04-1.08,.95-1.87,1.99-1.87s1.9,.98,1.87,1.99c-.04,1.08-.95,1.87-1.99,1.87s-1.9-.98-1.87-1.99Z"/><path d="M237.06,314.28c.08-2.15,1.88-3.71,3.98-3.71s3.78,1.94,3.71,3.98c-.08,2.15-1.88,3.71-3.98,3.71s-3.78-1.94-3.71-3.98Z"/><path d="M210.83,425.96c-13.15-.16-24.68-7-35.72-13.42-4.75-3.55-13.5-3.68-14.42-10.68-.18-7.82,7.63-9.52,13.31-5.68,5.91,1.46,11.97,2.28,17.99,3.2-11.77-3.73-23.73-7.54-33.72-15.04-3.15-2.52-7.76-5.32-7.6-9.85,.12-1.07,1.28-1.59,2.22-1.35,7.42,3.43,14.8,7.19,22.66,9.63,7.66,2.15,15.66,3.87,23.28,6,10.38,2.32,20.62,5.32,31.06,7.39,3.61,.97,7.84,.54,10.86,3,4.79,4.06,1.96,11.41-3.9,12.47,8.31,0,9.07,12.05,.84,13.06-9.03,.6-17.85,1.33-26.86,1.28Z"/><path d="M219.55,414.85c-7.69-.55-15.13-2.7-22.62-4.39-13.85-3.36-28.86-4.83-41.17-12.48-4.97-4.42,.4-12.07,6.32-9.03,6.73,3.75,15.01,3.65,22.49,5.31-13.06-6.48-25.35-15.32-32.47-28.35-.47-.04-.4-.57-.42-.93-.08-.61,.79-.72,.98-.19,3.77,6.75,8.69,13.03,15.07,17.41,5.79,4.16,12.25,7.61,18.38,11.16,1.01,.71,4.44,1.59,2.42,3.03,9.73,1.49,19.3,3.94,29.06,5.24,15.56,.59,31.03,.14,46.15-3.68,2.98-.62,6.03,.92,7.11,3.81,2.7,9.04-10.45,9.68-16.28,11.82-11.49,2.14-23.37,1.41-35.01,1.27Z"/><path d="M258.2,422.7c-6.04-.74-11.85-2.94-17.17-5.83-.7,.07-3.16-1.31-1.57-1.79,3.05,1.2,5.97,3.14,9.09,4.16,3.13,1.11,6.38,2.08,9.68,2.46,.64,.02,.62,1.04-.03,1Z"/><path d="M345.54,399.3c-1.77-.3-3.05-2.05-2.71-3.84,1.5-7.64,2.28-15.39,3.64-23.05,4.37-22.6,9.03-45.16,12.84-67.88,4.66-25.59,7.23-51.51,12.87-76.93,3.55-15.35,6.19-30.86,8.41-46.46,1.04-10.01,3.92-20.35,1.23-30.2-.23,.59-.29,1.23-.41,1.85-.11,.63-1.09,.47-.98-.17,.16-2.8,1.99-4.56,2.83-.44,2.74,18.54-.71,37.39-2.74,55.85-2.6,20.67-6.02,41.22-9.28,61.8-5.02,30.69-7.68,61.79-14.13,92.23-2.24,9.96-4.39,19.95-6.45,29.95-.76,2.88-1.12,7.79-5.13,7.29Z"/><path d="M312.4,307.98c-9.26-1.95-14.87-8.42-.9-7.27,9,.15,17.98-1.67,25.77-6.06,6.93-3.03,11.64,7.19,4.81,10.51-9.21,3.77-19.94,4.92-29.69,2.83Z"/><path d="M329.11,294.41c-1.89-.49-14.84-1.08-13.61-3.49,.39-.44,2-1.15,2-.09,7.84-.93,15.94-1.68,23.14-5.14,6.24-2.49,9.17,7.14,2.59,8.54-4.65,.83-9.44,.66-14.12,.19Z"/><path d="M294.2,259.13c-3.87-1.6-2.02-6.99-2.64-10.3-.89-11.42,2.59-23.11-1.7-34.14-.15-.3-.4-.69-.78-.5-.62,.21-.91-.79-.29-.95,.48-.2,.99-.1,1.38,.23,4.12,7.93,2.71,17.45,2.73,26.1,.25,5.52,.59,11.05,1.04,16.55,.18,.88,1.25,1.21,1.99,1.13,8.09-2.03,14.11-8.5,20.45-13.55,.45-.38,1.16-.31,1.54,.14,.39,.47,.31,1.16-.14,1.55-1.88,1.63-3.77,3.25-5.69,4.84-3.4,2.83-7,5.45-10.94,7.48-2.12,.99-4.6,2.25-6.96,1.41Z"/><path d="M266.16,374.05c-6.35-6.14,1.76-17.41,4.86-23.65-2.04-5.45,.52-12.02,7.1-11.41,.41-.62,.82-1.26,1.23-1.89,.2-.31,.41-.63,.62-.95-4.96-7.9-8.66-16.5-13.72-24.34-12.59-13.4,.16-19.95,13.57-20.84-.86-6.72,6.65-9.88,10.81-13.77,13.32-10.26,28.29-18.86,44.47-23.62,.77-1.01,1.55-2.02,2.32-3.03,4.02-9.12,8.09-18.23,12.57-27.12,2.01-9.33,2.38-19.5,6.6-28.12,3.73-5.71,12.77-2.16,12.77,4.3,.3,5.92-.78,11.81-1.65,17.65,.63,2.39-.16,4.84-.74,7.18,6.73,1.2,6.67,7.29,5.2,12.66-1.07,6.23-2.06,12.48-3.16,18.72-4.3,24.39-9.66,48.64-17.59,72.13-3.55,10.93-7.38,21.77-10.37,32.88-.47,2.07-.95,4.23-2.65,5.66-4.62,4.41-12.94-.23-11.43-6.51h0c2.58-10.97,3.25-22.18,4.95-33.29-1.79-3.36-1.46-7.38-1.28-11.05,.54-8.1,2.3-16.09,3.99-24.02-5.64,12.46-11.49,24.88-18.66,36.55-1.75,2.82-3.62,6.18-7.19,6.83-3.27,.7-6.88-1.09-8.42-4.01-.51,.73-1.02,1.48-1.52,2.22,2.4,4.07,6.45,7.83,6.52,12.8-.16,3.68-3.12,7.2-6.95,7.19,2.42,8.16-3.19,16.09-11.97,12.8-1.45,2.54-4.57,3.92-7.41,3.33-1.46,3.75-4.65,6.48-8.15,6.48-1.55,0-3.17-.54-4.72-1.76Zm27.78-59.19c0,.41,.02,.84,.03,1.25,2.31-1.88,5.63-2.21,8.26-.5,.3-.72,.6-1.43,.91-2.14-1.21,.05-2.45-.19-3.5-.71-.46-.23-.88-.5-1.27-.8-1.16,1.35-2.69,2.49-4.44,2.91Zm6.53-27.6c1.86-.26,2.9-1.62,4.07-2.96-1.37,.98-2.73,1.96-4.07,2.96Zm57.66-54.22c-.03,.98,.78,1.91,1.79,1.91s1.88-.76,1.91-1.79c.03-.98-.78-1.91-1.79-1.91s-1.88,.76-1.91,1.79Z"/><path d="M264.27,391.39c-1.44-.23-2.69-.95-3.65-1.95-7.59-.07-15.08-1.48-22.55-2.75-2.65-.63-11.97-1.51-8.5-5.87,8.59-2.36,18.02-.3,26.89-.96-3.36-2.85-2.89-8.56,.78-10.94,2.63-1.94,6.04-2.15,9.1-3,8.9-2.08,17.9-3.87,26.53-6.92-.32-1.5-.44-3.07-.27-4.6-10.63-8.89-2.66-24.8,2.66-34.66,4.55-7.91,13.27-24.27,23.34-13.33,4.35-6.53,8.07-19.78,17.49-19.38,2.4-7.66,4.46-15.4,6.66-23.12,1.17-3.5,1.64-7.56,4.62-10.07,7.81-5.55,13.45,2.86,11.99,10.5-3.19,30.22-15.13,58.68-20.02,88.57,8.84,6.5-.6,16.28-6.75,20.73-5.98,4.31-13.11,6.74-19.99,9.26-5.08,2.66-10.47,4.68-15.87,6.59-10.31,4.15-21.65,3.68-32.44,1.91Zm47.75-43.01c1-.83,1.97-1.69,2.92-2.58-.44-.86-.71-1.81-.76-2.78-.7,1.79-1.42,3.58-2.16,5.36Z"/><path d="M163.75,371.4c-.26-.24-.5-.48-.73-.74-3.49,.38-6.26-2.53-8.43-4.91-3.66-3.52-6.1-9.8-1-13.25-2.1-4.52,1.7-3.83,3.73-1.05,.34,0,.68,.02,1.01,.06,5.52-6.51,13.76-.1,18.09,4.6,5.61,3.23,3.66,12.11-2.73,12.69-1.3,4.02-6.84,5.49-9.93,2.59Zm-9.27-19.36c.14-.06,.29-.11,.43-.16-.22-.34-.46-.68-.71-1.01-.07-.07-.15-.15-.23-.21v.07c.04,.14,.08,.28,.11,.42,0-.02,0-.03-.01-.05,.05,.14,.11,.28,.17,.42-.02-.02-.02-.04-.03-.05,.09,.19,.18,.38,.26,.58Z"/><path d="M234.35,393.5c-6.24-5.28-5.51-15.92,1.48-20.2,6.79-5.06,15.01,.29,22.58-1.11,11.43-2.83,14.2-15.82,13.99-26.11,.05-8.22-2.15-16.23-5.72-23.57-3.05-3.48-5.99-7.04-8.86-10.67-4.21-5.21-7.99-10.74-11.48-16.46-1.76-2.66-3.64-5.52-2.95-8.87,.85-5.29,7.76-7.87,12.01-4.75,3.08,2.43,4.12,5.52,8.19,5.76,10.12,.8,20.49-3.77,30.38,0,1.2,.27,3.04,.73,2.94,2.28-.07,1-1.62,.85-1.5-.14h0c-1.55-1.16-3.58-.55-5.28-.13-7.11,2.26-13.7,6.08-21.01,7.7,.71,.71,1.41,1.42,2.12,2.13,5.71,1.03,7.48,7.41,10.7,11.38,5.44,6.16,13.18,17.87,2.8,23.28,.5,7.49,3.08,15.1,1.75,22.58l-.02-.02c-.2,.99-.71,1.93-1.48,2.61-.85,.75-1.9,1.13-2.94,1.15-3.2,15.89-14.85,30.56-30.71,35.11-5.65,1.94-12.32,2.5-16.98-1.98Z"/><path d="M316.93,280.66c-1.44-1.26-1.87-3.23-1.28-4.94l-.03,.02c4.86-18.82,9.03-38.1,17.14-55.86,.45-5.95,1.08-11.88,1.9-17.79,.48-3.52,1.54-7.79,5.23-9.17,2.21-.84,4.85,.17,6.06,2.16,2.14-1.29,4.9-.54,6.65,1.08,11.37-9.05,7.35,14.31,6.81,19.74-.12,1.08-.98,1.94-2.12,1.87-1.06-.06-1.98-1.03-1.87-2.12,.39-4.95,1.02-9.82,.67-14.72-.33,.39-.68,.76-1.06,1.1-.53,.47-1.18,.81-1.87,.98,0,.9-.04,1.81-.13,2.71,.44,.33,.85,.72,.93,1.27,.1,.72-.7,1.07-1.16,.8l-.02,.12c-.12,.86-.24,1.73-.37,2.59,4.84,2.13,.34,17.75-.09,22.32-.94,4.81-1.9,9.64-3.16,14.38-.34,2.65-3.28,4.67-4.97,1.79-1.44,3.59-1.87,17.47-7.93,14.4-.76,.88-1.9,1.41-3.11,1.33-1.02-.06-1.94-.55-2.58-1.28-2.51,4.97-5.42,23.07-13.65,17.25Zm29.6-39.07c.37-1.93,.7-3.87,1.05-5.8,.42-2.31,.82-4.62,1.2-6.94-.71,4.24-2.54,8.41-2.25,12.74Z"/></svg>