<?xml version="1.0" encoding="UTF-8"?><svg id="Ebene_1" xmlns="http://www.w3.org/2000/svg" viewBox="0 0 500 500"><path d="M160.93,43.59c-1.99-1.98-1.17-5.32-1.99-7.85-1.02-4.92-1.96-9.86-2.36-14.87-.01-.44-.02-1.05,.29-1.41,1.88-1.66,3.66,2.43,4.39,3.76,1.71,3.28,9.01,24.71-.33,20.38Z"/><path d="M170.29,48.67c-2.19-2.05-.94-5.62-1.84-8.28-1.47-6.28-5.09-11.9-8.68-17.17-.52-.1-.8-.95-.28-1.22,2.2-.78,4.84,2.61,6.15,3.93,5.17,5.34,8.1,12.18,9.65,19.36,.91,2.82-2.74,5.26-5.01,3.37Z"/><path d="M180.05,110.03c-1.98-.08-3.88-1.31-5.83-1.2h0c.09,.7-.93,.95-.94,.16,.09-.77,.5-1.04,1.21-1.14,7.63-1.22,15.44-3.28,22.34-6.82,4.19-3.03,6.31-8.02,7.37-12.92,1.51-5.02-.23-10.31-3.47-14.2-2.08,7.6-3.23,16.62-9.83,21.78-6.44,5.22-19.87,5.06-22.2-4.34-.55-3.36,.73-6.66,1.82-9.79,3.13-7.22,7.84-14.09,14.62-18.29,6.34-3.88,15.71-4.53,20.71,1.8,6.44,10.57,4.03,24.85-1.51,35.33-4.58,8.43-15.62,9.74-24.3,9.63Zm1.47-15.4c5.74-.05,9.72-5.02,11.06-10.1,1.15-4.3,2.72-8.64,2.59-13.14-5.28-1.65-11.2,.77-15.15,4.38-7.21,5.95-13.38,19.69,1.49,18.86Z"/><path d="M170.69,104.43c-8.62-2.6-15.21-10.49-17.68-18.91-1.67-11.39,7.65-22.67,17.23-27.77,9.88-4.55,22.04-5.73,26.49,6.4,.18,.37,.29,.71,.24,1.12-.2,.72-1.08,.32-.89-.34v.06c-2.19-4.93-10.15-5.34-14.79-4.46-7.03,.93-13.35,4.19-18.02,9.49-3.07,4.08-6.43,9.14-5.84,14.46,2.31,8.63,10.76,16.3,20.01,15.79,10.75-1.02,18.05-10.89,22.18-20.04,1.11-3.79,1.92-7.22,2.2-11.02-.22-1.22,.84-2.36,2.05-2.36,1.72,0,2.47,1.82,1.86,3.27-.96,16.92-15.77,39.63-35.03,34.32Z"/><path d="M174.22,109.48c-1.82-1.22,.14-3.16,1.06-4.3,1.26-1.27,2.05-3.19,3.63-4.07,.16-.04,.37-.01,.53,.03,.76,.14,.79,1.49-.1,1.15-.87,1.75-2.47,8.6-5.12,7.2Z"/><path d="M151.59,84.08c-13.79-11.15-5.17-31.11,10.62-34.33,6.4-.75,14,.8,18.3,5.88,.79-.02,.62,1.15-.15,.89-4.92,.5-9.86-.08-14.81,0-11.47,.95-21.35,13.56-12.34,23.54,1.01,.94,2.25,2.3,1.16,3.67-.63,.83-1.97,1.06-2.78,.36Z"/><path d="M142.02,90.6c-17.68-6.55-16.91-31.04-4.09-42.08,8.78-7.26,23.92-7.18,33.72-2.02,3.92,1.64,7.35,4.19,10.67,6.81,2.07,1.84,6.59,3.98,4.3,7.26-2.94,3.27-7.23-1.82-10.22-2.98-4.92-2.78-9.97-6.16-15.69-6.82-4.89-.06-10.27-.15-14.49,2.67-9.55,7.21-10.42,22.8-.59,30.17,2.9,2.5,6.36,4.12,9.83,5.63,.39,.18,.99,.36,1.16,.79,.16,.35-.15,.67-.43,.87-4.34,2.61-9.72,1.31-14.19-.31Z"/><path d="M203.15,69.99c-1.57-1.44-2.68-3.37-4.33-4.7-2.87-2.54-6.43-4.1-10.1-5.06-4.32-.8-8.78-2.56-13.15-1.62-.34,.1-.66,.29-.96,.46-.5,.29-.95-.5-.44-.78,2.98-1.67,6.59-.62,9.75-.04,4.61,.9,9.34,1.97,13.28,4.66-5.77-4.52-13.02-6.41-19.93-8.49-.45-.12-1.36-.32-.96-.95,10.59-1.09,22.85,5.1,27.27,15.12,.34,.49,.51,1.71-.43,1.39Zm-1.75-3.35c.16,.18,.32,.36,.47,.55-.1-.18-.2-.37-.31-.55-.12-.2-.25-.41-.37-.62,0,.01,.02,.04,.03,.05-.14-.22-.29-.44-.44-.66-.14,.04-.29,.02-.42-.07-.29-.21-.58-.43-.87-.65,.68,.6,1.31,1.28,1.91,1.96Zm-21.64-12.43c6.79,2.03,13.69,4.25,19.19,8.9-4.92-5.34-12.15-8.26-19.27-8.93l.08,.02Z"/><path d="M168.05,110.1c-7.68-.39-15.49-1.09-22.84-3.38-9.02-3.77-13.06-13.67-3.98-20.1,3.33-2.45,14.07-10.36,17.16-4.98,2.14,4.35-2.59,5.74-5.46,7.55-2.1,1.77-4.8,3.42-5.93,5.99-.14,4.72,5.89,6.23,9.64,6.93,12.13,1.81,24.41,.82,36.56,.3,28.68-.19,57.36-3.23,86.04-.65,9.46,.02,18.83,1.42,28.29,1.46,9.21-.1,18.37-.68,27.53-1.6,5.58-.62,11.12-1.53,16.51-2.5,5.08-.91,10.51-2.34,13.97-6.42-10.66-3.26-22.49-1.54-33.54-2.17-12.38-.21-24.74-1.06-37.09-1.83-14.12-1.37-28.22-3.21-42.41-3.7-13.75-.33-27.86,.11-41.36-2.5-3.73-2.24,18.15-2.43,19.37-2.36,11.79,.13,23.09-1.94,34.83-1.63,15.52,.26,31,1.35,46.53,1.03,15.22,.54,30.69,.41,45.51,4.38,3.76,1.15,12.14,4.29,11.29,9.03-2.81,4.48-8.55,6.29-13.44,7.49-31.07,6.27-62.86,6.5-94.39,7.35-30.88,1.81-61.84,3.05-92.78,2.31Z"/><path d="M171.36,459.6c-6.07-4.34,14.37-11.09,17.14-13.06,9.46-5.22,20.68-7.11,29.19-13.96,7.14-5.94,11.08-14.54,14.73-22.82,2.36-6.17,3.2-12.71,4.5-19.14,2.25-9.27,2.63-18.81,2.98-28.31,1.23-24.76,.62-49.57-.94-74.29-.33-6.42-1.5-12.71-2.66-19.02-1.54-11.31-2.22-22.79-2.84-34.16-.55-5.36-1.48-10.52-2.55-15.77-.25-1.18,.46-2.38,1.66-2.65,1.2-.27,2.35,.49,2.65,1.66,1.36,5.29,2.42,10.67,3.06,16.1,1.01,15.15,2.74,30.23,4.59,45.3,1.75,26.02,1.69,52.14,.27,78.16-.47,17.82-1.61,35.8-6.38,53.06-4.38,14.72-13.31,28.42-27.69,34.9-9.22,4.3-17.85,10.04-28,11.96-3.24,.57-6.39,2.46-9.71,2.05Z"/><path d="M332.65,464.76c-8.61-7.83-19.93-11.28-29.78-17.07-27.43-17.45-32.96-32.45-36.03-63.68-1.53-18.53-3.06-37.06-4.37-55.61-1.05-18.64-1.84-37.64,1.74-56.06,3.55-17.99,10.47-34.92,17.04-51.95,1.1-2.39,4.57-11.5,6.6-10.15,.33,.49-.18,1.56-.76,.94-5.88,8.74-8.29,19.24-12.18,28.93-5.33,15.42-9.61,31.56-10.38,47.9-.35,22.51,1.69,44.89,4.11,67.23,1.07,12.95,2.21,26.07,5.11,38.66,4.58,24.26,16.03,37.42,38.76,46.84,5.96,2.82,33.93,15.87,26.18,23.82-1.61,1.51-4.34,1.71-6.03,.2Z"/><path d="M262.11,277.06c.49-9.42,5.06-18.74,7.64-27.8,2.81-9.62,6.12-19.1,10.64-28.06,5.17-11.13,17.36-15.94,27.08-22.32,13.47-9.08,27.96-17.5,38.2-30.39,9.82-14.95,14.09-33.12,14.27-50.87,.53-5.06-3.39-14.23,3.25-16.08,2.7-.63,5.36,1.11,6.03,3.76,5.9,22.22-.04,46.65-12.56,65.56-10.6,13.72-27,21.34-41.98,29.29-9.73,5.81-21.35,9-29.84,16.63-6.54,8.01-9.52,18.28-12.71,27.95-2.79,8.99-6,17.89-8.47,26.97-.32,1.7-.78,3.44-.65,5.17,.12,.57-.75,.76-.88,.2Z"/><path d="M232.45,233.38c-3.57-6.84-6.03-14.57-11.22-20.39-9.48-5.16-19.97-8.47-29.23-14.18-15.52-9.03-30.31-20.49-40.84-35.16-3.94-6.37-5.75-13.69-6.57-21.07-1.66-11.39-3.39-22.77-4.2-34.26-.51-6.37-1.31-12.68-2.73-18.9-.04-.25,.21-.52,.47-.49,.26,.01,.4,.22,.47,.46,4.29,18.4,9.16,37.53,14.46,55.57,2.12,7.33,6.18,13.95,11.97,18.95,9.42,9.17,20.04,17.12,31.52,23.54,12.39,7.61,30.01,10.35,36.02,25.19,2.59,5.77,4.62,11.79,6.68,17.78,.54,1.76-.2,3.71-1.9,4.53-1.72,.83-4.06,.21-4.92-1.57Z"/><path d="M259.85,446.95c-9.43-.95-20.99-.9-28.36-7.57-1.16-.75-3.23-4.18-.56-3.95,14.66,3.43,31.15,3.99,44.64-3.64,4.34-2.48,9.87,2.04,8.24,6.78-2.2,6.26-17.95,8.15-23.96,8.38Z"/><path d="M253.12,433.16c-1.88-.36-4.77-.49-5.61-2.51-.18-1.04,1.24-1.23,1.94-1.43,.28-.08,.49-.13,.72-.22,.38-.16,.86,.32,.52,.7-.39,.32-.95,.33-1.41,.5,9.51-.45,18.01-4.17,26.73-7.26,6.38-2.17,9.29,7.44,2.78,9.18-8.46,1.13-17.14,1.76-25.67,1.03Z"/><path d="M237.84,480.76c-6-.11-11.89-1.2-17.79-2.17-7.46-1.1-15.03-1.34-22.43-2.9-6.87-1.92-15.12-1.63-20.95-6.03-2.34-2.86-4.79-6.85-5.31-10.52,.43-2.96,1.31-6.41,4.11-7.97,.82-.44,2.21-.49,2.47,.61,.13,.56-.75,.77-.88,.2,.02-.1-.09-.17-.17-.17-.34-.08-.69,.04-.99,.15-2.55,1.47-3.5,4.85-3.39,7.61,1.29,3.31,3.23,6.78,6.17,8.78,5.03,2.12,10.56,1.57,15.83,2.39,12.67,1.31,25.44,.93,38.14,1.79,17.55-.66,34.93-3.37,52.39-5.09,12.42-1.66,25.47-.55,37.48-4.46,4.72-1.69,7.56,5.3,2.76,7.28-13.88,4.61-28.66,5.65-43.07,7.75-14.73,1.82-29.51,3.44-44.37,2.72Z"/><path d="M229.85,466.81c-15.27-.12-37.86-3.25-50.06-12.7-.02-.9,1.28-.63,1.86-.89,.24-.06,.49,.1,.54,.34,.11,.59-.63,.58-1.03,.69,11.18,7.28,24.71,9.47,37.78,10.46,12.53,.34,24.88-1.88,37.29-3.26,10.75-.5,21.42-1.62,32.08-3.09,.99-.13,1.7,1.18,1.03,1.93-9.96,2.53-20.65,3.27-30.97,4.01-9.5,.91-18.92,2.98-28.51,2.51Z"/><path d="M235.88,236.06c-1.23-.03-1.47-1.58-1.2-2.55,2.21-5.63,8.62-8.28,13.61-11.05,5.76-2.74,12.64-1.93,18.17,.98,2.16,1.12,5.54,3.01,3.83,5.86-2.02,3.01-5.1,.19-7.3-1.03-5.14-2.86-11.3-2.27-16.51,.07-3.74,1.75-8.59,2.97-10.76,6.75h0s.04,.03,.07,.04c.88-1.07,1.35,.93,.09,.92Z"/><path d="M239.69,210.68c-9.93-.91-20.34-3.36-28.84-8.59-4.27-2.12-8.64-4.24-12.19-7.42-.29-.21-.61-.37-.97-.34,.07,.44-.59,.74-.84,.28-.41-.92,.71-1.37,1.46-1.11,10.59,.43,20.39,5.15,30.91,6.07,16.86,2.44,33.47-1.5,50.26-2.54,4.41-.5,7.5,4.96,4.6,8.42-.9,1.14-2.15,1.72-3.55,1.94-3.53,.56-7.06,1.15-10.6,1.65-10.02,1.35-20.15,2.8-30.26,1.64Z"/><path d="M227.54,138.51c-23.39-.47-46.71-2.42-69.62-7.27-4.62-.68-6.29-7.06-2.39-9.79,1.21-.89,2.63-1.16,4.1-1,8.85,.94,17.66,2.13,26.49,3.33,28.32,3.38,56.91,3.77,85.35,2,25.79-1.3,51.29-2.46,76.63-8.03,7.06-1.71,14.11-3.79,20.64-7.02,.51-.28,.94,.51,.44,.79-17.15,11.07-37.12,16.69-57.07,20.28-27.91,4.41-56.3,6.53-84.56,6.71Z"/><path d="M254.76,208.2c-15.98-1.19-31.84-7.32-45.53-15.01-5.72,5.64-13.1-1.88-18.41-4.69-11.15-7.16-20.68-16.37-29.17-26.45-4.93-4.64-9.97-9.34-13.8-14.95-1.94-3.24-.09-7.87,3.49-8.98-.6-2.67-1.63-5.63-.03-8.16,2.46-4.42,9.58-3.76,11.23,.98,3.51-1,6.85,1.21,9.95,2.59,6.19,2.67,12.76,4.41,19.27,6.1,8.96,2.53,18.13-.27,27.16,.16,4.16-5.24,13.43-.94,19.24-1.06,13.76,.68,27.55,1.26,41.33,.92,12.56-.87,25.1-3.1,37.14-6.79,11.21-3.37,21.87-8.5,33.27-11.19,1.34-7.5,11.64-8,12.85-.24,.12,2.78-.79,5.57-.97,8.36,4.7,2.89,2.81,9.61-1.55,11.84-3.57,15.13-16.12,26.74-27.08,37.05-2.65,7.1-10.15,10.83-16.03,14.96-.88,7.79-11.16,8.18-17.12,10.11-14.78,3.38-30.03,6.28-45.22,4.45Zm-9.53-30.91c-.39-.7-.66-1.47-.76-2.26-4.69-.45-9.36-.21-14.04,.23,4.89,.95,9.85,1.57,14.8,2.03Zm20.05-12.26c.21,.39,.38,.78,.5,1.19,1.5-.22,3-.43,4.5-.65-1.83-.41-3.66-.84-5.48-1.29,.18,.24,.34,.49,.49,.75Zm-25.51-2.93c5.09-.2,10.19-.36,15.29-.48-2.65-.76-5.29-1.54-7.93-2.36-.73-.23-1.47-.46-2.2-.7-.96,.8-2.15,1.33-3.4,1.43-8.35,.55-16.74-.26-25.06-.9,7.69,1.49,15.48,2.46,23.3,3.01Zm-46.98-6.07c.38,.32,.76,.65,1.14,.97,.06-.2,.12-.41,.19-.61-.39-.11-.77-.23-1.15-.37-.12-.04-.24-.09-.35-.14l.17,.15Zm93.61-.01c.86,.15,1.72,.32,2.57,.47,10.36-4.56,21.55-6.91,32.47-9.74-4.09,.11-7.91,1.42-11.83,2.44-7.32,1.82-14.79,2.91-22.3,3.61-2.92,.09-6.22,1.12-8.87-.54-2.3,.09-4.61,.12-6.92,.13-.76,0-1.52,0-2.28,0,5.67,1.41,11.4,2.61,17.14,3.64Zm-97.42-3.21c-.22-.39-.39-.79-.52-1.2-.42-.1-.84-.2-1.26-.3,.59,.5,1.18,1,1.77,1.5Z"/><path d="M290.45,176.64c-.67-.29-1.26-.7-1.77-1.18-8.29,3.47-13.97-7.8-5.65-11.63,5.49-1.38,10.79-3.36,16.14-5.23-5.38,.76-10.76,1.54-16.12,2.45-5.79,1.95-11.59,3.88-17.46,5.57-8.23,2.27-12.78-7.11-5.85-12.12,6.07-3.46,13.29-4.39,20.08-5.65,16.92-5.9,34.04-11.52,50.11-19.52-31.08,8.62-63.39,11.16-95.54,11-16.69-1.25-33.62-1.72-49.99-5.51-14.52-3.93-34.99-6.27-44.54-18.87h.01c-.48-3.79,4.32-3.49,6.62-2.17,4.42,1.84,8.85,3.75,13.46,5.05,13.5,3.31,27.24,5.94,41.05,7.57,12.45,.5,25.87,2.21,38.18,1.86,19.06-.42,38.13-1.43,56.97-4.44,13.99-2.27,27.77-5.64,41.37-9.58,6.76-1.78,13.36-5.57,20.48-5.13,2.88,.38,5.35,2.8,5.97,5.63,2.8,12.09-28.38,25.84-37.68,30.17,4.72,2.65,5.03,9.02,1.46,12.78-7.53,7.71-18.63,10.47-28.44,14.21-.86,3.92-5.17,6.42-8.86,4.74Z"/><path d="M267.97,349.6c-3.44-22.58-4.93-45.37-4.29-68.18-.17-16.21,1.83-32.29,7.35-47.57,5.63-16.7,13.89-37.47,32.5-42.62,2.56-.38,5.79-.53,7.57,1.69,.81,1.09,.52,2.63-.8,3.12-1.03,1.57-2.36,3.12-4.03,4.03-.51,.28-.96-.5-.45-.78,1.39-.79,2.51-2.03,3.4-3.29-6.46,1.67-11.13,6.78-15.42,11.6,.06-.08,.13-.15,.2-.23,.03-.04,.07-.07,.1-.11-11.24,14.42-19.64,31.38-24.05,49.13-3.38,21.04-2.94,42.62-1.96,63.84,.7,9.68,1.61,19.34,2.78,28.98,.23,1.82-2.6,2.34-2.9,.39Z"/><path d="M245.38,429.49c-5.94-1.84-3.45-8.04-2.54-12.37,1.25-6.92,1.89-13.96,2.59-20.95,.42-28.01,2.11-55.98,3.01-83.98,.58-21.17,3.75-42.1,2.93-63.2-.34-11.35-3.65-16.66-13.4-7.14,.3,.22,.21,.82-.26,.82-4.12,.1,6.76-7.58,8.02-7.25,9.07-.8,8.32,14.82,9.41,20.93,1.58,17.36,1.24,34.83,1.93,52.24,.85,20.63,1.19,41.24,.67,61.88-.06,9.21,1.66,62.99-12.36,59.03Z"/></svg>