<?xml version="1.0" encoding="UTF-8"?><svg id="Ebene_1" xmlns="http://www.w3.org/2000/svg" viewBox="0 0 500 500"><path d="M87.56,110.73c-4.82-2.36-3.68-11.91-2.66-16.3,2.53-11.7,12.38-20.97,24.15-22.97,6.56-1.2,13.38-.72,19.85,.78,1.13,.36,5.03,1.01,4.01,2.69-.38,.28-.81,.48-1.23,.71-.46,.26-.87-.44-.44-.72-20.11-.11-39.92,6.23-41.33,29.32,10.97-15.09,29.22-20.93,46.92-15.13,1.59,.42,1.04,2.94-.6,2.65-8.27-2.36-16.91-3.22-25.2-.61-8.29,3.16-16.7,8.45-20.32,16.84-.49,1.38-1.38,3.28-3.16,2.75Z"/><path d="M137.98,116.55c-2.65-.65-4.76-2.59-6.4-4.69-3.77-4.14-6.85-8.81-9.58-13.69-2.33-3.3-6.42-13.41,1.55-7.72,6.6,5.43,12.31,11.6,17.12,18.59h0c2.05-.73,3.86-1.96,5.72-3.09,1.03-3.77,.69-7.68,1.55-11.47,.69-3.67,3.77-13.05,8.48-7.85,2.05,2.83,3.5,6.05,5.52,8.89,.89,1.52,2.74,1.35,4.28,1.42-2.74-9.35-5.93-18.67-5.77-28.54-1.09-14.63,1.81-29.93,11.88-41.11-16.66,3.9-28.28,18.74-32.36,34.8-2.36,8.81-4,18.04-2.03,27.09,.3,1.33,.7,3.24-1.06,3.67-.91,.22-1.95-.38-2.14-1.32-.4-2.07-.75-4.13-1.07-6.2-1.16-12.36,2.67-25.38,7.59-36.63,7-14.83,20.52-25.69,36.67-28.82,2.77-.55,6.68-1.07,8.3,1.88,1.02,1.85,.89,4.18-.19,5.99-2.36,3.28-5.28,6.1-7.53,9.47-4.85,6.54-7.27,14.36-7.84,22.43-.38,5.72-.61,11.46-.59,17.19-.02,5.08,2.79,20.21-2,22.82-11.12,1.79-9.69-2.34-14.21-10.38-2.87,5.11-2.08,11.17-2.64,16.77-.18,1.95-.69,3.92-2.11,5.34-2.86,2.94-6.75,6.24-11.15,5.16Z"/><path d="M148.49,71.66c.03-.99,.86-1.73,1.84-1.73s1.77,.89,1.73,1.84c-.03,.99-.86,1.73-1.84,1.73s-1.77-.89-1.73-1.84Z"/><path d="M146.83,57.76c.07-2.34,2.03-4.08,4.32-4.08s4.14,2.08,4.08,4.32c-.07,2.34-2.03,4.08-4.32,4.08s-4.14-2.08-4.08-4.32Z"/><path d="M106.36,84.39c.02-.73,.64-1.28,1.36-1.28s1.3,.66,1.28,1.36c-.02,.73-.64,1.28-1.36,1.28s-1.3-.66-1.28-1.36Z"/><path d="M234.44,105.3c-11.94-.19-23.87-1.19-35.81-.48-14.03,.03-29.18-.47-43.08,0-7-.49-5.58-11.06,1.49-9.4,9.77,1.67,19.72,.91,29.58,1.23,8.51,.55,17.02,.69,25.53,1.23,11.37,1.44,22.54,2.97,33.96,2.98,17.71,.58,35.41,1.11,53.14,.5,16.95-.04,33.95-2.16,50.34-6.41,3.62-1.27,8.52-3.33,9.21-7.5-5.65-4.88-13.27-5.82-20.41-6.67-29.48-2.77-58.79-7.26-88.43-7.55-17.86,.15-35.68-1.25-53.53-1.27-9.4-.07-18.92,1.18-28.24-.44-1.21-.16-2.75-1.22-1.77-2.54,1.31-1.16,3.3-1.06,4.94-1.4,10.23-1.38,20.44-2.95,30.74-3.71,11.9-1.02,23.86-.72,35.79-.71,11.83-.11,23.68-.04,35.49,.86,11.76,.54,23.23,3.28,34.87,4.81,11.64,1.64,23.35,2.76,34.89,5.02,7.46,1.4,15.53,4.66,19.57,11.43,2.03,9.33-11.69,12.98-18.63,14.25-8.7,1.6-17.47,3.01-26.27,3.9-27.83,1.83-55.53,1.56-83.36,1.86Z"/><path d="M278.17,439.18c-11.7-15.21-14.35-33.73-13.24-52.4-.6-17.71-.88-35.43-.21-53.15-.02-25.14,.24-50.26,1.59-75.38,.66-13.23,.71-26.58,3.14-39.63,2.71-10.64,6.26-20.69,12.12-29.91,4.34-6.41,9.6-12.12,14.69-17.93,11.19-13.84,26.31-23.58,38.85-36.01,8.46-10.36,17.44-20.7,21.87-33.34,1.23-3.69,2.28-7.46,3.14-11.25,.48-1.83,.09-4.22,1.92-5.34,1.09-.58,2.32-.42,3.32,.28,3.22,2.53,2.72,7.17,2.38,10.81-.89,11.29-5.48,21.86-12.11,30.95-5.27,7.4-10.43,15.07-17.3,21.1-12.08,10.36-24.89,19.89-35.81,31.55-6.24,6.41-12.99,12.46-18.13,19.84-5.97,9.42-10.83,19.81-11.26,31.12-1.45,32.17-2.99,64.39-2.35,96.61,.34,18.19-1.45,36.41-.06,54.56,.45,13.96-1.93,28.66,4.99,41.52,2.04,4.32,5.33,7.81,8.06,11.69,1.1,1.58,.92,3.75-.66,4.95-1.49,1.14-3.84,.92-4.96-.65Z"/><path d="M228.33,441.12c-.68-.01-1.19-.51-1.34-1.15-.21-.51,.58-.83,.78-.32,.12,.74,1.01,.7,1.59,.56,3.27-1.36,4.42-5.18,5.66-8.18,2.99-8.77,3.66-18.06,4.93-27.2,1.91-13.4,3.5-26.89,3.4-40.44,.25-16.76-2.17-32.92-2.74-49.57-.53-17.72-.83-35.46-.53-53.18,.34-13.46,1-27.04-1.3-40.38-2.58-13.96-7.46-25.63-19.91-33.52-8.83-5.72-18.57-9.98-27.06-16.26-5.64-4.14-10.86-8.83-15.61-13.96-10.66-11.13-19.37-24.04-25.47-38.19-1.61-4.32-8.43-16.06-3.27-18.03,1.6-.64,3.66,.13,4.26,1.81,1.41,4.02,2.92,8.01,4.62,11.92,5.82,14.94,14.46,28.55,25.07,40.53,9.73,11.47,23.03,18.75,36,25.91,12.97,7.02,21.72,17.82,25.15,32.22,4.76,16.75,3.51,34.3,3.84,51.51,.22,14.28,1.08,28.54,1.28,42.82,1.55,28.37,.24,56.82-3.71,84.96-2.45,9.59-3.78,48.76-15.64,48.12Z"/><path d="M253.6,480.55c-20.84-1.45-44.77-1.63-60.45-17.47-4.08-4.13-7.55-9.13-9.24-14.71-1.06-4.36,1.6-8.45,4.24-11.69,8.13-8.76,19.04-15,30.44-18.43,5.76-1.14,18.5-4.54,19.14,4.36-.62,7.99-10.23,4.5-15.48,5.96-8.43,1.71-25.45,9.72-28.91,17.62,8.27,13.1,22.24,19.21,36.96,21.87,11.45,2.01,23.15,2.99,34.76,2.21,15.58-.03,32.13,.86,45.84-7.87,4.33-2.34,8.14-5.66,10.89-9.76,1.43-2.08,3.02-4.6,1.43-7.04-8.49-15.68-22.41-17.84-37.92-22.08-2.96-.83-5.96-1.55-8.91-2.41-2.31-.71-5.34-1.44-6.26-3.97-.62-1.95,1.44-2.77,3.01-2.73,5.7-.16,11.38,.57,16.97,1.61,8.76,1.83,18.14,2.49,25.88,7.36,8.85,5.58,19.7,14.56,19,25.92-2.9,13.08-15.53,20.91-27.09,25.78-9.44,4.07-19.88,4.62-30.03,4.89-8.1-.2-16.18,.74-24.28,.6Z"/><path d="M256.02,461.43c-13.2,.05-26.61-1.38-38.94-6.34-6.39-2.94-14.76-6.12-17.08-13.37-.08-.53,.73-.69,.83-.14,1.68,5.59,8.07,8.23,12.79,10.78,11.52,5.33,24.23,7.3,36.82,7.65,5.77,.05,11.53,.16,17.29,.02,.35-.01,.66,.28,.67,.64,0,.36-.28,.66-.64,.67-3.91,.1-7.83,.12-11.75,.09Z"/><path d="M248.55,193.19c-12.41,.26-23.44-6.14-34.34-11.13-.42,.67-1.24-.33-.69-.78,.45-.37,1.22,.06,1.68,.23,6.2,2.38,12.78,4.62,19.29,5.83,15.26,2.76,39.57-.81,52.84-8.87,3.96-2.35,7.62,3.42,3.75,5.98-12.53,7.84-28.14,8.33-42.52,8.74Z"/><path d="M284.94,125.8c-19.39-.11-38.71-2-58.01-3.8-16.04-1.08-31.8-4.03-47.39-7.85-10.91-1.68-20.98-6.44-31.29-9.82-.3-.05-.53-.41-.31-.68,.19-.24,.45-.2,.73-.15,6.6,1.42,13.64,3.02,20.19,4.19,31.34,5.26,63.02,6.86,94.66,7.09,25.91,.38,52.08-.37,77.36-6.48,5.68-1.36,11.31-2.87,16.87-4.67,1.67-.54,3.55,.34,4.27,1.92,.79,1.71,.04,3.98-1.75,4.72-12.27,5.44-25.29,8.93-38.47,11.34-12.14,2.53-24.4,4.71-36.85,4.19Z"/><path d="M255.17,192.22c-11.63-1.85-24.88-1.88-34.48-9.55-12.28-5.71-24-15.38-25.9-29.56-5.58-3.85-18.66-9.32-15.48-17.76,.97-2.36,3.25-3.99,5.87-4,.3-2.18,1.87-4.05,3.85-4.94-6.55-2.35-4.36-12.17,2.61-11.5,6.67,1.19,13.46,1.7,20.19,2.6,4.73,.59,9.47,1.25,14.23,1.53,3.82,.32,8.52-.22,11.05,3.3,15.8-.47,31.59-1.38,47.36-2.36,5.36-.62,10.71-1.36,16.08-1.95,2.18-.29,4.47,.67,5.67,2.54,11.18-2.89,22.78-4.87,33.27-9.86,3.49-1.47,6.23-4.27,9.7-5.69,2.39-.68,5.18-.01,6.71,2.03,5.06,6.67-7.07,15.2-10.93,20.12,.11,9.71-22.29,25.31-29.75,31.59-7.26,5.59-14.5,11.21-21.96,16.52-3.64,2.21-7.51,6.52-12.13,5.03-1.13,.32-2.25,.66-3.38,.97-1.59,.44-3.2,.77-4.81,1.11,1.54,2.03,1.41,4.85,0,6.87-2.48,2.69-6.4,3.25-10.33,3.25-2.61,0-5.22-.25-7.43-.28Zm-6.29-22.93c-.03,.3-.07,.61-.15,.9-.39,1.59-1.42,2.89-2.77,3.67,.52,.21,1.03,.42,1.54,.64,.56,.24,1.11,.48,1.66,.73,.21,.09,.41,.19,.61,.28,1.01-4.44,5.66-6.5,9.26-8.58-3.38,.77-6.77,1.58-10.16,2.35Zm-37.8-6.66c.32,.35,.65,.69,.98,1.03,.22-.35,.47-.68,.74-.99-.57-.26-1.13-.54-1.7-.81-.36-.17-.72-.34-1.07-.51,.34,.43,.68,.86,1.04,1.28Zm93-17.94c.11,.62,.12,1.24,.03,1.85,.36-.31,.73-.62,1.1-.94,1.13-.97,2.26-1.93,3.41-2.89-1.47,.74-2.88,1.77-4.54,1.98Zm-61.6,.53s.07,.07,.1,.1c0,.01,.01,.02,.02,.02,.01,0,.02,0,.02-.02,0,0,0-.02,0-.03-.14-.15-.07-.09-.25-.21-.16-.09-.3-.14-.47-.21-.28-.11-.56-.19-.84-.29-.27-.09-.54-.18-.81-.27h0c-.53-.19-1.06-.4-1.57-.64h0c-.18-.08-.34-.19-.51-.3h.01c-.23-.15-.44-.32-.66-.5,0,0,0,0,0,.01-.12-.12-.24-.24-.35-.36h0c-.16-.19-.29-.38-.42-.58h0c-.11-.18-.21-.36-.31-.56-.13-.28-.23-.56-.33-.84h0c-.07-.23-.15-.48-.21-.73-.02-.11-.05-.27-.09-.36-.02-.04-.06-.1-.08-.13-.03-.05-.11-.05-.14,0-.15,.21-.09,.11-.21,.43-.02,.06-.04,.13-.05,.19-.05,.18-.11,.35-.17,.53h0c-.06,.17-.13,.34-.18,.52-.06,.22-.1,.43-.13,.66,0,.03,.03,.03,.04,.01,.07-.28,.15-.56,.24-.83h0c.15-.33,.27-.68,.4-1.03h0c.04-.08,.08-.17,.12-.26,0,0,0,0,0-.01,.07,.27,.11,.55,.18,.81,.11,.39,.23,.79,.4,1.16,.21,.43,.44,.81,.75,1.17,.24,.28,.53,.51,.82,.73,.4,.31,.89,.54,1.36,.72,.35,.13,.7,.26,1.06,.36,.63,.19,1.26,.35,1.88,.56h0l.24,.1h0c.05,.03,.1,.05,.15,.08h0Zm-16.55-14.14c-.05-.07-.11-.15-.15-.22-.14-.01-.28-.02-.42-.03,.19,.08,.38,.16,.57,.24Z"/><path d="M237.16,142.53h0s0,0,0,0Z"/><path d="M185.51,156.55c-6.72-5.59-12.27-12.3-16.86-19.73-3.24-4.37-6.54-11.05,.18-14.03-1.01-.85-2.02-1.71-3.02-2.58-.07-.06-.13-.11-.2-.17,.21,.4,.39,.81,.47,1.26,.1,.62-.87,.61-.85,.03-.94-3.1-3.9-5.16-4.9-8.25-1.23-3.84,2.14-7.97,6.16-7.4,1.86,.21,3.45,1.21,5.05,2.11,6.06,4.08,22.8,10.37,23.19,18.04,.09,2.56-1.96,5.06-4.62,5-1.37,3.88-5.96,4.35-9.51,3.87,3.48,5.26,7.98,9.67,12.55,13.98,5.05,5.11-2.35,12.8-7.65,7.88Z"/><path d="M256.36,362c-2.11-30.1-2.38-60.27-3.58-90.42v.21c-.61-16.69,1.39-33.33,3.57-49.82,.18-2.84,2.83-19.64-1.59-18.77-4.74,1.44-8.07,5.94-10.3,10.15,.29-.23,.37-.67,.79-.61,.23,.04,.38,.26,.34,.49-.14,.49-.62,.78-.97,1.12-2.78,1.37,.58-4.87,.98-5.67,1.52-2.77,3.64-5.31,6.38-6.93,13.13-7.14,6.09,24.47,5.99,30.32-1.58,13.1-2.54,26.31-2.11,39.47,.62,20.37,1.53,40.88,1.68,61.21,.19,8.1,.6,16.17,.95,24.27,.07,1.6,.15,3.18,.23,4.78,.03,.64-.42,1.22-1.07,1.28-.63,.05-1.23-.43-1.28-1.07Z"/><path d="M344.41,93.74c-21.59-3.52-43.55-2.18-65.32-2.46-18.55,.11-37.01-1.87-55.56-1.11-15.76,.5-31.46-2.69-47.14-1.92-1.47-.99,1.78-1.8,2.44-2.1,10.42-2.99,21.39-2.89,32.11-3.76,15.74-1.15,31.48-2.86,47.28-2.09,15.27-.02,30.5,.87,45.71,2.2,14.01,1.07,28.1,2.19,41.73,5.83,3.21,.94,2.13,5.97-1.25,5.4Z"/></svg>