<?xml version="1.0" encoding="UTF-8"?><svg id="Ebene_1" xmlns="http://www.w3.org/2000/svg" viewBox="0 0 500 500"><defs><style>.cls-1{fill:#00010d;}</style></defs><path class="cls-1" d="M247.78,123.53c-13.89-.92-29.52-12.47-27.39-27.69,.79-7.76,7.39-21.42,16.71-20.05,17.08-7.01,36.43,6.27,35.53,24.84-.78,12.26-12.03,24.39-24.85,22.89Zm-.66-14.73c1.5-.36,2.14-2.11,3.72-2.3,1.49-.32,3.18,.39,3.94,1.71,3.41-.97,5.44-4.54,5.64-7.93-1.96,5.13-8,2.32-8.75-2.1-.5,2.94-.39,7.02-3.76,8.18-1.58,.63-3.52,.02-4.62-1.22-1.98-2.4-.77-5.83-1-8.68-.74-4.2-1.63-10.31-6.29-11.75-2,1.29-3.09,3.77-4.38,5.73,1.53,2.03,2.53,4.36,3.23,6.81,.93,1.23,.78,2.85,1.44,4.21,2.64,3.28,6.88,5.77,10.84,7.33Zm19.97-14.94c1.89,4.41,.84,9.55-1.12,13.77,6.46-11.48-2.11-25.44-14.64-27.15,1.29,.59,2.45,1.53,3.39,2.63,.12,.14,.24,.29,.36,.44,4.73-.51,8.11,3.81,9.87,7.68,.98,.61,1.62,1.65,2.14,2.65Zm-22.04-13c.35-.26,.73-.47,1.13-.64-.52,.03-1.04,.07-1.56,.11,.15,.17,.29,.35,.43,.53Z"/><path class="cls-1" d="M266.05,93.6c-.84-3.19,2.79-3.31,4.95-3.88,3.29-.97,6.5-2.17,9.77-3.21,17.06-5.76,33.89-12.18,51.24-17.04,11.36-3.39,22.98-6.13,33.72-11.22,2.19-1.19,4.83-2.11,6.4-4.1-.12-.58-.51-1.1-1-1.42,.03,.02,.06,.03,.09,.05,.02,.02,.05,.04,.05,.02-2.02-.82-4.79,.08-6.73,.48-6.85,1.91-13.37,4.81-20.03,7.25-6.85,2.56-13.85,4.69-20.83,6.85-19.36,6.47-39.76,9.67-58.66,17.53,.09,.68-1.66,1.19-1.61,.27,12.11-7.57,26.02-13.04,39.9-16.91,17.4-5.56,34.48-12.13,52.15-16.84,4.74-1.16,19.99-5.1,18.32,3.68-.86,1.39-2.42,2.17-3.8,2.98-4.92,2.74-10.18,4.79-15.45,6.77-19.11,6.18-38.69,11.01-57.23,18.88-7.24,2.88-14.61,5.83-21.8,8.78-2.75,.71-7.66,4.9-9.45,1.08Z"/><path class="cls-1" d="M261.07,86.02c-1.6-.98-.31-3.55,1.43-2.87,7.41-1.64,14.53-4.26,21.6-6.98,13.18-4.73,26.5-9.12,39.72-13.73,13.64-3.94,26.92-9.74,40.96-12.03,.42-.26,.85,.39,.43,.68-.17,.12-.4,.16-.6,.16-9.26,1.2-17.96,4.95-26.9,7.58-13.4,3.99-26.34,9.28-39.41,14.22-11.17,3.93-21.97,8.86-33.34,12.2-1.33,.17-2.6,1.51-3.9,.76Z"/><path class="cls-1" d="M122.28,136.59c-1.25-.66-2.03-2.01-2.54-3.29-1.4-5.05,5.44-6.58,8.8-8.37,10.36-4.28,21.18-7.33,31.89-10.6,14.62-3.95,29.02-7.69,43.51-11.93,7.41-2.41,15.28-3.91,22.33-7.24-.07-.37,.47-.67,.73-.29,.69,1.27-2.88,2.06-3.65,2.5-23.97,11.25-49.53,18.28-74.83,25.81-8.8,2.69-17.94,4.64-26.37,8.38-1,.79,.15,2.54,.94,3.1v.02c4.02,.31,8.23-1.37,12.05-2.24,7.23-2.04,14.39-4.28,21.59-6.43,14.01-4.7,28.15-9,42.07-13.94,6.82-2.48,13.56-5.15,20.56-7.09,1.24-.38,2.51-.68,3.72-1.16,.87-.8,2.01-1.45,3.24-1.21,2.97,.44,3.36,5.01,.43,5.88-11.22,2.53-21.81,7.36-32.81,10.7-11.09,3.53-22.66,6.47-33.75,9.35-9.35,2.44-18.63,5.03-28,7.2-3.22,.52-6.7,1.87-9.91,.86Z"/><path class="cls-1" d="M127.91,121.78c-5.17-6.47-10.19-13.85-11.39-22.2-.73-21.62,19.4-36.3,36.81-45.09,13.36-6.29,28.25-7.79,42.66-10.13,19.2-3.83,38.74-6.09,58.32-6.33h-.13s-.07,0-.11,0c17.92-.07,35.67,3.45,53.3,6.29,11.28,2.04,21.63,7.23,32.67,10.06-.05-.22-.09-.43-.13-.65-.08-.51,.71-.67,.78-.16,.48,1.73-.1,1.87-1.71,1.41-9.22-2.29-18.34-5.27-27.6-7.29-17.77-3.01-35.69-5.71-53.63-6.12-21.46,.01-42.63,3.13-63.6,7.47-14.25,2.34-28.92,4.8-41.44,12.42-14.53,8.9-33.47,22.45-30.39,41.76,1.65,5.97,4.68,11.46,8.36,16.41,1.27,1.71-1.43,3.8-2.78,2.16Z"/><path class="cls-1" d="M248.45,163.87c-28.64-.72-57.57-4.81-84.01-16.3-2.87-1.03-27.49-13.51-24.48-16.02,.38-.34,.9,.23,.56,.57,17.8,5.77,35.54,11.99,54,15.45,26.09,5.16,52.92,6.41,79.45,5.46,11.34-.29,22.59-2.07,33.7-4.25,21.45-4.13,45.26-10.3,59.12-28.44,6.81-9.38,12.03-22.62,5.07-33.29-3.53-6.67-9.11-11.64-14.9-16.33-1.18-1-2.29-2.05-3.37-3.16-2.71-2.77,.5-7.63,4.13-6.33,3.35,.93,5.92,3.31,8.61,5.38,8.71,5.51,14.69,14.37,16.75,24.47,1.71,9.1-2.24,18.09-6.76,25.79-6.52,10.65-16.89,18.01-27.15,24.75-29.56,19.47-66.2,22.69-100.73,22.25Z"/><path class="cls-1" d="M276.06,428.58c-9.72-12.35-21.71-25.5-21.78-42.12,1.35-27.54,1.65-55.13,2.07-82.71,.6-30.32,.55-63.75,19.51-89.11,10.4-14.04,22.15-26.9,34.6-39.14,20.91-23.5,44.53-44.42,65.3-68.04-.03-.24,.23-.46,.41-.6,.33-.23,.76,.09,.61,.47-.16,.41-.47,.72-.76,1.05-8.53,10.57-15.64,22.27-24.81,32.34-12.99,14.9-24.55,30.97-37.48,45.91-10.73,10.87-20.1,23.49-29.9,35.04-6.9,7.67-13.49,15.79-17.83,25.2-9.07,23-6.56,48.77-6.97,73.03-.02,13.83,.08,27.68,.21,41.51,.57,11.25-1.06,22.89,2.11,33.83,4.22,11.2,12.27,20.3,18.79,30.18,1.95,2.56-1.86,5.88-4.08,3.16Z"/><path class="cls-1" d="M219.96,438.67c-1.16-.49-1.62-1.8-1.2-2.94,1.8-4.81,3.44-9.69,5.15-14.54,3.21-9.27,5.08-18.92,7.76-28.34,1.89-6.18,3.48-12.44,4.41-18.84,1.55-8.83,.89-17.7,.76-26.58-.43-19.35-2.17-38.63-2.37-57.98-.25-8.64-.74-17.28-1.13-25.92-.76-8.73-1.64-17.96-6.33-25.58-5.5-7.51-12.06-13.82-17.71-21.16-8.03-10.17-15.88-20.46-24.05-30.52-7.42-9.93-15.83-19.05-23.85-28.49-5.11-5.58-10.15-11.23-15-17.04-1.46-1.81-3.21-3.53-4-5.75-.17-3.63,7.99,2.68,9.07,3.35,12.84,10.27,22.5,23.83,32.93,36.4,11.79,15.29,24.53,29.84,35.8,45.56,4.63,6.35,10.41,12.13,13.29,19.57,3.97,10.73,4.05,22.3,4.45,33.59,.29,6.43,.66,12.85,.73,19.29,.48,24.99,2.85,50.05,1.7,75.04-.82,13.07-4.62,25.64-7.28,38.4-1.63,7.84-3.92,15.54-6.83,22.99-1.06,2.79-2.15,5.57-3.34,8.3-.49,1.13-1.83,1.68-2.94,1.2Z"/><path class="cls-1" d="M231.34,475.82c-14.26-.08-27.73-4.7-40.36-11.02-7.22-3.32-14.24-5.92-19.2-12.17-8.8-9.29-10.87-23.65-6.55-35.5,4.11-9.69,11.72-17.85,20.33-23.78,14.67-9.41,32.48-12.46,49.68-12.47-.13-.33,.34-.71,.67-.42,3.04,2.93-19.54,8.04-21.72,9.19-15.17,5.06-29.23,13.17-40.2,24.87-8.21,8.69-7.89,23.36-.2,32.28,5.7,7.22,14.94,9.09,22.99,12.55,20.83,10.38,44.07,10.81,66.84,9.5,13.65-.76,28.16-1.18,40.18-8.42,6.72-3.85,12.88-9.22,16.71-16.02,4.36-9.26,5.97-20.91-.08-29.77-12.8-17.88-32.51-21.97-53.13-23.65-2.88-.32-6.3,.5-8.55-1.81-3.5-3.26-.86-9.65,3.93-9.48,3.37,.04,6.73,.32,10.07,.75,21.08,2.63,37.05,10.69,48.83,28.69,9.44,13.4,5.73,34.77-5.69,45.91-11.73,12.68-29.14,16.94-45.76,18.47-12.87,1.34-25.81,2.97-38.77,2.29Z"/><path class="cls-1" d="M229.88,383.23c0-.22,.18-.4,.4-.4s.4,.18,.4,.4-.18,.4-.4,.4-.4-.18-.4-.4Z"/><path class="cls-1" d="M240.67,429.17c-15.61-2.68-9.02-22.15-7.9-12.6,3.41,11.47,17.5,6.04,22.06-1.69,1.54-1.95,4.41-2.36,6.4-.83,5.53,5.28-3.47,10.48-7.66,12.83-3.96,2.03-8.49,3.01-12.9,2.29Z"/><path class="cls-1" d="M240.49,235.54c-10.42-1.43-29.2-10.19-30.47-21.83-.12-.74,1.02-.81,.88-.07,8.18,7.11,18.82,11.28,29.56,12.32,6,.45,11.71-1.47,17.42-2.93,4.41-1.21,8.91-2.35,13.01-4.43,6.16-3.61,11.35-8.61,17.12-12.78,2.14-1.64,4.85,1.37,2.93,3.33-4.34,4.37-8.76,8.66-13.29,12.85-9.42,8.08-24.6,14.9-37.16,13.55Z"/><path class="cls-1" d="M260.91,181.06c-32.48-.18-65.9-6.47-93.89-23.57-3.05-1.93-5.67-4.47-8.63-6.5-.31-.3,.04-.82,.44-.65,6.42,4.9,13.65,8.81,21.2,11.78,22.74,9.64,47.17,14.55,71.88,13.86,14.19,0,28.89,.1,42.78-2.85,7.15-1.52,14.34-3.34,20.96-6.41,2.2-.99,4.39-2.01,6.58-3.03,.95-.43,2.12,0,2.64,.88,1.56,3.27-4.21,4.3-6.08,5.86-17.55,9.47-38.28,10.91-57.88,10.64Z"/><path class="cls-1" d="M134.46,122.16c-3.02-2.88-2.74-7.82-1.27-11.42,4.59-11.37,16.1-17.71,25.49-24.73,14.13-9.84,30.3-16.28,47.23-19.27,16.78-3.53,34.04-4.57,51.09-3.18,4.5,.33,42.69,3.09,40.66,7.44-.83,2.19-3.27,.33-4.76-.04-11.08-3.38-22.9-4-34.4-4.79-33.71-1.97-69.38,4.08-97.89,22.95-9.73,6.98-22.1,12.78-26.8,24.44-1.08,2.62-1.06,6.27,1.34,8.05,.21-.35,.85-.14,.73,.32-.17,.68-1,.59-1.42,.21Z"/><path class="cls-1" d="M348.6,135.49c-2.82-2.67,2.16-5.45,3.26-7.86,3.24-4.04,1.7-9.27,.13-13.65-3.99-11.26-13.27-19.48-22.56-26.51-6.15-4.25-12.03-9.76-19.66-10.92-.4,.01-1.1-.15-.82-.68,.1-.18,.36-.25,.55-.16,4.66,.59,8.89,2.92,13.09,4.89,15.41,7.75,32.57,18.9,35.25,37.34,1.3,5.3-.61,10.69-4.08,14.74-1.24,1.53-2.89,4.46-5.15,2.8Z"/><path class="cls-1" d="M326.51,149.49c-3.29-1.98-2.53-5.68-.65-8.39,1.91-3.98,3.6-8.05,5.01-12.22,3.92-11.66,5.76-27.76-6.16-35.36-5.41-3.88-11.94-5.77-18.47-5.84h0c-1.98-2.27,6.82-2.33,8-2.17,11.45,1.02,23.27,7.86,25.95,19.71,3.01,11.49-.16,23.52-3.75,34.51-1.59,4.3-3.77,12.84-9.93,9.77Z"/><path class="cls-1" d="M275.7,184.45c7.94-24.58,22.87-48.03,41.5-66.43,7.09-6.72,18.96-16.7,28.36-8.49,.58,.66,1.14,1.58,.94,2.48-.17,.58-1.02,.21-.75-.3-.29-2.05-2.49-3.08-4.22-3.76-15.17-5.37-37.18,25.27-45.12,36.27-5.21,7.75-9.84,15.91-13.59,24.47-2.25,5.17-4.5,10.32-6.6,15.55-.08,.2-.33,.29-.53,.21Z"/><path class="cls-1" d="M167.32,113.56c-6.9-5.98-15.81-9.75-25.02-8.96-1.77,.06-3.49,.22-5.21,.54-.78,.09-.82-.46-.63-1.04,.05-.66,.99-.4,.79,.2,10.98-2.13,22.22,1.31,30.78,8.34,.59,.44-.11,1.38-.71,.91Z"/><path class="cls-1" d="M205.63,175.78c-.3-.13-.51-.38-.6-.69-1.08-3.39-2.17-6.54-3.31-9.83,.01,.04,.02,.07,.04,.1-3.59-10.71-7.74-21.34-14.21-30.68-3.39-4.45-6.59-10.08-11.91-12.29,.18,.62-.76,.85-.8,.2-.08-.44,.11-.91,.6-.99,8.2,2.23,17.53,20.19,21.3,27.74,3.81,8.19,7.09,16.62,10.27,25.07,.36,.82-.54,1.76-1.37,1.37Z"/><path class="cls-1" d="M245.21,244.61c-6.17-.47-13.3-3.07-16.06-9.01-.08-.21,.03-.49,.26-.54,5.38,2.9,11.68,4.72,17.86,3.38,4.48-1.07,8.89-2.97,12.52-5.83,2.7-2.61,5.34-6.99,9.54-3.96,8.94,9.24-17.56,17.2-24.12,15.96Z"/><path class="cls-1" d="M239.13,462.19c-.83-.18-1.95-.49-1.8-1.55,.1-.69,.97-.38,.8,.24,.62,.71,2.33,.64,3.23,.78,6.95,.09,13.85-1.24,20.75-1.94,21.13-2.44,42.48-10.99,55.45-28.49,1.05-1.26,2.07-2.52,3.07-3.82,.3-.39,.87-.5,1.3-.25,.45,.26,.66,.91,.36,1.37-19.38,30.85-49.33,35.01-83.15,33.65Z"/><path class="cls-1" d="M237.32,219.72c0-.22,.18-.4,.4-.4s.4,.18,.4,.4-.18,.4-.4,.4-.4-.18-.4-.4Z"/><path class="cls-1" d="M241.74,433.06c-.86-.11-1.43-.91-1.33-1.76,.45-4.77,.43-9.58,.57-14.37,.26-24.45,1.3-48.89,3.31-73.26v.02s0,.07,0,.11c.33-4.84,.66-9.62,.97-14.33,0,.08,0,.16-.01,.24,2.02-30.94,3.37-62.04,2.57-93.04-.25,1.02-.42,2.06-.9,3.01-.07,.21-.28,.34-.49,.28-.2-.05-.35-.28-.28-.49,.73-1.39,.71-3,1.37-4.41,1.21-1.27,1.18,3.01,1.27,3.58,.3,8.82,.63,17.64,.83,26.45,.95,29.42-.46,58.91-2.47,88.25-1.37,19.11-2.02,38.17-2.49,57.31-.17,5.81-.3,11.63-.72,17.43-.34,1.74,.29,5-2.19,4.98Z"/><path class="cls-1" d="M260.82,97.35c-1.92-3.41-3.73-6.92-6.05-10.08-1.82-1.12-3.57-1.94-5.49-2.81-5.72-3.35-9.63-.51-14.02,3.41-2.09,1.5-2.82,4.73-5.53,5.25-4.26,.3-4.42-4.42-3.01-7.33,4.52-9.08,17.99-13.22,27.28-9.94,7.11,2.67,11.32,9.49,14.24,16.14,1.39,2.32,1.25,5.53-1.29,6.97-2.04,1.2-5,.55-6.14-1.61Z"/><path class="cls-1" d="M254.29,227.72c-4.21-.62-6.85-4.68-7.32-8.68-3.99,1.44-7.96,2.87-12.05,3.97-1.17,.32-2.57,.06-3.65-.47-3.37-1.57-4.16-6.41-1.48-8.98-5.93-.13-11.77-1.47-17.34-3.44-2.09-.67-4.08-1.71-5.62-3.3-3.74-3.55-1.63-9.95,2.98-11.56,2.35-.87,4.85-.67,7.31-.68-10.35-4.24-20.78-8.69-30.07-14.99-2.49-1.33-5.11-2.09-7.74-2.98-.16-.08-.23-.25-.23-.43,.02-.4,.51-.46,.72-.22,1.26,.43,2.57,.7,3.8,1.21-3.75-2.84-10.54-6.48-7.03-12,1.65-2.55,5.23-3.18,7.74-1.52,7.16,4.31,14.82,7.8,22.93,9.89,15.36,3.91,31.27,4.94,46.99,6.52,9.48-2.66,19.18-4.37,28.68-6.93,4.94-1.13,9.72-3.55,14.82-3.66,2.52,.09,4.69,2.1,5.42,4.44,1.64,6.42-6.96,13.38-11.71,16.56,3.25,6.91-4.52,13.4-8.33,18.43-2.65,3.06-5.38,6.02-8.21,8.91-2.24,2.48-4.82,4.97-8.31,5.32-3.51,2.6-7.7,5.53-12.29,4.58Z"/></svg>