<?xml version="1.0" encoding="UTF-8"?><svg id="Ebene_1" xmlns="http://www.w3.org/2000/svg" viewBox="0 0 500 500"><path d="M249.76,257.41c-6.02-.2-11.6-2.88-16.93-5.47-7.11-3.45-14.73-7.67-17.97-15.31-5.36-14.28-1.34-33.04,12.56-40.88,.81-.52,1.64-1.01,2.49-1.48,2.64-1.39,5.17,2.44,2.86,4.33-5.92,4.28-10.37,10.94-10.22,18.45,.24,5.35,.48,11.02,2.82,15.92,1.6,2.6,3.99,4.58,6.59,6.13,6.2,3.24,12.41,7.6,19.53,8.22,11.4-.68,31.97-5.29,34.72-18.24,.6-9.43-.55-19.7-6.63-27.31-4.95-5.59-11.3-10.86-18.82-12.27-3.51-.47-6.46,.22-9.87,.63-.86,1.33-2.59,.66-3.89,.78-2.4,.46-4.51-1.55-3.49-3.94,2.62-4.59,11.8-6.4,16.77-6.73,9.71-.13,18.75,5.55,24.95,12.7,6.38,7.71,8.2,18.09,7.52,27.85-.28,5.71-.96,11.71-4.17,16.59-7.1,10.99-25.9,19.71-38.81,20.04Z"/><path d="M244.18,197.94c-9.36-7.03-17.27-15.83-27.07-22.34-14.86-10.92-31.89-18.24-48.8-25.32-11.1-5.09-22.12-10.32-33.26-15.33-11.29-5.41-24.5-8.34-33.5-17.48-2-2.1-3.53-4.63-4.9-7.17-2.89-5.88,5.62-10.85,9.29-5.32,3.59,6.74,10.83,10.17,17.52,12.9,6.76,2.89,13.57,5.66,20.27,8.68,10.89,5.07,21.78,10.15,32.66,15.23,16.98,7.13,33.89,15.21,48.1,27.08,8.49,6.76,16.31,14.79,21.97,24.06,1.6,2.51,2.13,7.33-2.28,5.02Z"/><path d="M232.49,221.62h0c-.74,0-1.49,.01-2.24-.05h.01c-.53-.05-1.05-.13-1.57-.24-.85-.19-1.66-.46-2.47-.77,.01,0,.03,.01,.04,.02-.7-.27-1.39-.59-2.05-.94,0,0,.01,0,.02,.01-.18-.1-.34-.21-.51-.32h0c-.11-.09-.23-.19-.34-.28-.04-.03-.09,0-.08,.06,0,0,0,0,0,0h0s0,.01,.01,.01c.13,.37,.28,.73,.43,1.09-2.93-1.15-5.22-3.01-5-6.24,.18-1.06,1.2-2.11,2.32-2.12,7.06,1.56,14.83,1.95,21.65-.93,8.92-3.46,17.61-10.33,17.98-20.63,.03-4.4,5.46-7.74,8.97-4.49,2.94,2.62,2.27,6.54,1.36,10.07-.81,.84-1.61,1.7-2.41,2.57-.7,.76-1.34,1.57-2,2.36-.64,.77-1.27,1.54-1.89,2.32-.57,.71-1.21,1.39-1.81,2.08-.6,.63-1.2,1.26-1.79,1.9-.26,.27-.54,.52-.82,.78-.4,.39-.81,.78-1.21,1.17-.28,.28-.61,.52-.9,.78-.33,.29-.66,.57-.99,.86-1.01,.81-2.05,1.57-3.13,2.27-1.82,1.15-3.71,2.16-5.62,3.16-1.75,.91-3.51,1.81-5.29,2.68-1.56,.68-3.11,1.35-4.74,1.9-.81,.26-1.64,.46-2.48,.61h.09s-.07,0-.1,0h0s-.01,0-.02,0h0s-.03,0-.04,0c0,0,.02,0,.02,0h0c-1.12,.17-2.24,.25-3.37,.3h0s-.08,0-.12,0c.03,0,.05,0,.07,0Z"/><path d="M235.92,221.32h0Z"/><path d="M235.93,221.31h0Z"/><path d="M223.8,220.24c-.09-.27-.19-.54-.28-.81,.19,.22,.43,.41,.64,.58,.28,.22,.56,.42,.85,.63h-.01l.07,.04c-.43-.13-.85-.28-1.26-.44Z"/><path d="M254.06,212.97c-.08,.04-.14,.09-.22,.14,.08-.05,.14-.09,.22-.14Z"/><path d="M257.32,210.6s-.05,.04-.08,.06c.03-.02,.05-.04,.08-.06Z"/><path d="M266.44,206.01c.86-1.55,1.61-3.16,2.36-4.77,.61-1.34,1.23-2.66,1.87-3.99-.1,.38-.2,.75-.29,1.11-1.05,3.44-2.75,6.59-4.95,9.39,.35-.57,.69-1.15,1.02-1.74Z"/><path d="M261.04,207.2s-.05,.06-.08,.08l.08-.08Z"/><path d="M255.35,253.29c-13.36-1.32-25.23-5.77-30.12-19.33-3.35-2.17-6.9-4.26-9.55-7.3-3.83-4.22-2.08-11.27,4.09-11.52,3.91,.11,7.6,2.08,11.35,3.11,1.59-.23,3.13,.29,4.4,1.17,4.76-2.83,10.56-5.51,16.23-5.09-1.09,.61-2.19,1.2-3.3,1.78-1.75,.91-3.52,1.81-5.29,2.68-1.57,.68-3.12,1.35-4.74,1.9-.82,.26-1.65,.46-2.49,.61h.1s-.08,0-.12,0c0,0,.01,0,.02,0,0,0-.01,0-.03,0h0s-.03,0-.04,0h.02c-1.12,.16-2.23,.24-3.37,.3h0s-.08,0-.11,0c.02,0,.04,0,.07,0h0c-.74,0-1.49,.01-2.23-.05h0c-.53-.05-1.05-.13-1.57-.24-.85-.19-1.66-.46-2.46-.77,.01,0,.03,.01,.04,.02-.7-.27-1.39-.59-2.05-.94,0,0,.01,0,.02,.01-.18-.1-.35-.21-.52-.32h0c-.11-.1-.22-.2-.34-.28-.04-.03-.09,0-.08,.06h0s0,.02,0,.02c.16,.45,.35,.9,.53,1.34,.01,.03,.05,.01,.04-.01-.13-.34-.24-.68-.36-1.02,.19,.22,.43,.41,.65,.58,.28,.22,.56,.42,.85,.63h-.01c.8,.56,1.63,1.11,2.52,1.57,1.58,.81,3.28,1.34,5.04,1.62,1.02,.16,2.05,.32,3.08,.38,.31,.02,.61,.03,.92,.03,1.61,0,3.2-.22,4.79-.56,.96-.21,1.91-.46,2.87-.73,.93-.26,1.84-.6,2.75-.92,.8-.28,1.58-.6,2.36-.93,.86-.36,1.74-.72,2.59-1.13,.78-.38,1.57-.73,2.32-1.17,1.31-.78,2.61-1.56,3.8-2.51,.83-.66,1.67-1.35,2.39-2.14,.41-.44,.83-.88,1.23-1.32,.61-.68,1.17-1.37,1.72-2.1,1.15-1.49,2.15-3.07,3.07-4.72,.86-1.55,1.61-3.16,2.36-4.77,.83-1.83,1.7-3.64,2.56-5.45,1.49-.85,3-1.5,4.52-1.9,10.39-1.77,12.74,9.6,9,17.18,6.06,6.28,4.36,17.12,1.95,24.74-4.03,11.58-17.05,17.59-28.83,17.59-.89,0-1.78-.03-2.65-.1Z"/><path d="M270.8,196.12c-.74,.77-1.46,1.55-2.18,2.33-.7,.76-1.34,1.57-2,2.36-.64,.77-1.27,1.54-1.89,2.32-.58,.71-1.22,1.39-1.82,2.08-.6,.63-1.2,1.26-1.79,1.9-.26,.27-.54,.52-.81,.78-.4,.39-.81,.78-1.21,1.17-.28,.28-.61,.52-.9,.78-.26,.23-.52,.45-.78,.67,3.18-5.43,8.06-11.14,13.38-14.38Z"/><path d="M124.21,129.42c-5.78-1.78-11.39-2.14-17.24-4.2-5.2-1.61-11.42-1.38-15.75-5-5.32-5.97,3.06-12.72,7.6-16.19,.18-.55,1.6-.57,1.16,.23-1.95,3.17-5.32,5.59-6.06,9.36-1.08,3.72,5.17,2.73,7.42,3.37,5.41,.39,10.42,2.52,15.64,3.69,3.19,.36,6.26,1.22,9.2,2.52,3.73,1.44,1.95,7.23-1.95,6.24Z"/><path d="M246.87,168.92c-20.42,.14-40.9-.57-60.91-4.94-13.48-2.56-27.15-5.66-39.34-12.14-.69,2.55-4.05,3.62-6.15,2.05-3.26-2.12-6.51-4.23-9.5-6.73-6.97-5.63-9.24-13.44-6.66-22,.97-7.27,6.02-12.89,11.84-16.97,38.39-24.74,86.13-29.53,130.82-27.09,21.14,1.15,42.15,5.49,62.12,12.45,11.56,4.88,22.64,11.12,32.24,18.87,8.74,6.51,12.73,20.03,5.21,28.91-6.55,8.75-17.18,12.3-27.32,15.06-13.32,3.93-26.63,8.21-40.44,10.06-17.18,2.56-34.58,2.61-51.91,2.46Zm-21.01-11.15c20.12,.19,40.32,.54,60.4-1.04,21.04-1.62,41.06-8.51,61.16-14.44,29.67-12.75,2.14-28.78-14.07-36.84-8.36-4.11-17.44-6.26-26.48-8.33-48.45-11.26-109.5-9.39-154.05,13.89-6.12,3.37-12.74,6.74-16.71,12.72-3.3,8.95-4.1,13.28,4.05,19.69,13.67,6.1,28.44,8.43,43.14,10.54,14.15,1.73,28.27,3.92,42.56,3.81Z"/><path d="M352.7,411.19c-2.31-.26-4-2.45-3.73-4.75,.49-6.54,.95-13.1,1.14-19.66,.27-27.59,4.74-54.78,7.3-82.19,.87-15.14,2.12-30.24,4-45.29,1.29-14.57,1.53-29.16,1.96-43.77,1.02-16.56,1.84-33.18,2.4-49.66,.19-15.2-.85-30.39-1.16-45.57-.03-.02-.07-.04-.1-.07-.17-.17-.15-.38-.03-.52,.07-.78-.26-1.63,.21-2.3,.11-.12,.29-.15,.44-.09,.44,.16,.36,.78,.36,1.12,1.45,16.06,2.77,32.12,2.76,48.26-.21,9.35-.61,18.68-.72,28.04-.92,17.9-.64,35.86-1.48,53.75-.64,17.18-3.2,34.17-2.95,51.31,.56,22.16-3.7,44.18-3.85,66.27,.17,9.07,.16,18.15-.29,27.22-.21,4.74-.68,9.51-1.53,14.18-.28,2.27-2.45,4.05-4.74,3.73Z"/><path d="M361.47,242.32c.55-24.54,2.46-49.17,3.95-73.65,.7-10.3,.43-20.6,.51-30.91,.37-3.67-.67-7.95,1.13-11.26,1.11-1.05,2.73,.08,2.31,1.53-.03,10.59,1.06,21.16,1.03,31.74-.31,13.95-1.4,27.88-2.64,41.77-1.45,9.52-2.21,19.08-2.58,28.69-.23,4.08-.5,8.17-.77,12.25-.04,.73-.75,1.29-1.45,1.3-.78,0-1.52-.66-1.49-1.46Z"/><path d="M139.46,418.04c-.09-.08-.18-.16-.27-.24-.65-.58-1.3-1.16-1.97-1.72-.9-.75-1.78-1.52-2.74-2.19-.47-4.4-.83-8.81-1.04-13.22-1.23-15.28-.64-30.59-.64-45.89-.41-10.99,.4-21.99-.21-32.98-.9-15.08-1.95-29.83-1.59-44.9-.18-25-2.99-49.81-5.24-74.67-1.03-13.44,.44-27.13-.37-40.53-.68-7.5-1.48-14.98-1.58-22.52-.23-2.4-.18-5.62,2.81-6.08-.14-1.92-.03-3.88-.48-5.75-.08,.43-.03,.8-.06,1.22-.05,.51-.85,.42-.8-.09h0c-.02-.76-.04-2.91,1.2-2.12,1.22,2.05,1.53,4.64,1.94,6.99,1.17,.52,2.05,1.67,1.99,2.99-.26,2.32-.26,4.66-.08,7,1.06,12.23,3.23,24.37,2.29,36.69-.59,10.73,1,21.42,1.32,32.13,.28,5.15-.08,10.28-.33,15.41,1.28,11.48,2.93,22.91,3.35,34.46,1.18,14.44-2.36,28.77-.68,43.19,2.52,24.97,1.08,50.07,2.37,75.11,.61,10.7,.29,21.42,.54,32.11,.21,1.5,.7,3.93,.3,5.6l-.03-.02Z"/><path d="M225.05,451.23c-19.05-1.29-37.92-5.93-55.01-14.48-5.96-2.62-17.26-7.94-24.86-14.22l-.02-.02c-.64-.58-1.28-1.16-1.95-1.71-3.05-2.86-5.2-5.87-5.67-8.88-.22,.26-.43,.53-.65,.79-.33,.39-.95-.11-.62-.51,.21-.26,.43-.51,.64-.78,1.14-1.72,2.15-.18,3.08,.8,11.34,8.31,24.77,12.85,37.86,17.56,7.91,3.61,16.6,5.67,24.84,7.41,19.34,4.61,39.3,3.26,58.97,2.2,17.53-1.06,34.56-5.5,50.81-11.87,10.85-5.26,20.38-12.85,30.09-19.9,3.45-2.91,6.63-8.07,11.58-4.3,5.87,5.57-2.52,11.42-6.85,14.64-13.12,9.45-26.91,18.43-42.67,22.71-22.49,7.12-46.03,10.77-69.58,10.77-3.33,0-6.66-.07-9.98-.22Z"/><path d="M243.51,402.32c-15.83-.17-31.61-2.11-47.14-5.15-10.32-2.93-20.46-6.75-30.36-10.89-9.24-5.02-19.12-9.41-26.68-16.92-2.96-2.57-5.64-5.42-7.61-8.83-.52-.53-1.16-.93-1.85-1.2h0c-.33,.12-.74-.29-.45-.63,.21-.25,.58-.19,.85-.08,6.8,4.66,16.01,9.64,23.69,13.19,5.95,2.35,11.73,5.06,17.67,7.45,8.74,2.74,17.44,5.64,26.29,8.01,8.9,1.71,17.96,2.35,26.94,3.47,16.67,1.03,33.47,1.16,50.15,.2,17.05-2.35,34.13-7.13,48.83-16.3,3.3-1.78,7.3-6.42,10.9-2.76,1.58,1.71,1.54,4.6-.24,6.17-24.87,20.74-59.56,25.6-90.98,24.28Z"/><path d="M201.51,357.41c-24.67-.48-34.48-8.37-26.53-33.47,3.35-11.5,6.98-22.93,10.72-34.32,4.81-13.38,7.99-25.15,2.85-39.1-4.66-10.88-9.43-21.85-10.92-33.72-1.18-8.43-1.11-17.23-5.26-24.94-5.01-11.87-17.61-16.16-29.41-18.05,.15,.25-.01,.67-.39,.61-.43-.06-.65-.69-.67-1.1-.19-.51,.2-.94,.53-1.29,10.37-5.36,27.54-.12,34.59,8.96,9.18,10.39,10.09,23.08,11.83,36.12,1.5,9.01,5.14,17.5,6.75,26.49,4.93,29.69-4.14,58.57-11.2,87.07-2.28,10.46-2.32,14.49,9.45,16.5,13.35,2.4,27.26,3.42,40.69,3.85,6.13-.98,8.44-9.34,9.81-14.44,3.61-13.89-4.94-26.76-5.04-40.56-.63-14.73-1.55-29.44-1.6-44.18-.1-4.66,6.03-7.26,9.25-3.83,2.95,3.45,1.14,8.56,1.48,12.72,.34,15.85-3.57,31.2-3,46.84,.25,6.03,2,11.88,2.45,17.88,.08,9.2-1.74,19.4-8.17,26.36-2.8,2.99-7.11,2.91-10.87,3.54-9.03,1.36-18.2,2.24-27.34,2.07Z"/><path d="M215.47,298.49c0-1.63,1.36-2.99,2.99-2.99s2.99,1.36,2.99,2.99-1.36,2.99-2.99,2.99-2.99-1.36-2.99-2.99Z"/><path d="M210.71,323.94c0-1.65,1.37-3.02,3.02-3.02s3.02,1.37,3.02,3.02-1.37,3.02-3.02,3.02-3.02-1.37-3.02-3.02Z"/><path d="M228.13,271.56c0-.67,.56-1.23,1.23-1.23s1.23,.56,1.23,1.23-.56,1.23-1.23,1.23-1.23-.56-1.23-1.23Z"/><path d="M227.78,312.25c0-1.81,1.52-3.33,3.33-3.33s3.33,1.52,3.33,3.33-1.52,3.33-3.33,3.33-3.33-1.52-3.33-3.33Z"/><path d="M213.87,277.42c0-1.37,1.14-2.51,2.51-2.51s2.51,1.14,2.51,2.51-1.14,2.51-2.51,2.51-2.51-1.14-2.51-2.51Z"/><path d="M197.54,212.26c0-1.22,1.02-2.24,2.24-2.24s2.24,1.02,2.24,2.24-1.02,2.24-2.24,2.24-2.24-1.02-2.24-2.24Z"/><path d="M190.94,183.98c0-1.32,1.1-2.41,2.41-2.41s2.41,1.1,2.41,2.41-1.1,2.41-2.41,2.41-2.41-1.1-2.41-2.41Z"/><path d="M153.87,172.84c-5.13-.71-10.14,1.2-15.27,.77-4.78-.46-9.38-3.32-11.69-7.55-5.01-9.4-6.21-30.02,10.14-22.35,3.92,1.97,8.34,1.11,12.48,1.75,2.8,.53,6.24,.6,8.29,2.81,2.16,2.62,.06,6.91-3.34,6.81-1.81-.01-3.61-.08-5.42-.06-5.06-.01-10.46,.47-15.15-1.78-.38,11.6,2.9,15.5,14.43,16.67,3.41,.51,6.22,3.02,9.73,2.96,.52,0,.52,.8,0,.8-1.44,0-2.84-.41-4.2-.83Z"/><path d="M153.71,146.91c0-.22,.18-.4,.4-.4s.4,.18,.4,.4-.18,.4-.4,.4-.4-.18-.4-.4Z"/><path d="M209.14,165.13c-2.26-2.8-2.45-6.6-4-9.77-3.81-6.06-9.76-10.6-14.72-15.73-7.64-7.68-16.95-13.8-27.32-17.06-7.18-2.24-14.68-6.69-22.38-4.76,.33,.61,.79,1.13,1.27,1.6,.4,.15,.28,.84-.2,.77-.52-.16-.82-.71-1.17-1.1-.38-.47-1.2-1.52-.31-1.96,2.35-.82,4.99-.67,7.45-.65,4.99,.41,9.73,2.15,14.53,3.48,7.32,1.79,14.43,4.4,20.82,8.44,6.43,3.75,12.06,8.67,17.55,13.66,3.4,3.24,7.18,6.14,10.08,9.87,1.85,2.33,3.11,5.1,4.93,7.45,4.14,4.42-2.6,10.42-6.53,5.74Z"/><path d="M180,160.2c-13.94-1.03-27.55-4.09-41-7.83-2.15-.67-4.41-1.2-6.29-2.47-2.33-1.71-.5-5.47,2.24-5.15-.9-3.24,2.84-5.8,5.67-4.17,3.16,.72,6.48,.7,9.59,1.7,2.6,.73,4.91,2.14,7.04,3.77,3.79,2.16,7.59,4.47,11.53,6.32,4.28,.82,10.04,.34,13.9,1.59,.99,1.97-2.82,1.66-3.94,1.78,1.31,.48,3.14,.55,3.94,1.84,.93,1.74-1.15,2.91-2.68,2.62Z"/><path d="M195.63,236.73c0-2.37,1.97-4.34,4.34-4.34s4.34,1.97,4.34,4.34-1.97,4.34-4.34,4.34-4.34-1.97-4.34-4.34Z"/><path d="M185.42,342.36c0-.43,.36-.8,.8-.8s.8,.36,.8,.8-.36,.8-.8,.8-.8-.36-.8-.8Z"/><path d="M211.12,141.87c-.63-.03-.76-1.03-.11-1.18,.55-.12,1.1-.23,1.55-.31,12.35-2.83,24.68-6.33,35.98-12.15,6.75-3.41,12.87-7.86,18.95-12.32,4.7-3.85,16.6-10.5,16.57-16.99v.03c-.72-1.38-2.31-1.85-3.65-2.39-3.99-1.29-8.25-1.73-12.41-1.53-7.38,.47-14.32,3.5-20.76,6.84-10.45,4.92-19.14,12.41-27.73,19.95-5.17,4.37-9.7,9.57-12.57,15.74-.49,.96-1.77,1.3-2.71,.9-2.01-.88-1.28-3.22-.25-4.62,6.09-10.31,16.65-16.43,25.76-23.73,6.9-5.29,14.82-9.02,22.69-12.63,9.19-4.26,20.04-5.73,29.71-2.27,15.98,6.3-19.91,29.98-26.19,33.65-13.59,7.69-29.2,12.68-44.84,13.01Z"/><path d="M317.6,178.19c-1.5-.7-1.77-2.59-2.47-3.94-1.79-4.57-3.26-9.21-4.86-13.84-7.86-21.34-17.74-41.88-26.28-62.95-2.16-2.05,.14-2.62,1.39-.45,9.52,16.09,16.9,33.16,24.75,50.07,2.8,6.55,5.26,13.25,7.64,19.97,.96,2.67,1.93,5.33,3.01,7.95,.86,1.92-1.25,4.08-3.19,3.19Z"/><path d="M302.41,185.13c-.8-.32-.96-1.41-1.26-2.13-1.37-4.34-2.79-8.81-4.27-13.06-5.25-14.92-12.26-29.23-18.95-43.47-.62-1.51,.9-1.53,1.65-.51,.29,.49,1.36,.79,1.03,1.43-.72,.52-1.36-.8-1.91-1.16,8.88,18.05,17.5,36.24,23.82,55.37,.27,1.16,2.21,3.59-.11,3.53Z"/><path d="M297.75,216c-3.04-.02-6.1,.01-9.13-.08-2.27-1.02,6.72-3.2,7.52-3.16,13.56-2.5,27.68-2.24,41.01-5.86,8.34-3.28,18.04-6.65,22.26-15.17,3.48-7.51,2.77-16.94-.59-24.39-1.6-3.05-5.26-4.13-8.02-5.88-2.38-1.27-4.73-2.6-6.94-4.16-1.62-1.08-3.53-2.07-4.03-4.12-.75-2.55,.88-5.43,3.46-6.09,3.32-.93,5.71,2.04,8.12,3.81,3.42,2.57,7.03,4.94,10.11,7.94,7.28,7.47,6.03,22.98,2.79,32.15-3.1,7.59-9.38,13.32-16.87,16.44-15.25,7.97-32.86,8.28-49.68,8.58Z"/><path d="M172.76,216.78c-17.44-3.48-29.26-13.43-36.52-29.52-2.44-4.24-3.93-9.05-4.12-13.94-.13-.42,.03-1.26,.63-.9,.26,.33,.55,.99,.44,1.4,1.72,6.34,6.11,11.18,10.26,16.03,6.36,7.52,15.07,12.3,24.24,15.57,4.48,1.46,8.82,3.28,13.42,4.32,1.92,.54,3.19,2.44,2.93,4.43-1.13,5.5-8.03,3.04-11.87,2.47l.6,.12Z"/><path d="M311.04,323.93c-10.74-4.8-22.32-8.07-31.97-15.03-10.12-7.16-18.46-17.15-30.18-21.61-.22,.2-.67,.1-.68-.28-.11-.7,.96-.5,1.34-.39,13.67,5.09,24.36,15.4,37.13,21.98,6.43,3.27,13.36,5.39,19.96,8.27,3.96,1.35,8.02,4.13,12.3,2.42,11.12-4.32,18.21-14.61,23.1-25.02,5.59-10.86,10.18-22.05,12.7-33.83,1.34-6.99,1.89-14.09,2.51-21.17,.62-5.2-.96-6.72-5.78-8.32-4.28-1.41-8.62-2.67-12.92-4.01-4.68-1.42-9.34-2.96-14.13-3.98-4.34-.89-11.97-.57-11.27-6.94,.36-2.67,3.03-4.9,5.78-4.38,6.24,.96,13.25,3.21,18.85,5.43,5.48,1.92,11.01,3.71,16.52,5.52,3.97,1.37,8.17,3.36,10.46,7.05,2.08,3.35,2.54,7.45,2.54,11.32,.19,18.64-5.79,37.03-15.73,52.69-6.31,10.2-12.48,21.39-23.29,27.45-5.18,2.94-11.39,4.97-17.24,2.83Z"/><path d="M287.97,220.89c-1.45-.15-1.97-2.14-.8-3,2.51-2.12,4.69-4.62,6.99-6.96-.23-.09-.38-.37-.19-.61,2.82-2.43,5.6-4.88,7.98-7.81,8.07-9.05,15.16-19.35,18.55-31.08,.47-1.2,2.46-1.16,2.62,.22-1.09,7-4.72,13.51-8.95,19.15-3.84,5.95-8.3,11.47-12.98,16.79-3.01,3.46-5.93,6.83-8.97,10.23-1.22,1.15-2.41,3.04-4.24,3.07Z"/><path d="M273.61,293.8c-.15-8.11,11.99-13.57,17.73-17.8,4.86-3.22,9.17-7.16,13.4-11.14,2.67-2.66,5.71-5.11,7.11-8.67-7.17,.2-13.98,2.46-20.97,3.67-5.65,1.03-11.36,1.9-16.91,3.33-5.07,1.31-10.03,3.03-15.11,4.3-1.79,.36-4.22,1.3-5.53-.44-.11-.09-.22-.17-.36-.17-.5,0-.53-.81,0-.8,.61,0,.98,.48,1.35,.83,.79,.67,1.92,.25,2.82,.15,5-1.02,9.61-3.29,14.37-5.03,11.09-3.55,22.77-5.76,34.16-7.89,24.58-4.26-11.82,22.94-17.43,25.67-5.05,3.49-12.01,6.7-13.59,13.11,.03,.49,.25,1.23-.41,1.35-.3,.04-.6-.18-.63-.48Z"/><path d="M190.48,298.23c-18.55-.29-37.18-2.04-55.3-5.99-.32-.23-.1-.8,.3-.73,.25,.08,.56,.08,.8,.11,17.25,.84,34.41,3.89,51.62,4.74,.85,.05,1.72,.11,2.58,.16,1.1,.01,1.13,1.73,0,1.72Z"/><path d="M151.29,280.5c-3.72-1.29-11.95-1.56-10.54-7.27,3.1-6.29,9.48-10.23,14.99-14.25,4.4-3.04,8.87-5.98,13.59-8.51,2.53-1.38,5.26-2.48,7.72-3.98,.44-.35,.92-.53,.96-1.09-1.51-2.47-4.12-3.95-6.24-5.83-5.51-4.31-11.45-7.56-17.48-10.99-5.19-2.62-10.2-7.37-16.3-7.02,.29,.26,.03,.74-.33,.69-.44-.12-.85-.74-.5-1.14,.36-.39,1.02-.41,1.51-.43,3.25,0,6.29,1.48,9.21,2.78,6.25,3.1,12.62,5.96,18.66,9.45,3.23,2.2,16.8,9.85,13.31,14.34-3.36,3.29-8.19,4.6-12.07,7.2-5.21,3.3-24.98,14.99-25.17,20.67,2.06,2.7,6.17,2.56,9.13,3.78,1.04,.26,.59,1.89-.44,1.59Z"/><path d="M156.01,357.86c-1.64-1.35,.05-3.01,1.06-4.12,1.06-1.28,2.09-2.66,2.44-4.32,.42-2.4-.23-4.7-.62-7.03-2.58-11.36-5.87-25.47,2.38-35.26,4.17-3.9,9.86-5.5,14.89-7.94,1-.86,1.37,.57,.26,.82-2.29,2.18-5.52,4.1-7.93,5.74-15.21,9.05-6.86,28.67-5.52,42.53,.1,2.66-1.08,5.16-2.69,7.21-1.05,1.22-2.41,3.68-4.26,2.37Z"/><path d="M354.71,302.31c0-.22,.18-.4,.4-.4s.4,.18,.4,.4-.18,.4-.4,.4-.4-.18-.4-.4Z"/><path d="M343.62,308.81c-.12-.44,.15-.98,.62-1.08,5.31-1.07,10.65-1.93,15.54-4.33,.68-.05,.67,.65-.11,1.07-.52,.26-1.73,1.87-2.02,.72-4.23,1.65-8.62,2.88-12.95,4.24-.45,.14-.96-.17-1.08-.63Z"/><path d="M269.05,285.48c-6.23-.1-6.29-9.37-.03-9.52,12.47,.31,24.96,.29,37.35-1.3,15.03-1.88,29.71-5.76,44.32-9.67,2.46-.57,12.67-3.75,13.07-.21-.08,.37-.71,.87-.99,.44-31.93,13.89-58.65,20.61-93.71,20.26Z"/><path d="M217.65,409.78c.02-.13,.1-.24,.2-.32-20.3-1.48-40.62-5.25-59.16-13.9-7.38-3.24-14.54-7.12-21.14-11.76-.68-.48-1.23-1.05-1.54-1.85-1.29-3,2.14-6.35,5.11-4.86,19.07,9.74,38.4,19.46,59.09,25.29,1.46,.92,27.02,6.08,18.23,7.67-.26,.29-.84,.23-.79-.27Z"/><path d="M215.26,419.53c-13.31-.75-26.7-1.98-39.74-4.92-8.89-2.2-17.35-5.89-25.67-9.68-4.13-1.94-8.14-4.18-12.06-6.5-2.29-1.36-4.5-2.82-6.67-4.38-.61-.44-1.04-1.2-1.22-1.92-.84-3.02,2.75-5.64,5.38-3.93,13.97,8.51,28.56,16.38,44.1,21.61,11.07,3.25,22.41,5.42,33.58,8.27,.81,.2,1.59,.56,2.42,.65,.52,.09,.37,.88-.13,.8Z"/><path d="M212.3,429.77c-25.17-1.72-49.7-9.35-72.53-19.58-4.68-2.29-1.58-9.29,3.28-7.27,21.48,10.11,43.5,19.98,66.95,24.33,2.73,.35,9.8,2.54,2.31,2.52Z"/><path d="M246.87,411.23c.03-1.1,1-2.12,2.14-2.05,3.73,.24,7.48,.49,11.22,.55,4.67,.09,9.4-.03,14.05-.11,.92,1.03-1.11,.75-1.67,.86-2.17,.3-4.29,.85-6.46,1.15-5.42,.77-10.85,1.55-16.33,1.7-1.41,.28-2.98-.54-2.94-2.11Z"/><path d="M243.94,424.56c-4.57-.72-3.98-7.61,.65-7.52,10.74,1.16,21.48,1.12,32.21,.09h0c5.57,2.73-10.38,6.14-12.18,6.33-6.81,1.07-13.8,1.88-20.68,1.11Z"/><path d="M243.55,435.05c-4.2-.25-3.7-6.49,.53-6,9.7,1.22,19.47,1.58,29.24,1.25,.93,.17,5.51-.75,5.06,.61-3,1.84-7.55,1.78-11.04,2.47-7.83,.88-16.04,1.77-23.79,1.67Z"/><path d="M302,369.36c-13.18-1.58-26.3-5.58-38.43-10.91-.68-.86,1.15-.91,1.25-.29,6.63,3.04,13.87,4.27,21,5.42,5.51,.77,11.04,2.01,16.62,1.62,4.23-.4,8.06-1.41,12.18-2.24,7.42-1.73,15.23-3.11,21.83-7.08,2.77-2.01,6.9,.54,6.2,3.94-1.4,7.74-33.38,9.43-40.66,9.53Z"/><path d="M307.11,355.18c-1.03,0-26.7-2.6-21.4-4.5,.39-.12,.64,.31,.5,.58,23.87,5.41,39.54,1.42,60.71-9.64,3.04-1.55,5.73,2.75,2.92,4.77-4.66,3.35-10.34,4.58-15.77,6.09-8.71,2.68-17.91,3.02-26.96,2.69Z"/><path d="M316.76,339.63c-1.84-.04-3.7-.15-5.49-.61-.38-.1-.9-.29-.81-.77,.07-.42,.62-.4,.76-.09,11.11,2.14,22.94-1.12,32.85-6.19,1.01-.52,2.29-.13,2.82,.88,1.24,2.81-2.4,3.36-4.33,3.91-8.43,1.95-17.16,2.71-25.79,2.89Z"/><path d="M250.57,190.05c-.47-.03-.94-.07-1.4-.14-.51-.09-1.11-.28-1.35-.77h0c-.62-1.85,2.18-2.41,3.47-2.74,.91-.41,1.91-1.25,2.86-.39,1.89,2.05-1.52,4.48-3.58,4.05Z"/><path d="M192.56,339.06c.07-1.74,1.53-2.99,3.21-2.99s3.05,1.57,2.99,3.21c-.07,1.74-1.53,2.99-3.21,2.99s-3.05-1.57-2.99-3.21Z"/><path d="M200.35,313.05c.03-.88,.76-1.5,1.62-1.5s1.53,.79,1.5,1.62c-.03,.88-.76,1.5-1.62,1.5s-1.53-.79-1.5-1.62Z"/><path d="M154.32,424.85c-6.86-2.19-12.87-6.07-17.9-11.18-3.06-2.97-6.47-5.86-7.62-10.13-1.22-5.85-.94-11.93-.98-17.88,.56-18,1.17-36,1.69-54.01,.46-18.78,.54-37.57,.58-56.35,.56-26.03-1.06-52-3.49-77.91-.57-16.87-.54-33.79,.04-50.67,.15-4.72,.32-9.44,.59-14.15-.02-1.92,.65-3.97-.28-5.74-.18,1.69-.05,3.38-.08,5.07,0,.51-.8,.51-.8,0,0-1.29,0-2.58,0-3.86-.22-1.83,.9-3.45,1.87-.99,.75-.85,2.29-.32,2.3,.89,.05,3.03,.02,6.07,.07,9.11,.72,22.08,2.15,44.15,2.82,66.24,.81,10.39,2.73,20.68,3.39,31.09,1.25,19.21,1.09,38.45,1.2,57.69,.07,33.33,1.71,66.68,.21,100,.21,3.79-1.38,8.01,.26,11.54,3.89,4.15,7.39,8.93,11.92,12.23,1.98,1.28,3.95,2.61,6.14,3.5,1.33,.58,2.07,2.06,1.68,3.47-.4,1.49-2.1,2.54-3.6,2.04Z"/><path d="M155.46,426.45c-3.53-.53-6.81-1.91-9.93-3.58l-.38-.34c-1.22-1.12-2.49-2.2-3.83-3.18-.61-.45-1.23-.89-1.87-1.31-.09-.08-.18-.16-.27-.24-.58-.51-1.15-1.02-1.74-1.52,.41-.51,1.25-.68,1.77-.12,5.54,4.72,12.97,11.11,20.71,9.25-6.42-4.35-13.86-7.12-20.74-10.71-4.05-2.1-10.82-4.4-9.68-10.12-.39,.19-.83,.23-1.26,.21-.26,0-.39-.2-.39-.4,0-.21,.13-.41,.39-.4,.36,0,.66,.03,.96-.14,.81-.66,1.38-.14,1.1,.8-1.04,4.16,3.43,6.44,6.51,8.02,7.47,3.78,15.2,7.05,22.44,11.26,3.3,1.97,.4,2.7-2,2.7-.7,0-1.36-.06-1.81-.17Z"/></svg>