<?xml version="1.0" encoding="utf-8"?>
<!-- Generator: Adobe Illustrator 26.3.1, SVG Export Plug-In . SVG Version: 6.00 Build 0)  -->
<svg version="1.1" id="Ebene_1" xmlns="http://www.w3.org/2000/svg" xmlns:xlink="http://www.w3.org/1999/xlink" x="0px" y="0px"
	 viewBox="0 0 500 500" style="enable-background:new 0 0 500 500;" xml:space="preserve">
<style type="text/css">
	.st0{fill:#00010D;}
</style>
<g>
	<path class="st0" d="M265.8,164.4c-18.6,0.5-37.1-1.4-55.6-3.4c-16.9-0.8-34-1.9-50.4-6.4c-9-2.4-18.4-6.3-24-14.1
		c-3.6-4.8-4.1-12.8,1.8-16c3.9-2.3,8.3-3.4,12.3-5.6c0.1-0.4,1.2-0.4,1.4,0c0.5,0.7-0.3,1.7-0.7,2.2c-2.7,3.2-6.1,6-8.1,9.7
		c3.7,17.5,57.1,17.4,72.2,19c32.4,4.5,65,8.6,97.7,7.9c13.1-0.7,36.7,2.7,45.1-8.7c1.3-6.9-4.8-13.4-10.6-16.3
		c-9.2-3.7-18.9-6.2-28.6-8.3c-10.6-1.9-21.4-3.3-32.2-4.4c-15.3-1.3-30.9-0.5-46.1-2.2c-5-1.3-5-8.9,0.1-10
		c13.3-0.4,26.8,0.1,40.2,0.9c20.1,1.6,40.1,5.4,59.1,12.4c9.4,3,19,7.3,23.3,16.8c4,7.7,3,15.7-5.6,19.4c-15.7,7.3-34,5.1-50.8,6.5
		C292.8,164.8,279.3,164.6,265.8,164.4z"/>
	<path class="st0" d="M351.2,383.5c-5-0.8-2.3-7.2-2.7-10.7c0-23,3.5-45.7,4-68.7c1.3-20.8,2-41.7,2.8-62.5
		c0.6-15.4,1.7-30.8,1.9-46.3c1.1-18.8,3.1-37.6,1.6-56.3c0,0,0,0,0,0c-0.2-1.5,2-2.5,3-1.2c1.4,2.3,0.9,5.4,1.2,8
		c0.3,8,0.6,16.1-0.2,24.1c-1.4,13.6,0.5,27.2,0.7,40.7c0.1,10.5-1.3,21-1.3,31.5c-0.4,33.1-2.5,66.3-4.5,99.3
		c-1.2,10.2-1.7,20.4-2.1,30.7C354.9,375.6,356.1,383.6,351.2,383.5z"/>
	<path class="st0" d="M143.9,395c-2.7-25.2-1.3-50.5-2-75.7c-0.1-11-0.8-22-1.7-32.9c-1.1-13.5-0.4-26.5-1-39.8
		c-0.2-22.1-2.9-44-3.6-66c-0.7-15.4,0.8-30.9-0.3-46.2c-0.2-0.1-0.3-0.4-0.2-0.6c1.9-1.6,3.2,10.7,3.3,12c1,13.6,1.8,27.2,2.6,40.8
		c2.1,22,2.9,44,3.2,66c-0.4,16.2-0.1,32.3,1.8,48.4c1.1,10.9,1.1,21.9,1.2,32.8c0.6,10.7,1.9,21.3,1.6,32.1
		c-0.2,9.6,0.7,19.2,1,28.8C149.8,398.3,144.2,398.9,143.9,395z"/>
	<path class="st0" d="M240.6,370c-31.1-0.3-63-4-92.2-14.9c0,0,0,0,0,0c-1.6-1.1-0.8-3.8,1.2-3.8c2.5,0.2,4.8,1.4,7.2,1.9
		c10.8,2.5,21.8,6.1,32.7,8.3c26.7,5.5,54.3,5.1,81.5,4.7c12.2-1.2,24.5-2.6,36.4-5.7c10.3-2.9,20.2-6.9,30.5-10
		c4.4-1.4,8.8-3.1,13.4-3.9c1.9-0.4,3.9,1,4.4,2.9c0.6,1.9-0.5,3.9-2.3,4.8c-16.5,7.4-34.1,12.8-52.2,13.9
		c-12.1,0.8-24.3,1.3-36.4,1.2C256.7,370.1,248.7,370.2,240.6,370z"/>
	<path class="st0" d="M240.7,427.7c-14.9-1.1-29.2-2.5-43.4-7.2c-12-2.7-23.5-7.2-34.1-13.5c-5.1-2.6-10.1-5.4-14.3-9.3
		c-3-2.4-4.3-6-4.1-9.8c0.1-3.9-0.6-7.7-1-11.5c-1-7.1,0.8-14.2,2.7-21c0.4-1.5,0.9-3,1.6-4.3c0.3-0.5,0.8-1.1,1.5-1
		c0.4,0.1,0.7,0.3,0.9,0.6c0.2,0.3-0.1,0.8-0.5,0.6c-0.2-0.1-0.2-0.2-0.3-0.3c-0.1-0.1-0.2-0.1-0.2-0.1c-0.7,0.6-0.9,1.7-1.3,2.4
		c-3.1,8.9-4.8,18.4-2.8,27.7c0.7,12.2,1.4,12.2,11.8,18.4c12.7,6.5,26.4,10.7,40.5,12.9c12.2,3.4,24.7,4.4,37.3,4.9
		c10.1,1.2,20-0.3,30-1.4c10.6-0.9,21.7-0.7,31.9-4.1c9-3,17.7-6.7,25.7-11.9c6.5-3.7,13.1-7.4,18.7-12.5c1.6-1.4,3.5-2.5,4.7-4.3
		c0.6-0.9,0.9-2,1.7-2.7c2.5-2.6,7.2,0.3,6,3.7c-8.4,15.2-25.4,23.2-40.3,30.7c-16.3,8-34.3,11-52.2,12.1
		C254.3,427.7,247.5,428.1,240.7,427.7z"/>
	<path class="st0" d="M148.3,363.2c0-0.2,0.2-0.4,0.4-0.4c0.2,0,0.4,0.2,0.4,0.4c0,0.2-0.2,0.4-0.4,0.4
		C148.5,363.6,148.3,363.4,148.3,363.2z"/>
	<path class="st0" d="M148.3,365.3c-0.1-0.6-0.8-1.9,0-2.1c0.8,0,0.5,1.3,0.8,1.8C149.3,365.5,148.5,365.8,148.3,365.3z"/>
	<path class="st0" d="M158,402.5c-4.2-0.3-8.2-2-10.7-5.5c-0.6-0.7-1-1.7-0.6-2.6c-3.7-2.7-2.7-7.2-2.2-11c0.3-8.6,1.8-17,2-25.6
		c0-1.4,0.6-6.4,2.3-3.2c0.3,0.4-0.4,0.9-0.7,0.5c-0.1-0.1-0.2-0.3-0.3-0.4c-1.3,7.7-0.7,15.6-0.9,23.4c0.1,3,0.1,6,0,9
		c-0.1,1.7-0.3,3.5,1,4.8c2.8,2.6,6.1,5.2,9.7,6.6c1.1,0.5,4.5,1.4,2.7,3C160,402.4,158.9,402.6,158,402.5z"/>
	<path class="st0" d="M244.9,350.3c-15.3-3.3-32.1-14.4-32.3-31.5c0.8-6.9,5.2-13,9.4-18.3c9.5-11.4,26.3-12.6,39.2-6.7
		c7.8,3.5,16,9.1,18.5,17.7C285.8,331.4,265.8,354.9,244.9,350.3z M232.3,328.9c-3.7-9.8,0.7-22.7,10.7-26.8
		c-6.7,0.8-12.5,6.2-15.5,12.1C225.3,319.7,228.8,324.9,232.3,328.9z"/>
	<path class="st0" d="M233.5,346.5c-25.4-0.6-51.5-4.8-73-19.1c-1.7-0.8-17.1-13.3-12.6-13.8c0.5,0,0.5,0.8,0,0.9
		c23.7,30.6,82.1,34.9,117.8,28.8c17-2.2,33.8-6.2,48.7-14.7c12.8-5.9,24.2-14.5,32.9-25.5c1.3-1,2.2-4.1,4.2-3
		c0.5,0.4,0.6,1.2,0.2,1.7c-4,5.5-8.8,10.5-14.1,14.9c-10.1,8.5-22.8,13-34.6,18.5C280.8,343.2,257,346.7,233.5,346.5z"/>
	<path class="st0" d="M203,354.7c-14-3-51.3-7.7-56.4-22.6c-0.7-2.2,1-4.8,3.5-3.8c1.3,0.6,2.4,1.7,3.6,2.6
		c5.3,3.6,12.4,5.8,18.2,7.5c5.8,1.6,11.7,2.6,17.6,3.9c5.2,1.1,10.3,2.2,15.4,3.5c1.2,0.3,2.2,0.9,2.9,1.9
		C210,350.9,206.8,355.6,203,354.7z"/>
	<path class="st0" d="M254.6,408.8c-9.2-0.3-18.3-0.1-27.5-1c-3-0.3-5.9-0.6-8.8-1.5c-0.5-0.1-1-0.4-1.2-0.8c0,0,0,0,0,0
		c-0.8-2,2.8-1.9,4-2.2c4.5-0.5,8.9-0.8,13.4-1.2c10.3-0.9,20.7-1.2,30.9-2.2c8.1-1,15.8-3.8,23.4-6.5c2.7-0.9,5.8,0.6,6.6,3.3
		c1.5,5.6-3.7,7-8,8C276.8,407.9,265.7,409.6,254.6,408.8z"/>
	<path class="st0" d="M241.4,420.2c-6.1-0.3-12.1-0.5-18.2-0.4c-4.7-0.2-7.3-6.3-4.1-9.8c1.8-2.3,4.8-2.1,7.4-2.1
		c9.4-0.2,18.9-0.2,28.1-1.3c0.2,0,0.4,0,0.5-0.1c0.1,0,0.2,0,0.3,0c-0.1,0-0.3,0-0.4,0.1c-0.1,0-0.2,0-0.3,0c5.5-0.8,11-2.2,16.3-4
		c3.1-0.8,6-2.6,9.3-2.9c3.4-0.2,6.4,2.8,6,6.2c3.9-0.5,7.7-1.6,11.6-1.7c6.5,0.4,7.1,10,0.7,11.2
		C279.8,420,260.4,420.7,241.4,420.2z"/>
	<path class="st0" d="M323.2,391.9c-2.4-0.2-4.4-1.7-5.2-4c-0.2-0.6-0.3-1.3-0.3-1.9c-1.4-0.3-2.6-1.1-3.5-2.2
		c-2.6-1.3-3-5.2-0.6-6.9c-2.5,0-4.4-2.5-3.9-4.9c1.3-5.4,12.3-6.9,17-8.4c3.3-4.3,7.7-7.5,12-10.8c1.7-1.3,3.7-2.7,5.9-2.4
		c2.8,0.2,5.1,2.9,4.5,5.7c0.1,0.2,0.2,0.4,0.3,0.6c0.5,1.3,0.5,2.7,0.2,4c0.7,1.4,0.4,3,0.6,4.4c8.6,5.8-1,14.2-6.9,17.6
		c-5.1,3.2-10.5,6-16.2,8.3C325.9,391.5,324.6,392,323.2,391.9z"/>
	<path class="st0" d="M186.9,386.4c-5.7-0.1-11-2.8-16.8-2.4c-6.8-0.8-19.3,1.8-21.2-7.1c-0.2-0.1-0.4-0.2-0.6-0.4
		c-4.3-0.2-6.2-6.2-3.5-9.3c-0.2-1.6-0.3-2.7-0.5-4.1c0.2-2.6,1.2-5.6,3.4-7.2c2.8-1.9,6.1-0.3,9.1,0.4c7.4,2.1,14.8,4.3,22.3,6.4
		c4.6,1.2,9.3,2.4,14.1,2.4c2.9,0.2,5.8-1,8.7-0.5c2.8,0.5,4.6,3.8,3.3,6.4c-1.9,3.8-7,3.2-10.5,2.9c-3.5,0.3-7.1,0.6-10.7,0.7
		c3.7,0.8,9,0.3,10.5,4.6C195.9,383.7,191,387.1,186.9,386.4z M167,365.1c-0.9-0.4-1.7-0.7-2.5-1.1c-1.8-0.8-3.7-1.7-5.5-2.5
		C161.2,363.4,164.1,364.4,167,365.1z"/>
	<path class="st0" d="M233.2,411.2c-15-0.1-30.1-1.7-44.5-5.9c-8.3-2.4-16.7-4.9-24-9.7c-1.8-2.9,6.2,0.1,7.3,0.2
		c12.7,3.4,25.8,5,38.8,6.4c7.6,0.8,15.3,1.2,22.9,1.8c1.9,0.1,3.5,1.9,3.3,3.8C236.9,409.8,235.1,411.3,233.2,411.2z"/>
	<path class="st0" d="M92.6,177.4c-0.5-0.1-0.8-0.4-1.1-0.8c-5.9-1.2-6.3-10.2-6.3-15.1c-0.1-10.6,3.1-21,7.3-30.7
		c8.8-23,24.9-41.8,46.8-53.2c12.8-6.2,27.6-6.3,41.4-4.4c22.2,2.7,36.8,10.4,50.7,28.1c6.1,7.4,11.2,15.6,16,24
		c3.8,8.5,6.3,17.6,8.9,26.4c0.2,1-1.4,1.4-1.7,0.4c-0.6-1.8-1-3.7-1.6-5.5c-1.6-5.4-3.6-10.9-5.7-16c-3.2-7.3-8.8-13.8-13.3-20.1
		c-8.9-11.9-21.3-21.6-36-24.9c-18.3-3.4-38.6-6.2-55.4,3.5c-10,6.2-19.6,13.5-26.8,23c-8.8,12.4-15.5,26.4-19.9,40.9
		c-1.4,5.3-2,10.8-2.3,16.3c-0.3,2.2,0.2,4.8-1.3,6.7c0.2,0.4,0.8,0.5,1.1,0.2c0.5-0.3,0.9,0.4,0.5,0.7
		C93.4,177.3,93,177.5,92.6,177.4z"/>
	<path class="st0" d="M93.3,176.2c-0.4-0.5-0.4-1.2-0.4-1.8c0.2-7.2,1.7-14.2,3.6-21.1c1.2-5.2,1.4-10.6,2.5-15.8
		c2.1-9.2,5.8-18.3,11.3-26c9.9-12.7,23.9-22.9,40.1-25.2c15.2-3.2,30.6,1.4,43.7,9c12.4,7.9,23.3,18.6,32.4,30.2
		c6.9,9.2,10.3,20.2,13.2,31.2c0.4,1.4-0.4,3-1.9,3.3c-1.5,0.3-2.9-0.8-3-2.3c-0.2-4.4-1.5-8.7-3.1-12.7
		c-7.1-17.8-20.9-32.8-36.6-43.3c-13.7-8.1-28.6-9.9-44-5.6c-14.7,3.8-27.4,14.1-36.1,26.3c-6,9-9.1,19.2-12.4,29.3
		c-2.7,7.3-6.4,13.9-8.5,21.3c-0.1,0.9-0.3,2,0.1,2.8c0.4-0.1,0.8,0.5,0.4,0.8C94,176.8,93.6,176.6,93.3,176.2z"/>
	<path class="st0" d="M216.2,151.9c2.4-8,3.4-21.6-6.4-24.7c-3.3-0.9-6.8-0.7-10.2-0.9c-0.9-0.1-1.7-0.4-2.3-1.1
		c-0.6-0.6-0.6-1.4-0.5-2.2c-0.9-6.1-5.4-10.6-11.1-12.6c-5.6-2.1-11.9-4.2-17.7-1.5c-3.4,1.2-7.5,5.3-10.9,2.4
		c-0.5-0.6-0.7-1.4-0.4-2.1c-7-10.2-22.6-14.5-31.6-4.6c0,0,0.1,0.1,0.1,0.1c0.4-0.1,0.7,0.5,0.3,0.8c-0.4,0.3-1-0.1-1.2-0.5
		c-0.3-1.5,1.6-2.4,2.6-3.3c10.8-7.2,23.2-3.9,30.5,6.4c6.6-8.7,18-9.8,27.2-4.8c8.6,3.6,13.8,10,14.6,19.3
		c10.7-0.2,19,4.7,19.2,16.2c0.2,4.5,0.2,9.2-1.5,13.5C216.9,152.7,216.1,152.4,216.2,151.9z"/>
	<path class="st0" d="M106,178.2c-4.4-0.5-9,0-13.2-1.3c-1.7-0.9-0.8-3,0.7-3.6c7.2-3.1,15.2-3.2,22.9-4.3c4.8-0.4,9.5-0.7,14.3-0.8
		c2.9,0.4,7.9-1.2,9,2.6C141,177.8,111,178.8,106,178.2z"/>
	<path class="st0" d="M151.8,138.3c-0.2-0.1-0.3-0.4-0.2-0.6c2-4.4,3.9-8.8,5.5-13.3c1.4-4.2,2.9-8.4,3.7-12.7
		c0.1-0.2,0.2-0.3,0.4-0.2c0.2,0,0.4,0.2,0.4,0.3c-0.1,1.8-0.8,3.6-1.3,5.4c-2,7.2-4.8,14.1-7.9,20.9
		C152.3,138.3,152.1,138.4,151.8,138.3z"/>
	<path class="st0" d="M168.7,142.2c-1.5-1.7,2.1-3.6,3-4.9c6.8-6.6,13.6-13.1,19.8-20.3c0.5-0.5,1.8-2.3,2.2-1
		c-0.1,0.4-0.4,1.3-0.9,0.9c-6.2,7-12.1,14.3-18.6,21.1c-1.3,1.4-2.5,2.9-3.9,4.3C169.8,142.6,169.1,142.6,168.7,142.2z"/>
	<path class="st0" d="M130.2,139.5c-0.3-0.1-0.6-0.4-0.7-0.7c-1.8-5.2-3.1-10.5-4.9-15.7c-0.9-2.8-1.8-5.6-3-8.3
		c-0.2-0.4,0.2-0.8,0.6-0.6c2.9,6.3,4.4,13.4,7.3,19.9c0.5,1.6,1.9,3,2.1,4.6C131.5,139.3,130.8,139.7,130.2,139.5z"/>
	<path class="st0" d="M132.3,158.9c-8.5-1.5-15.9-6.3-23.8-9.6c-3.4-1.9-7.1-3.4-10.3-5.7c-0.4-0.4-0.8-1-0.7-1.5
		c0.1-0.2,0.3-0.3,0.5-0.3c0.4,0.1,0.3,0.6,0.5,0.9c8.6,6.2,19.6,8,29,12.7c1.7,0.7,3.5,1.1,5.2,1.7c0.4,0.1,0.7,0.6,0.6,1
		C133.3,158.6,132.8,159,132.3,158.9z"/>
	<path class="st0" d="M185.1,145.4c-0.2-1.3,1.8-1.1,2.5-1.6c7.5-2.9,14.2-7.3,21-11.4c0.5-0.2,0.8-0.6,1.3-0.8
		c0.4-0.1,0.7,0.4,0.4,0.7c-0.6,0.5-2.8,3.3-3.3,2c-6.5,4.1-13.3,7.8-20.3,11.1C186.3,145.7,185.4,146.2,185.1,145.4z"/>
	<path class="st0" d="M211.9,98.9c-0.1-1.2,0.9-2.4,2.2-2.4s2.4,0.8,2.4,2.2c0.1,1.2-0.9,2.4-2.2,2.4S211.9,100.2,211.9,98.9z"/>
	<path class="st0" d="M224.5,121c-1.1-0.9-1.8-2.3-1.9-3.8c-0.2-2.8,2.1-5.7,5.1-5.7c1.4,0,2.8,0.3,3.9,1.3c1.1,0.9,1.8,2.3,1.9,3.8
		c0.2,2.8-2.1,5.7-5.1,5.7C226.9,122.3,225.6,122,224.5,121z"/>
	<path class="st0" d="M264.1,197.6c-12.6-1.4-25-3.8-37.7-4.4c-7.5,0.3-14.8,2.2-22.3,2.2c-20.4,1.2-47.5-7.7-64.1-19.5
		c0.2,0.3-0.1,0.8-0.5,0.6c-0.6-0.3-1.1-1.3-0.9-2c0.1-0.2,0.2-0.3,0.4-0.3c13,9.4,28.7,14.8,44.3,18.5c9.9,2.6,20.2,2,30.2,1.1
		c6-0.9,12-2.1,18-1.2c16.2,1.5,32.2,4.7,48.6,4.5c12.8-0.1,25.6-1.6,38-4.6c9-2.4,17.1-5.8,24.4-11.4c3.9-3.1,6.4-5.7,10.4-8
		c5.6-2.8,10.9,4.9,6.1,9.1c-11.3,8.2-24.8,11.6-38.5,13C301.8,197.7,282.9,199.6,264.1,197.6z"/>
	<path class="st0" d="M351,178.8c-8.9-16.4-24.3-18.7-40.1-24.3c-8-3.2-15.8-7.2-24.2-9.1c-9.4-0.9-19-0.3-28.3,0.8
		c-0.4,0.4-1.9,0.6-1.5-0.3c0.3-0.4,0.9-0.5,1.3-0.5c3.2-0.5,6.5-0.7,9.8-0.9c7.2-0.2,14.5-0.9,21.6,0.6c8.6,2.6,17.1,6.1,25.7,8.6
		c16.3,3.3,30.9,7,38.4,23.6C354.4,178.9,351.9,180.4,351,178.8z"/>
	<path class="st0" d="M152.5,177.4c-3.5-1.9,4.6-2.3,5.7-2.6c19-2.2,37.9-4.9,56.8-8.2c0.5-0.1,0.8,0.8,0.2,0.9
		c-11.2,1.8-22.4,3.8-33.6,5.3c-9.6,1.3-19.2,1.9-28.7,3.8C153.4,176.8,153.1,177.7,152.5,177.4z"/>
	<path class="st0" d="M168.1,277.5c0.1-1.2,1.1-2.1,2.3-2.1c1.2,0,2.2,1.2,2.1,2.3c-0.1,1.2-1.1,2.1-2.3,2.1
		C169,279.8,168,278.7,168.1,277.5z"/>
	<path class="st0" d="M235.6,241.7c0.2-3.4,3-5.7,6.3-5.7c3.3,0,5.8,3.1,5.7,6.3c-0.2,3.4-3,5.7-6.3,5.7
		C238,248,235.5,244.9,235.6,241.7z"/>
	<path class="st0" d="M193.5,236.4c0.1-1.1,1-1.9,2.1-1.9c1.1,0,1.9,1,1.9,2.1c-0.1,1.1-1,1.9-2.1,1.9
		C194.3,238.4,193.4,237.4,193.5,236.4z"/>
	<path class="st0" d="M305.9,273.8c0.2-3.2,2.9-5.4,6-5.4c3.1,0,5.5,3,5.4,6c-0.2,3.2-2.9,5.4-6,5.4
		C308.2,279.8,305.8,276.8,305.9,273.8z"/>
	<path class="st0" d="M326.6,217.5c0.1-2.4,2.2-4.1,4.5-4.1s4.2,2.3,4.1,4.5c-0.1,2.4-2.2,4.1-4.5,4.1S326.5,219.7,326.6,217.5z"/>
	<path class="st0" d="M139.1,147.9c-0.3-4.1-0.2-8.4-0.9-12.5c-0.1,0.5,0.4,1.9-0.6,1.7c-0.5-0.5-0.2-1.5-0.3-2.2c0-0.6,0-2.2,1-1.6
		c1.2,2.6,1.5,5.5,2.4,8.2c0.3,2.3,1.9,4.8,1.2,7.1C141.2,149.8,139.2,149.3,139.1,147.9z"/>
	<path class="st0" d="M93.7,168.1c-0.6-0.4-0.9-1.2-0.8-1.9c0.3-3,1.3-5.8,1.8-8.7c-0.3-2.4,0.6-17.3,3.7-16.8
		c0.7-2.3,1.8-0.9,1.6,0.8c0,0.6,0.3,2-0.7,1.8c-0.6,4.2-1.5,8.5-1.2,12.8c0,1.4,0,2.6,0.2,4c0.3,0.9-0.2,2.1-1.3,2
		c-0.3,1.7-0.3,3.5-0.6,5.2C96,168.2,94.6,168.7,93.7,168.1z"/>
	<path class="st0" d="M174.3,407.5c-10.7,0.5-22.4-1.4-30-9.6c-4.9-6.4-5.8-15.1-6.1-23c-1.1-16.9-0.6-33.9-0.5-50.8
		c-0.1-25.3,2.5-50.5,2.2-75.8c0-9.1-0.8-18.1-1.2-27.2c0-6.9,0.2-13.8-0.3-20.5c-1-14.3-1.8-28.6-2.7-42.9
		c-0.5-6.6-1.3-13.2-2.2-19.7c-0.8-3.5-1.4-10,4-9c5.1,2.3,5.2,12.9,6.5,17.8c3.3,17.1,2.7,34.7,4.1,52c0.8,28.4-1.4,58.6-2.4,87
		c-0.7,22.3,0.4,44.6,1,66.9c0,10.3,0.2,21.1,0.9,31.3c0.6,4.6,2,9.4,6.1,12.1c6.1,4.9,13.5,6.9,21,7.9
		C176.9,404.2,176.5,407.6,174.3,407.5z"/>
</g>
</svg>
