<?xml version="1.0" encoding="UTF-8"?><svg id="Ebene_1" xmlns="http://www.w3.org/2000/svg" viewBox="0 0 500 500"><path d="M283.68,49.77c0-.24,.21-.41,.44-.41s.42,.21,.41,.44c0,.24-.21,.41-.44,.41s-.42-.21-.41-.44Z"/><path d="M275.46,181.07c-3.47-.39-1.49-6.26-1.8-8.65,.24-6.79,.72-13.59,1.05-20.37-.16-20.2-.03-40.42-.09-60.63,.17-9.12-.18-18.25,.22-27.37,.63-6.14,.33-12.88,3.33-18.42,1.31-1.68,3.11-1.16,2.88,1.1-.14,1.58,.34,3.1,.74,4.61,.14,.54-.7,.73-.83,.19-.05-.19-.1-.39-.15-.58-.53,11.73,1.36,23.39,1.37,35.12,.58,18.36-.68,36.68-1.58,55-.05,10.39-1.62,20.63-2.5,30.93-.61,2.42,.74,9.12-2.64,9.07Z"/><path d="M296.5,125.28c-8.17-1.67-2.7-14.99-10.42-16.9,.11-.02,.21-.03,.32-.05-3.57,.08-4.99,6.65-8.71,4.17-2.4-2.22,.69-4.79,2.46-6.16,5.19-4.81,10.82-3.6,14.49,2.25,2.22,3.46,2.03,7.67,3.31,11.45,1.95-.38,2.99-2.5,3.99-4.03,2.53-4.7,4.47-9.81,6.44-14.75,3.78-10.13,7.98-22.83,.75-32.35-3.66-6.31-10.41-9.11-16.8-11.82-2.79-1.82-15.93-8.63-13.45-12.29,1.1-.9,2.64-.41,3.87-.06,2.6,.79,5.21,1.59,7.79,2.44,6.67,2.77,14.39,3.53,19.89,8.57,11.37,10.42,10.32,27.65,5.35,41.01-1.89,5.22-4.13,10.31-6.41,15.37-2.63,5.33-5.63,13.79-12.87,13.15Z"/><path d="M302.53,115.81c-2.81-2.21-3.1-6.67-4.77-9.62-3.69-9.31-10.64-13.34-18.01-4.65-.98,.78-1.63-.69-1.46-1.52,.84-6.6,9.69-10.8,15.12-6.66,6.92,4.09,8.04,12.43,10.99,19.2,2.41,1.25,.45,4.41-1.87,3.26Z"/><path d="M291.72,166.38c-4.15-2.97-2.26-9.06-2.17-13.41,1.75-14.3,6.54-28.1,13.62-40.44,1.52-2.24,3.06-5.14,5.57-6.24,.91,.23,.54,1.53,.45,2.2-.09,.54-.94,.39-.84-.15,.06-.39,.11-.7,.11-1.06-6.32,10.9-6.34,24.07-7.78,36.25-.76,6.16-.86,12.36-.76,18.55,0,3.99-4.94,6.53-8.2,4.28Z"/><path d="M274.58,196.21c-5.06-3.58-3.41-11.04-3.09-16.35,.67-2.53,.27-9.96,3.75-9.86,1.24,.05,2.31,1.14,2.23,2.41-.14,4.33-.95,8.75,.02,13.03,9.95-9.67,24.1-12.71,37.58-11.33,7.1-.13,13.71,2.09,19.55,6.08,3.1-9.91,9.66-45.1-10.45-36.01-4.23,2.15-7.89,5.24-11.91,7.74-4.4,3.18-10.01,5.34-13.06,9.91,.7-.18,1.11,.69,.38,.85-3.36-.1,.94-3.79,1.77-4.77,4.73-4.2,9.99-7.78,14.87-11.82,2.47-1.95,4.93-4.02,7.88-5.2,23.58-8.44,16.8,29.94,14.55,42.54-2.48,7.18-11.5-.15-16.53,.07-10.77-.25-22.58,.24-31.72,6.55-5.05,2.73-9.67,9.64-15.81,6.15Z"/><path d="M303.87,102.63c-1.8-3.86-3.21-7.92-4.98-11.81-.75-1.74-1.95-3.29-3.56-4.23-6.09-2.66-13.49,2.11-15.9,7.81-.12,.33-.11,.87-.61,.79-1.2-.56,1.32-3.65,1.79-4.44,3.15-4.02,8.8-6.72,13.9-5.46,5.05,1.82,6.06,7.86,8.45,12.06,.72,1.54,1.41,3.09,2.25,4.56,.2,.35,.03,.84-.32,1.02-.36,.19-.82,.05-1.02-.31Z"/><path d="M335.26,164.03c-7.45-1.37-9.57-10.32-9.22-16.86,.09-1.53-.28-4.43,1.85-4.53,.7,.03,1.41,.62,1.44,1.36,.26,6.83,1.21,14.25,6.3,19.24,.98-.03,.46,1.25-.37,.79Z"/><path d="M331.7,172.47c-11-2.86-12.6-17.17-11.5-26.73,.17-1.21,2.11-1.16,2.17,.09,.25,7.66,1.35,16.21,6.68,22.02,1.53,1.61,3.52,2.65,5.29,3.86,.15,.99-2,.89-2.64,.76Z"/><path d="M327.64,179.1c-9.73-1-19.36-10.18-18.1-20.42,.48-2.55,.52-7.34,4.18-6.91,1.49,.26,2.48,1.71,2.24,3.19-4.01,11.7,4.94,18.32,14.22,23.2-.1-.69,.93-.87,.88-.12-.06,.26-.02,.52-.19,.74-.89,.61-2.19,.37-3.22,.33Z"/><path d="M276.44,188.18c-1.08-.2-1.25-1.45-.72-2.27,2.84-12.44,13.3-20.49,23.46-27.06,1.33-.8,2.65-2.23,4.2-2.44,6.34-4.79,13.08-8.97,20.21-12.46,.97-.32,4.47-3.31,4.06-.92-6.78,4.76-14.26,8.73-20.68,14.1-5.62,4.63-10.66,9.92-16.02,14.85-4.68,4.41-9.59,8.78-12.67,14.44-.33,.81-.76,1.97-1.84,1.77Z"/><path d="M296,167.43c-2.86-1.64-.12-5.14,.68-7.29,1.89-4.01,3.63-8.09,5.41-12.16,4.78-10.59,8.69-21.58,13.9-31.98,2.47-5.2,4.85-10.45,7.48-15.58,1.65-3.83,4.2-7.41,4.78-11.58-4.87-5.12-5.29-13.94-1.22-19.68,4.33-6.11,13.81-9.08,20.17-4.38,6.29,4.18,7.24,13.46,3.3,19.57-3.73,5.57-11.41,9.64-18.1,7.68-4.35,10.37-9.31,20.46-13.9,30.72-4.36,10.13-8.37,20.39-13.11,30.36-1.71,3.91-3.7,7.69-5.61,11.5-.48,1.67-1.77,3.77-3.79,2.82Zm39.58-81.95c5.98,.04,12.24-8.69,5.86-12.56-5.53-1.19-10.16,5.32-8.36,10.4,1.02,.37,1.34,1.43,2.02,2.14,.16,0,.32,.01,.48,.01Z"/><path d="M305.41,163.48c-2.49-1.33-.59-4.17,.19-6.01,2.49-5.25,5.2-10.12,8.08-15,3.56-6.88,7.04-13.81,9.85-21.04,5.4-12.11,11.04-24.22,14.21-37.15-.19-.28,.05-.66,.37-.69,.81,.05,.42,1.14,.36,1.63-.35,2.46-1.03,4.9-1.6,7.25,1.3-2.73,2.54-5.49,3.56-8.07,.36-1.41,1.47-3.02,3.11-2.25,.96,.45,1.34,1.6,.91,2.56-1.46,3.25-2.94,6.48-4.39,9.74-8.65,17.79-14.76,36.81-24.46,54.06-2.15,3.91-4.25,7.85-6.25,11.83-.74,1.62-1.68,4.15-3.93,3.12Z"/><path d="M138.62,219.61c-2.65-1.48,6.73-9.38,7.93-11.03,3.74-3.45,7.06-7.32,10.38-11.15,10.94-11.97,21.17-25.72,35.87-33.27,5.14-2.75,10.93-1.7,16.27-.19,10.44,2.8,20.98,5.55,30.94,9.78,6.95,2.56,13.83,5.36,20.86,7.69,3.19,1.22,6.87,1.83,9.59,3.91,.5,.95-1.65,.93-1.36,.05-22.7-7.14-46.17-12.03-69.11-18.28-18.74,.28-40.51,33.43-54.21,45.79-2,2.01-3.75,4.27-5.55,6.46-.4,.46-1.09,.57-1.61,.24Z"/><path d="M195.47,293.38c.45,.2,.91,.38,1.37,.55,1.56,.56,3.16,1.02,4.76,1.47,1.11,.31,2.22,.62,3.35,.9-1.08,1.03-2.3,1.8-3.83,1.82-2.33-.69-4.28-2.66-5.65-4.74Z"/><path d="M213.02,286.87c.24,0,.48-.01,.72-.06l-.12,.13c-.2-.02-.4-.05-.59-.07Z"/><path d="M210.53,286.54c.36-.04,.72-.1,1.08-.18,.21,.19,.48,.33,.75,.41,.07,.02,.14,.04,.21,.05-.68-.09-1.36-.18-2.03-.28Z"/><path d="M222.54,273.41c5.73-5.33,11.66-10.46,17.12-16.06,9.46-10.19,19.03-20.29,28.21-30.73,2.88-3.31,5.42-6.89,8.28-10.22,1.96-2.48,4.32-4.94,5.09-8.09-2.52-5.73-9.11-8.55-13.61-12.59-5.33,9.9-12.74,18.54-19.34,27.57-8.02,11.27-16.2,22.44-25.25,32.91-4.38,4.89-8.88,9.77-13.15,14.81,.11-.41,.18-.83,.17-1.26-.01-.89-.64-1.7-1.35-2.27,3.29-3.7,6.7-7.31,10.08-10.98,9.33-10.07,17.71-20.97,26.18-31.75,7.57-9.7,16.29-18.66,22.01-29.65-2.34-2.6-4.46-5.47-7.58-7.2-3.99-2.68-.62-8.79,3.78-6.81,5.95,2.72,7.44,9.82,12.23,13.82,4.07,4.65,12.46,10.38,8.04,17.24-6.89,10.21-15.54,19.19-23.85,28.26-6.46,6.75-12.59,13.79-19.12,20.47-4.55,4.57-9.36,8.87-14.07,13.28-1.27-.35-2.56-.64-3.87-.77Z"/><path d="M205.57,271.71c-.09-.09-.19-.19-.28-.28,.43-.52,.87-1.03,1.31-1.54,.03,.02,.06,.04,.09,.06,.05,.04,.09,.08,.14,.12l.04,.04s-.02,.05-.03,.07c-.08,.18-.17,.36-.26,.54-.15,.27-.32,.54-.49,.8-.1,.13-.2,.26-.31,.39-.07-.07-.15-.13-.22-.19Z"/><path d="M206.87,270.16s0,.05-.01,.07c0-.03,0-.05,.01-.07Z"/><path d="M206.62,269.87h0Z"/><path d="M183.12,282.96c-4.9-2.45-10.24-4.23-15.03-6.86-4.65-2.85-9.06-6.05-13.82-8.73-6.75-3.95-14.93-9.87-16.36-18.03,.13-4.55,3.45-8.15,5.82-11.78,7.37-10.6,15.49-20.68,23.12-31.07,8.55-11.12,18.38-21.38,26.28-32.96,.02-.06,.03-.12,.04-.18h-.01c-1.76,1.12-3.19,2.59-4.92,3.73-.46,.31-.95-.39-.5-.7,1.2-.45,6.67-6.48,6.24-2.7-7.4,11.5-17.42,21.26-25.43,32.36,0,0,0,0,0,0-8.35,11.84-17,23.45-25.31,35.32-3.7,5.19-5.58,8.65-.98,14.03,6.52,8.68,17.96,12.65,26.93,18.57l-.03-.02-.12-.07c4.91,2.54,10.26,3.81,15.36,5.85,.43,.17,.8,.43,1.02,.86,.81,1.44-.85,3.11-2.3,2.4Z"/><path d="M246.97,259.43c-13.27-.53-26.55-1.59-39.69-3.39-7.33-1.33-15.47-3.55-22.58-4.88-16.31-3.97-32.89-8.74-45.94-19.76-13.45-9.51-21.66-24.96-24.46-40.98-1.72-15.95,3.99-33.05,15.46-44.34,8.49-9.28,19.69-15.38,30.41-21.7,24.36-14.79,53.02-20.56,81.3-19.99,13.15,.17,26.72-1.01,39.41,3.05,.28,.15,.41,.21,.49,.51,.09,.43-.38,.57-.71,.61-.34,.16-.62-.19-.56-.5-11.89-2.21-24.05-.69-35.99-.47-28.45,.01-57.97,3.98-82.16,20.02-12.76,8.23-26.43,16.64-34.24,30.03-5.91,12.61-7.98,27.93-1.2,40.58,5.17,13.47,16.18,23.08,27.43,31.5,15.63,9.36,33.88,12.91,51.24,17.72,10.07,2.24,19.5,2.4,29.56,3.15,19.16,1.37,38.4-.28,57.1-4.49,4.13-1.04,8.3-1.93,12.49-2.71,3.46-.79,8.46-2.34,10.06,2.08,.86,2.35-.35,5.31-2.82,6.1-12.04,3.23-24.5,5.83-36.77,7.21-9.26,.55-18.57,.58-27.84,.64Z"/><path d="M314.24,116.62c-2.02-.53-4.17-.71-6.12-1.49-.24-.1-.39-.39-.3-.65-.63-.07-1.33-.29-1.93-.1-.4,.38-.98-.25-.58-.63,.73-.57,1.78-.2,2.63-.11,.79-1.22,2.76,.2,3.83,.47,.86,.52,2.36,.66,2.71,1.69,.54,.15,.3,1-.24,.83Z"/><path d="M296.27,252.7c-.29-1.32,.56-2.55,1.83-2.89,6.01-1.7,12.1-3.06,18.11-4.76,14.86-5.49,29.75-12.1,42.2-22.04,5.49-4.73,10.11-10.49,13.85-16.68,2.43-4.81,3.36-10.15,4.49-15.37,3.18-10.32-.43-20.72-5.7-29.66-5.15-8.89-13.45-15.14-21.3-21.5-6.61-5.77-13.4-11.99-21.5-15.49,.03,.13,.09,.33,.11,.41,.23,.46-.44,.91-.72,.45-.17-.27-.31-.77-.25-1.09,.12-.71,.86-.65,1.43-.57,9.49,1.68,17.56,8.46,25.01,13.9,14.9,8.75,27.77,22.23,31.04,39.61,.7,4.34,.5,8.78-.23,13.1-1.26,7.23-1.72,13.76-4.7,20.21-11.77,23-28.1,29.01-50.97,37.04-7.51,3.22-15.54,4.74-23.57,6.03-2.79,0-7.92,2.97-9.13-.72Z"/><path d="M250.11,266.82c-15.27,.57-30.43-1.14-45.19-5.1-11.89-2.66-23.63-4.91-35.27-8.4-9.28-3.19-17.74-8.26-26.12-13.28-7.08-4.52-13.25-10.88-20.9-14.33-.39,.26-.89-.32-.51-.68,.44-.42,1.2-.04,1.67,.15,6.34,3.29,11.76,8.34,17.64,12.32,10.11,6.24,21.13,11.34,32.61,14.45,17.26,3.98,34.74,7.23,52.33,9.29,10.04,.94,20.15,.71,30.23,1.09,10.33-.09,20.72-.06,30.96-1.56,6.83-1.16,13.06-3.96,19.75-5.57,6.26-1.47,12.56-2.77,18.73-4.58,.37-.11,.79,.14,.92,.5,.15,.39-.06,.88-.47,1.02-6.84,2.32-13.91,3.61-20.84,5.54-4.9,1.46-9.66,3.61-14.56,5-13.28,3.3-27.37,3.75-40.97,4.14Z"/><path d="M131.14,215.91c-1.01-.83-.27-2.22,.3-3.17-.73-6.67,21.77-27,27.92-30.63,3.7-2.46,7.9-4.02,11.84-6.05,1.81-1.1,4.42-1.63,5.7,.5,.86-.52,1.64-1,2.42-1.62,.41-.37,.98,.25,.58,.62-.53,.48-1.16,.87-1.77,1.24,1.07,.62,.11,1.53-.73,1.7-.05,1.16-.76,2.15-1.75,2.71-3.13,1.83-6.38,3.42-9.48,5.28-2.72,1.72-5.26,3.72-7.76,5.75-6.32,5.49-12.74,11-18.49,17.06-1.33,1.47-2.61,2.97-3.63,4.66-.58,.94-1.85,1.5-2.96,1.14-.37,.83-1.41,1.43-2.2,.78Z"/><path d="M273.06,168.34c-11.98-3.09-24.15-4.88-36.55-4.4-7.19,.26-14.83-.59-21.78,1.35-1.44,.46-2.91,.88-4.28,1.55-.46,.25-1.04,.13-1.39-.24-1.12-1.21,.51-2.48,1.59-2.94,6.38-3.08,13.63-3.48,20.58-4.01,9.24-.58,18.53-1.21,27.76-.26,3.06,.53,23.82,3.01,22.13,6.75-.82,2.25-3.34,.65-4.93,.34,.17,1.7-1.76,2.34-3.12,1.88Z"/><path d="M303.49,253.12c-.8-.25-1.44-.91-1.62-1.73-.18-.78,.06-1.52,.56-2.09-3.07,.87-3.06-1.49-.33-2.2-.61,.19-1.22,.37-1.83,.57-.7,.22-1.1-.84-.39-1.09,8.16-2.85,16.72-3.99,24.58-7.56,6.39-2.76,12-7.05,17.61-11.12,1.75-1.73,4.16-3.24,5.39-5.36,6.04-9.14,4.71-20.37-.81-29.39-2.95-4.04-6.17-10.17-11.72-10.36-.38,.19-1,.31-1.14-.23-.07-.39,.33-.6,.61-.49,6.06-.93,12.08,7.85,15.21,12.25,6.56,10.45,8.05,21.2,1.65,32.15,3.97,4.03-12.78,13.76-15.91,15.68-9.56,5.87-20.63,10.27-31.85,10.98Z"/><path d="M287.68,71.15c.02-.62,.54-1.06,1.14-1.06s1.08,.56,1.06,1.14c-.02,.62-.54,1.06-1.14,1.06s-1.08-.56-1.06-1.14Z"/><path d="M300.47,74.12c.04-1.24,1.08-2.14,2.29-2.14s2.18,1.11,2.14,2.29c-.04,1.24-1.08,2.14-2.29,2.14s-2.18-1.11-2.14-2.29Z"/><path d="M290.29,74.45c.02-.62,.54-1.06,1.13-1.06s1.08,.56,1.06,1.13c-.02,.62-.54,1.06-1.13,1.06s-1.08-.56-1.06-1.13Z"/><path d="M341.96,409.25c-1-.16-1.81-1.17-1.6-2.2,.52-2.6,1-5.19,1.52-7.79,1.55-7.58,2.99-15.2,4.86-22.71,2.52-11.23,3.91-22.68,5.51-34.06,1.49-7.73,3.44-15.33,4.6-23.11,.82-4.99,1.47-10,2.21-15,1.67-11.02,5-21.63,6.24-32.71,2.78-18.78,7.96-36.88,10.51-55.62,1.6-8.71,3.91-17.56,6.12-26.08,1.19-5.27,2.48-10.76,.86-15.92,0,0,.01,.01,0,0h0c-.14,.11-.26,.25-.4,.36-.45,.32-.96-.37-.51-.7,.34-.29,.77-.77,1.26-.46,5.89,9.69,.95,21.56,.2,32.04-1.8,12.26-2.5,24.68-4.94,36.84-2.66,12.17-5.95,24.09-7.48,36.45-2.75,13.53-6.14,26.9-8.17,40.58-2.74,12.94-7.13,25.46-8.44,38.64-1.85,13.23-5.27,26.18-7.92,39.18-.76,3.64-1.26,7.32-2.28,10.9-.26,.93-1.22,1.51-2.15,1.36Z"/><path d="M142.51,399c-.8-.49-1.28-1.24-1.54-2.13-2.64-9.26-2.94-18.95-3.56-28.5-1.52-15.55-3.27-31.31-5.98-46.69-3.33-20.02-6.35-40.14-8.11-60.38-2-14.19-4.18-28.38-4.54-42.74-.54-8.08-.8-16.2-.23-24.3,.21-4.24,.79-8.61-.12-12.78-.25-.57-.4-1.34-.96-1.6-.84,.35-.9-.94,.05-.86,1.29,.22,1.6,1.84,1.91,2.88,2.58,6.7,2.77,13.81,3.33,20.86,.86,7.34,2.36,14.22,2.86,21.53,1.27,13.33,4.23,26.37,6.17,39.6,2.12,21.69,5.37,43.26,7.69,64.94,2.46,15.84,2.89,32.22,5.73,47.97,.78,4.75,1.54,9.49,2.07,14.28,.21,1.71,.37,3.4,.35,5.12,0,2.49-3.01,4.15-5.11,2.79Z"/><path d="M225.52,455.44c-17.51-1.73-33.93-9.01-48.67-18.35-13.96-8.19-26.94-19.24-32.53-34.88-1.09-3.43-3.06-6.62-3.09-10.1-.16-.66,.8-.86,.94-.21,7.68,6.63,12.84,15.96,20.56,22.52,18.35,14.8,43.17,28.26,67.04,29.63,28,.28,56.72-3.89,81.13-18.1,8.75-5.67,18.35-11.58,23.57-20.89,1.42-4.12,4.11-8.35,9.12-6.48,3.04,1.22,4.43,4.69,3.29,7.72-3.65,10.89-13.08,18.47-22.1,24.89-28.53,19.97-65.04,26.01-99.27,24.27Z"/><path d="M246.6,314.58c-35.54-2.32-71.89-11.05-99.18-34.93-8.39-7.41-17.16-15.85-20.96-26.58-.01-.34,.4-.55,.68-.37,18.14,17.41,40.32,31.95,64.35,40.08,17.35,5.67,35.49,8.57,53.66,9.97,9.37,.73,18.59-1.2,27.85-2.37,22.37-1.48,44.13-9.07,62.94-21.19,5.73-3.97,11.05-8.44,16.46-12.82,1.78-1.44,4.5-1.18,6.09,.42,4.49,5.2-3.76,10.15-6.81,13.75-5.05,4.7-10.44,9.11-16.43,12.58-17.73,10.28-37.53,17.01-58.03,18.43-10.21,1.02-20.29,3.81-30.62,3.02Z"/><path d="M243.62,437.38c-17.06-.45-34.11-3.43-49.88-10.08-7.42-2.87-14.07-7.34-20.69-11.68-5.98-3.94-11.79-8.2-16.62-13.53-3.84-4.36-8.32-8.35-11.35-13.26-.04-.41,.42-.63,.72-.36,2.14,2.75,5.04,4.85,7.6,7.21,9.46,8.85,20.89,14.96,32.27,20.94,17.8,9.21,37.78,14.01,57.66,15.03,11.17,.46,22.29-.96,33.37-2.17,2.85-.36,3.54,3.95,.62,4.43-11.11,2.02-22.38,3.64-33.7,3.47Z"/><path d="M197.23,283.38c-2.79-1.69,5.44-8.33,6.56-10.33,4.11-4.85,8.21-9.72,12.81-14.12,.39-.39,1.06-.4,1.49-.05,.45,.37,.58,1.13,.15,1.58-2.53,2.79-5.32,5.57-7.45,8.67-1.89,2.28-11.09,15.92-13.56,14.26Z"/><path d="M209.35,290.88c-2.36,.02-3.55-3.11-1.81-4.69,2.84-2.74,6.18-4.93,9.36-7.24,5.89-4.39,12.45-8.24,17.35-13.74,.27-.38,.53-.81,.84-1.17,.27-.31,.84-.09,.75,.34-.06,.31-.11,.64-.17,.96-.06,.35-.43,.42-.66,.28-4.1,6.3-9.76,11.26-15.23,16.32-2.86,2.72-5.54,5.62-8.52,8.21-.53,.48-1.2,.76-1.92,.74Z"/><path d="M354.14,273.16c12.81-12.79,12.65-32.59,12.16-49.53-.06-2.56,3.43-3.88,5.11-1.97,1.61,2.35,.59,5.67,.9,8.38,.45,11.5-2.74,22.84-8.11,32.95-2.08,3.53-4.55,6.87-7.76,9.45-.64,.43-1.2,1.1-1.92,1.37-.3,0-.57-.35-.38-.65Z"/><path d="M130.03,195.09c-12.81-23.85,19.63-56.26,38.06-68.56,4.91-3.31,10.38-5.66,15.87-7.82,1.76-.71,3.53-1.41,5.31-2.07,.21-.08,.47,.03,.56,.25,.08,.21-.03,.47-.25,.56-3.38,1.26-6.72,2.64-10.06,3.99-5.93,2.46-11.42,5.84-16.5,9.75-16.58,13.22-43.02,40.09-32.62,63.09,.5,.24,.16,1.06-.36,.82Z"/><path d="M369.88,201.95c-1.09-.03-1.61-1.11-1.37-2.04,.43-6.04,.91-12.33-.19-18.28-1.71-10.75-6.9-20.36-13.5-28.87-6.33-9.23-14.51-17.57-24.72-22.32,.88,1.38,1.18,3.09,2.11,4.42,.16,.17,.15,.44-.01,.6-.73,.47-1.1-.81-1.37-1.29-.48-1.43-1.21-2.62-1.74-3.99,.26-1.96,4.44,1.04,5.34,1.53,8.83,5.16,16.43,11.98,22.36,20.33,7.86,9.39,13.7,20.62,15.1,32.9,.41,3.65,.21,7.48-.07,11.1-.48,1.75,.44,5.72-1.93,5.91Z"/><path d="M330.54,399.6c-5.02-1.02-3.76-6.36-2.64-9.95,2.16-10.57,3.88-21.23,5.92-31.82,7.39-40.86,14.3-81.93,26.12-121.8,.21-.63,.52-1.66,1.32-1.73,.55-.05,.64,.81,.09,.85-.25,.1-.38,.55-.46,.74-2.49,6.93-2.91,14.34-4.32,21.52-3.07,16.08-5.21,32.33-7.04,48.59-2.71,21.78-6.18,43.47-9.85,65.11-1.04,6.31-2,12.63-2.91,18.96-.49,3.83-.92,10.19-6.24,9.53Z"/><path d="M167.43,406.55c-1.06-.86-1.45-2.76-.24-3.66,1.62-12.55,1.11-25.18,.92-37.79-.29-16.76,.02-33.52-.31-50.28-.01-3.34-.17-6.69,.05-10.02-.03-.52,.54-1.02,.97-.62,.3,.36,.5,.8,.71,1.2,.19,.67-.74,.77-.87,.16,.03,21.63,.05,43.3,1.34,64.9,.45,8.56,.9,17.15,1.12,25.72-.2,2.8,1.59,12.86-3.69,10.39Z"/><path d="M176.94,410.83c3.87-31.02,7.27-62.73,4.35-94.11-.22,.15-.59,.1-.69-.24-.4-1.46-.82-2.91-1-4.41-.17-.94-.38-3.6,1.18-2.32,.81,1.43,.9,3.19,1.14,4.8,2.5,26.26,1.18,52.7,1.3,79.04,.05,4.34,.2,8.66,.59,12.98,.52,2.72,.48,6.7-3.06,7.02-1.75,.17-3.43-1.04-3.81-2.77Z"/><path d="M240.43,434.22c-22.42-1.8-45.2-6.05-65.49-16.11-11.58-7.17-25.73-11.51-34.45-22.46-.97-1.39-1.73-3.12-1.45-4.85,.2-1.39,1.73-2.47,2.97-1.61l-.03-.06c.39,.24,.74,.51,1.09,.81,.05,.04,.11,.09,.16,.13,.41,.07,.83,.08,1.25,.08,.63,.02,.5,.97-.11,.86,8.51,6.18,18.68,9.36,28.07,13.88,8.73,4.48,17.87,8.01,27.36,10.49,21.12,5.86,42.83,8.21,64.66,7.26,24.74-2.56,49.8-11.6,68.28-28.61,2.35-3.49,6.21-6.08,10.15-3.14,4.67,4.15,1.5,8.57-2.08,12.07-26.85,24.21-64.69,34.75-100.39,31.27Z"/><path d="M344.96,406.87c-3.48-1.08-2.17-4.89-1.51-7.49,.97-5.17,1.63-10.38,2.47-15.57,3.53-23.23,5.35-46.67,9.39-69.83,2.89-17.86,6.41-35.6,9.52-53.42,2.61-11.72,5.21-23.42,7.47-35.18,1.33-5.87,2.77-11.71,3.87-17.62,.33-1.22,.31-2.61,.95-3.69,.69-.69,1.53,.35,1.57,1.12,1.14,16.83-3.57,33.53-4.17,50.35-2.28,29.9-9.79,59.07-13.94,88.72-2.25,15.56-4.77,31.5-8.41,46.75-.73,3.59-1.45,7.19-2.38,10.74-.34,2.52-1.72,5.92-4.84,5.11Z"/></svg>