<?xml version="1.0" encoding="UTF-8"?><svg id="Ebene_1" xmlns="http://www.w3.org/2000/svg" viewBox="0 0 500 500"><path d="M295.36,111.4c-1.21-1.38-1.33-3.18-1.12-4.98-13.4-16.53-12.23-49.92-1.98-67.77,3.84-6,9.94-10.24,16.31-13.22,1.7-.59,3.88-1.86,5.57-.75,3.88,4.36-4.24,18.3-5.91,23.45-1.19,3.13-2.5,6.22-2.7,9.58,.63,3.17,3.63,5.24,4.68,8.3,.67,1.71,.71,3.61,.55,5.41,4.36-6.41,11.53-10.39,15.16-17.37,4.34-8.97,8.21-18.23,13.96-26.44,1.07-1.39,2.01-3.12,3.67-3.86,5.26-1.24,6.61,6.21,6.84,10.04,.08,9.88-5.46,18.61-9.89,27.07-3.46,6.35-7.02,12.66-11.26,18.53-4.37,5.92-9.51,11.25-14.94,16.21-3.21,3.02-6.56,5.61-9.81,8.39-.64,1.13-1.06,2.52-2.14,3.3-.27,.76-.59,1.52-.98,2.22-.67,1.22-1.8,2.43-3.2,2.75h0c-1.01,.22-2.12-.06-2.83-.87Zm.02-11.35c1.31-7.63,3.12-15.27,6.95-22.07,1.66-3.37,4.07-7.46,2.71-11.29-1.06-2.16-2.86-3.94-3.56-6.28-1.21-4.01,1.53-7.72,3.25-11.15,3.46-6.88,8.12-13.51,9.59-21.14,.6-5.28-4.56-1.65-6.86-.42-23.85,15.16-21.44,49.25-12.09,72.34Zm16.16-12.65c-.82,2.2-1.75,4.34-2.69,6.48-.8,1.82-1.58,3.64-2.33,5.47,14.26-9.49,25.3-23.1,32-38.82,4.25-9.75,10.53-21.24,5.63-31.81-7.98,8.96-11.28,20.74-17.25,30.9-2.9,5.03-6.78,9.38-9.69,14.39-2.33,4.26-4.07,8.8-5.67,13.38Z"/><path d="M271.61,112.47c-10.05-1.42-21.99-7.49-25.32-17.66-1.01-4.75,.36-9.76,2.81-13.86,1.46-2.84,4.32-4.98,5.28-8.04-.85-7.25-2.19-14.88,1.01-21.84,1.45-3.75,5.4-5.56,7.34-8.87,.75-6.15,1.38-12.35,3.48-18.25,.56-2.04,1.91-4.9,4.48-4.2,1.79,.72,2.78,2.88,3.98,4.14,5.15,6.53,11.51,12.11,15.84,19.27,.32,.56,.11,1.32-.41,1.69-.51,.36-1.31,.32-1.73-.18-1.19-1.45-2.46-2.82-3.74-4.18-4.6-5.07-10.07-9.37-13.96-15.04-1.36,3.14-2.72,6.29-3.54,9.62-.89,3.32-.79,7.32-3.52,9.79-6.72,4.82-8.56,11.31-8.29,19.27,.01,3.38,1.59,6.76,.62,10.12-3.14,6.22-8.87,13.97-4.02,20.81,5.84,6.11,12.88,11.31,21.28,12.98,6.88,1.94,13.89,.01,20.76,1.45,1.98,.6,4.44,.26,6.14,1.45,.31,.55-.61,1.12-.85,.45-9.19-2.56-18.33,2.68-27.63,1.09Z"/><path d="M297.72,108.18c-11.87-5.21-12.52-10.47-16.9-21.72-3.02-6.96-3.88-14.55-4.07-22.07-.95-12.75-2.07-25.74-6.12-37.91-.25-.78-.44-1.47-.77-2.2-.33-.46,.39-.96,.73-.51,.69,1.35,.96,2.89,1.44,4.31,5.49,15.86,3.77,33.07,8.2,49.13,2.17,6.44,5.43,12.69,8.33,18.76,2.57,3.95,6.82,6.1,11.07,7.69,3.58,1.13,1.36,6.4-1.91,4.5Z"/><path d="M315.35,110.21c-6.25,0-12.49-.04-18.71-.67-.29,.15-.75-.04-.67-.45,.06-.32,.38-.44,.67-.44,4.16,.05,8.6-1.39,12.65-1.78,7.39-1.3,15.73-.55,21.66-5.75,9.39-8.89,17.36-19.41,23.83-30.58,1.64-2.85,9.68-15.9,5.84-17.68-7.67-.33-13.97,5.15-19.1,10.24-2.52,2.28-6.16-1.22-3.99-3.82,5.32-5.15,10.92-11.02,18.58-12.22,4.3-1.21,11.07,.7,9.83,6.27-.72,2.54-1.96,4.9-3.21,7.21-4.51,7.84-9.19,15.6-13.97,23.28-5.35,7.56-9.59,16.36-16.78,22.37-4.65,3.72-10.98,3.67-16.64,4.02Z"/><path d="M298.19,107.09c-.41-.37,.09-1.1,.56-.8,5.46-.55,10.56-2.36,15.23-5.3,6.31-3.5,12.27-7.56,17.43-12.52,9.38-9.53,16.09-21.51,24.45-31.83,1.06-1.39,1.7-2.62,2.44-4.08,.37-.68,1.17-1.02,1.9-.68,.72,.34,.98,1.18,.68,1.9-3.35,6.33-7.97,11.97-11.82,18.03-4.3,5.95-8.03,12.41-13.56,17.33-5.31,5.12-11.68,9.05-18.24,12.36-6.03,3.12-12.27,5.54-19.05,5.59Z"/><path d="M281.43,70.82c-6.81-4.43-14.4-7.19-21.95-10-1.69-.54-3.5-1.55-5.3-1.2-.14,.52-.97,.32-.86-.21,.78-1.62,3.4-.38,4.72-.06,8.22,3.01,16.48,5.93,23.87,10.72,.48,.3,.01,1.07-.48,.75Z"/><path d="M277.8,83.03c-5.04-5.89-11.53-10.25-18.94-12.49-.51-.21-.69-.91-.16-1.23,.33-.47,1.06,.05,.73,.52,5.04,1.62,9.9,4.08,14.17,7.26,1.86,1.55,3.72,3.11,5.48,4.77,.35,.33,.28,.92-.05,1.22-.35,.32-.91,.31-1.23-.05Z"/><path d="M284.03,101.37c-3.46-4.16-6.76-8.39-11.43-11.22-5.87-3.29-11.99-6.51-18.77-7.14-.97,.43-1.82-1.07-.36-.94,6.07,.39,11.48,3.14,16.87,5.72,4.61,2,8.65,5.13,12.04,8.82,1.06,1.12,2.1,2.27,3.16,3.38,.39,.4,.35,1.08-.06,1.45-.42,.38-1.07,.35-1.45-.06Z"/><path d="M215.02,112.5s.01-.1,.02-.1c.04-.16-.05-.38-.16-.5-1.66-1.55-3.9-2.33-5.78-3.58-6.29-3.53-11.93-8.07-18.17-11.66-3.97-.89-7.6,2.18-11.12,3.63-6.45,2.91-12.63,5.91-18.64,9.6-.9,.45-2.43,1.3-3.02,.02-.41-.98,.77-1.44,1.36-1.98,7.05-5.18,15.08-8.74,22.61-13.12,8.03-4.71,11.49-3.15,18.29,2.44,4.99,4.15,9.86,8.42,14.22,13.23,.7,.5,1.49,1.21,1.26,2.18-.09,.56-.97,.41-.88-.15Z"/><path d="M220.7,111.95h0c-.07-.05-.14-.11-.22-.17-2.57,.95-4.93-1.43-5.96-3.59-2.8-6.49-.88-13.89,.73-20.46,3.86-17.06,20.52-29.18,37.91-27.67,2.01,.25,2.52,3.29,.65,4.13-2.29,1.05-4.64,2.11-6.81,3.43-17.24,10.55-23.97,23.79-25.99,43.45,.33,.24,.65,.46,.57,.91-.08,.51-.84,.44-.88-.03Z"/><path d="M227.94,109.32c0-.25,.22-.43,.46-.43s.44,.22,.43,.46c0,.25-.22,.43-.46,.43s-.44-.22-.43-.46Z"/><path d="M252.07,107.74c-9.93-6.52-19.11-14.58-30.21-19.02-.47-.2-.31-.99,.24-.9,9.1,3.52,16.76,9.81,24.77,15.23,.66,.62,8.29,4.79,5.2,4.68Z"/><path d="M248.21,98.87c-4.87-6.76-8.47-14.81-15.34-19.85-.24,.22-.64,.03-.69-.22-.89-2.83,3.58,1.46,4.34,1.95,4.45,3.89,8.05,8.66,11.33,13.54,.62,1.47,3.72,3.31,2.08,4.86-.54,.39-1.33,.26-1.72-.29Z"/><path d="M250.12,84.9c-2.22-1.84-7.95-13.3-5.81-15.52,.52-.12,.61,.55,.63,.85,.09,.28,.19,.73-.22,.83,.34,2.58,1.35,5.01,2.36,7.35,.99,2.04,2.61,3.72,4.28,5.2,.94,.8-.4,2.21-1.24,1.29Z"/><path d="M243.43,110.99c-8.93,.06-17.53-3.85-26.44-2.63-.13,.53-.97,.37-.87-.18,.08-.82,1.1-.77,1.72-.86,3.65-.37,7.34,.17,10.99,.29,5.89,.43,11.91,.68,17.76,.19,4.16-.43,8.25-1.54,12.45-1.42,2.31,.12,2.21,3.6-.12,3.56-5.2-.19-10.29,1.32-15.5,1.06Z"/><path d="M324.18,108.66c0-.25,.22-.43,.46-.43s.44,.22,.43,.46c0,.25-.22,.43-.46,.43s-.44-.22-.43-.46Z"/><path d="M307.45,451.15c-5.99-.54-2.13-12.36-2.04-15.82,1.59-9.96,2.95-19.96,3.58-30.02,.03-10.94-1.17-21.83-2.01-32.71,.12-8.61,3.17-16.82,4.36-25.29,2.86-15.54-3.87-30.24-5.29-45.46-.18-6.74,1.28-13.51,4.26-19.56,1.8-4.36,2.81-9.58,3.68-14.08,1.94-11.83,.08-23.55,1.55-35.33,.87-10.93,3.79-22.2,5.47-32.87,1.53-8.92,1.5-17.97,1.7-26.99,.63-10.27,1.65-20.5,1.75-30.79,.45-10.8,.37-22.49,5.33-32.32-.04-.38-.04-.88,.39-1.02,.46-.15,.73,.42,.48,.72,0,.07,0,.15,.02,.22,3.3,5.28,2.64,12.17,3.43,18.17,1.59,17.16,2.15,34.44-.17,51.56-1.54,15.29-10.38,28.59-13.74,43.42-1.17,5.23-2.17,10.55-2.52,15.89-.2,10.41,3.26,20.82,2.53,31.16,.51,8.52-2.51,16.51-4.89,24.49-1.59,5.21-1.07,10.65-.48,15.98,.89,10.33,2.33,20.72,1.33,31.09-.78,11.11-6.37,21.68-5.67,32.84,.38,4.38,2.21,8.43,3.19,12.69,2.93,15.14,3.03,31.06,.4,46.26-.86,5.02-1.86,10.03-2.88,15.01-.41,1.71-1.99,2.93-3.75,2.77Z"/><path d="M156.56,457.19c-.52-5.49-.48-11.03-1.19-16.51-1.68-12.94-5.67-25.79-3.91-38.95,1.18-8.17,2.59-16.57,.47-24.73-1.87-6.6-4.1-13.14-4.73-20.02-1.35-11.2,1.54-22.11,2.36-33.19,.03-10.1-2.97-19.92-3.42-30-.62-7.88,.71-15.94,2.06-23.63,1.07-6.23-1.41-12.15-3.51-17.88-3.26-9.7-6.29-19.61-7.44-29.81-.74-5.9-.67-11.84-.76-17.77,.02-10.02-1.63-19.86-1.99-29.83-.17-6.98,.33-14.98,.29-21.7-.04-8.55-.42-17.1,1.13-25.55,.38-4.5,.76-8.76,.13-13.13-.27-.69-.49-1.36-1.09-1.73-.39-.07-.53-.71-.06-.86,.31-.1,.6,.14,.82,.31,3,4.11,3.97,9.37,5.14,14.27,1.59,11.14,3.14,22.34,4.29,33.54,.39,10.27,.95,20.53,.89,30.81-1.12,11.72-3.24,24.1-2.17,35.77,.68,6.22,1.59,12.43,3.19,18.5,2.05,8.51,5.96,17.24,3.5,26.08-1.32,5.09-2.32,10.45-2.44,15.62-.1,4.94,.41,9.58,1.53,14.32,1.38,5.09,3.81,9.29,5.14,14.3,1.58,5.73,1.37,11.76,.62,17.6-.9,7.78-1.03,15.46-.42,23.23,1.12,9.7,5.41,18.84,4.43,28.72-.06,7.66-2.39,14.34-2.72,21.84,.16,6.57,1.86,13.17,3.42,19.47,2.68,8.35,3.87,17.03,5.25,25.65,.6,2.17,1.74,4.46,.56,6.64-1.93,4.13-8.73,3.3-9.38-1.36Z"/><path d="M218,480.34c-17.61-.51-35.28-5.11-50.85-13.39-2.15-1.22-9.67-5.92-6.5-8.33,7.43,.79,14.9,3.23,22.22,4.82,27.4,6.3,56.72,8.13,84.21,2,10.92-2.48,21.53-5.01,29.34-13.32,2.82-3.18,4.97-6.67,7.49-10.04,2.54-3.15,7.98-2.23,9.26,1.64,1.29,3.66-1.67,6.81-4.32,8.93-11.99,12.92-21.07,16.73-38.01,20.72-17.44,4.71-35.11,6.87-52.99,6.98,.05,0,.1,0,.16,0Z"/><path d="M213.5,124.49c-24.46-1.56-48.57-7.44-71.84-14.86-4.49-.69,.58-2.89-.33-1,24.2,1.05,48.34,4.42,72.58,4.97,35.92-1.87,71.92-4.26,107.65-8.2,3.96-.7,5.64,4.8,1.81,6.34-1.4,.58-2.86,.99-4.31,1.42-15.55,6.36-32.41,5.95-48.89,6.97-18.9,1.16-37.73,4.22-56.67,4.34Z"/><path d="M187.99,119.64c-9.37,.3-18.65-.66-27.89-2.14-6.79-1.06-13.82-1.87-19.99-5.11-9.27-5-7.66-11.62,1.56-15.3,6.36-3.14,13.38-4.36,20.28-5.67,7.89-2.06,16.01-2.2,24.02-3.36,9.39-.9,19.12,.81,28.27-1.6,3.82-.96,6.81,3.51,3.81,6.4-1.61,1.53-3.9,1.09-5.91,1.41-8.24-.02-16.45-.76-24.62,.35-4.56,1.05-8.96,2.91-13.75,2.67-4.37,.21-8.79,1.4-13.08,1.93-6.68,.85-13.52,2.08-19.24,5.64,3.23,2.55,7.37,3.51,11.24,4.7,6.72,2,13.54,3.84,20.24,5.89,6.72,1.68,13.44,1.78,20.26,2.33,11.52,.74,23.27,1.2,34.64-1.08-.76-1.07,1.77-.93,1.99-.54,.67,1.68-5.04,1.88-6.2,2.2-11.82,1.3-23.76,1.19-35.64,1.28Z"/><path d="M226.5,147.44c-20.55-1.11-41.48-2.57-61.21-8.78-8.58-2.36-17.05-5.21-25.21-8.77-1.02-.33-2.02-1.31-3.1-1.08-.34,.27-.62,.58-1,.81-.49,.31-.96-.45-.47-.76,.24-.14,.42-.31,.61-.49,2.67-1.91,6.2-.22,9.1,.34,8.73,2.69,17.47,4.8,26.35,6.83,14.88,2.86,30.07,4.33,45.17,5.58,14.97,1.24,30.12,1.33,44.83-1.86,20.47-2.62,39.89-9.52,60.43-11.31,2.23-.32,4.5-.46,6.6-1.37,.97-.36,2.08,.33,2.36,1.27,.3,.98-.28,2.07-1.26,2.36-20.33,7.44-41.54,12.01-63.03,14.54-13.29,2.02-26.69,3.55-40.15,2.68Z"/><path d="M233.97,446.35c-18.45-1.24-37.23,.67-55.03-4.68-7.14-2.37-13.46-6.65-19.99-10.29-.42-.14-.92-.14-1.31-.01-.35,.12-.71,.35-.99,.52-.47,.33-1.02-.36-.56-.7,2.21-1.58,5.1-.38,7.58-.22,7.98,1.74,15.93,3.98,24.17,4.08,7.61,.31,15.22-.71,22.82-.2,15.67,.53,31.8,2.45,47.33,.59,13.47-.47,26.23-3.28,38.42-8.92,4.28-1.86,8.42-3.9,12.45-6.23,1.28-.69,2.88-.39,3.66,.9,.85,1.4,.22,3.11-1.2,3.82-5.3,2.65-10.63,5.25-16.02,7.73-10.58,4.94-21.88,7.94-33.17,10.75-9.14,2.71-18.65,3.61-28.14,2.87Z"/><path d="M172.36,348.2c-.37-.27-.49-.86-.19-1.23,5.05-6.16,9.96-12.44,14.7-18.84,16.22-22.03,32.87-43.76,48.6-66.15,6.45-9.53,12.83-19.12,19.27-28.66,7.76-11.17,16.62-21.49,24.74-32.38,6-8.02,10.79-16.9,16.93-24.8,.17-.17,.4-.3,.65-.28,.63,.15,.65,1.15-.13,1-5.87,7.77-10.67,16.32-16.43,24.18-10.39,13.79-21.35,27.17-30.51,41.83-14.62,23.05-30.81,45.04-47.07,66.96-7.01,9.18-13.59,18.65-20.69,27.76-2.78,3.6-5.74,7.07-8.73,10.5-.28,.33-.81,.35-1.15,.1Z"/><path d="M161.35,316.45c-.49-.37-.26-1.66,.48-1.17,14.81-24.76,30.83-48.75,46.59-72.92,6.13-9.67,11.59-19.78,18.66-28.82,7.09-9.21,15.28-17.47,22.91-26.23,.71-.79,1.41-1.58,2.12-2.38,.19-.22,.56-.21,.76-.01,.22,.21,.21,.54,.02,.76-8.78,10.57-18.57,20.32-26.75,31.39-6.84,9.3-12.27,19.5-18.58,29.16-9.21,14.4-19.3,28.24-28.39,42.7-4.62,7.64-9.68,15.03-14.1,22.76-1.02,1.62-1.79,3.48-3.17,4.81-.16,.1-.41,.07-.56-.04Z"/><path d="M167.89,399.1c-.17-.17-.17-.45,0-.63,5.15-5.55,10.53-10.9,15.45-16.66,11.73-14.62,24.42-28.44,35.25-43.75,18.66-23.23,36.36-47.15,52.38-72.29,13.29-20.14,23.2-42.2,34.33-63.55,1.69-3.24,3.2-6.6,5.18-9.67,.17-.19,.42-.26,.65-.13,.31,.17,.3,.67-.04,.8h0c-10.64,19.36-19.64,39.6-30.63,58.79-12.49,20.88-26.21,41.06-40.79,60.54-15.54,19.53-30.09,39.82-46.5,58.64-5.9,7.44-11.97,14.75-18.62,21.54-2.02,2.11-4.02,4.23-6.02,6.37-.17,.17-.46,.17-.63,0Z"/><path d="M200.17,427.95c6.27-9.41,13.51-18.15,20.43-27.08,6.65-9.23,13.25-18.5,19.52-27.99,5.81-9.79,11.45-19.69,17.44-29.38,7.42-13.44,14.49-27.06,21.92-40.49,7.1-13.42,12.33-27.72,18.85-41.42,.67-1.81,3.67-.87,2.91,1.1-5.11,11.89-9.73,24.01-15.2,35.74-10.4,20.24-22.11,39.91-34.7,58.84-12.4,20.84-26.95,40.22-41.89,59.29-2.78,3.97-5.86,7.78-8.51,11.83-.25,.5-1.06,.1-.78-.42Z"/><path d="M235.77,432.92c-.22-.12-.3-.4-.18-.6,.46-.85,.98-1.69,1.62-2.42,3.77-4.43,7.88-8.65,11.59-13.08,9.87-12.44,19.52-25.23,28.14-38.55-.02,.03-.03,.05-.05,.07,9.47-15.84,18.73-32.05,25.31-49.33,.35-.99,1.95-.44,1.56,.58-7.53,22.04-20.42,42.05-33.92,60.89-9.25,12.32-17.97,25.06-28.64,36.22-1.67,1.96-3.63,3.76-4.82,6.04-.12,.21-.39,.29-.6,.18Z"/><path d="M273.12,426.02c-.67-.62,.56-1.64,.78-2.31,3.07-4.94,6.5-9.64,9.67-14.52,8.6-14.12,17.43-28.4,22.45-44.26,.18-.52,1.04-.24,.83,.31-3.51,11.4-9.23,21.86-15.17,32.14-4.92,9.04-10.9,17.44-16.55,26.02-.49,.8-.97,1.6-1.41,2.43-.11,.22-.39,.3-.6,.18Z"/><path d="M157.35,250.23c-.7-.67,.65-1.7,1.03-2.29,3.86-4.2,8.27-7.86,11.96-12.22,13.61-17.03,25.38-36,32.45-56.71,.41-1.11,2.19-.48,1.76,.67-5.07,16.95-14.6,32.03-25.11,46.11-6.3,8.93-14.57,17.05-22.09,24.45Z"/><path d="M298.23,385.08c-7.04-12.44-14.74-24.46-22.66-36.34-9.27-14.74-19.05-29.12-29.96-42.71-13.24-16.7-28.62-31.62-41.73-48.44-13.6-17.75-28.39-34.88-39.02-54.66-1.05-2.07-3-6.19-1.1-5.05,.45,1.86,1.37,3.58,2.21,5.28,12.45,22.23,29.21,41.73,44.93,61.67,12.94,15.44,27.35,29.63,39.37,45.82,11.61,14.38,21.12,30.23,31.29,45.62,6.25,9.2,11.88,18.77,17.45,28.39,.27,.47-.51,.94-.79,.41Z"/><path d="M306.39,343.2c-8.34-14.29-15.69-29.16-24.32-43.27-8.48-13.59-17.95-26.59-28.07-39-23.23-26.75-50.68-51.17-64.37-84.63-1.48-3.45-2.72-6.99-4-10.52-.19-.51,.64-.87,.83-.3,1.3,3.61,2.64,7.35,4.14,10.85,14.7,35.76,45.16,60.75,69.05,90.08,14.66,18.07,27.3,37.63,38.12,58.21,3.27,5.99,6.5,11.99,9.79,17.96,.38,.72-.76,1.41-1.18,.62Z"/><path d="M313.4,281.57c-4.26-2.68-6.37-7.82-9.22-11.83-4.81-7.33-9.99-14.46-15.75-21.08-9.46-11.07-19.92-21.25-29.28-32.4-9.21-11.22-16.84-23.69-22.44-37.09-.43-.99-.86-1.97-1.29-2.97-.1-.22,.05-.49,.26-.57,.24-.08,.47,.05,.57,.27,.41,.95,.83,1.9,1.24,2.84,5.45,13.14,12.94,25.33,22.01,36.28,7.33,8.83,15.57,16.86,23.15,25.47,7.81,8.61,14.99,17.78,21.42,27.46,3.06,4.25,5.26,9.64,9.56,12.75h0c.63-1.68,.76-3.63,.24-5.34-.04-.85-1.33-2.46-.56-3,.23-.08,.49,.04,.57,.26,.45,1.23,.92,2.45,1.11,3.74,.21,1.1,.14,5.66-1.61,5.2Z"/><path d="M311.7,230.78c-11.35-2.52-20.29-11.2-26.89-20.4-8.13-11.04-14.94-22.99-20.45-35.54-.77-1.44,1.52-2.7,2.27-1.2,8.16,16.72,17.26,33.52,29.97,47.21,3.82,3.28,12.91,11.31,17.99,8.38,.22-.08,.49,.03,.57,.26,.22,.6-.68,.87-1.08,1.04-.77,.32-1.58,.31-2.39,.24Z"/><path d="M294.56,422.81c-23.52-19.71-44.1-43.02-61.85-68.01-6.24-8.86-12.81-17.52-18.49-26.76-4.62-7.64-8.55-15.66-12.97-23.41-7.6-14.94-16.46-29.1-25.87-42.94-5.89-9.66-11.28-19.62-17.07-29.34-3.09-4.67-5.92-10.85-11.71-12.4-.51,.2-.82-.69-.27-.84,.67-.15,1.3,.11,1.9,.38,4.79,2.24,7.5,7.09,10.22,11.38,5.65,9.41,10.93,19.05,16.52,28.48,5.74,9.23,12.24,17.96,17.58,27.44,9.95,17.35,18.26,35.72,29.9,52.06,13.68,19.63,27.99,38.87,44.65,56.1,6.94,7.32,13.9,14.61,21.47,21.29,2.19,1.97,4.41,3.91,6.68,5.78,.51,.4-.16,1.27-.67,.81Z"/><path d="M267.82,425.4c-20.61-16.95-40.18-35.31-57.15-55.93-18.98-25.02-36.24-51.62-50.19-79.78-1.18-2.3-2.17-4.77-3.6-6.87-.05-.24,.1-.49,.35-.53,.2-.04,.39,.04,.52,.21,.86,1.23,1.45,2.63,2.14,3.96,8.35,17.86,18.61,34.71,29.53,51.08,8.82,13.3,17.89,26.58,28.64,38.4,11.62,13.64,24.78,25.75,38.05,37.74,4.05,3.73,8.2,7.35,12.45,10.83,.55,.44-.14,1.41-.74,.89Z"/><path d="M230.87,426.32c-23.17-13.07-42.21-32.86-54.26-56.59-5.59-11.41-9.23-23.65-13.72-35.51-.7-1.93-1.4-3.86-2.1-5.8-.08-.23,.03-.49,.26-.57s.49,.04,.57,.26c1.26,3.45,2.5,6.91,3.75,10.36,3.83,10.18,7,20.65,11.82,30.43,7.17,13.62,16.1,26.58,27.44,37.04,7.66,6.66,15.56,13.15,24.36,18.26,.78,.46,1.56,.91,2.35,1.36,.21,.13,.26,.42,.13,.62-.13,.21-.41,.26-.61,.14Z"/><path d="M209.2,440.27c-12.09-6.45-22.31-15.62-30.81-26.3-2.97-3.6-5.95-7.23-8.88-10.85-3.15-3.47-5.57-8.01-9.47-10.63-.1,1.39,.58,2.85,.92,4.18,.08,.23-.03,.49-.26,.57s-.49-.03-.57-.26c-.38-1.22-.76-2.45-.98-3.71-.23-6.75,10.4,8.99,11.65,10.04,6.28,7.66,12.47,15.56,19.61,22.54,5.72,5.4,12.37,9.72,19.16,13.63,.51,.22,.15,1.07-.37,.81Z"/><path d="M286.76,162.55c-4.91-15.1-1.76-38.92,7.3-52.01,1.12-.96,1.05,2.18,0,1.59-3.09,4.7-4.55,10.18-5.7,15.61-1.58,7.43-2.48,15.11-1.81,22.68,.32,3.89,.86,7.76,2.17,11.44,.38,1.19-1.5,1.87-1.96,.69Z"/><path d="M299.44,169.22c-5.66-6.67-6.53-14.39-5.69-22.8,.9-10.59,2.41-21.77,7.89-31.06,2.35-3.76,2.81,.75,1.31-.26-7.01,10.2-7.84,30.99-4.89,42.81,1.18,3.22,3.19,5.75,5.19,8.37,.81,1.03,.6,2.58-.44,3.37-1.01,.78-2.61,.63-3.37-.44Z"/><path d="M210.41,177.91c-7.72-.39-15.53-.83-23.07-2.64-10.04-2.26-19.37-6.79-29.23-9.65-6.03-1.45-11.78-4.29-17.93-5.07-.59-.35,.09-1.43,.6-.8,7.36,1.35,14.46,4.05,21.8,5.65,11.51,3.42,22.85,8.01,34.97,8.76,17.21,1.71,34.26,.56,51.4-.8,22.42-2.06,45.25-5.42,65.74-15.08,1.8-.66,3.43-2.35,5.37-2.31,1.29,.33,1.58,2.22,.38,2.88-20.66,11.82-44.92,14.95-68.26,17.18-13.9,1.06-27.8,2.33-41.77,1.88Z"/><path d="M233.04,470.34c-4.61-6.62-4.76-15.49-8.24-22.69-3.45,6.28-6.6,12.72-10.14,18.94-1.23,2.45-4.71,5.53-6.59,1.94-3.67-6.89-4.71-14.88-8.35-21.74-2.98,4.57-5.33,9.5-7.35,14.56-1.12,2.45-1.76,5.79-4.44,7.01-2.31,.9-4.08-1.04-3.93-3.31-2.64-6.41-3.67-13.53-7.2-19.54-2.25,3.97-4.19,7.74-5.56,12.02-.74,1.82-.85,6.08-3.63,4.65-2.6-2.56,1.73-9.76,2.88-12.63,7.97-19.38,12.56,2.49,15.73,10.9,2.46-3.84,10.97-25.23,16.26-15.42,3.22,7.02,4.38,14.92,7.75,21.86,2.97-5.62,5.25-11.5,8.51-16.97,1.81-3.89,5.91-10.2,8.85-3.29,2.47,6.58,3.26,13.67,5.89,20.2,2.35-4.17,11.27-37.24,17.37-22.42,1.68,5.25,2.53,10.75,4.6,15.88,1.76-5.34,2.24-11.21,4.96-16.18,6.73-7.93,12.63,10.35,15.17,14.77,2.89-8.03,5.02-17.11,10.91-23.51,5.46-3.9,8.88,4.45,11.3,8.01,.99,1.62,2.01,3.21,3.04,4.79,1.82,3.06-2.94,5.85-4.73,2.76-2.25-3.78-3.19-8.44-6.26-11.69-2.79,5.36-4.99,11-7.33,16.57-1.06,2.77-4.31,10.75-7.82,6.28-.36-2.74-1.99-5.03-3.19-7.48-1.82-3.2-3.46-6.82-6.62-8.87-1.72,3.69-3.93,21.27-9.76,18.56-3.57-6.09-4.51-13.43-7.37-19.87-3.25,3.83-9.88,28.47-14.73,25.88Z"/><path d="M142.41,205.33c-.19-.19-.18-.51,0-.69,4.41-4.32,8.76-8.68,12.99-13.18,4.89-4.7,8.86-10.65,14.32-14.62,.72-.2,1.12,.55,.97,1.17-.18,1.23-.15,2.47,.24,3.64,.07,.23-.1,.48-.33,.54-.25,.06-.47-.1-.54-.33-.45-1.32-.43-2.76-.25-4.12-7.04,6.3-12.95,13.96-19.73,20.61-2.3,2.35-4.62,4.69-6.98,6.99-.19,.18-.51,.17-.69-.01Z"/><path d="M202.85,66.76c.02-.75,.65-1.31,1.4-1.31s1.33,.67,1.31,1.4c-.02,.75-.65,1.31-1.4,1.31s-1.33-.67-1.31-1.4Z"/><path d="M203.15,43.11c.05-1.59,1.38-2.78,2.95-2.78s2.82,1.42,2.78,2.95c-.05,1.59-1.38,2.78-2.95,2.78s-2.82-1.42-2.78-2.95Z"/><path d="M177.43,71.53c.02-.71,.61-1.24,1.31-1.24s1.26,.63,1.24,1.31c-.02,.71-.61,1.24-1.31,1.24s-1.26-.63-1.24-1.31Z"/><path d="M163.93,50.58c.06-2.1,1.83-3.66,3.88-3.66s3.72,1.87,3.66,3.88c-.06,2.1-1.83,3.66-3.88,3.66s-3.72-1.87-3.66-3.88Z"/><path d="M236.6,39.92c.01-.63,.54-1.09,1.16-1.09s1.11,.56,1.09,1.16c-.01,.63-.54,1.09-1.16,1.09s-1.11-.56-1.09-1.16Z"/><path d="M180.2,32.14c.03-.83,.72-1.44,1.52-1.44s1.46,.74,1.44,1.52c-.03,.83-.72,1.44-1.52,1.44s-1.46-.74-1.44-1.52Z"/><path d="M222.88,176.81c1.74-14.88,3.81-46.93-4.67-59.21h-.02c.07,1.89,.78,3.87,1.93,5.34,.43,.21,.2,.91-.27,.83-1.02-.5-1.41-1.85-1.83-2.84-.32-1.15-1.74-4.3,.41-4.2,2.14,1.33,2.69,4.27,3.57,6.49,4,14.65,4.01,30.06,4.41,45.15,.07,2.9,.08,5.79-.07,8.68,0,.93-.79,1.76-1.74,1.74-1.06,0-1.83-.95-1.72-1.97Z"/><path d="M206.65,184.05c-19.76-2.64-39.5-8.77-56.43-19.45-1.75-1.38-8.83-4.93-6.87-7.5,1.28-.66,2.76,.5,4.05,.76,10.55,3.41,21.3,6.96,32.1,9.24,12.85,2.41,25.05,5.69,37.94,7.08,11.97,1.45,24.48,.35,36.43,.15,13.98-1.66,28.35-1.92,41.88-6.1,10.55-4.32,21.18-9.08,30.13-16.23,.58-.44,1.43-.33,1.88,.24,1.34,2.21-3.22,3.33-4.43,4.57-9.19,6.04-19.15,11.14-29.47,14.92-12.63,3.68-25.73,5.55-38.64,7.97-16.22,1.13-32.24,5.58-48.58,4.34Z"/><path d="M145.03,162.28c.29-15.26,.75-32.52,12.11-44.09,5.06-4.38,11.25-9.5,18.14-9.96,.56,0,.58,.89,0,.89-1.31-.08-2.61,.19-3.74,.71-20.92,12.16-23.87,27.25-24.88,49.77-.31,1.03,.43,3.13-.9,3.42-.4,0-.74-.33-.73-.74Z"/></svg>