<?xml version="1.0" encoding="UTF-8"?><svg id="Ebene_1" xmlns="http://www.w3.org/2000/svg" viewBox="0 0 500 500"><path d="M239.4,432.44c.84-22.52,2.28-45.06,3.38-67.58,.9-10.69,1.84-21.28,1.26-32.01-.35-11.18-.16-22.42-1.4-33.55-.99-17.8,.02-35.88-5.36-53.13-4.66-16.82-19.1-28.74-33.83-36.85-5.06-2.64-10.95-2.99-16.11-5.44-7.71-3.41-14.83-8.12-20.48-14.42-16.41-16.96-25.13-36.28-25.57-59.99-.5-6.95-1.56-13.87-2.19-20.8-.01-.44-.05-1.3,.36-1.66,.05-.11,.13-.21,.25-.27,.35-.18,.66,.12,.67,.43,5.58,14.76,5.34,31.06,10.02,46.1,5.25,16.76,17.85,30.93,32.56,40.09,5.35,3.43,11.28,4.96,16.88,7.8,33.67,14.9,44.19,40.13,45.51,75.2,.32,9.36,.02,18.72,1.22,27.96,.54,10.1,.15,20.23,.32,30.34,.43,19.54-.36,39.11,.27,58.66-.16,6.6,.3,13.2,.14,19.8,.05,6.4-1.79,12.71-1.85,19.05-.05,3.56-5.65,4.11-6.06,.26Z"/><path d="M251.62,426.35c.17-7.66-.83-15.34-.47-22.89,.33-7.73,.87-15.85,.46-23.52-.97-12.61-2.52-25.22-1.35-37.87,.9-9.51,2.13-18.92,2.02-28.46-.15-7.81-.82-15.64-.36-23.46,2.13-15.35,3.93-30.62,5.69-46,3.79-24.84,29.57-36.49,48.13-49.38,6.56-4.36,14.52-7.68,19.71-13.72,7.99-9.37,15.1-19.39,19.33-30.87,5.47-15.09,5.6-31.4,7.97-47.06-.1-.5,.7-.75,.89-.26,.84,.73,.95,2.17,1.1,3.19,1.46,14.48,2.38,29.48-1.33,43.69-2.81,15.93-13,29.93-25.35,40.02-4.9,3.71-11.49,6.26-16.48,9.47-5.87,4.04-12.61,6.54-18.38,10.74-15.04,9.36-29.94,22.1-33.11,40.39-1.86,9.62-2.35,19.66-3.38,29.33-1.09,11.44,.15,22.8,.34,34.22,.07,7.95-1,16.08-1.69,23.81-.56,5.32,.09,10.63,.33,15.94-.41,8.26,.82,16.41,1.68,24.59,.97,16.04-.2,31.82,1.33,47.78,.4,4.77-6.97,5.43-7.07,.31Z"/><path d="M237.6,465.02c-18.54-1.95-38.47-2.11-54.79-12.22-7.72-4.86-15.18-15.78-8.35-24.25,6.98-7.68,18.24-8.94,27.67-12.03,11.76-3.86,24.4-2.21,36.3-4.16-.09-.38,.36-.82,.72-.49,1.28,2.38-5.51,2.01-6.83,2.16-3.17,.14-6.34,.65-9.5,1.08-11.12,1.21-21.66,4.27-32.28,7.57-7.39,2.07-19.53,6.84-15.38,16.44,9.5,20.79,67.01,15.15,87.19,15.17,8.14,.05,16.39,.57,24.48-.13,6.58-.58,12.94-2.44,19.4-3.77,6.12-1.74,13.41-1.61,18.58-5.58,.53-1.38-.31-2.84-.73-4.15-8.72-15.32-27.66-21.26-44.19-22.68-4.83-.41-9.54-.42-14.36-.16-2.2,.05-2.34-3.42-.16-3.6,15.42-.86,32.1,1.13,45.53,9.2,7.84,4.66,16.47,10.5,18.94,19.81,2.24,11.91-26.13,15.44-34.49,18.43-11.97,3.17-24.44,2.64-36.71,3.14-7.18,.25-13.92,.89-21.03,.2Z"/><path d="M180.05,434.52c-.54-.48-.08-1.07,.35-1.44,4.35-3.92,9.97-5.95,15.53-7.49,11.12-3.09,22.17-6.9,33.67-8.13,.6-.46,1.11,.64,.35,.84-12.44,1.52-24.46,5.4-36.38,9.12-4.6,1.54-9.08,3.7-12.62,7.06-.24,.24-.64,.24-.9,.04Z"/><path d="M285.74,451.75c-1.66-.01-1.62-2.64,.05-2.57,7.23,.85,14.44-.58,21.31-2.71,3.05-1.15,7.13-2.13,8.56-5.31,2.11-4.85-18.34-13.95-22.34-15.68-2.67-1-5.48-1.65-8.16-2.63-.49-.15-1.37-.63-.92-1.24,.21-.29,.73-.19,.8,.18,7.85,2.41,15.47,5.4,22.44,9.84,5.73,3.28,14.76,8.83,4.78,13.8-8.42,3.18-17.37,6.81-26.52,6.32Z"/><path d="M245.82,217.77c-9.54-.8-19.25-2.24-28.21-5.75-5.78-2.65-11.02-6.36-17.02-8.51-.49-.32-.01-1.11,.47-.78,1.09,.53,2.28,.84,3.38,1.38,15.39,8.34,20.32,11.29,38.46,10.35,10.65-.9,20.9-3.66,31.41-5.42,2.97-.69,4.1,3.8,1.1,4.57-9.54,3.37-19.49,4.7-29.59,4.16Z"/><path d="M248.95,224.71c-7.58-.78-16.27-.02-22.72-4.71-.26-.25-.59-.68-.3-1.04,.28-.34,.74-.11,.81,.22,1.9,1.94,4.89,2.44,7.46,2.66,10.94,0,21.9-.52,32.77-1.98,1.35-.19,2.3,1.53,1.4,2.56-5.51,2.13-13.43,2.27-19.42,2.28Z"/><path d="M238.5,242.28c-.81-.37-.7-1.6-.34-2.28,.96-2.9,4.11-4.07,6.9-4.41,4.67-.78,9.35,1.29,12.94,4.17,.5,.39,.62,1.12,.3,1.66-.36,.59-1.17,.81-1.76,.44-1.55-1.01-3.42-1.85-5.09-2.45-3.94-1.18-8.77-1.28-12.36,.88-.3,.32-.35,.74-.22,1.12,.53,.25,.16,1.04-.37,.87Z"/><path d="M140.84,116.14c-2.25-.75-2.96-3.51-2.72-5.66,1.02-7.06,9.97-8.61,15.82-9.65,20.89-.95,42.01-.66,62.83,1.33,11.59,2.09,23.3,.42,34.93,.68,17.66,.97,35.28,.27,52.9-.34,12.28,.1,24.41-2.42,36.67-1.19,4.51,.4,9.29,.82,13.19,3.32,.78,.53,1.72,1.21,1.83,2.23-2.37,7.03-26.42,5.61-32.92,5.28-13.97-.42-27.94-.7-41.92-.76-29.46,.57-58.85,2.74-88.32,2.47-10.64,.93-21.3,.89-31.97,1.08-3.51,.17-7.03,.46-10.52,.85-3.24,.2-6.62,1.4-9.8,.38Zm5.78-2.7c11.17-1.77,22.51-2.01,33.78-1.6,10.66-.94,21.35-1.18,32.04-.56,23.04,.31,46.11-.98,69.13-1.46,11.64,.13,23.27,.63,34.9,1.06,10.07,.16,20.34,1.47,30.28-.47,2.65-.58,5.57-1.14,7.65-2.98-18.89-2.13-37.99,.59-56.96-.2-23.14,.77-46.25-.79-69.38,.06-15.97-1.27-31.87-3.19-47.94-2.98-11.52,.53-29.53-2.6-38.03,6.41,.93,.36,.98,1.44,1.67,2.03,.77,.72,1.87,.73,2.87,.71Z"/><path d="M304.41,136.79c-33.56-1.42-67.2-.91-100.76-2.07-14.31-1.47-28.63-1.15-42.98-1.13-6.2-.27-12.69-1.5-18.69-1.31-.94-2.34,12.8,.23,14.47,.09,7.53,.71,14.86-.77,22.32-1.3,8.84-.73,17.69-.05,26.54,.16,33-.75,66.15-2.47,99.11-2.08,7.1,.25,14.22,.26,21.32-.08,5.93-.38,11.9-.34,17.78,.56,2.49,.18,6.13,.59,6.14,3.8-.54,4.71-6.58,2.88-9.85,3.24-11.8,.2-23.6,.72-35.4,.13Z"/><path d="M162.06,129.77c-3.57-4.48-5.48-9.9-8.22-14.86-1.95-3.29-3.64-6.7-5.27-10.16-.18-.24-.32-.62-.05-.84,.63-.46,.86,.48,1.11,.9,3.09,6.6,6.86,12.85,9.9,19.47,.21,1.01,5.2,6.62,2.53,5.48Z"/><path d="M108.45,154.71c-4.39-.52-7.37-4.37-10.09-7.49-4.15-4.65-5.93-11.5-.91-16.22-3.34-7.61-3.42-13.2,.58-20.55-.56-10.18,6.53-18.96,15.31-23.41,4.29-2.48,9.41-1.44,13.87-.02,8.39,2.36,14.32,9.07,19.24,15.88,3.19,3.01,3.71,7.96,5.55,11.67,2.34,5.66,7.32,10.25,8.5,16.34,.26,.13,.4,.49,.12,.73-.2,.18-.42,.14-.62,.04-1.08,.36-2.25-.86-2.95-1.49-6.21-6-9.54-14.16-14.09-21.36-3.8-4.46-11.39-16.88-16.84-7.77-.79,3.48,1.77,6.81,1.55,10.32,0,3.68-3.82,5.92-4.38,9.31,2.28,9.61-1.37,12.7-6.95,19.7-1.67,2.73-2.12,5.93-3.81,8.68,1.62,2.75-1.09,6.02-4.08,5.65Zm-.11-9.84c.69,.55,1.32,1.18,1.98,1.76,.26,.24,.53,.47,.79,.72,2.26-2.47,2.47-5.81,4.36-8.43,2.75-3.27,6.64-5.86,7.41-10.35,.92-4.58-2.39-8.26,1.59-12.17,5.23-5.91-.74-10.38,.88-16.44,2.71-5.86,7.9-7.87,13.66-4.64-5.45-5.55-13.43-9.25-21.27-8.54-7.32,1.78-12.84,8.22-15.5,15.02-1.16,2.83-.59,5.9-.7,8.84-.48,4.08-1.63,8.19-1.45,12.32,.12,2.27,1.15,4.22,1.73,6.35,.44,1.31,.14,2.93-.26,4.14-1.9,5.22,3.09,8.73,6.76,11.42Z"/><path d="M109.17,150.08c-2.16-9.1-.07-18.26,1.48-27.27,2.54-12.63,5.24-27.98,15.62-36.61,0,0,0,0,0,0-.45-.35,.13-1.09,.58-.71,1.02,.9-.4,1.75-1.05,2.27-6.28,5.28-8.16,13.52-10.19,21.08-2.69,9.37-4.06,18.99-5.01,28.62-.29,4.02-.2,8.25,.89,12.07,.57,1.64-2.04,2.33-2.31,.56Z"/><path d="M101.24,114.27c-.34-.27-.36-.75-.11-1.09,.97-1.31,2.03-2.56,3.13-3.78,2.63-2.94,5.45-5.77,8.78-7.91,1.48-1.04,3.19-2.1,3.97-3.78v-.06s0,.02,0,.02c-.05-.26,.14-.51,.4-.53,1.82,.62-1.65,3.5-2.34,4.05-3.62,3.12-7.24,6.27-10.22,10.02-1.03,1.02-1.76,2.55-3.04,3.21-.2,.02-.41-.04-.57-.16Z"/><path d="M98.6,123.36c-.43-.35-.45-1.02-.05-1.4,4.38-4.89,9.77-8.92,13.9-14-.04-.38,.45-.64,.74-.39,.19,.16,.22,.39,.15,.61-1.7,2.68-4.37,4.64-6.5,6.98-1.91,2.03-3.69,4.06-5.43,6.22-.8,.72-1.49,2.77-2.8,1.98Z"/><path d="M101.72,135.74c-4.32-1.77,5.51-11.45,7-13.75-.31-.28-.08-.75,.29-.81,.78-.47,1.21,.34,.73,.98-1.27,3.14-3.05,6.06-4.43,9.15-1,1.48-1.25,4.85-3.6,4.43Z"/><path d="M68.3,115.97c-2.13-2.52,1.55-5.29,3.35-6.76,2.76-2.25,5.27-4.77,7.79-7.28,11.03-9.97,17.26-21.85,34.2-16.5,.76,.03,.62,1.14-.11,.91-9.38-2.41-15.51-1.82-22.07,5.84-6.17,6.41-9.06,15.45-16.08,21.05,7.58-2.37,15.95-1.63,23.15-5.12,.54-.26,.97,.55,.44,.81-4.99,2.61-10.72,2.61-16.02,4.11-4.12,1.04-8.12,2.6-12.32,3.28-.75,.11-1.7,.15-2.32-.34Z"/><path d="M139.26,95.03c-.6-.6-.43-1.59-.8-2.31-3.04-3.78-6.9-6.68-10.74-9.33-4.82,1.04-9.44-.87-14.11-1.63-7.31,.62-11.84-2.03-11.72-9.89,.62-5.3,5.27-8.81,6.98-13.69,1.06-2.51,.37-5.34,1.17-7.87,4.55-4.7,9.17,10.98,9.7,14.03,1.71,6.47,2.25,12.39,9.64,14.45,4.02,2.92,7.38,7,9.64,11.4,.48,1.4,.31,2.83,.82,4.14,.44,.39-.17,1.05-.59,.7Zm-14.81-12.67c.49-.03,.98-.07,1.47-.1-3.26-1.41-6.76-3.08-7.95-6.73-2.36-7.45-1.54-16.08-6.85-22.45-.54,2.23-.87,4.54-1.88,6.63-1.85,4.22-5.82,7.54-6.43,12.24-.19,6.34,3.63,9.74,9.87,8.77,4.01,.07,7.76,1.89,11.81,1.64h-.04Z"/><path d="M78.9,111.68c0-.26,.21-.45,.46-.45s.46,.22,.45,.46c0,.26-.21,.45-.46,.45s-.46-.22-.45-.46Z"/><path d="M74.89,112.41c-1.23-.06-.27-1.56,.45-1.19,4.32-1.62,7.37-5.13,10.58-8.19,5-4.53,10.64-8.2,17.06-10.35,3.52-1.4,7.04-2.82,10.67-3.93,.74-.24,1.27,.83,.54,1.19-14.18,6.85-21.07,25.49-39.31,22.47Z"/><path d="M214.15,103.85c-3.68-14.43-22.74-43.08-40.19-34.39-4.21,1.96-7.04,5.85-10.93,8.27-4.15,2.64-7.19-3.07-11,1.9-4.57,4.5-4.53,19.85-14.01,15.07-.61-.32-.68-1.03-.08-1.39,.39-.37,.94,.13,.72,.54,2.64-1.28,2.32-5.14,3.73-7.44,2.61-5.35,7.55-14.9,14.78-11.41,1.84,1.03,2.93,1.93,4.66,.11,5.59-5.15,12.55-9.96,20.53-8.97,11.86,2.2,21.58,11.12,27.27,21.45,.98,1.07,7.84,19.06,4.53,16.26Z"/><path d="M143.63,110.32c-.65-.52,.21-1.23,.66-1.55,8.25-5.92,18.71-7.1,28.59-7.62,5.28-.28,10.64-1.33,15.91-1.31,6.81-.5,13.56,.81,20.33,1.38,1.92,.25,1.5,3.29-.44,2.98-9.43-2.12-18.98-2.13-28.54-1.11-11.95,1.1-25.26,.35-35.78,6.81,.03,.37-.42,.6-.72,.41Z"/><path d="M211.85,103.56c-4.16-7.24-13.86-8.95-20.96-12.21-17.2-6.72-31.51-6.15-45.78,6.33-1.46,1.08-2.84,2.26-4.36,3.24-.51,.28-.97-.53-.44-.81,.49-.27,.97-.65,1.39-.96,13.34-20.01,38.21-16.11,57.24-7.28,5.51,2.3,11.32,5.59,14.39,10.89,.49,.95-.92,1.74-1.47,.79Z"/><path d="M170.64,86.83c-.47-.39,.14-1.08,.59-.71h0c4.76-6.62,12.78-9.77,20.75-10.59,2.03,.03,9.83-1.4,10.18,1-.01,.49-.41,.96-.91,1-5.38,.38-10.63,1.63-15.82,3.03-4.82,1.72-9.84,3.36-13.89,6.42-.3,.11-.65,.05-.9-.15Z"/><path d="M183.41,88.67c-1.45-1.63,8.69-2.59,9.92-3.01,4.04-.85,8.16,.25,12.1,1.13,.34,.09,.55,.44,.5,.77-.06,.38-.41,.65-.79,.59-1.2-.19-2.38-.49-3.58-.69-5.74-.91-11.91-.38-17.44,1.06,0,0,.02-.01,.03-.02,.02,0,.03-.01,.05-.02-.23,.18-.5,.44-.79,.19Z"/><path d="M140.47,99.77c-.65-.82-1.93-1.84-1.26-2.98,2.11-3.03,5.86-5.9,5.95-9.8-.04-.09-.1-.21-.14-.25-.2-.24-.4-.38-.62-.59-.47-.36,.12-1.09,.57-.71,.22,.17,.43,.38,.63,.58,2.1,3.34-3.66,8.48-5.52,11.1-.38,.41,.12,.84,.35,1.16,.36,.4,1.3,.79,.86,1.44-.2,.25-.59,.26-.81,.04Z"/><path d="M143.41,102.73c-1.87-1.38-1.33-8.29,.41-9.73,1.69-.19-.27,2.07-.04,2.84,.41,.06,.52,.62,.18,.84,.04,.01,.08,.03,.12,.06h0c.08-.54,.55-1.65,1.19-.99,.28,.65,.15,1.9-.54,2.25-.49,1.48,.03,3.27-.78,4.61-.13,.12-.36,.19-.54,.14Zm.05-1.68c.04-1.1,.15-2.2,.39-3.27-.29-.26-.7-.7-.28-1.04-.08-.01-.16-.04-.23-.07h0c-.23,1.46-.23,2.98,.12,4.39Z"/><path d="M139.19,95.84c-2.91-7.24,.11-15.29-4.2-21.88-8.62-10.42-4.71-9.13-2.52-20.54,.43-6.59-6.91-9.84-8.88-15.62-2.31-4.65-1.58-10.08-2.63-14.93-5.28,4.97-9.3,10.92-12.02,17.63-2.74,3.71-5.62,7.36-7.07,11.77-.93,2.85-1.22,6.09-.04,8.9,.33,1.38,4.31,5.85,2.31,6.5-3.58-.98-6.27-4.79-7.42-8.2-2.14-7.25,3.76-13.42,8.36-18.25,2.12-1.93,2.07-5.05,3.63-7.35,1.83-3.3,4.12-6.35,7.05-8.77,1.54-1.01,4.27-4.33,6.07-2.63,.67,1.32,.44,2.99,.57,4.43,.21,5.7,1.51,11.49,5.4,15.79,2.06,2.51,4.76,4.84,5.46,8.15,1.11,5.04-2.67,9.43-2.68,14.31,.36,3.07,3.15,4.96,4.74,7.41,1.79,2.51,3.1,5.38,3.67,8.42,.82,4.66,.24,9.69,2.44,14.01,.77,1.55-1.73,2.58-2.21,.85Z"/><path d="M163.74,136.6c-1.3-.33-1.58-1.64-2.62-2.17-.87-.64-1.92-1.08-2.64-1.9-1.12-1.16-.4-3.26,1.22-3.41-5.03-7.47-6.76-18.11-15.33-22.65h0c.46,.4-.02,1.14-.55,.78-.37-.33-.5-.94-.36-1.4,.36-.8,1.33-.2,1.84,.09,4.86,2.66,7.5,7.9,10.48,12.37,2.89,4.71,4.83,10.66,9.33,13.85,2.82,.94,1.5,5.26-1.37,4.46Z"/><path d="M151.34,136.33c0-.26,.21-.45,.46-.45s.46,.22,.45,.46c0,.26-.21,.45-.46,.45s-.46-.22-.45-.46Z"/><path d="M283.09,141.06c0-.26,.21-.45,.46-.45s.46,.22,.45,.46c0,.26-.21,.45-.46,.45s-.46-.22-.45-.46Z"/><path d="M241.26,211.45c-6.26-.21-16.91,1.99-19.75-5.31-15.27-3.63-31.23-7.85-44.14-17.1-12.86-9.99-24.82-23.72-26.4-40.55-4.48,.11-8.75-4.24-6.25-8.57-2.57-2.22-2.87-6.49-.29-8.83,2.34-2.36,5.79-2.28,8.84-1.83,3.82,.24,7.61,.64,11.4,1.11,16.55,1.22,33.2-3.44,49.61,.27,14.48,2.33,29.27,1.77,43.71,4.43,6.72-.12,15.9-3.89,19.56,4.48,.61,.35,1.15,.82,1.58,1.42,.09,.12,.17,.25,.25,.38,7.09-1.81,14.13-3.81,21.28-5.35,4.88-.82,11.07-2.93,15.14,.94,2.86,3.02,1.79,7.93-1.41,10.26,2.85-2.43,6.91-3.72,9.81-.61,2.01,2.11,2.19,5.57,.32,7.84-2.42,2.7-5.26,4.97-7.88,7.47,2.78,.08,5.4,2,6.06,4.75,1.25,4.66-3.46,7.24-6.62,9.57-3.14,2.29-6.43,4.38-9.7,6.49,3.98-.5,7.38,3.96,5.63,7.64-.71,1.71-2.26,2.67-3.91,3.31-6.84,3.2-13.74,6.31-20.79,9.04-3.01,.93-5,2.13-7.61,3.73-4.37,1.11-8.74,2.18-12.99,3.7-6.46,2.01-12.97,4.16-19.7,4.97-2.49,.25-4.94-1.26-5.77-3.63Zm34.62-28.44c2.16,.23,4.85-.2,6.37,1.67,1.8-1.19,3.61-2.38,5.41-3.58l.08-.06c-.84-1.36-1.15-3.04-.63-4.58l.02-.05c-4.86,3.35-10.83,4.74-16.36,6.66,1.7-.04,3.41-.13,5.11-.06Zm14.11-11.58c.13-.16,.25-.31,.38-.47-.13,.05-.26,.11-.4,.16,0,.1,.01,.2,.01,.31Zm-3.04-18.62c.06,.27,.11,.54,.13,.81,1.18-.92,2.37-1.83,3.56-2.74-1.32,.36-2.64,.72-3.97,1.08,.11,.27,.2,.56,.27,.85Z"/><path d="M313.24,191.59c-6.71-2.75-2.05-11.12-.15-15.78-3.03,1.35-6.54-1.27-6.04-4.58,.97-4.26,4.23-7.61,6.55-11.2,3.36-4.81,6.91-9.47,10.97-13.72-3.61,1.36-7.23,2.7-10.85,4.02-1.39,.46-2.95,1.22-4.36,.43-3.74-2.8,5.61-6.71,6.85-8.82-.78-.87-2.36-.61-3.35-.67-6.54,.41-12.71,2.25-19.01,3.85-1.28,.53-2.77-.33-1.83-1.73,1.3-1.71,5.92-4.32,1.4-5.21-5.42-.84-11.07,1.04-16.19,1.55-1.87,.39-3.72,.87-5.55,1.39-.57,.16-.79-.73-.21-.89,4.16-1.31,33.94-7.94,22.24,3.35,7.44-1.66,15.32-5.18,22.99-3.68,3.53,1.62,.39,4.96-1.63,6.39,5.11-2.15,10.21-4.36,15.35-6.44,2.18-.76,4.78-2.15,7.09-1.22,.74-.73,2.21-2.77,3.1-1.24,.13,1.26-.92,2.36-1.46,3.46,.18,.73,.07,1.45-.16,2.16,1.27,1.18,2.11,2.76,2.55,4.45,11.82,4.99-1.04,18.91-5.58,25.05-4.12,4.53-16.52,21.27-22.72,19.08Z"/></svg>