<?xml version="1.0" encoding="UTF-8"?><svg id="Ebene_1" xmlns="http://www.w3.org/2000/svg" viewBox="0 0 500 500"><defs><style>.cls-1{fill:#00010d;}</style></defs><path d="M304.4,76.46c0-.21,.18-.37,.39-.37s.37,.19,.37,.39c0,.21-.18,.37-.39,.37s-.37-.19-.37-.39Z"/><path d="M305.86,75.42c-3.13-2.62,.69-11.06,1.91-14.3,8.21-19.21,44.29-34.01,52.56-7.4,1.04,2.93-3.23,4.46-4.36,1.59-4.88-12.58-16.72-10.41-26.31-4.66-9.46,6.24-16.73,15-23.09,24.24,.33-.02,.57-.1,.86-.21,.46-.16,.74,.55,.27,.71-.59,.2-1.29,.46-1.84,.02Z"/><path d="M321.35,76.87c.03-.14-.04-.35,.09-.45,2.49-10.86,11.11-20.93,22.27-23.23,5.23-1.14,12.59-2.22,15.72,3.28,.96,1.63-1.42,3.37-2.67,1.95-4.46-5.05-17.09,1.88-21.27,5.33-4.89,4.1-8.84,9.21-13.51,13.51-.26,.25-.75-.01-.62-.39Z"/><path d="M371.29,98.14c-11.01-5.12,8.57-21.23,9.08-28.62,.05-.47-.24-.49-.6-.42-6.68,2.69-11.66,8.93-15.11,15.03-1.95,3.64-3.58,7.43-5.52,11.08-1.16,2.83-4.05,4.1-6.99,3.68-4.08-.09-8.15-.36-12.2-.89-3.19-.5-7.19-.06-9.5-2.75-3.03-4.1,7.2-17.27,9.76-21.17,2.21-2.69,16.25-21.89,18.49-20.22,.12,.36-.11,.71-.28,1.01-.26,.29-.41,1.06-.89,.95-.17,.28-.35,.55-.52,.83,12.15-9.08,36.81-4.65,36.22,13.4-.55,9.53-9.13,33.67-21.94,28.1Zm-16.83-3.66c1.78-.72,2.38-3.24,3.49-4.74,2.39-4.26,4.72-8.58,7.87-12.34,2.02-2.67,14.79-14.96,16.45-7.99-.61,7.98-7.63,13.76-10.08,21.09-.31,1.03-.95,2.17-.57,3.24,1.2,.67,2.8,.7,4.11,.37,6.84-2.89,13.34-20.33,12.26-27.43-3.09-13.43-22.52-12.55-30.83-4.61-4.33,4.29-7.5,9.68-10.73,14.82-.57,1.01-2.17,1.09-2.85,.17-3.13,4.98-6.78,9.92-8.95,15.37,6.61,.57,13.26,1.02,19.82,2.05Z"/><path d="M356.27,96.67c-.1-3.88,2.28-7.49,3.61-11.07,4.69-9.88,12.05-20.14,23.31-22.68,3.74-.94,10.7-2.38,10.84,3.33-.28,5.02-6.08,3.64-9.51,4.41-6.87,.9-12.14,5.84-16.73,10.66-3.03,3.6-11.9,10.83-10.65,15.69,.26,.19,.17,.7-.24,.69-.46,0-.57-.69-.64-1.03Z"/><path d="M335.79,94.92c-.53-1.64,.61-3.4,1-5,.65-1.89,1.31-3.73,2.03-5.56-1.3,2.62-2.33,5.43-3.05,8.26-.08,.33-.18,.68-.47,.9-.99,.71-1.95-.86-1.03-1.53,3.36-13.22,13.11-23.04,22.37-32.5-.8-.34,.22-1.03,.52-1.39,.42-.32,1-1.32,1.57-.79,.92-.62,3.14-4.35,3.91-2.28-.39,1.5-1.93,2.55-2.79,3.83-9.26,9.8-14.69,22.39-21.14,34.08-.42,1.14-1.6,3.61-2.92,1.98Z"/><path d="M356.68,72.17c.04-1.19,1.04-2.05,2.19-2.05s2.09,1.07,2.05,2.19c-.04,1.19-1.04,2.05-2.19,2.05s-2.09-1.07-2.05-2.19Z"/><path d="M351.61,84.14c.04-1.08,.94-1.86,1.99-1.86s1.9,.97,1.86,1.99c-.04,1.08-.94,1.86-1.99,1.86s-1.9-.97-1.86-1.99Z"/><path d="M366.44,63.75c.03-.87,.77-1.51,1.61-1.51s1.54,.78,1.51,1.61c-.03,.87-.77,1.51-1.61,1.51s-1.54-.78-1.51-1.61Z"/><path d="M314.15,69.69c.03-.98,.86-1.7,1.82-1.7s1.74,.88,1.7,1.82c-.03,.98-.86,1.7-1.82,1.7s-1.74-.88-1.7-1.82Z"/><path d="M185.99,134.25c-7.44-1.22-15.57-4-20.43-10.06-5.86-6.69-6.2-17.18,1.14-22.93,13.69-10.5,45.42-4.16,48.17,14.95,.58,.33,1,.93,1.04,1.64,.35,3.79-2.17,7.01-4.96,9.28-6.67,6.11-16.11,8.27-24.95,7.12Zm6.98-5.84c7.82,.58,19.42-.09,18.9-10.59,.05-1.11,1.12-1.98,2.21-1.86,0,0,0,0,0,0-3.86-17.52-26.97-21.75-41.85-16.98-6.76,2.31-11.86,9.62-9.31,16.7,3.39,8.34,21.7,13.02,30.05,12.72Z"/><path d="M205.91,164.64c-16.48-.58-45.5-18.65-21.1-32.54,.93-.46,1.71,.89,.85,1.47-7.77,5.63-7.14,13.62-.45,19.88,7.45,8.38,19.17,10.41,29.75,8.49,2.83-.34,5.66-.86,8.12-2.37,6.68-4.19,9.99-8.75,6.63-16.6-2.7-7.01-12.57-14.01-19.68-15.53-.78-.81,.71-.82,1.22-.69,5.85,.4,11.18,3.42,15.62,7.09,3.89,3,5.84,7.82,6.74,12.53,2.86,14.76-16.47,19.26-27.69,18.27Z"/><path d="M228.47,195.05c-7.94-.14-16-1.64-22.95-5.6-9.87-5.5-15.78-14.5-4.89-22.83,1.09-.62,3.65-3.46,4.75-2.22,.23,.34,.18,.85-.15,1.12-1.12,.9-2.18,1.89-3.22,2.9-7.7,7.47-1.75,14.53,5.66,18.88,9.21,4.73,20.2,5.47,30.32,4.51,11.9-1.18,21.44-9.49,15.24-21.74-3.43-6.48-18.16-13.81-25.29-13.32,.31,.86-1.25,.59-1.29-.02-.03-.53,.64-.63,1.03-.71,3.36-.6,6.77-.14,10.05,.72,11.53,3.3,23.23,13.15,17.82,26.19-4.94,9.75-17.06,12.18-27.09,12.13Z"/><path d="M233.37,181.75c-2.04-2.83,2.34-4.69,4.09-6.23,1.29-.91,2.66-1.85,3.88-2.79,.67-.41,1.98-1.94,2.64-.94-.07,2.79-3.06,5.02-4.6,7.2-1.38,1.65-3.75,5-6.01,2.75Z"/><path d="M244.13,179.78c-3.98-1.6-7.12-4.74-10.45-7.3-1.84-.09-1.19-1.74,.34-.68,3.78,1.7,7.41,4,10.95,6.01,1.17,.57,.38,2.44-.84,1.98Z"/><path d="M215.62,150.08c-.63-1.29,1.43-1.7,2.18-2.33,2.53-1.59,5.21-3.16,7.29-5.32,.03-.28,.33-.4,.53-.56,.36-.25,.79,.25,.5,.57-1.2,1.13-9.49,9.45-10.49,7.64Z"/><path d="M225.74,149.9c-3.91-1.81-7.08-4.88-10.79-7.02-.71,.12-1.83-1.03-.72-1.15,.54,.14,1.02,.47,1.51,.72,3.64,1.88,7.16,3.99,10.78,5.89,1.01,.51,.23,2.08-.78,1.56Z"/><path d="M200.18,118.61c-.74-1.63,1.95-2.12,2.87-2.98,2.62-1.89,5.54-3.62,7.03-6.56-.07-.55,.83-.59,.81-.03-.24,.79-.76,1.48-1.19,2.19-.77,1.38-8.31,9.43-9.52,7.37Z"/><path d="M210.35,115.61c-3.74-2.06-7.37-4.6-11.58-5.43h0c-.22,.19-.6,.02-.61-.27,.43-1.54,4.96,1.17,6.11,1.39,1.49,.86,8.78,1.64,7.6,3.82-.29,.56-.97,.76-1.51,.5Z"/><path d="M183.03,98.82c-2.89-5.17-6.41-10.03-9.29-15.23,1.17,3.62,2.63,7.12,3.88,10.7,.18,1.19,1.5,3.05-.1,3.72-.98,.32-1.53-.59-1.72-1.43-4.27-8.29-8.25-16.7-10.31-25.85-1-3.22-2.13-6.42-3.36-9.55-.68-1.89,1.3-3.82,3.18-3.14,1.44,.42,1.92,2.11,2.38,3.36,3.08,5.11,5.57,10.54,7.82,16.07,2.96,6.84,6.08,13.69,8.06,20.84,.18,.32-.23,.75-.54,.5Z"/><path d="M244.02,212.88c-5.65-5.56-10.5-11.99-15.9-17.79-.74-.34-1.37-1.21-.62-1.89,.49-.44,1.33-.19,1.52,.43,3.27,5.31,8.38,9.57,12.45,14.27-2.43-4.31-5.95-8.76-5.89-13.92h0c1.01-1.45,2.8,2.84,3.4,3.54,1.14,1.59,10.76,16.56,5.04,15.37Z"/><path d="M324.44,84.51c-14.61-1.63-29.11-4.06-43.83-4.38-10.29-.83-20.49-1.72-30.81-1.43-23.41-1.3-47.33-.97-70.65,.5-15.73,.82-31.59,.97-47.19,2.66-5.67-4.6,12.08-8.24,14.89-8.67,33.98-5.53,68.69-5.46,102.81-1.29,10.64,.19,21.25,1.31,31.8,1.93,15.02,.26,30.16,.63,44.96,3.42,3.22,.94,9.36,.08,9.09,4.87-.94,4.67-7.73,2.36-11.07,2.38Z"/><path d="M341.54,57.51c-21.47-1.45-42.93-.73-64.4-1.87-11.99,0-23.95,.96-35.94,.36-19.35-.69-38.73-.6-58.07-1.45-20.55-.17-41.08,.88-61.6,1.63-2.8-.06-5.83,.43-8.47-.62-2.18-2.38,5.32-2.89,6.6-3.11,19.37-2.28,38.96-3.99,58.38-4.46,14.49,.29,28.95,.63,43.44,.43,14.45,0,28.87,.59,43.32,.23,13.76-.09,27.45,1.72,41.2,2.25,12-.11,24.02,.61,35.87,2.56,2.38,.34,2.25,4.11-.31,4.06Z"/><path d="M260.37,441.61c-15.59-6.49-15.02-21.63-14.98-36.04-.27-14.48-.34-29.55-1.04-43.69-1.46-14.46-.55-28.98-.88-43.48-.5-14.77-1.92-29.69,1.35-44.26,3.97-21.59,8.46-42.49,16.86-62.79,3.38-8.14,7.83-15.97,11.74-23.83,6-13.37,13.06-26.23,20.98-38.57,10.5-16.54,21.32-32.69,32.18-48.9,2.19-3.05,8.96-12.31,10.71-10.38,.17,.41-.39,.69-.64,.4-5.8,3.94-8.06,11.71-11.32,17.5-11.4,22.98-24.12,45.43-35.61,68.34-3.12,5.54-5.73,11.12-8.62,16.72-5.85,10.75-12.35,21.2-16.79,32.65-6.6,15.75-10.23,32.47-13.14,49-2.9,15.05-.31,29.68-.05,44.73-.45,34.15-.74,68.45,4.34,102.33,.61,2.68,1.27,5.39,2.76,7.74,1.71,2.42,4.32,3.98,6.7,5.66,4.03,2.92-.08,9.43-4.54,6.87Z"/><path d="M203.77,439.82c-1.76-1.32-2.12-3.91-.78-5.66,3.94-5.22,9.19-9.48,12.09-15.45,4.82-12.51,3.92-26.39,4.49-39.58,.12-16.02,1.25-32.02,1.4-48.05,.16-14.4-.56-28.8-.18-43.2-.03-16.32-.92-32.66-6.17-48.08-8.42-20.29-18.33-40.22-29.53-59.13-5.59-8.69-11.18-18.51-16.8-26.96-6.01-9.02-12.34-17.82-17.94-27.1-7.64-12.6-15.79-24.92-24.95-36.47-3.88-4.65-7.85-9.26-10.94-14.5-2.36-4.68-11.81-19.71-2.32-20.18,3.32-.22,6.33-1.03,9.58-1.45,.37-.04,.58,.43,.28,.68-.22,.1-.53,.32-.76,.17-2.92,1.38-5.75,2.99-8.84,4.01,5.02,14.5,18.49,23.4,27.35,35.32,8.84,10.59,16.72,23.38,24.1,34.67,13.44,19.26,26.57,38.82,37.74,59.5,6.81,13.76,13.76,27.54,19.25,41.88,6.05,22.51,6.11,46.25,5.08,69.4-.34,16.05-.27,32.1-1,48.14-.93,15.57-.36,31.14-.31,46.73,.06,13.2-.4,27.63-9.78,37.92-3.06,2.99-5.95,10.7-11.05,7.4Z"/><path d="M231.04,239.38c-2.2-.19-10.33-3.56-7.16-6.32,1.74-.64,4.36,.04,5.96,.04,3.95,.22,7.87-.44,11.62-1.66,2.52-.88,4.94-2.04,7.17-3.51,2.47-2.37,6.04-3.83,8.59-.7,3.97,5.97-4.85,9.55-9.35,11.04-5.4,1.76-11.24,2.18-16.83,1.11Z"/><path d="M221.73,242.25c-.54-1.3-.96-2.67-1.18-4.06-.02-.21,.12-.4,.33-.43,.21-.02,.4,.12,.43,.33,.2,1.36,.63,2.62,1.13,3.86,.19,.45-.52,.74-.7,.29Z"/><path d="M228.93,240.02c-4.59-.48-9.9-1.32-12.85-5.24-2.23-2.94,2.18-6.37,4.45-3.48,1.89,2.92,5.7,3.39,8.88,3.8-8.37-3.43-16.95-8.73-20.55-17.41-.19-.45,.51-.75,.7-.29,.27,.64,.53,1.32,.87,1.93,4.87,6.69,12.88,9.65,20.43,12.14,8.32,3.39,16.32,1.27,23.69-3.3,1.03-.69,2.76-1.37,3.41,.15,.26,.61,.06,1.41-.48,1.81-1.14,1.08-2.4,2.06-3.67,2.97-7.33,4.71-16.07,7.71-24.86,6.92Z"/><path d="M133.6,52.25c-.05-.12-.03-.28,.06-.37,1.12-.53,2.52-.5,3.75-.74,.2-.02,.39,.14,.42,.34-.11,.73-1.33,.42-1.84,.62-.68,.11-1.37,.22-2.03,.4-.15,0-.29-.1-.36-.25Z"/><path d="M111.65,64.45c-1.17-2.35-3.3-4.23-4.58-6.62-4.69-7.53,6.85-6.04,11.11-6.01,12.92,.37,25.92-.32,38.79,1.11,.58,.18,1.66-.06,1.78,.7,0,.23-.2,.45-.43,.46-16.06,.43-32.05,1.56-48.12,1.89,.72,2.32,1.43,4.65,1.63,7.08,.15,.28,.07,.72,.36,.82,.81,.3,.02,1.11-.55,.57Z"/><path d="M112.11,61.82c-1.04-.04-1.89-.91-1.86-1.96,.04-1.04,.93-1.9,1.97-1.86,3.05,.15,6.11,.22,9.16,.26,11.49,.1,22.97-.25,34.46,.21,7.33,.24,14.78,1.06,22.09,.76,14.48-.95,28.96-1.05,43.4,.33,16.9-.17,33.77-1.42,50.66-.22,12.43,.69,24.83-2.71,37.22-1.38,.52,.16,1.18,.23,1.41,.77,.05,.2-.06,.36-.2,.49-.27,.25-.64,0-.64-.3-10.77-1.74-21.77,1.23-32.62,1.23-17.84-.75-35.67-.59-53.51,.2-7.38,.06-14.71-1.08-22.1-.74-9.67,0-19.14,1.06-28.77,1.3-10.55-.15-21.09-.69-31.64-.27-9.64,.4-19.42,1.3-29.04,1.18Z"/><path d="M223.75,210.5c-2.97-.26-7.41,.58-9.5-1.93-.95-1.69,.78-3.81,2.63-3.22,.6,.17,1.21,.32,1.77,.45,13.34,2.63,28.39,1.98,39.86-5.99,1.79-.53,12.83-11.99,11.23-6.09-.19,.88-.49,1.78-1.11,2.44-.36,.33-.88-.22-.53-.54,.67-.8,.92-1.87,1.01-2.88-3.83,2.18-6.58,5.87-10.2,8.4-9.96,7.79-22.9,9.35-35.17,9.35Z"/><path d="M230.62,220.99c-3.57,.05-17.85-4.34-11.78-9.15,2.31-.84,4.82-.09,7.2-.04,5.61,.42,11.13-.64,16.6-1.78,2.34-.48,4.66-1.08,6.74-2.28,3.49-1.93,7.45-5.67,10.95-1.56,3.46,4.82-1.72,7.94-5.36,10.24-7.18,4.24-16.18,4.87-24.35,4.57Z"/><path d="M226.63,229.77c-3.66,.09-13.66-4.62-10.32-9.17,.54-.6,1.43-.72,2.15-.45h0c9.92,3.74,21.05-.36,30.28-4.38,3.91-1.86,8.37,2.48,6.63,6.44-.5,1.24-1.44,2.14-2.63,2.71-7.93,4.25-17.15,6.03-26.1,4.86Z"/><path d="M227.59,233.66c-2.47-.76-5.76-1.98-6.5-4.72-.13-.8,.57-1.5,1.32-1.51,2.43-.06,4.86,.45,7.3,.24,2.14-.18,4.26-.54,6.37-.91,4.69-.62,5.69,6.47,1,7.16-3.15,.24-6.39,.48-9.49-.25Z"/><path d="M224.29,437.44c-1.46-.38-2.54-2.02-2.07-3.52,1.48-4.59,2.88-9.2,3.79-13.93,2.83-14.76,3.58-30.28,4.4-45.15,.41-7.76,1.24-16.01,1.81-23.61,.72-16.55,.03-33.14,.74-49.69,.38-18.65,3.96-37.12,4.14-55.75-5.49,11.7-10.32,24.07-11.76,36.97,.03,.29,.06,.58,.02,.84-.06,.43-.69,.44-.75,0-.06-.85-.12-1.7-.15-2.56,0-.22,.15-.34,.32-.36,1.06-8.81,2.93-17.69,5.51-26.15,1.72-4.44,2.74-9.7,6.09-13.18,2.01-1.11,3.39,1.19,3.38,2.98-.11,18.87-4.01,37.68-3.74,56.59-.27,16.67,.59,33.32,.7,49.98-.62,16.57-.82,33.18-2.16,49.71-.62,5.4-3.68,39.42-10.26,36.81Z"/><path d="M205.05,464.71c-9.87-.19-19.72-1.63-29.42-3.34-4.85-.91-9.55-2.46-13.97-4.68-3.87-2.02-8.1-4.07-10.58-7.81-6.97-11.98,16.11-18.2,24.43-19.61,9.01-.78,18.01-.13,26.51-3.26,6-2.22,12.68-5.22,16-10.92-.91,.37-1.67,.95-2.53,1.38-.49,.16-.62-.58-.24-.72,.97-.49,1.86-1.31,2.96-1.48,1.27,.21,.22,1.87-.24,2.46-6.63,7.77-15.8,13-25.24,16.68-6.12,2.18-12.6,3.03-18.78,5.01-5.4,2.22-11.1,3.96-16.06,7.1,8.36,7.89,20.43,9.51,31.4,10.84,14.21,2.5,28.51,.3,42.79,.13,8.78-.25,17.58,.11,26.35-.29,5.21-.5,10.38-1.2,15.6-1.6,11.55-1.33,24.58-.78,34.56-7.48h0c-5.54-10.28-33.05-11.38-44.17-13.7-1.24-.18-2.16-1.29-2.01-2.56,.15-1.29,1.3-2.1,2.55-2.01,5.67,.4,11.32,.97,16.93,1.82,8.1,1.29,16.37,2.58,23.78,6.26,7.55,3.65,13.99,12.09,4.06,17.54-9.47,5.32-20.72,5.69-31.28,6.83-8.13,.58-16.16,2.2-24.3,2.62-16.37,.44-32.74,.43-49.11,.79Z"/><path d="M219.05,450.99c-11.98-.81-43.43,.46-51.49-7.57-4.49-4.64,1.98-8.34,5.49-10.77,2.09-1.38,4.34-2.56,6.42-3.94,.12-.15,.37-.17,.52-.06,.58,.74-1.05,1.17-1.49,1.57-4,2.64-9.08,4.75-11.58,8.95-.62,2.19,1.28,4.05,2.88,5.16,3.99,2.51,8.78,3.05,13.33,3.74,7,.96,14.05,1.48,21.1,1.7,8.33,.23,16.67,.53,25.01,.2,3.3-.13,6.59-.25,9.89-.42,.25-.01,.46,.21,.46,.45,0,.26-.21,.45-.45,.46-6.69,.32-13.38,.64-20.08,.52Z"/><path d="M255.46,454.52c-1.02-.05-2.7,.3-2.78-1.14-.01-.62,.5-1.14,1.12-1.15,3.09-.04,6.24-.2,9.32-.35,7.21-.78,29.65-2.66,33.59-8.2,.03-.08,.05-.16,.07-.24,0-.06,0-.12,.02-.17h.01c0-.26-.11-.53-.27-.71l.03,.03,.06,.09c-5.04-3.43-12.05-5.18-18.14-4.95-1.26,.22-3.4,.12-3.16,1.79-.24,.4-.77,.11-.77-.3-.85-5.08,25.22-.78,24.25,3.76,1.02,8.32-36.69,11.75-43.34,11.55Z"/><path d="M132.28,91.59c-1.09-.03-.2-1.81,.29-.76,9.43-1.93,18.94-3.46,28.48-4.71,8.53-.64,17.1-.52,25.63-1.16,22.17-2.04,44.41-1.78,66.64-1.46,14,.41,27.9,2.28,41.85,3.46,.45,.05,.42,.82-.09,.76-14.03-1.22-28.07-3.03-42.15-3.33-23.22-.32-46.41,.02-69.56,2.1-7.41,.54-14.9,.45-22.31,.93-9.67,.9-19.3,2.26-28.8,4.17Z"/><path class="cls-1" d="M217.89,197.32c-4.78,0-9.6-.8-13.96-2.81-.41,.2-.93-.39-.55-.74,.46-.32,1.01,.17,1.47,.3,10.64,4.73,22.35,1.81,32.98-1.38,14-3.88,24.53-14.46,31.92-26.54,7.25-10.93,13.97-22.23,21.3-33.13,5.45-8.29,10.92-16.6,15.67-25.32,2.17-3.86,4.34-7.73,6.7-11.48,.32-.56,1.29-.07,.92,.54-9.44,17.4-20.42,33.84-31.28,50.37-11.04,16.73-20.53,37.06-40.43,44.67-7.94,2.79-16.27,5.37-24.74,5.52Z"/></svg>