<?xml version="1.0" encoding="UTF-8"?><svg id="Ebene_1" xmlns="http://www.w3.org/2000/svg" viewBox="0 0 500 500"><path d="M438.62,170.8c-3.84-18.66-17.73-33.79-33.31-43.79-11.73-6.97-25.59-8.85-38.85-10.77-28.04-3.8-55.75,9.67-76.67,27.4-2.25,1.85-4.48,3.72-6.62,5.7-.77,.84-2.12-.07-1.7-1.06,3.15-5.94,8.56-10.1,13.17-14.76,22.06-18.49,52.04-28.32,80.6-22.4,21.29,1.61,39.48,11.05,53.45,27.16,5.17,5.91,10.33,11.98,13.17,19.4,1.31,4.3,8.2,14.2,1.3,16.15-2,.4-4.19-.95-4.53-3.03Z"/><path d="M416.04,172.26c-12.18-.99-24.36-2.12-36.6-2.28-5.36-.22-10.68-1.12-15.95-2.06-1.3-.29-3.07-.56-3.51-2.01-.19-2.95,12.44-.72,14.76-.95,17.73-.6,35.2,.8,52.88,1.51,3.64-.23,7.41,.28,10.98-.45,3.79-1.27,5.8,4.59,1.98,5.85-8.09,1.03-16.39,.99-24.54,.39Z"/><path d="M434.97,166.38c-17.43-33.66-61.87-45.99-97.28-42.13-14.05,2.18-27.18,8.33-38.29,16.92-1.64,1.22-3.2,2.55-4.72,3.92-.22,.24-.5,.48-.84,.33-.44-.17-.38-.95,.11-.96,11.78-16.02,32.49-24.77,52.05-25.62,30.26-1.25,62.44,8.08,83.88,30.2,3.95,4.25,7.24,9,10.14,14.01,.9,1.38,.52,3.28-.86,4.19-1.38,.92-3.25,.51-4.2-.86Z"/><path d="M366.44,162.2c-1.19-.86,1.08-2.77,1.42-3.78,5.31-8.9,12.07-16.8,18.51-24.88,.3-.65,1.35-.79,1.13,.15-.2,.31-.36,.81-.76,.89-5.64,7.13-11.62,14.03-16.25,21.88-1.08,1.81-2.13,3.59-3.13,5.42-.18,.34-.59,.49-.93,.32Z"/><path d="M363.21,168.38c-2.21-.32-2.49-3.19-3.16-4.91-2.52-7.14,5.44-3.28,8.36-1.23,11.6-8.22,22.96-16.65,33.58-26.01,.14-.22,.45-.28,.66-.13,.71,.78-.88,1.49-1.27,2.08-9.45,9.64-20.26,17.74-30.87,26.04,1.25,1.73-.83,3.07-2.32,1.86-1.49,1.04-3.12,2.26-4.99,2.3Zm.36-2.57c.73-.32,1.38-.8,1.98-1.32-.95-.16-2.05-.87-1.45-1.96-.65-.31-1.31-.59-2-.79,.45,1.36,.8,2.8,1.47,4.07h0Z"/><path d="M369.71,166.6c-.21-.33-.12-.79,.21-1.01,3.91-2.27,7.79-4.53,11.93-6.34,9.31-3.83,18.61-7.39,27.7-11.73,1.9-.85,3.76-2.04,5.61-2.85,.22,.05,.43,.25,.41,.5-10.53,6.66-23.06,10.78-34.48,15.97-3.57,1.69-6.98,3.79-10.37,5.67-.34,.19-.77,.14-1.01-.21Z"/><path d="M372.1,169.48c-1.45-.47-.72-2.75,.75-2.27,4.43,.15,8.78-1.12,13.01-2.1,9.62-2.9,19.41-5.16,29.31-6.84,4.28-.59,8.72-2.09,13.03-1.44,1.16,.29-.1,2.24-.84,1.69-.34-.28-.1-.67,.16-.88-9.49,.28-18.86,3.07-28.09,5.25-9.02,2.24-17.94,6.76-27.33,6.59Z"/><path d="M219.82,151.33c-14.93,.1-29.71-2.01-44.57-3.11-16.65-1.83-33.72-2.12-49.54-7.78-7.32-3.08-8.38-6.33-6.47-9.25,.4,.65,.93,1.24,1.54,1.76,1.32,1.15,3.05,1.74,4.83,2.09,3.63,1.85,8.03,2.29,11.94,3.15,7.44,1.3,14.97,1.9,22.49,2.27,19.76,1.01,39.48,2.78,59.27,2.96,14.71,.53,29.34,2.49,44.05,3.13,11.68,.16,24,.1,35.5,.17,7.15,.09,14.25-.89,21.39-1.21,9.26,.22,18.33-1.6,27.09-4.36,1.81-.34,3.68-1.63,5.5-.84,2.26,1.04,2.06,4.56-.34,5.32-9.02,3.18-18.21,6.09-27.86,6.44-20.33,2.1-40.89,1.66-61.24,1.82-14.56-.28-29.04-2.16-43.6-2.57Z"/><path d="M130.48,393.11c-1.07-.76-1.66-1.86-1.92-3.11-1.07-5.45-1.84-10.97-2.56-16.48-1.98-14.1-2.9-28.26-3.39-42.47-1.4-19.18-2.13-39.04-3.66-58.1-1.17-11.36-2.76-22.67-3.76-34.04-2.47-22.96-4.21-45.98-5.91-69-.4-12.11-4.7-26.6,3.96-36.78,1.49-1.37,3.13-2.52,4.86-3.57,.17,.09,.34,.17,.51,.24,.29,1.01,.87,1.89,1.62,2.65-.4,.28-.8,.57-1.19,.86-7.32,4.65-7.19,14.2-6.65,21.9,1.05,11.43,2.34,22.84,3.39,34.28,3.73,41.91,11.52,84.03,14.02,125.94,1.89,15.63,2.19,31.43,4.16,47.03,.86,8.09,2.27,16.11,3.6,24.14,1.17,3.64-.94,7.42-4.23,7.42-.88,0-1.85-.27-2.86-.89Z"/><path d="M342.37,393.56c-4.96-.85-5.2-5.15-4.07-9.22,.95-5.69,1.95-11.39,2.78-17.1,1.95-12.29,1.78-24.76,2.99-37.12,1.57-12.17,2.53-24.38,3.24-36.63,1.9-24.32,3.11-48.7,4.74-73.04,.9-12.35,3.17-24.53,4.42-36.84,1.41-11.82,1.84-24.13,3.64-35.8,.41-1.78,.76-6.79,2.87-5.4,.63,.8,1.07,1.77,1.74,2.54,.4,.28,.74,1.04,.12,1.26-.88,0-1.17-1.22-1.68-1.81,.25,11.7,.91,23.39,.49,35.09-.21,13.79-2.08,27.83-2.77,41.54-.87,28.13-1.82,55.45-3.99,83.29-.65,12.23-2.86,24.3-3.62,36.52-.33,6.24-.55,12.49-1.22,18.71-.82,9.84-2.88,19.53-3.92,29.35-.3,2.84-2.95,4.97-5.75,4.66Z"/><path d="M221.29,428.91c-15.17-1.01-30.27-3.35-45.17-6.36-15.95-3.9-35.09-14.28-43.41-28.83-.81-1.51-3.1-5.57-.46-6.53,1.6-.59,3.24,1.26,4.25,2.25,6.54,7.1,15.66,11.02,24.17,15.24,7.66,3.44,15.85,5.45,24.13,6.7,34.78,5.59,71.22,8.74,105.49-1.26,13.03-4.33,26.03-9.58,37.52-17.16,3.54-2.3,6.52-5.24,9.46-8.23,3.45-2.97,8.63,1.8,5.82,5.5-8.84,10.43-21.13,16.55-33.38,22.08-27.37,13.05-58.31,17.42-88.43,16.62Z"/><path d="M237.93,408.97c-20.78-.4-41.42-2.89-62.07-5.11-16.15-2.45-30.38-11.53-43.5-20.75-.55-.56-.04-1.53,.72-1.41,.3,.04,.59,.14,.87,.25,10.74,5.1,20.62,12.07,32.1,15.33,9.65,2.81,19.62,3.33,29.51,4.68,13.43,1.64,26.96,3.31,40.48,3.27,15.62,0,30.99-4.08,46.18-7.44,10.62-2.25,21.21-4.73,31.34-8.7,6.26-2.75,12.47-4.32,18.54-7.09,2.18-.99,4.38-1.91,6.33-3.31,1.29-1.33,3.59-1.94,4.72-.09,1.73,3.42-3.1,4.53-5.3,5.82-4.66,2.38-10,4.47-14.73,6.14-12.43,5.37-25.14,8.68-38.38,11.08-15.44,3.23-31.01,7.29-46.88,7.32h.05Z"/><path d="M234.65,219.82c-19.28-1.29-37.96-6.23-56.84-9.91-12.64-2.24-25.02-5.79-36.68-11.22-6.7-2.73-13.23-5.86-19.09-10.13-2.58-1.99-5.62-4.17-6.81-7.24,.14-1.09,1.47-.2,1.95,.19,2.56,2.15,5.17,4.16,8.02,5.89,10.65,6.47,22.87,10.9,34.55,14.9,16.34,3.98,33.36,7.12,49.78,10.27,13.35,2.14,26.71,4.07,40.25,2.87,13-.12,25.97-.01,38.71-3.06,17.82-1.98,35.79-5.63,51.81-13.78,3.7-2.01,7.65-4.14,11.17-6.38,1.3-.78,2.56-2.79,4.14-1.4,2.28,2.73-3.67,5.06-5.32,6.5-6.14,4.04-12.59,7.57-19.49,10.15-14.03,5.79-29.15,7.76-44.09,9.67-9.92,2.17-20.01,2.66-30.14,2.44-7.3,.05-14.61,.74-21.92,.24Z"/><path d="M123.94,154.26c-.06-1.48,1.16-2.92,2.69-2.92s2.85,1.12,2.92,2.69c.06,1.48-1.16,2.92-2.69,2.92s-2.85-1.12-2.92-2.69Z"/><path d="M145.7,153.12c-.07-1.69,1.32-3.32,3.07-3.32s3.25,1.27,3.32,3.07c.07,1.69-1.32,3.32-3.07,3.32s-3.25-1.27-3.32-3.07Z"/><path d="M133.99,163.46c-.07-1.51,1.19-2.98,2.74-2.98s2.92,1.14,2.98,2.74c.07,1.51-1.19,2.98-2.74,2.98s-2.92-1.14-2.98-2.74Z"/><path d="M166.07,159.58c-.08-2.05,1.61-4.04,3.73-4.04s3.95,1.55,4.04,3.73c.08,2.05-1.61,4.04-3.73,4.04s-3.95-1.55-4.04-3.73Z"/><path d="M110.47,129.42c-.04-1.08,.86-2.14,1.98-2.14s2.09,.82,2.14,1.98c.04,1.08-.86,2.14-1.98,2.14s-2.09-.82-2.14-1.98Z"/><path d="M265.65,163.72c-4.78-.22-9.55-.19-14.33-.16-2.93,.01-5.86,.04-8.79,0-11.01-.31-21.93-2.51-32.76-3.91-17.71-1.92-35.49-3.14-52.98-6.71-12.41-2.56-25.04-4.39-37.03-8.61-5.38-1.97-8.76-4.28-4.83-10.08,.98-1.56,2.04-3.11,3.43-4.32,.08-.06,.16-.1,.25-.14h.02c.09,.31,.2,.61,.34,.89h0c-1.83,1.73-2.9,4.12-3.82,6.4-.2,.74-.4,1.64,.02,2.34,4.5,3.54,10.86,3.82,16.29,5.21,23.93,4.42,47.91,7.77,72.2,8.27,9.51,.6,18.82,2.62,28.23,3.36,8.2,1.09,16.45,.75,24.7,.86,6.56,.43,13.13,.8,19.71,.78,13.3,.44,26.66,.79,39.92-.29,6.61-.84,13.18-2.87,19.6-4.34,7.88-1.46,15.58-5.1,20.69-11.38-4.36,3.81-9.64,6.13-15.14,7.79-1.16,.4-2.47-.35-2.82-1.5-.37-1.22,.34-2.42,1.5-2.83,2.99-1.1,5.7-1.89,8.47-3.29,4.12-2.27,7.41-5.71,10.96-8.74,1.6-1.86,4.74-1.63,5.71,.75,3.2,11.17-16.59,21.35-25.67,22.82-9.26,2.27-18.32,5.28-27.86,5.56-14.56,.68-29.15,1.28-43.73,1.28-.76,0-1.52,0-2.28,0Z"/><path d="M183.45,165.75c-.07-1.54,1.21-3.04,2.8-3.04s2.97,1.16,3.04,2.8c.07,1.54-1.21,3.04-2.8,3.04s-2.97-1.16-3.04-2.8Z"/><path d="M165.28,171.09c-.06-1.45,1.13-2.85,2.63-2.85s2.79,1.09,2.85,2.63c.06,1.45-1.13,2.85-2.63,2.85s-2.79-1.09-2.85-2.63Z"/><path d="M206.66,162.09c-.06-1.58,1.25-3.13,2.89-3.13s3.05,1.2,3.13,2.89c.06,1.58-1.25,3.13-2.89,3.13s-3.05-1.2-3.13-2.89Z"/><path d="M233.12,172.29c-.05-1.22,.95-2.41,2.22-2.41s2.36,.92,2.41,2.22c.05,1.22-.95,2.41-2.22,2.41s-2.36-.92-2.41-2.22Z"/><path d="M253.17,168.33c-.1-2.37,1.86-4.68,4.32-4.68s4.57,1.79,4.68,4.32c.1,2.37-1.86,4.68-4.32,4.68s-4.57-1.79-4.68-4.32Z"/><path d="M328.13,164.52c-.08-1.94,1.51-3.81,3.51-3.81s3.73,1.46,3.81,3.51c.08,1.94-1.51,3.81-3.51,3.81s-3.73-1.46-3.81-3.51Z"/><path d="M302.91,170.85c-.06-1.48,1.17-2.93,2.71-2.93s2.86,1.13,2.93,2.71c.06,1.48-1.17,2.93-2.71,2.93s-2.86-1.13-2.93-2.71Z"/><path d="M236.32,227.65c-19.7,.12-39.5-1.87-58.26-8.08-4.1-1.18-7.98-2.95-11.92-4.55-.51-.28-.12-1.15,.45-.84,29.48,13.07,62.56,12.86,94.19,11.44,9.17-.52,18.25-1.79,27.4-2.52,7.9-.37,15.68-1.61,23.29-3.76,.33-.07,.67,.07,.78,.41,.32,1.28-3.22,1.15-3.98,1.6-5.76,1.58-11.68,2.35-17.62,2.78-18.06,1.8-36.13,4.04-54.33,3.53Z"/><path d="M119.03,183.41c-1.98-1.36-5-1.33-6.21-3.66-3.08,.45-5.17-3.63-2.92-5.84,1.45-1.46,2.94-2.85,4.45-4.22,3.82-5.56,10.59-7.99,16.66-10.25,8.02-2.45,17.87-8,25.71-2.42,2.83,2.28,2.36,7.24-1.04,8.71-1.09,.53-2.3,.64-3.49,.69-3.32,.22-5.76,.64-8.89,1.28-7.54,2.1-15.03,5.04-21.21,9.95-1.52,1.09-3.54,.97-4.53,2.72,.29,1.21,1.27,1.9,2.29,2.45,.57-.04,.64,.87,.1,.94-.37,.09-.67-.17-.98-.36l.05,.03Z"/><path d="M243.68,128.9c-.05-1.29,.6-2.56,1.61-3.33,1.38-.08,2.76-.17,4.15-.25,1.19,.63,2.03,1.81,2.09,3.28,.08,2.07-1.63,4.08-3.77,4.08s-3.99-1.57-4.08-3.77Z"/><path d="M218.37,129.91c-.04-.96,.76-1.9,1.75-1.9s1.86,.73,1.9,1.75c.04,.96-.76,1.9-1.75,1.9s-1.86-.73-1.9-1.75Z"/><path d="M195.45,108.77c.08,0,.15,0,.23,0-.3,.03-.61,.07-.91,.1,.22-.07,.44-.11,.68-.11Z"/><path d="M278.05,389.96c-6.53-5.36-13.7-10-19.4-16.31-12.43-14.24-16.01-34.46-11.87-52.63,2.67-13.27,8.51-26.27,18.86-35.29,12.68-11.3,27.37-21.08,44.15-24.81,10.48-1.75,29.25-.8,35.9,8.5,.69,2.68-2.42,2.62-4.16,2.2-4.29-.57-8.51-1.49-12.77-2.28-6.8-.96-13.81-1.94-20.58-.24-17.38,4.57-33.75,15.41-44,30.25-8.28,15.1-12.77,34.24-8.65,51.22,3.13,15.11,15.65,24.13,27.38,32.65,4.34,3.25-.42,9.92-4.86,6.75Z"/><path d="M280.98,396.19c-12.5-7.89-24.69-16.81-34.89-27.56-9.32-11.69-14.69-27.35-13.25-42.33,2.41-16.99,12.65-31.65,21.61-45.88,10.49-13.72,26.54-21.85,42.96-26.21,11.42-3.5,23.64-5.13,35.22-1.37,4.15,1.43,7.83,3.97,11.31,6.58,1.96,1.58,4.19,3.18,5.09,5.62,1.05,2.96-2.81,4.15-4.65,5.63-.54,.29-1.05-.52-.51-.81,1.16-.66,2.19-1.46,3.25-2.27,.32-.68-.54-1.28-.96-1.72-11.96-9.84-28.05-12.21-42.71-7.98-11.42,2.74-22.19,6.49-31.77,13.1-10.35,7.08-16.82,17.2-22.46,28.05-3.14,5.84-6.24,11.76-8.22,18.12-6.35,17.93,1.98,39.97,15.63,52.39,8.71,7.72,17.44,15.03,27.22,21.23,3.48,1.94,.71,7.23-2.88,5.41Z"/><path d="M306.01,327.21c-2.32-.96-1.13-4.49,1.14-4.54,.22-.37,.4-1.13,.98-.85,.23,.12,.32,.41,.2,.64-.18,.31-.32,.68-.54,.94,3.35,.12,.54,4.88-1.78,3.81Zm.54-2.04h0s.05-.07,.08-.1l.04-.08c-.03-.15-.03-.29-.01-.43-.13,.17-.2,.41-.11,.61Z"/><path d="M303.72,329.14c-.69-.45,.27-1.22,.47-1.68,4.46-7.16,8.58-14.5,12.4-22.02,3.78-7.08,4.3-15.47,9.37-21.93,.43-.67,1.57-.4,1.66,.39,.12,.4-.3,.91-.45,1.18-3.98,5.75-5.1,12.82-8.34,18.94-4.28,7.88-8.81,15.73-13.48,23.37-.51,.53-.75,1.95-1.63,1.75Z"/><path d="M304.39,332.69c-7.17-6.53-13.75-13.79-22.21-18.75-1.34-.79-2.77-1.57-4.18-2.29-.54-.28-.74-.98-.45-1.51,.29-.56,.95-.71,1.5-.45,1.97,.89,3.9,1.84,5.78,2.93,7.32,4.05,13.71,9.48,19.89,15.06-2-9.65-1.6-19.53-1.2-29.31,.3-6.76,.15-13.7,1.94-20.26,.28-.54,1.13-.1,.84,.45-.37,.94-.46,2.06-.65,3.02-1.16,6.82-.68,13.72-.83,20.59,.04,6.83,.03,13.95,1.63,20.58,.46,1.91,.99,3.81,1.67,5.62,.45,1.08,1,2.26,.74,3.45-.44,2.13-3.11,2.25-4.46,.86Z"/><path d="M258.08,336.4c-.12-.72,.39-1.52,1.14-1.6,3.25-.36,6.84-.26,10.02-.58,5.33-.7,10.65-1.11,15.92-1.89,5.51-.62,11.32-1.97,16.77-.54,.53-.63,1.27,.4,.56,.8-4.22,.89-8.64,.69-12.89,1.58-9.93,1.92-19.99,3-30.09,3.4-.68,.06-1.31-.49-1.43-1.16Z"/><path d="M316.82,387.59c1.35-1.96,4.53-3.23,6.35-4.94,9.36-7.24,13.21-18.74,16.79-29.55,1.99-6.53,4.2-13.02,4.96-19.76-.03-1.31,.15-2.8-.68-3.89-.38-.48-.98-.2-1.46-.32-.76-.57,.27-1.14,.88-.94,8.11,1.15-8.61,45.75-13.28,49.61,3.7-3.38,6.74-7.33,9.41-11.55,.71-.92,1.28-2.31,2.6-2.38,4.32,0-3.2,11.07-4.36,12.67-1.58,2.47-13.4,14.45-15.66,10.26-1.33,.64-5.39,3.88-5.54,.79Z"/><path d="M124,138.92c0-.25,.2-.5,.45-.5s.48,.19,.5,.45c0,.25-.2,.5-.45,.5s-.48-.19-.5-.45Z"/><path d="M109.89,150c-.48-.22-.75-.73-.97-1.18-1.5-3.41-2.31-7.17-2.68-10.87-.31-2.05-.94-4.31,.44-6.15,7.16-5.88,16.98-7.88,25.63-10.8,6.59-2.04,13.37-3.3,20.18-4.35,13.6-2.53,27.18-5.27,41.04-5.86,22.84-.65,45.69-2.23,68.54-2.16,17,.31,34.09,.03,50.63,4.65,4.04,.87,7.78,2.65,11.57,4.24,.9,.43,1.29,1.6,.95,2.51-.37,1.01-1.6,1.66-2.63,1.22-10.39-4.77-21.8-5.64-32.96-6.65-22.88-.25-45.71-.75-68.57,.55-22.66,.06-45.06,1.21-67.17,5.86-12.02,1.61-23.92,4.67-35.22,8.98,2.67,.52,5.93,4.66,2.06,5.99,.43,.11,1.11,.42,.91,.98-.18,.43-.74,.35-.89,.03-.73-.26-1.58-.42-2.13-1.01h-.1c-1.14-.12-2.28-.19-3.42-.24-2.53,1.87-4.43,4.82-4.36,8.01-.02,1.56,.05,2.93,.32,4.41,.35,.89,.04,2.32-1.19,1.83Zm-.39-8.21c.07-.38,.15-.76,.27-1.13,.22-.69,.52-1.34,.89-1.95-.4,.33-.81,.57-1.34,.64,.02,.81,.1,1.63,.17,2.44Zm1.84-4.18c-.03,.07-.06,.14-.1,.21,.56-.76,1.2-1.48,1.92-2.1-.31,0-.63,0-.94,.01-.36,.59-.62,1.24-.88,1.88Z"/><path d="M177.71,131.04c-.04-1.1,.87-2.18,2.01-2.18s2.13,.84,2.18,2.01c.04,1.1-.87,2.18-2.01,2.18s-2.13-.84-2.18-2.01Z"/><path d="M129.8,122.52c-.09-2.13,1.67-4.2,3.87-4.2s4.1,1.61,4.2,3.87c.09,2.13-1.67,4.2-3.87,4.2s-4.1-1.61-4.2-3.87Z"/><path d="M210.97,109.03c-.05-1.25,.98-2.47,2.27-2.47s2.42,.95,2.47,2.27c.05,1.25-.98,2.47-2.27,2.47s-2.42-.95-2.47-2.27Z"/><path d="M196.24,127.59c-.04-.95,.74-1.86,1.72-1.86s1.83,.71,1.86,1.72c.04,.95-.74,1.86-1.72,1.86s-1.83-.71-1.86-1.72Z"/><path d="M193.24,107.96c-.05-1.36,1.07-2.68,2.47-2.68s2.62,1.03,2.68,2.47c.05,1.36-1.07,2.68-2.47,2.68s-2.62-1.03-2.68-2.47Z"/><path d="M267.25,121.85c-.08-2.01,1.58-3.96,3.65-3.96s3.87,1.52,3.96,3.65c.08,2.01-1.58,3.96-3.65,3.96s-3.87-1.52-3.96-3.65Z"/><path d="M155.61,130.76c-.04-1.16,.91-2.28,2.1-2.28s2.23,.87,2.28,2.1c.04,1.16-.91,2.28-2.1,2.28s-2.23-.87-2.28-2.1Z"/><path d="M304.77,112.98c-.07-1.67,1.31-3.3,3.04-3.3s3.22,1.27,3.3,3.04c.07,1.67-1.31,3.3-3.04,3.3s-3.22-1.27-3.3-3.04Z"/><path d="M288.47,127.89c-.07-1.54,1.2-3.02,2.78-3.02s2.95,1.16,3.02,2.78c.07,1.54-1.2,3.02-2.78,3.02s-2.95-1.16-3.02-2.78Z"/><path d="M142.78,343.54c-.1-.23,0-.53,.24-.63,3.92-1.62,7.93-2.95,11.87-4.51,9.82-4.49,32.89-9.65,37.99-18.86,.98-4.87-3.75-9.12-4.93-13.72-3.09-9.1-7.51-17.67-13.54-25.19-5.85-6.34-12.68-11.64-19.11-17.36-2.06-1.83-4.15-3.63-6.75-4.63-.45-.15-.82-.18-1.22,.06-.36,.17-.73,.6-1.15,.37-.41-.19-.28-.89,.19-.89,4.56-3.03,15.1,9.1,18.96,11.98,9.36,8.01,16.79,17.94,21.27,29.47,1.49,3.62,2.6,7.38,4.46,10.85,1.07,2.26,2.65,4.43,2.96,6.97,.7,9.02-21.79,15.25-28.8,18.08-7.29,2.7-14.57,5.47-21.82,8.27-.24,.1-.52,0-.63-.24Z"/><path d="M178.48,323.95c-.43-1.18-1.39-2.24-1.34-3.54,.67-2.61,3.51-4.2,4.1-6.91,1.09-3.96-2.02-7.17-4.18-10.1-4.6-6.82-10.73-12.3-15.89-18.65-1.74-1.9-3.33-3.93-5.67-5.08-.22-.12-.32-.41-.19-.64,.65-.82,2.44,1.02,3.07,1.43,7.54,8.1,15.16,16.17,21.58,25.21,3.89,4.78,2.87,9.64-1.29,13.8-.41,.42-.76,1.14-.44,1.72,.18,.82,1.7,2.37,.89,3-.23,.1-.52,0-.63-.24Z"/><path d="M193.87,295.48c-.32-.07-.51-.39-.45-.71,1.38-4.97,4.52-9.3,6.44-14.07,3.22-7.62,5.98-15.45,10.52-22.43,1.13-1.75,1.74-3.73,2.36-5.7,3.4-6.72,8.65-8.22,15.56-5.8,13.81,3.63,27.04,9.72,41.01,12.62,.72-1.24,1.86,.63,.35,.93-9.77-1.68-19.3-5.23-28.72-8.35-4.58-1.83-9.42-3.02-14.11-4.46-3.06-.91-6.84-1.62-9.41,.74-3.61,2.5-4.11,6.77-6.11,10.32-6.75,10.65-9.99,22.95-15.95,34-.34,.79-.61,1.62-.78,2.46-.07,.32-.4,.52-.71,.45Z"/><path d="M205.29,300.6c-.37-.13-.62-.6-.45-.97,.9-2.04,1.78-4.09,2.68-6.15,4.01-9.21,8.24-18.39,14.33-26.43,1.72-2.19,3.32-4.51,5.28-6.5,.32-.31,.74-.62,1.21-.6,1.07,.18,1.63,1.37,2.45,1.96,.98,.71,1.93,1.48,2.94,2.14,.55,.29,.1,1.13-.45,.84-1.82-1.11-3.41-2.58-4.98-3.98-2.36,1.82-3.89,4.59-5.8,6.86-6.59,8.86-10.88,19.11-15.01,29.24-.66,.97-.77,3.83-2.2,3.58Z"/><path d="M233.46,392.55c-12.26-4.42-22.21-13.68-32.97-20.82-8.35-6.22-14.89-14.59-23.41-20.59-.84-.49-1.69-1.06-2.63-1.25-.21,.08-.46,0-.58-.2,.05-3.06,8.22,4.13,9.2,4.99,7.96,7.24,15.41,15.08,24.73,20.63,8.37,5.49,16.71,12.22,26.29,15.25,.38,0,.65-.03,.96-.18,3.83-2.48,7.18-5.64,10.8-8.41,1.25-1.01,2.54-1.98,3.84-2.93,.37-.27,.87-.25,1.16,.12,.28,.34,.24,.89-.12,1.16-1.7,1.29-3.35,2.65-4.97,4.06-3.01,2.54-5.88,5.28-9.17,7.47-.91,.64-2.05,.87-3.15,.69Z"/><path d="M202.24,382.55c-2.52-2.95-6.32-4.21-9.47-6.35-7.45-4.54-14.5-9.68-22.21-13.75-.56-.21-.25-1.12,.33-.89,.44,.3,1.23,.17,1.34,.7,7.02,3.52,13.62,7.89,20.27,12.04,1.93,1.65,11.86,5.8,10.8,8.23-.27,.28-.79,.34-1.07,.03Z"/><path d="M274.77,374.27c-1.48-1.83,1.89-3.64,2.6-5.03,2.46-3.1,4.9-6.2,7.3-9.35,6.16-8.3,11.26-17.37,16.97-25.94-1.1,.48-1.63-.85-.48-.87h.04s.01,0,0,0c.72-.17,1.27-.81,1.72-1.37,4.02-1.17-3.84,10.16-4.42,11.45-4.68,8.3-9.74,16.39-15.83,23.74-2.02,2.63-3.88,4.92-6,7.34-.48,.55-1.39,.55-1.91,.05Z"/><path d="M295.71,396.62c-4.61,.31-8.88-2.17-13.35-2.19,.08,.46,.62,.62,.72,1.06-.11,1.34-1.55-.03-1.77-1.13-.3-.16-.56-.31-.75-.61-.17-.28-.23-.63-.21-.96-4.11-2.28-8.95-4.76-11.15-9.09-.72-2.08,.93-4.2,3.1-4.18,6.02,1,11.15,5.17,17.07,6.76,4.39,1.74,8.77-.88,13.1-1.82,8.73-2.29,16.91-5.67,24.4-10.64,3.89-2.95,7.97-5.9,11.12-9.51,1.25-1.24,2.24-3.03,4.06-3.41,1.41-.23,2.63,.83,2.73,2.22-.02,2.38-2.02,4.13-3.39,5.89-1.37,1.6-3.02,3.1-4.53,4.49,1.58-.57,3.2,1.11,2.59,2.68-4.47,7.21-13.01,10.94-20.27,14.84-7.43,3.6-15.26,5.61-23.48,5.61Z"/><path d="M285.47,391.58c0-.31,.24-.6,.56-.6s.59,.23,.6,.56c0,.31-.24,.6-.56,.6s-.59-.23-.6-.56Z"/><path d="M303.67,328.39c-1.08,.01-.94-1.67,.06-1.23,13.46-3.79,26.95-7.9,39.64-13.86,1.52-.71,2.64,1.7,1.08,2.38-13.11,5.47-26.78,10.47-40.79,12.72Z"/><path d="M309.11,336.14c-3.04-.1-5.68-2.97-5.33-6.02,.24-.92,.67-1.82,1.37-2.39,.45-.17,.86,.47,.47,.81-1.45,1.81,.04,4.53,1.91,5.26,1.59,.53,4.79,.42,4.78-1.78-1.09-1.61-3.25-2.17-5.06-2.52-1.25-.08-1.79-1.8-.78-2.57,2.74-1.07,7.53,1.45,8.44,4.27,.78,3.16-3.02,5.39-5.8,4.94Z"/><path d="M309.55,376.39c.14-1.68-8.84-46.69-3.54-38.94,1.67,11.4,3.89,22.73,5.34,34.17,.19,1.45,.32,2.92,.49,4.39,.07,.63-.31,1.23-.95,1.34-.61,.1-1.25-.32-1.34-.95Z"/><path d="M274.5,401.84c-3.77-7.19,13.11-9.53,17.49-11.68,7.73-3.08,15.12-7.13,23.26-9.06,3.89-.97,7.93-1.13,11.85-1.95-.49-2.15,2.01-4.61,2.69-6.68,3.76-7.36,6.69-15.12,8.49-23.19,2.8-8.16,2.66-16.86,5.18-25.1,2.24-7.43,3.44-17.74,5.57-24.4,1.33-1.92,4.63-1.01,4.67,1.36-.63,15.43-2.25,30.94-4.99,46.15,1.1,1.64-.28,3.74-.67,5.44-1.3,3.37-1.78,6.98-2.95,10.4-1.99,5.98-3.54,12.33-6.94,17.68-2.94,3.41-7.52,4.68-11.63,6.11-14.64,3.24-27.69,10.94-42.2,14.59-3.22,.74-7.34,4.21-9.82,.37Zm59.32-26.04c-.63,.72-1.25,1.44-1.9,2.14-.04,.04-.08,.09-.12,.13,3.06-.36,4.11-3.32,5.45-5.67-.12,0-.24-.03-.36-.06-.05-.01-.11-.03-.16-.05-.94,1.2-1.92,2.36-2.91,3.5Z"/><path d="M140.07,198.37c-5.77-3.07-11.62-5.95-17.18-9.41-2.87-1.82-5.84-3.87-7.41-6.98-6.02-12.45,16.83-19.51,25.63-21.84,4.93-.75,10.68-1.71,15.16,.96,.54,.29,.1,1.13-.45,.84-4.6-2.93-10.27-1.15-15,.58-3.84,1.46-7.52,3.33-11.17,5.24-2.25,2.45-3.87,4.88-5.29,7.7-4.45,9.47,10.95,15.04,16.57,19.8,1.4,.87,1.02,3.46-.87,3.1Zm-20.18-16.27c-.18-.42-.33-.85-.44-1.29-.6-2.38,.08-4.78,1.14-6.92-2.99,2.4-3.34,5.35-.7,8.21Z"/><path d="M159.73,163.33c-4.56-.59-9.21-.2-13.81-.33-1.14,.04-2.21-.76-2.43-1.89-.37-1.56,.98-2.89,2.46-3.02,1.1-5.4,7.32-3.1,10.97-2.07,4.58-1,9.27-1.75,13.97-1.49,3.31,.35,7.63,.5,9.67,3.52,.88,1.38,.02,3.59-1.72,3.64-5.16-1.26-10.55-.86-15.85-.77-.07,1.61-1.74,2.77-3.27,2.41Z"/><path d="M295.06,201.49c-.25-.02-.46-.26-.43-.51,.16-1.41,.32-2.93-.37-4.21-.53-1.06-1.45-1.79-2.47-2.27-3.82-1.48-7.9-1.73-11.9-2.24-15.54-1.52-30.93-4.39-46.35-6.54-8.11-1.14-16.14-2.76-24.18-4.33-8.2-1.87-16.7-4.04-25.14-2.56-.34,.06-.62,.23-.92,.39-5.02,4.38-10.38,8.57-14.63,13.69,1.01,.12,.19,1.42-.5,1.17-2.55-2.27,5.27-8.91,6.82-10.91,2.57-2.5,4.66-6.02,8.24-7.14,4.87-.76,9.91-.44,14.75,.5,10.08,2.51,20.22,4.81,30.45,6.65,13.34,2.18,26.74,4.6,40.08,6.69,8.26,1.74,17.56,.61,25.13,4.64,2.03,1.51,2.32,4.19,1.95,6.53-.03,.26-.26,.46-.52,.43Z"/><path d="M274.29,208.04c-29.07-2.31-58.71-.61-87.22-7.76-1.06-.3-2.15-.5-3.16-.93-.22-.12-.37-.29-.36-.56-.02-.27,.2-.47,.45-.49,.51,.03,1.54-.21,1.47,.58,19.88,5.4,40.72,5.79,61.17,6.24,9.22,.14,18.53,.85,27.71,.69,1.51-.07,1.49,2.39-.06,2.23Z"/><path d="M153.12,254.01c-1.56-.65,.25-2.94,.35-4.12,2.43-8.41,4.86-17.47,3.84-26.24-.2,.24-.37,.54-.65,.69-.53,.24-.95-.54-.45-.84,5.18-5.76,.37,19.74-.2,21.47-.61,2.81-1.27,5.6-1.89,8.41-.1,.45-.56,.74-1,.64Z"/><path d="M309.7,330.64c8.28-10.42,16.59-21.89,24.93-32.64,3.69-4.95,7.55-9.78,10.87-14.99,.16-.26,.56-.3,.8-.13,.25,.18,.31,.54,.13,.8-1.14,1.57-2.19,3.19-3.3,4.79-5.68,8.06-11.84,15.76-17.91,23.52-4.89,6.13-9.04,12.9-14.59,18.48-.16,.37-.71,.57-.95,.17Z"/><path d="M308.53,325.96c-5.78-5.32-10.02-12.37-14.78-18.62-5.02-7.74-10.95-14.76-16.75-21.91-.69-.86-.58-2.21,.3-2.9,.89-.72,2.17-.55,2.89,.3,2.46,2.97,5.12,5.73,7.76,8.52,8.52,10.17,16.04,21.56,21.17,33.81,.18-.71,1.25-.43,.94,.27-.22,.67-.94,1.06-1.54,.54Z"/><path d="M334.43,332.3c-6.91-.33-13.89-1.06-20.71-2.2-.36,.37-.99-.1-.77-.56,.24-.57,.96-.39,1.45-.31,6.4,1.12,12.99,1.69,19.46,2.11,4.63,.22,9.21-.79,13.84-.45,.6,.05,.54,1.01-.09,.95-4.42-.33-8.76,.63-13.17,.46Z"/><path d="M335.92,363.15c-6.41-10.02-10.82-21.56-19.07-30.27-.31,.5-.95,.05-1.26-.23-.48-.4-.9-1.53,0-1.66,1.17,.17,1.97,1.29,2.77,2.07,6.69,7.4,10.66,16.75,15.8,25.22,.84,1.46,1.69,2.92,2.57,4.36,.32,.5-.49,1.04-.81,.5Z"/><path d="M263.35,364.28c-.16-.19-.14-.51,.07-.67,3.62-2.85,7.19-5.77,10.95-8.43,10.79-7.74,22.18-14.8,31.85-23.99-.67-.19-.26-1.22,.35-.89,1.19,.29,.67,1.35-.01,1.94-8.69,7.94-18.42,14.61-28.13,21.19-4.46,3.16-8.86,6.4-13.08,9.88-.62,.33-1.28,1.5-1.99,.96Z"/><path d="M338.33,145.73c-.39-.04-.68-.43-.59-.81,.63-3.84,1.48-7.66,1.95-11.53,.49-2.9,.5-5.95,1.34-8.76,.13-.23,.42-.32,.65-.2,.23,.13,.32,.42,.19,.65-1.01,4.91-1.34,9.96-2.11,14.92-.22,1.71-.47,3.42-.71,5.12-.05,.37-.36,.64-.72,.61Z"/><path d="M254.28,106.71c-.08-1.99,1.57-3.93,3.63-3.93s3.84,1.51,3.93,3.63c.08,1.99-1.57,3.93-3.63,3.93s-3.84-1.51-3.93-3.63Z"/><path d="M149.9,116.11c-.04-1.04,.82-2.06,1.89-2.06s2.01,.79,2.06,1.89c.04,1.04-.82,2.06-1.89,2.06s-2.01-.79-2.06-1.89Z"/><path d="M277.71,176.26c-.04-1.04,.82-2.06,1.89-2.06s2.01,.79,2.06,1.89c.04,1.04-.82,2.06-1.89,2.06s-2.01-.79-2.06-1.89Z"/></svg>