<?xml version="1.0" encoding="UTF-8"?><svg id="Ebene_1" xmlns="http://www.w3.org/2000/svg" viewBox="0 0 500 500"><path d="M340.49,216.96c-.81-.55-1.32-1.47-1.37-2.45-.03-.44,.04-.86,.19-1.25h0c8.01-20.21-3.15-52.89-13.39-71.01-4.47-8.1-10.3-14.7-16.14-21.67-12.35-17.62-21.27-36.55-15.38-58.4,1.08-3.36,7.93-24.29,12.5-18.38,.89,2.69-.64,5.51-.88,8.22-.2,5.05-.68,9.61-1.77,14.49-1.32,10.79-.22,21.88,2.6,32.34,1.86,7.28,4.55,14.63,8.1,21.17,3.97,6.21,8.45,12.25,11.84,18.73,10.21,19.1,18.34,39.66,19.61,61.49,2.6-4.56,5.78-8.81,8.01-13.57,3-7.22,3.4-14.99,3.66-22.59-.38-10.89-.35-22.4-4.3-32.68-1.34-2.35-1.89-5.74,1.27-6.85,2.05-.68,4.13,.64,4.59,2.69,2.58,9.3,2.48,19.32,2.23,28.76-.35,11.3-.41,22.98-4.35,33.71-1.88,4.42-4.11,8.67-6.24,12.97-1.71,3.3-3.27,6.69-4.77,10.09-.89,2.6-2.81,6.25-6.02,4.21Z"/><path d="M351.08,127.32c-1-.78-1.16-2.01-1.22-3.2-.34-6.7-.09-13.41-.31-20.11-.52-17.69-1.47-19.86,10.61-33.64,.84-.88,1.44,.14,.8,.96-8.38,12.37-10.1,12.25-8.73,27.83,2.67,.3,6.68,.41,7.83,3.33,.51,4.01-.19,8.38-.1,12.3-.4,3.21,1.42,12.62-2.97,12.94-1.93,.18-4.21,.79-5.91-.42Zm5.66-2.27c.07,0,.13-.02,.2-.03,.68-3.91,.27-7.66,.41-11.55-.03-3.27,.38-6.45,.04-9.66h0c-1.61-.16-3.25,.14-4.86-.06,.55,7.03,.18,14.12,.6,21.15,1.32,.23,2.38,.17,3.62,.15Z"/><path d="M358.66,102.69c-2.02-7.85,.89-16.85,1.07-24.93,0-1.73,.25-3.48,.24-5.2-.26-1.12,.06-2.57,1.43-2.63,2.83,.18,1.11,3.65,1.25,5.42-.54,9.07-3.03,17.9-3.23,26.98,.25,.49-.51,.83-.76,.36Z"/><path d="M340.86,86.8c-1.15-4.2,.41-8.59,1.1-12.76,.93-2.36,.79-9.79,3.84-9.81,.69,.03,1.28,.44,1.72,.95,1.86,2.29,2.85,5.16,3.9,7.88,1.1,3.09,2.3,6.16,3.15,9.33,.11,.42,.11,.83-.09,1.23-.38,.76-1.39,1.09-2.13,.68-1.01-.53-.92-1.84-1.25-2.79-1.42-4.67-2.8-9.42-5.07-13.77-1.14,5.4-2.85,10.66-3.8,16.1-.19,.76,.02,4.51-1.4,2.88l.03,.07Z"/><path d="M345.98,97.22c-4.48-.76-5.13-7.55-.96-9.24,1.69-.63,3.39,.71,3.14,2.49,.35,.18,.66,.42,.96,.7,.12,.11,.23,.23,.34,.35,4.11,1.75-.26,6.79-3.48,5.7Zm1.3-2.73c.45,0,.91-.13,1.25-.41v-.03c-.01-.06-.02-.12-.04-.18-.57,.01-1.09-.4-1.2-.98,0-.04-.01-.07-.02-.11-.1-.01-.19-.06-.26-.14-.09-.11-.12-.25-.08-.38-.93-.02-1.4,1.54-.62,2,.32,.15,.63,.22,.97,.22Zm-3.05-2.94c.69-.97,1.92-1.69,3.12-1.38-.04-.64-.86-.85-1.39-.71-.91,.32-1.43,1.24-1.72,2.09Z"/><path d="M351.68,102.96c-.16-6.29-1.36-12.9,.48-19.03,1.1-3.04,2.97-5.69,4.36-8.59,.25-.49,.94-.61,1.33-.21,.63-.59,1.35-1.09,2.16-1.37,.23-.4,1.13-.38,1.02,.22-.45,.9-1.48,1.63-2.02,2.42-3.44,4.49-5.82,9.96-5.46,15.64-.04,3.66,.05,7.31,.17,10.95-.07,1.23-2,1.21-2.05-.03Z"/><path d="M347.8,111.13c-.51-.26-.85-.69-1.05-1.22-1.73-3.96-2.36-8.6-3.87-12.57-1.72-3.81-3.49-7.63-5.76-11.14-3.39-3.81-6.05-7.95-9.05-12-4.63-5.8-9.67-11.17-15.5-15.78-3.33-3.11-5.28-7.4-7.86-11.09,0,0,0,0,0,0-.09,.1-.07,.2-.06,.32,.03,.53-.79,.57-.82,.04,.56-4.08,5.35,3.57,6.21,4.52,4.12,5.74,11.32,8.45,15.73,13.9,6.14,5.33,10.28,12.38,15.11,18.81,2.91,4.97,6.23,10.14,7.52,15.78,.69,2.64,1.6,5.23,2.41,7.84,.61,1.74-1.36,3.49-3.01,2.58Z"/><path d="M349.33,119.04c-.85-4.67-3.38-8.78-5.19-13.11-3.93-10.08-9.83-19.31-14.78-28.85,.02,.04,.05,.09,.07,.13-3.91-7.13-9.83-12.17-15.41-17.77-4.11-4.5-7.71-9.57-10.37-15.06-.39-.73-.52-1.99,.51-2.22,.73-.12,1.32,.39,1.82,.85,3.61,3.61,6.81,7.97,10.28,11.6,6.08,5.91,12.59,11.28,17.12,18.44,4.67,8.14,9.32,16.6,12.99,25.2,.84,3.57,9.88,21.44,5.11,22.25-.97,.19-1.93-.47-2.14-1.45Z"/><path d="M347.5,96.84c-.73-.05-1.3-.63-1.52-1.3-.84-.91-.94-2.22-.58-3.37,.22-.67,.45-1.72,1.28-1.84,.42-.04,.81,.29,.76,.72,4.85-2.57,6.46,6.78,.77,5.68-.22,.08-.47,.12-.71,.1Zm1.58-2.37c.57-.06,.32-.76,.09-1.07,.02,.02,.03,.04,.05,.06,.02,.03,.04,.07,.05,.07-.07-.1-.14-.2-.24-.27h0c-.41,.34-.23,.87,.05,1.22Z"/><path d="M316.28,102.17c-.04-.67,.51-1.35,1.21-1.35s1.31,.48,1.35,1.21c.04,.67-.51,1.35-1.21,1.35s-1.31-.48-1.35-1.21Z"/><path d="M315.38,93c-.06-.99,.75-1.99,1.78-1.99s1.93,.71,1.99,1.78c.06,.99-.75,1.99-1.78,1.99s-1.93-.71-1.99-1.78Z"/><path d="M328.88,113.27c-.03-.56,.43-1.13,1.02-1.13s1.1,.41,1.13,1.02c.03,.56-.43,1.13-1.02,1.13s-1.1-.41-1.13-1.02Z"/><path d="M320.09,114.26c-.06-1.22,.93-2.45,2.2-2.45s2.38,.88,2.45,2.2c.06,1.22-.93,2.45-2.2,2.45s-2.38-.88-2.45-2.2Z"/><path d="M333.58,133.82c-.05-.94,.71-1.89,1.7-1.89s1.84,.68,1.89,1.7c.05,.94-.71,1.89-1.7,1.89s-1.84-.68-1.89-1.7Z"/><path d="M341.38,151.96c-.04-.81,.62-1.63,1.47-1.63s1.58,.59,1.63,1.47c.04,.81-.62,1.63-1.47,1.63s-1.58-.59-1.63-1.47Z"/><path d="M344.69,171.46c-.04-.77,.59-1.55,1.4-1.55s1.51,.55,1.56,1.39c.04,.77-.59,1.55-1.4,1.55s-1.51-.55-1.56-1.39Z"/><path d="M349.9,159.49c-.04-.7,.54-1.41,1.27-1.41s1.38,.51,1.41,1.27c.04,.7-.54,1.41-1.27,1.41s-1.38-.51-1.41-1.27Z"/><path d="M344.34,162.97c-.04-.66,.5-1.34,1.2-1.34s1.3,.48,1.34,1.2c.04,.66-.5,1.34-1.2,1.34s-1.3-.48-1.34-1.2Z"/><path d="M312.61,78.17c-.03-.45,.34-.9,.82-.9s.88,.32,.9,.82c.03,.45-.34,.9-.82,.9s-.88-.32-.9-.82Z"/><path d="M308.44,64.25c-.04-.85,.65-1.71,1.53-1.71s1.66,.61,1.71,1.53c.04,.85-.65,1.71-1.53,1.71s-1.66-.61-1.71-1.53Z"/><path d="M308.1,85.07c-.04-.64,.49-1.29,1.17-1.29s1.26,.47,1.29,1.17c.04,.64-.49,1.29-1.17,1.29s-1.26-.47-1.29-1.17Z"/><path d="M323.23,85.4c-.03-.59,.45-1.18,1.05-1.18s1.15,.42,1.18,1.05c.03,.59-.45,1.18-1.05,1.18s-1.15-.42-1.18-1.05Z"/><path d="M332.96,121.24c-.04-.81,.62-1.64,1.47-1.64s1.59,.59,1.64,1.47c.04,.81-.62,1.64-1.47,1.64s-1.59-.59-1.64-1.47Z"/><path d="M325.31,124.22c-.06-1.13,.87-2.27,2.05-2.27s2.2,.82,2.27,2.05c.06,1.13-.87,2.27-2.05,2.27s-2.2-.82-2.27-2.05Z"/><path d="M346.39,140.3c-.06-1.09,.83-2.2,1.97-2.2s2.13,.79,2.2,1.97c.06,1.09-.83,2.2-1.97,2.2s-2.13-.79-2.2-1.97Z"/><path d="M266.67,457.87c-20.44-.17-40.83-.86-61.13-3.4-8.92-.96-18.28-1.1-26.56-4.94-18.44-8.16-6.29-16.62,6.26-21.31,6.75-2.87,14.03-3.96,21.07-5.87,4.95-1.67,9.53-4.22,13.96-6.95,5.64-3.55,11.79-6.83,16.35-11.73-.35-.64,.93-.91,1.02-.23,.1,.56-.4,1.12-.71,1.53-4.97,5.39-11.37,9.21-17.38,13.3-3.6,2.45-7.33,4.76-11.37,6.42-10.41,3.74-21.74,5.35-31.18,11.47-1.41,1.21-4.32,2.45-3.79,4.62,8.69,9.16,25.37,7.7,37.07,8.7,9.08,.46,18.16,1.17,27.25,.79,21.26-.59,43.04,1.46,63.95-3.17,6.9-1.49,14.22-2.3,20.24-6.16-3.67-12.35-37.72-12.98-48.77-15.81-1.5-.36-2.4-1.99-2.02-3.46,1.44-4.33,7.56-.46,10.41-.42,10.95,1.74,22.06,3.55,32.45,7.53,5.18,2.08,11.17,5.33,12.37,11.27,.47,2.04-.55,3.98-2.27,5.07-5.29,3.64-11.67,5.23-17.8,6.87-12.84,3.46-26.1,5.72-39.43,5.87Z"/><path d="M250.44,445.83c-7.09-.13-14.06-1.52-21.04-2.63-5.17-.74-10.42-.95-15.54-2.03-8.71-2.26-18.01-2.97-26.63-4.58-.47-1.46,3.76-.76,4.6-.82,6.07,.37,12.24,.45,18.26,1.64,5.91,1.23,11.9,1.59,17.92,1.84,6.37,.52,12.98,1.81,19.33,2.09,15.03,.54,30.21-.38,45.11-1.96,2.45-.29,3.04,3.45,.5,3.83-14.1,1.83-28.27,3.07-42.5,2.63Z"/><path d="M218.29,417.63c2.94-4.38,8.41-6.42,11.29-10.91,13.81-20.55,7.66-46.84,6.96-69.96-.91-20.02-3.44-40-6.93-59.72-3.45-17.91-4.37-29.68-21.17-40.14-14.48-10.13-29.44-20.4-39.61-35.15-7.28-9.61-12.79-20.36-16.54-31.8-7.29-18.8-10.51-39.21-8.97-59.33,.47-3.61,5.89-3.5,5.78,.48-.27,6.25,.24,12.65,.97,18.82,1.37,10.59,4.17,20.92,7.63,31,4.41,13.7,10.54,27.46,19.33,38.57,9.34,12.26,22.48,20.65,34.55,29.94,7.61,5.59,16.44,11.04,19.74,20.39,3.49,8.47,4.77,17.6,6.33,26.57,3.13,18.46,4.43,37.2,4.4,55.91-.99,28.65,9.41,69.35-22.08,85.04-.29,.21-.64,.33-.86,.61-.08,.14-.26,.28-.41,.28-.29,0-.52-.34-.41-.62h0Z"/><path d="M275.43,423.82c-15.46-5.46-18.69-24.69-20.89-38.99-2.2-17.52,.84-35.11,1.31-52.65,.63-13.33,.73-26.5,1.32-39.81,.47-13.48,.04-27.21,3.65-40.3,4.22-13.78,12.04-18.99,23.49-26.42,11.48-7.78,23.11-15.34,32.03-26,6.76-6.96,13.09-14.89,15.54-24.45,1.43-6.01,10.49-4.84,10.04,1.51-1.79,12.9-10.05,23.45-19.54,31.87-3.73,3.51-8.4,7.64-12.69,9.93-11.45,6.52-23.37,12.43-34.28,19.83-16.69,13.83-12.44,40.31-13.31,59.71-.19,10.64,.11,21.31-.08,31.96-.32,15.8-2.03,31.63-.58,47.42,1.94,12.64,3.82,26.11,11.65,36.57,.87,1.22,2.06,2.55,3.08,3.49,1.22,1.24,3.35,1.62,3.94,3.38,.39,2.46-2.72,3.54-4.7,2.95Z"/><path d="M227.25,422c-.34-.02-.52-.34-.61-.62-.03-.95,1.26-1.15,1.94-1.5,11.22-4.24,23.73-5.25,35.12-1.08,1.09,.38,.5,2.12-.61,1.71-11.34-4.47-24.02-3.45-35.21,.9,.02,.33-.3,.62-.63,.59Z"/><path d="M255.17,414.36c-7.24-1.83-15.15-2.83-22.25-.2-.76-.21-.41-1.22,.2-1.37,6.99-3.27,15.05-1.8,22.44-1.04,1.84,.19,1.42,2.98-.39,2.62Z"/><path d="M279.7,424.54c-9.37-1.53-12.84-11.67-15.38-19.59-.42-1.22,1.51-1.88,1.91-.64,2.4,7.42,5.31,15.77,13.02,19.1,.55,.23,1.08,.48,1.61,.16,.24-.13,.35-.44,.31-.7-.1-.53,.71-.67,.8-.15,.25,1.31-1.13,2.01-2.27,1.82Z"/><path d="M245.41,244.13c-13.6-.91-27.92-4.68-38.4-13.76-.25-.32-.65-.84-.29-1.2,.27-.23,.83-.26,.9,.18,10.04,7.79,22.85,11.3,35.34,12.62,4.67,.6,9.53-.44,14.09,.02,.71,.52,.38,1.81-.54,1.85-3.7,.17-7.41,.4-11.12,.29Z"/><path d="M145.98,111.82c-1.39-.46-2.06-2.06-1.8-3.42,1.35-5.22,7.83-6.53,12.21-8.3,8.84-2.79,18.15-3.49,27.3-4.78,8.74-1.24,17.49-2.47,26.32-3.01,9.12-.81,18.26-1.07,27.42-.99,18.7-.32,37.58-.6,56.04,2.88,2.34,.32,3.22,3.59,1.23,4.97-1.34,1.02-3.49,.26-4.91,.26-15.33-1.36-31.1-1.28-46.32-.62-15.86,0-31.73,.48-47.49,2.34-15.01,2.41-30.83,2.26-45.06,8.07-1.77,.48-3.12,3-4.94,2.61Z"/><path d="M146.4,111.52c-.41-1.44,5.4-.92,6.42-1.15,8.66-.04,17.17-.98,25.79-1.52,22.05,.03,44.09-.86,66.14-.82,11.07,.53,22-1.27,32.97-2.34,7.27-.64,14.54,0,21.81,.27,1.28,.04,2.56,.06,3.85,.1,.35,.01,.64,.31,.63,.67-.01,.35-.31,.64-.67,.62-8.48-.1-17.02-1.02-25.47-.24-10.5,.97-20.94,2.79-31.52,2.35-22.46-.13-44.93,.73-67.39,.41-10.77,.64-22.01,1.25-32.55,1.64Z"/><path d="M156.23,143.12c-6.74,.85-10.01-7.76-3.57-10.78,1.25-.49,2.61-.46,3.81,0,9.13,.82,18.28,.25,27.41,.48,16.18,.98,32.38,.97,48.57,1.33,28.89,1.42,57.77,2.9,86.68,3.65,1.83,.31,9.68-.57,7.38,1.71-3.05,.78-6.36,.73-9.52,1.05-29.39,2.2-58.84,.84-88.26,.63-24.18,.4-48.34,1.28-72.5,1.95Z"/><path d="M230.33,241.59c-3.07-1.82-4.19-6.3-1.65-9.02-11.35-3.52-21.06-10.35-30.26-17.67-6.8-4.48-39.23-26.42-26.03-34.7-2.46-5.44-3.4-11.36-6.86-16.32-5.13-2.56-8.82-9.65-4.6-14.56,3.58-4.54,9.77-2.27,14.54-3.6-.83-9.19,11.01-6.51,16.84-7,10.58,.22,21.15,1.05,31.74,1.04,9.74,0,19.49-.38,29.23,.02,10.5-1.05,21.04-1.29,31.59-1.34,5.96,0,11.94,.04,17.91,.13,3.17,.18,6.62-.52,9.41,1.34,.43-.03,.86-.04,1.3-.04,.54,0,1.09,.05,1.64,.11,4.55-4.91,11.94-2.62,15.82,1.96,4.96,5.48,6.37,13.06,8.12,20.01,4.13,15.19,1.13,29.27-10.83,39.95-15.44,13.77-34.67,22.58-54.47,28.09-2.1,6.61-16.87,8.14-23.01,9.89-4.56,.95-9.14,1.75-13.76,2.37-2.22,.23-4.69,.59-6.68-.66Zm16.02-20.5c-.03,1.16-.43,2.29-1.1,3.21,.55-.09,1.11-.18,1.66-.27,.09-.83,.35-1.65,.77-2.41,.45-.83,1.06-1.54,1.76-2.15-1.05,.22-2.12,.38-3.18,.53,.06,.36,.09,.73,.08,1.09Zm11.34-7.45c-.17,.76-.5,1.44-.93,2.03,.17-.07,.34-.14,.51-.21,.52-1.69,1.77-2.84,3.2-3.8l-.24,.16c.27-.17,.54-.35,.81-.52-1.04,.27-2.09,.5-3.15,.7,0,.54-.07,1.09-.2,1.64Zm12.71-8.14l-.03,.07c2.19-1.27,4.39-2.53,6.6-3.78l.09-.05c-2.06,.43-4.13,.81-6.2,1.14,.05,.89-.09,1.78-.45,2.62Zm-59.81-10.95c2.43,1.43,4.93,2.79,7.4,4.15,1.13,.62,2.26,1.24,3.39,1.86,.07-.41,.19-.82,.34-1.21-4.53-3.01-9.51-5.1-14.62-6.94,1.15,.73,2.31,1.45,3.48,2.14Zm106.94-.05c-1.25,1.49-2.61,2.87-3.94,4.29-.45,.47-.91,.93-1.38,1.39,6.34-4.32,12.67-9.43,15.93-16.55-2.85,4.3-7.28,7.06-10.61,10.88Zm-125.91-15.11c.71-.18,1.42-.32,2.13-.42-.38-.32-.75-.63-1.13-.95-1.73-.89-3.41-1.87-5.02-2.94,1.32,1.46,2.65,2.9,4.01,4.31Zm14.03-8.44l-.7-.39c-.32-.03-.64-.07-.96-.1,.55,.18,1.1,.34,1.66,.49Zm83.03-7.16l.14-.2c-.28,0-.56,.01-.84,.02,.24,.05,.47,.11,.7,.18Z"/><path d="M319.13,143.8c-18.46-1.66-36.75,.16-55.17-.35-13.28-.83-26.57-.28-39.85-1.19-12.27,.54-24.8-.35-37.01,.31-1.67-.08-6.94,1.77-5.68-1.09,2.75-2.04,6.46-2.64,9.7-3.67,9.86-1.92,19.96-2.64,29.9-4.21,9.81-.76,19.65-.57,29.48-1.22,11.27,.06,22.52,.37,33.77-.38,11.92-.22,23.94-.65,35.82,.44,7.39,.83,6.57,11.81-.96,11.36Z"/><path d="M180.21,154.51c-1.05-.54-1.9-1.4-2.44-2.44-7.14-1.9-14.95-1.53-21.72-4.58-5.09-2.65-2.82-10.06,2.63-10.3,3.76,.03,7.51,.7,11.26,.9,4.99-.79,18.4-2.71,17.52,5.36,7.43,5.04-.25,13.97-7.25,11.06Z"/></svg>