<?xml version="1.0" encoding="UTF-8"?><svg id="Ebene_1" xmlns="http://www.w3.org/2000/svg" viewBox="0 0 500 500"><path d="M254.62,313.09c-2.91-2.01-2.79-6.4-.07-8.49,2.01-3.76,3.18-7.91,4.51-11.94,5.28-18.71,11.17-36.32,17.15-54.55,3.51-11.36,6.23-22.98,10.07-34.24,4.27-11.08,8.55-22.19,13.5-32.99,1.86-3.07,9.91-28.29,12.94-25.2,.29,.44,.2,1.02,.14,1.52-.56,2.76-1.54,5.42-2.23,8.16-4.17,17.74-11.96,34.7-17.34,51.99-3.69,12.55-6.37,25.41-10.22,37.91-2.48,8.16-5.22,16.11-7.66,24.27-2.9,9.6-5.8,19.06-8.72,28.39-1.16,3.78-2.32,7.47-3.66,11.17-.49,3.9-5.07,6.52-8.41,4.01Z"/><path d="M261.31,293.72s0-.05,0-.07c-10.93-4.45-20.71-11.51-29.59-19.22-6.19-5.31-12.49-10.82-16.65-17.94-2.89-5.16-5.76-9.91-7.78-15.42-8.8-22.67-7.73-48.71,2.01-70.91,3.33-9.91,7.87-19.49,15.19-27.08,2.63-3.31,5.39-6.59,7.32-10.38,1.52-3.64,2.49-7.63,5.18-10.64,5.64-7.02,15.44-5.65,23.26-7.68,2.99-1.31,5.3-3.74,8.15-5.31,15.34-8.65,30.72-11.54,48.07-8.16,2.4,.43,4.73,1.07,7.11,1.58,1.2,.28,1.97,1.53,1.68,2.73-.28,1.17-1.54,2.02-2.73,1.69-2.46-.69-4.97-1.27-7.2-1.65-4.24-.68-9-1.15-13.14-1.29-10.69-.33-20.99,3.75-30.34,8.39-3.46,1.84-6.45,4.51-10.17,5.83-7.54,2.14-17.83,.46-22.48,8.14-2.26,4.06-3.41,8.68-6.39,12.35-3.1,4.38-6.68,8.41-10.12,12.5-4.19,5.48-7.75,11.78-9.78,18.34-10.42,29.61-7.4,63.84,9.05,90.64,3.53,4.7,7.73,8.57,12.19,12.33,6.11,5.33,12.33,10.57,19.24,14.85,2.6,1.83,5.15,3.43,7.69,5.16,.47,.3,1.1,.57,1.05,1.21,.01,.27-.2,.41-.41,.41-.2,0-.4-.13-.41-.38Z"/><path d="M302.35,167.39c-.65-3.77,1.74-7.59,2.7-11.2,4.34-13.18,9.16-26.18,14.31-39.07,2.09-5.76,4.27-11.46,6.44-17.2,.92-2.5,1.88-4.97,2.68-7.52,.29-.93,1.54-1.28,2.32-.75,.31-1.12,1.16-4.77,2.6-2.88-.19,4.23-1.33,8.54-2.48,12.64-2.95,10.26-6.96,20.07-10.92,29.96-3.43,7.85-6.17,15.97-9.01,24.05-1.25,2.45-4.96,17.1-8.64,11.96Z"/><path d="M253.24,314.23c-7.36-3.57-14.42-8.03-20.26-13.81-5.76-5.54-10.47-12.03-15.42-18.28-4.72-6.6-8.05-14.1-12.87-20.65-8.11-11.47-11.27-25.31-13.1-39.01-3.17-15.98-2.59-32.65,.84-48.55,2.93-16.2,10.01-31.5,21.15-43.69,17.24-21.3,42.61-33.98,68.78-40.65,11.35-2.55,37.93-6.02,46.35,2.87h0c.52-.02,.56,.8,.03,.82-.46,0-.92-.08-1.36-.22-10.08-2.87-20.74-1.8-30.97-.45-11.72,1.28-22.69,5.77-33.39,10.48-13.86,5.64-26.51,13.81-37.36,23.86-8.4,8.44-16.49,17.56-21.53,28.46-7.65,17.82-10.02,37.41-8.67,56.64,2.36,15.77,4.13,32.5,13.9,45.66,4.53,5.95,8.08,12.53,12.25,18.72,7.62,9.34,15.89,18.44,26.28,24.75,3.04,2.02,6.53,3.2,9.63,5.07,4.22,3.05,.73,9.81-4.27,7.97Z"/><path d="M249.93,96.45c-9.56-1.08-29.18,1.26-36.03-5.68-2.78-4.21,2.96-9.92,4.94-13.6,4.18-5.97,9.75-10.76,14.49-16.25,5.06-5.49,10.02-12.05,17.48-14.23,11.77-1.85,23.85,5.65,33.88,11.01,9.44,4.98,18.58,12.55,20.03,23.76-.06,1.57,1.24,6.24-.97,6.33-.64,0-1.29-.56-1.25-1.24,.99-7.27-2.36-14.6-7.66-19.38-9.3-7.52-20.13-13.1-31.37-17.05-11.53-4.34-17.29-.44-24.85,8.19-6.88,8.63-16.27,16.13-19.27,27.15,7.14,.69,29.06,3.85,33.23,9.14,.76,1.8-1.36,2.05-2.64,1.83Z"/><path d="M252.19,98.17c-3.95-.6-7.77-1.79-11.6-2.89-2.97-.81-1.8-5.36,1.19-4.58,2,.62,3.97,1.32,5.95,1.99,2.85,.85,5.73,1.68,8.68,2.06,1.39,.25,2.41-.55,3.18-1.58,1.68-1.46,1.99-3.89,2.21-5.97,.36-2.44-.85-4.78-3.09-5.73-5.23-2.35-10.99-1.96-16.55-1.82-1.07-.04-2.48,.06-3.14-.97-.51-.91,.12-1.99,.59-2.77,1.35-2.18,2.87-4.27,4.35-6.35,2.78-4.29,6.44-8.2,8.41-12.9,.14-.51,.92-.3,.8,.19-3.28,7.33-9.36,13.23-13.27,20.21-.19,.42-.42,.96-.07,1.34,.03,.03,.07,.06,.06,.06,2.12,.77,4.51,.18,6.74,.24,4.96,.02,10.78,.14,14.65,3.64,2.84,3.56,.63,8.56,.1,12.57-1,4.08-5.88,3.97-9.19,3.25Z"/><path d="M209.03,128.95c-11.67-2.57-23.17-7.78-32.15-15.74-6.79-6.15,2.19-10.8,7.26-13.52,9.79-5.82,20.85-9.47,30.43-15.5-.25-.31,.12-.85,.53-.61,3.24,2.74-22.19,14.42-25.05,16.41-2.44,1.71-14.41,6.32-12.7,9.58,2.87,4.05,7.51,6.57,11.76,8.98,5.3,2.94,10.54,5.58,16.37,6.96,3.18,.98,6.15,1.82,8.94-.56,5.63-4.05,11.13-8.29,16.75-12.34,7.6-5.78,16.29-9.86,24.24-15.05,.63-.49,1.57-.35,2.05,.28,2.03,2.43-7.64,6.25-9.28,7.66-8.99,5.13-17.24,11.37-25.66,17.36-4.12,2.52-8.21,7.24-13.48,6.08Z"/><path d="M188.88,111.39c-2.18-1.68,2.61-4.84,3.9-5.76,4.75-4.18,27.26-8.33,25.77-14.12-.4-.02-.44,.82-.96,.5-.45-.29-.01-.81,.19-1.11,1.34-1.37,2.28,.23,2.22,1.62-.63,7.56-21.94,10.54-27.67,16.3-1.26,.7-1.75,3.34-3.44,2.57Z"/><path d="M213.32,132.22c-7.32-1.13-14.8-1.12-22.01-2.99-9.43-2.56-18.89-6.59-25.77-13.72-4.73-5.34-10.34-13.01-6.54-20.18,3.86-6.52,10.08-11.11,16.08-15.53,12.47-8.79,26.88-14.58,41.87-17.23,5.44-.62,11.37-2.34,16.7-.72,.38-.12,.74,.43,.36,.72-.33,.26-.81-.01-1.1-.12-18.34,1.14-36.45,7.89-52.02,17.63-5.91,4.3-19.06,12.73-19.61,20.3,2.17,11.65,14.59,18.2,24.86,21.33,8.28,2.78,17.11,2.74,25.63,4.27,1.47,.35,3.33,.04,4.3,1.47,1.61,1.98-.24,5.19-2.76,4.78Z"/><path d="M319.37,124.46c-.01-2.15,1.95-4.14,2.94-5.71,1.52-2.34,2.98-4.75,3.92-7.39,5.68-21.21-9.14-24.75-24.12-33.8-3.45-1.28-7.44-2.96-5.85-7.45,.95-2.32,3.72-3.52,6.06-2.54,5.09,2.1,9.76,5.02,14.53,7.73,7.64,4.51,16.63,9.32,18.82,18.65,3.39,13.94-4.21,23.8-15.37,31.06-.4,.28-.97-.01-.93-.54Z"/><path d="M171.09,114.56c-9.52-8.43-.7-22.87,7.34-29.15,4.58-3.79,10.42-5.32,16.06-6.82,7.84-3,15.75-6.94,24.38-6.28,1.6,.1,3.21,.2,4.79,.44,1.62,.21,2.2,2.49,.83,3.41-.42,.31-.9,.4-1.41,.35-2.32-.34-4.65-.5-6.76-.42-5.18,.25-10.18,1.82-15,3.64-6.33,2.78-13.54,3.31-19.43,7.02-5.82,4.01-11.1,9.68-12.6,16.73-.68,3.51-.53,7.63,2.08,10.32,.38,.19,.19,.85-.26,.76Z"/><path d="M169.02,420.54c-1.21-2.24-2.31-4.53-3.35-6.84-.83-1.98-1.6-3.96-2.3-5.98-.22-.64-.44-1.28-.66-1.93-.03-1.23-.07-2.46-.09-3.69-.18-25.37-2.26-50.91-3.63-76.09h0c-.55-17.17-1.25-34.24-1.87-51.35,.28-21.04,.6-42.08,.12-63.12,.85-21.7-2.25-43.24-2.24-64.93,0-12.17,1.1-24.3,.99-36.47,.1-4.06,.22-8.14,.72-12.18,.21-1.11,.22-2.38,1.02-3.23,2.96-2.07,2.58,7.57,2.96,9.08,1.74,16.31,1.79,32.68,2.44,49.05,.43,13.89,2.43,27.65,3.11,41.52,.06,19.26,.88,38.12,1.33,57.24-.16,16.72,.64,33.42,1.7,50.08,.98,27.24,1.52,54.49,1.67,81.74,.17,9.9,.04,19.79,.31,29.69-.27,2.95,.69,7.65-.49,10.55-.59-1.04-1.17-2.09-1.74-3.14Z"/><path d="M165.54,413.41s.04,.08,.05,.12c-.02-.04-.03-.08-.05-.12Z"/><path d="M158.98,325.83v.19c0-.07,0-.1,0-.19Z"/><path d="M158.98,325.8v0Z"/><path d="M327.38,407.7c-2.87-.06-5.49-2.57-5.32-5.52,.36-6.43,.6-12.89,.53-19.33-1.52-31.83,.2-63.62,2.43-95.38,2.99-33.94,4.02-68.04,7.32-101.96,2.41-28.85,2.76-57.92,5.31-86.71v.02c2.49-3.31,2.07,17.49,2.43,18.82,.22,19.4,.5,38.8,.05,58.19-1.82,42.02-3.6,84.06-5.88,126.06-1.19,22.31-2.32,44.67-1.75,67.02,.2,11.15,.39,22.3,.4,33.46-.02,2.96-2.61,5.39-5.52,5.33Z"/><path d="M238.15,453.42c-11.99-.24-23.68-3.25-34.99-7.07-12.62-3.58-23.47-9.9-30.84-19.92-1.13-1.95-2.23-3.91-3.31-5.89-1.21-2.24-2.31-4.53-3.35-6.84-.04-.09-.08-.18-.11-.27-1.28-3.51-2.51-7.06-2.74-10.8-.38-4.96,6.1-7.95,9.62-4.44,1.73,1.5,1.71,3.76,2.12,5.83,.59,2.22,1.33,4.42,2.14,6.57,3.02,7.37,7.88,14.22,14.8,18.33,22.38,11.71,49.24,16.61,74.02,10.63,8.07-2.04,16.16-4.18,23.61-7.94,8.91-3.93,17.84-8.69,24.26-16.19,4.19-5.26,7.59-11.17,9.45-17.66,.33-1.09,.38-2.24,.76-3.33,1.69-4.09,6.38-2.32,7.55,1.25,2.36,8.43-2.7,17.19-7.18,24.08-14.7,21.2-53.73,33.82-80.54,33.82-1.82,0-3.58-.06-5.28-.18Z"/><path d="M165.59,413.52v0h0Z"/><path d="M287.83,257.28c-1.88-.75,1.8-5.22,2.52-6.23,8.31-10.79,17.57-21.55,29.81-27.96,1.37-.72,2.5,1.45,1.09,2.14-13.52,7.73-23.51,20.69-33.42,32.05Z"/><path d="M299.23,258.45c-.72-.4,.24-1.32,.32-1.86,2.5-4.3,5.95-8.03,9.23-11.76,2.42-2.46,13.24-11.73,16.35-10.15,1.62,1.6-.59,3.89-1.36,5.43-2.59,4.08-5.34,8.07-7.76,12.25-.5,1.23-1.86,2.56-1.68,3.85,.27,.41,.17,.97-.24,1.25-6.41,1.16,8.51-18.08,9.15-20.45-7.14,3.72-13.35,8.76-18.49,14.9-1.73,2.07-3.85,3.87-4.99,6.29-.08,.21-.31,.33-.52,.26Z"/><path d="M318.78,127.1c-.63-.71,.83-1.39,1.31-1.74,1.83-1.11,3.69-2.3,5.31-3.66-2.21-1.55,3.06-3.37,3.95-4.56,1.66-1.33,3.33-2.65,4.72-4.26,.3-.28,.65-.55,1.08-.45,1.31,.41,.39,1.74-.32,2.29-2.78,2.92-5.42,5.9-8.64,8.31-2.03,1.88-4.99,2.31-6.84,3.96-.14,.18-.38,.24-.57,.12Z"/><path d="M252.44,138.06c-23.63-.56-47.19-5.8-68.97-14.9-8.55-4.12-15.67-11.1-24.16-15.1-.11,0-.19,.02-.28,.07-.47,.23-.83-.51-.35-.74,1.04-.41,2.19,.21,3.09,.72,7.42,3.87,14.18,8.85,21.86,12.16,27.83,9.51,57.45,15.4,86.82,11.82,7.37-1.01,15.24-2.06,22.43-3.55,6.22-1.38,11.96-4.03,17.87-6.31,4.14-1.44,7.99-2.65,11.78-4.67,3.32-1.58,6.6-3.29,9.26-5.87,3.97-3.35,9.16,2.48,5.26,6.02-6.68,5.87-15.55,8.04-23.73,11.02-19.33,7.48-40.3,9.17-60.87,9.33Z"/><path d="M240.79,141.45c-11.99-.76-23.47-4.63-34.9-8.02-9.59-2.78-19.52-5.31-28.15-10.46-9.09-5.79-16.82-14.55-19.82-25.02-.23-.95,1.12-1.58,1.7-.77,2.18,2.98,4.13,5.97,6.64,8.61,13.25,11.28,31.22,13.53,47.41,18.2,7.36,2.23,14.83,4.21,22.42,5.48,8.22,1.26,16.52,.62,24.79,.49,21.3-.4,44.16-2.68,63.4-12.16,2.33-1.15,4.28-2.86,5.53-5.16,2.41-3.58,8,.08,5.54,3.73-2.08,2.97-5.13,4.97-8.35,6.53-13.89,7.16-29.17,11.21-44.35,14.58-13.79,2.47-27.79,5.1-41.86,3.97Z"/><path d="M278.11,204.91c-12.02-4.74-22.53-12.52-34.05-18.25-9.19-4.59-19.79-7.06-27.55-14.07-.34-.45,.4-.96,.68-.45,9.95,8.36,23.36,10.69,34.28,17.53,8.81,5.1,17.44,10.72,26.97,14.43,.51,.2,.21,1.03-.33,.81Z"/><path d="M278.02,196.71c-12.98-8.87-25.19-18.91-38.48-27.32-2.5-1.81-18.28-9.6-17.09-12.06,.28-.23,.72,.03,.65,.38,5.12,4.99,12.03,7.8,18,11.66,7.28,4.54,14.05,9.85,20.96,14.92,3.83,2.97,7.84,5.73,11.89,8.39,.77,.56,7.04,4.29,4.07,4.04Z"/><path d="M282.67,195.47c-16.91-18.6-33.49-37.55-48.16-58.02-.48-.6,.48-1.4,.97-.75,10.3,14.3,21.27,28.21,32.67,41.6,4.99,5.61,10.54,10.74,15.17,16.66,.31,.4-.31,.93-.65,.51Z"/><path d="M285.24,210.09c-4.48-2.2-6.61-7.43-6.45-12.24,.29-6.31,6.43-10.08,12-11.45,.83-.23,1.19,1.07,.35,1.3-.31,.09-.63,.19-.86,.26-4.3,1.32-8.69,4.17-9.72,8.81-.76,4.57,.99,9.76,4.79,12.5h0c.78,0,.64,1.17-.1,.81Z"/><path d="M285.41,186.64c-2.04-1.29-3.18-3.62-4.6-5.53-2.85-4.39-5.64-8.82-8.16-13.41-7.21-12.47-13.52-25.43-19.67-38.43-.3-.71,.82-1.23,1.14-.47,6.52,13.77,13.13,27.45,20.72,40.65,3.38,5.48,6.25,11.6,10.63,16.3,.1,.05,.21,.13,.3,.17,.45,.24,.08,.97-.39,.72h.02Z"/><path d="M289.9,182.78c-5.24-9.44-8.11-20.12-11.59-30.29-3.73-11.32-8.94-22.05-13.63-32.98-.13-.31,.03-.69,.34-.82,1.2-.23,1.31,2.02,1.86,2.77,2.29,5.53,4.96,10.89,7.18,16.45,5.71,13.86,8.99,28.59,15.25,42.23,.39,.74,.72,1.5,1.24,2.14,.32,.41-.32,.93-.65,.51Z"/><path d="M293.93,182.67c-4.28-9.6-5.57-20.39-8.01-30.57-3.13-12.07-7.76-23.79-9.69-36.15-.1-.77,1.13-.99,1.24-.17,.68,4.2,1.75,8.24,2.84,12.33,2.49,8.2,5.08,16.37,7.06,24.7,1.51,7.74,2.95,15.49,5.07,23.11,.67,2.08,.93,4.4,2.14,6.24,.32,.4-.32,.94-.65,.5Z"/><path d="M290.78,171.68c-.22,0-.42-.2-.4-.42,.52-5.37,.98-10.66,1.85-15.97,1.51-7.89,1.82-15.94,3.23-23.83,1.11-6.94,4.93-13.52,4.42-20.65-.15-.91-.4-1.88-1.15-2.43-.63-.36-1.67-.44-2.22,.01-.34,.42-.97-.14-.63-.53,.54-.6,1.4-.63,2.14-.56,6.12,1.6,.5,14.86-.35,19.06-2.83,10.56-3.12,21.56-5.14,32.29-.55,4.2-.94,8.42-1.34,12.62-.02,.22-.19,.4-.42,.4Z"/><path d="M239.82,267.84c-.24-.15-.33-.5-.16-.74,2.06-2.98,3.97-6.07,6.18-8.94,6.08-8.1,12.61-15.93,17.98-24.51,5.45-8.75,9.94-18.06,14.56-27.25,.71-.55,.95,.59,.4,.96-6.36,13.56-12.88,27.26-22.4,38.93-4.32,5.86-9.03,11.46-13.15,17.45-.9,1.31-1.77,2.64-2.68,3.95-.17,.24-.49,.32-.74,.16Z"/><path d="M228.12,253.94c-.31-.27-.18-.71,.11-.91,9.13-10.75,19.74-19.92,30.61-28.85,5.84-5.07,11.56-10.35,16.5-16.32,.44-.37,.71-1.22,1.34-1.18,.63,.14,.06,1.46-.42,1.37-9.95,12.06-22.71,21.28-34.19,31.77-4.73,4.39-8.86,9.34-13.23,14.07-.19,.21-.51,.26-.74,.06Z"/><path d="M217.87,231.33c-.29-3.94,14.16-7.61,17.57-9.38,12.09-4.96,23.87-10.33,36.23-14.65-14.98,.56-29.74-2.91-44.71-3.19-4.15-.14-8.3-.28-12.43-.67-.94-.03-.93-1.53,.05-1.48,14.85,.84,29.81,1.37,44.52,3.62,4.78,.55,9.59,.48,14.4,.38,.37,0,.85,.08,1,.49,.12,.31,0,.63-.26,.82-1.13,.71-2.5,.96-3.72,1.49-10.62,3.89-21.02,8.24-31.38,12.73-5.17,2.05-10.46,3.86-15.58,5.99-1.74,1-4.09,1.72-4.99,3.6,0,.34-.49,.53-.71,.25Z"/><path d="M189.66,150.39c-1.36-.2-2.68-.78-3.82-1.47-6.15-3.14-12.35-6.49-16.73-12-1.11-1.21-2.29-2.38-3.53-3.45-1.05-.7-3.09-2.47-1.06-3.33,2.47-.33,4.46,1.92,6.29,3.27,5.59,5.11,12.46,9.4,19.8,11.29,3.72,.65,2.77,6.27-.95,5.68Z"/><path d="M157.1,92.65c0-1.25,1.05-2.3,2.31-2.3s2.3,1.06,2.3,2.31c0,1.25-1.05,2.3-2.31,2.3s-2.3-1.06-2.3-2.31Z"/><path d="M165.72,81.24c0-1.23,1.03-2.25,2.26-2.25s2.25,1.03,2.25,2.26c0,1.23-1.03,2.25-2.26,2.25s-2.25-1.03-2.25-2.26Z"/><path d="M175.81,74.45c0-1.46,1.22-2.68,2.69-2.68s2.68,1.23,2.68,2.69-1.22,2.68-2.69,2.68-2.68-1.23-2.68-2.69Z"/><path d="M192,62.62c0-1.12,.94-2.05,2.06-2.05s2.05,.94,2.05,2.06c0,1.12-.93,2.05-2.06,2.05s-2.05-.94-2.05-2.06Z"/><path d="M204.44,61.75c0-1.28,1.07-2.34,2.36-2.34s2.35,1.08,2.34,2.36c0,1.28-1.07,2.34-2.36,2.34s-2.35-1.08-2.34-2.36Z"/><path d="M212.72,72.29c0-.94,.79-1.72,1.73-1.72s1.72,.79,1.72,1.73c0,.94-.79,1.72-1.73,1.72s-1.72-.79-1.72-1.73Z"/><path d="M219.35,56.46c0-1.19,1-2.18,2.19-2.18s2.18,1,2.18,2.19c0,1.19-1,2.18-2.19,2.18s-2.18-1-2.18-2.19Z"/><path d="M219.1,68.87c0-1.32,1.1-2.41,2.43-2.41s2.42,1.11,2.41,2.43c0,1.32-1.1,2.41-2.43,2.41s-2.42-1.11-2.41-2.43Z"/><path d="M166.8,126.62c0-1.04,.88-1.91,1.93-1.91s1.91,.88,1.91,1.93-.88,1.91-1.93,1.91-1.91-.88-1.91-1.93Z"/><path d="M162.76,117.47c0-1.26,1.06-2.31,2.32-2.31s2.32,1.06,2.31,2.32-1.06,2.31-2.32,2.31-2.32-1.06-2.31-2.32Z"/><path d="M178.32,134.28c0-.86,.72-1.57,1.57-1.57s1.57,.72,1.57,1.57c0,.86-.72,1.57-1.57,1.57s-1.57-.72-1.57-1.57Z"/><path d="M189.64,133.6c0-1.6,1.34-2.93,2.94-2.93s2.93,1.34,2.93,2.94c0,1.6-1.34,2.93-2.94,2.93s-2.93-1.34-2.93-2.94Z"/><path d="M192.15,142.49c0-1.25,1.05-2.29,2.3-2.29s2.29,1.05,2.29,2.3c0,1.25-1.05,2.29-2.3,2.29s-2.29-1.05-2.29-2.3Z"/><path d="M205.65,114.08c0-.72,.6-1.31,1.31-1.31s1.31,.6,1.31,1.31c0,.72-.6,1.31-1.31,1.31s-1.31-.6-1.31-1.31Z"/><path d="M211.69,119.24c0-1.44,1.21-2.64,2.65-2.64s2.64,1.21,2.64,2.65c0,1.44-1.21,2.64-2.65,2.64s-2.64-1.21-2.64-2.65Z"/><path d="M193.71,111.77c0-1.43,1.2-2.63,2.64-2.63s2.63,1.21,2.63,2.64c0,1.43-1.2,2.63-2.64,2.63s-2.63-1.21-2.63-2.64Z"/><path d="M215.33,150.56c0-1.44,1.21-2.64,2.65-2.64s2.64,1.21,2.64,2.65c0,1.44-1.21,2.64-2.65,2.64s-2.64-1.21-2.64-2.65Z"/><path d="M233.35,151.1c0-1.52,1.28-2.79,2.8-2.79s2.79,1.28,2.79,2.8c0,1.52-1.28,2.79-2.8,2.79s-2.79-1.28-2.79-2.8Z"/><path d="M228.92,144.11c0-1.19,1-2.18,2.19-2.18s2.18,1,2.18,2.19c0,1.19-1,2.18-2.19,2.18s-2.18-1-2.18-2.19Z"/><path d="M214.1,142.55c0-1.27,1.07-2.33,2.34-2.33s2.34,1.07,2.33,2.34c0,1.27-1.07,2.33-2.34,2.33s-2.34-1.07-2.33-2.34Z"/><path d="M253.26,126.79c0-1.43,1.2-2.62,2.64-2.62s2.63,1.2,2.62,2.64c0,1.43-1.2,2.62-2.64,2.62s-2.63-1.2-2.62-2.64Z"/><path d="M272.92,120.55c0-1.95,1.64-3.57,3.59-3.57s3.58,1.64,3.57,3.59c0,1.95-1.64,3.57-3.59,3.57s-3.58-1.64-3.57-3.59Z"/><path d="M261.08,144.48c0-1.32,1.11-2.41,2.43-2.41s2.42,1.11,2.41,2.43c0,1.32-1.11,2.41-2.43,2.41s-2.42-1.11-2.41-2.43Z"/><path d="M251.41,149.61c0-1.28,1.07-2.34,2.36-2.34s2.35,1.08,2.34,2.36c0,1.28-1.07,2.34-2.36,2.34s-2.35-1.08-2.34-2.36Z"/><path d="M245.5,145.86c0-1.19,1-2.18,2.19-2.18s2.18,1,2.18,2.19c0,1.19-1,2.18-2.19,2.18s-2.18-1-2.18-2.19Z"/><path d="M270.02,151.99c0-1.63,1.36-2.98,2.99-2.98s2.98,1.36,2.98,2.99c0,1.63-1.36,2.98-2.99,2.98s-2.98-1.36-2.98-2.99Z"/><path d="M280.17,144.38c0-1.95,1.63-3.55,3.57-3.55s3.56,1.63,3.55,3.57c0,1.95-1.63,3.55-3.57,3.55s-3.56-1.63-3.55-3.57Z"/><path d="M292.48,119.4c0-1.12,.94-2.05,2.07-2.05s2.05,.95,2.05,2.07c0,1.12-.94,2.05-2.07,2.05s-2.05-.95-2.05-2.07Z"/><path d="M296.43,143.73c0-2,1.68-3.66,3.67-3.66s3.67,1.68,3.66,3.67c0,2-1.68,3.66-3.67,3.66s-3.67-1.68-3.66-3.67Z"/><path d="M286.17,123.64c0-.92,.77-1.68,1.68-1.68s1.68,.77,1.68,1.68c0,.92-.77,1.68-1.68,1.68s-1.68-.77-1.68-1.68Z"/><path d="M308.28,118.99c0-1.26,1.06-2.3,2.32-2.3s2.31,1.06,2.3,2.32c0,1.26-1.06,2.3-2.32,2.3s-2.31-1.06-2.3-2.32Z"/><path d="M289.71,149.43c0-.72,.6-1.31,1.31-1.31s1.31,.6,1.31,1.31c0,.72-.6,1.31-1.31,1.31s-1.31-.6-1.31-1.31Z"/><path d="M308.31,134.74c0-1.13,.95-2.06,2.07-2.06s2.07,.95,2.06,2.07c0,1.13-.95,2.06-2.07,2.06s-2.07-.95-2.06-2.07Z"/><path d="M328.7,126.72c0-.93,.78-1.7,1.72-1.7s1.7,.78,1.7,1.72c0,.93-.78,1.7-1.72,1.7s-1.7-.78-1.7-1.72Z"/><path d="M331.81,136.55c0-.94,.79-1.73,1.74-1.73s1.73,.79,1.73,1.74c0,.94-.79,1.73-1.74,1.73s-1.73-.79-1.73-1.74Z"/><path d="M321.96,133.92c0-1.54,1.29-2.82,2.83-2.82s2.82,1.29,2.82,2.83c0,1.54-1.29,2.82-2.83,2.82s-2.82-1.29-2.82-2.83Z"/><path d="M337.62,109.87c.51-4.87-.34-9.93-2.75-14.17-.63,.18-1.24-.47-1.05-1.09,.63-1.61,2.17-.57,2.48,.67,1.02,2.19,2.32,4.28,2.57,6.76,.39,2.62,.29,5.3,.04,7.92-.06,.31-.32,.56-.65,.56-.35,0-.67-.3-.65-.65Z"/><path d="M341.34,86.32c0-1,.83-1.82,1.84-1.82s1.83,.84,1.82,1.84c0,1-.83,1.82-1.84,1.82s-1.83-.84-1.82-1.84Z"/><path d="M327.52,77.56c0-1.08,.91-1.98,1.99-1.98s1.98,.91,1.98,1.99c0,1.08-.91,1.98-1.99,1.98s-1.98-.91-1.98-1.99Z"/><path d="M317.08,66.83c0-.72,.61-1.33,1.33-1.33s1.33,.61,1.33,1.33-.61,1.33-1.33,1.33-1.33-.61-1.33-1.33Z"/><path d="M246.44,433.39c-14.08,.23-28.41-1.63-41.63-6.54-7.81-2.22-15.11-5.66-21.06-11.29-5.97-5.22-13.32-10.52-15.88-18.28,.07-.5,.82-.42,.81,.05,.26,.78,.76,1.59,1.17,2.26,3.58,5.21,8.56,9.19,13.57,12.94,6.38,5.53,13.76,9.37,22.03,11.06,11.34,3.57,23.39,4.89,35.25,4.46,13.74,.42,27.47-2.29,40.15-7.56,9.3-3.66,19.06-6.46,27.2-12.44,2.7-1.85,4.99-4.2,7.44-6.36,1.02-.92,2.57-.97,3.55,.04,.98,1,.91,2.56-.03,3.55-1.86,1.94-3.65,3.96-5.65,5.76-7.99,7.25-18.09,10.94-28.02,14.62-12.26,5.33-25.61,7.88-38.9,7.74Z"/><path d="M248.61,431.3c-25.75,.2-63.74-16.87-78.68-38.17-5.93-8.06-6.19-18.19-5.99-27.79,.04-13.19,1.08-26.4,2.33-39.53-8.75-3.22-6.15-14.31-6.87-21.66-.51-12.82-1.03-25.65-1.71-38.46-1.09-17.4-2.17-34.83-1.19-52.26,.22-5.88,.45-11.79,1.13-17.64,.33-2.89,.8-5.98,3.02-8.03,1.75-1.61,4.19-1.78,6.13-.39,2.27,1.59,2.2,4.24,2.7,6.73,.09-.98,.24-1.95,.49-2.9,1.01-3.89,6.52-4.12,8.07-.53,3.15,9.76,4.61,20.13,7.84,29.91,5.82,14.18,12.28,27.77,19.09,40.99,4.34,9.21,8.67,18.42,14.4,26.87,6.63,8.11,14.7,15.05,21.5,23.08,6.53,6,12.91,12.17,18.56,19.01,3.39,4.75,10,9.29,9.52,15.64-.42,2.52-2.36,4.63-4.96,4.96-2.3,.29-4.14-.66-5.97-1.94-3.2-2.24-6.09-4.88-9.03-7.45,4.95,7.87,9.86,15.75,14.99,23.49,1.95,2.68,3.89,5.34,6.01,7.89,2.52,2.45,3.99,5.84,2.99,9.35-1.29,5.09-7.35,7.91-12.12,5.81-3.34-1.53-5.68-4.55-8.22-7.09-5.52-4.96-10.91-10.03-16.15-15.29,4.5,8.85,9.16,17.63,13.85,26.38,2.41,5.54,7.37,11.19,6.05,17.55,10.11,8.38,5.96,22.49-7.79,21.47Zm-37.25-32.73c-6.5-7.09-12.45-14.66-17.79-22.67,.45,10.22,10.36,16.99,17.79,22.67Z"/><path d="M259.78,335.34c-6.33-6.77-13.01-13.14-19.95-19.3-11.56-11.04-19.74-24.54-32.05-34.57-.99,2.19-3.14,.75-3.98-.77-1.2-1.4-2.04-3.67-.26-4.99,6.5-4.22,27.33,19.93,33.37,24.38,7.28,6.35,16.06,11.14,23.89,16.63,4.16,3.47,10.67,5.22,12.53,10.72,2.27,7.83-7.82,13.75-13.55,7.89Z"/><path d="M306.65,381.32c-13.19-2.51-11.67-14.96-10.49-25.25,.47-10.03,.89-20.06,1.35-30.08-3.8,8.6-11.03,35.81-20.9,36.81-6.82,1.01-11.63-6.22-10.04-12.47h0c-13.6-7.74-5.54-26.21-3.55-38.22,3.64-15.1,8.52-29.85,12.56-44.84,3.89-14.53,7.3-29.18,10.68-43.84,.79-3.53,1.75-7.31,4.91-9.51,4.4-3.48,11.48-1.72,13.53,3.57h.02c.29,.77,.52,1.56,.64,2.38,2.7-1.23,5.97-1.33,8.66,.06,.83-3.98,.99-14.53,7.42-10.31,.89,.84,1.14,1.93,1.21,3.09,.39,3.81,.39,7.65,.44,11.48-.41,8.72,2.14,17.08,3.48,25.61,1.27,11.34,1.86,22.79,2.36,34.19,.98,21.98-1.88,43.88-4.85,65.61-1.07,6.86-1.64,13.81-2.82,20.64-.87,6.92-7.7,12.18-14.62,11.1Z"/><path d="M246.81,427.31c-19.09-3.63-11.7-31.35,6.73-25.02,1.32-16.78,7.02-32.98,12.31-48.81,2.6-6.34,4.31-13.63,9.04-18.75,.87-1.97,1.13-8.39,4.2-7.53,1.07,.26,1.52,1.83,.66,2.6-.28,1.03-.49,2.09-.71,3.14,3.47-.45,6.74,1.74,8.14,4.87,5.69-4.42,14.65-1.66,17.36,4.85,1.61,4.15,1.21,8.68,1.31,13.05,11.78,3.88,9.95,18.86,10.17,28.79,.28,7.32,1.61,20.97-9.28,20.01-5.14,8.9-12.41,16.59-22.84,18.73-12.07,3.13-24.61,5.48-37.11,4.08Z"/><path d="M274.55,389.2c-10.56-.36-21.01-2.18-31.4-4.02-4.85-1.18-10.23-.89-14.56-3.64-5.47-3.14-6-11.24-.97-15.05,3.23-3.06,7.82-3.4,12.04-3.75-16.53-12.49-6.62-32.84,13.28-27.83,9.17,2.18,17.05,7.98,24.54,13.47,2.19,.86,4.29,1.78,5.73,3.75,6.31,9.06-2.66,18.59-12.62,15.52,.94,3.48-.68,7.59-3.9,9.28,4.33,1.08,8.7,2.04,12.97,3.3l-.02,.03c4.16,.89,4.24,7.47,.02,8.42-1.67,.48-3.39,.64-5.12,.53Z"/><path d="M180.82,243.65c-1.43-6.69-1.89-13.55-2.77-20.33-.84-6.47-2.15-12.86-2.63-19.37-.72-9.67-.5-19.37-.79-29.06-4.41-3.31-7.65-7.94-11.06-12.21-1.72-2.36-4.07-5.83-2.29-8.73,.86-1.52,2.81-1.89,4.37-1.25,4.61,2.73,8.91,6.29,14.41,7.05,11.89,1.76,14.1,7.48,13.23,18.75-.91,13.46-1.96,24.84-1.35,37.98,.09,8.85-.08,17.8-1.65,26.53-.42,2.13-1.91,3.84-4.14,4.14-2.29,.31-4.82-1.18-5.33-3.51Z"/><path d="M166.12,224.68c-1.08-1.08-1.45-2.49-1.34-3.98,.3-3.92,.78-7.83,1.12-11.74,.78-13.99,.86-28.36-1.61-42.16-.17-.77-.38-1.52-.56-2.29-.28-1.18,1.1-2.25,2.11-1.41,1.02,.84,1.36,2.29,1.75,3.5,3.23,11.94,3.68,24.4,4.71,36.68,.42,5.83,1.14,11.63,1.85,17.43,.14,1.26-.16,2.52-.94,3.53-1.64,2.22-5.17,2.46-7.08,.45Z"/><path d="M312.22,181.39c-1.5-.98-3.43-.32-5.07-1.03h.01c-1.51-.36-2.35-2.31-1.49-3.63,.85-1.51,2.52-2.22,4.02-2.93,4.58-1.98,8.69-4.81,13.06-7.16,7.54-3.02,12.23,8.01,4.81,11.38-4.44,1.82-9.32,2.32-14.07,2.74-.17,.52-.75,.84-1.27,.63Z"/><path d="M322.92,241.45c-5.67,2.34-9.75-3.12-8.99-8.47,.02-7.89,1.85-15.61,2-23.49-2.68,5.66-5.72,11.14-8.85,16.57-3.34,5.08-5.96,11.27-11.18,14.68-6.38,3.92-15.54-1.81-14.28-9.34,.52-3.94,3.19-6.95,5.04-10.33,4.99-9.35,11.14-18.23,14.81-28.22-.87-1.08-.1-2.63,0-3.86,.2-1.1,.31-2.16,.86-3.14,.45-.79,1.5-1.16,2.34-.78,2.66,.93,2.41,4.39,2.52,6.71,3.48-4.81,7.02-15.27,14.08-14.58,5.62,.67,6.67,6.75,6.59,11.44,3.01,.45,4.62,3.32,4.96,5.99,1.39,7.95,.69,16.11,.47,24.15-.26,6.23-.19,12.47,.17,18.69,.28,5.38-7.24,8.12-10.51,3.96Z"/><path d="M278.3,262.43c-1.47-1.13-2.54-2.73-3.03-4.51-.43-1.55-.36-3.07,.04-4.57h-.03c-.04,.18-.07,.36-.11,.54,4.33-20.24,10.72-39.96,18.44-58.74,2.68-5.62,5.91-13.79,12.34-15.74,1.22-.13,2.08,.66,2.33,1.61l.03-.05c.39,1.24,.38,2.67,.3,3.96v.08c3.22-2.51,4.21-7.13,8.35-8.53,9.52-3.88,16.95,8.83,8.89,15.22-1.8,1.59-4.62,2.2-6.87,2.23-3.89,.4-7.78,1.05-11.71,1.01-2.98,16.88-5.89,33.84-10.2,50.44-2.15,8.56-7.28,24.3-18.78,17.03Z"/><path d="M298.14,205.12c-7.95-2.6,2.24-15.45,4.08-20.1,3.54-7.89,7.38-15.73,10.42-23.8,.07-.83,.87-1.46,1.67-1.46,3.96,.32-.13,9.02-.64,11.32-2,6.12-4.09,12.12-6.2,18.12-1.05,3.06-1.89,5.3-2.72,8.26-.91,3.44-1.77,8.84-6.6,7.66Z"/><path d="M305.14,178.19c-3.86-7.22,2.75-11.38,8.51-14.07-.62-6.98,11.25-6.03,15.63-8.84v.04c6.49-3,13.58,4.08,10.69,10.64-1.29,3.12-4.15,5.06-6.97,6.71-5.85,3.19-11.95,5.88-17.92,8.83-3.54,1.66-8.01,0-9.95-3.31Z"/><path d="M296.56,61.4c.02-1.46,1.24-2.61,2.68-2.61s2.63,1.25,2.61,2.68c-.02,1.46-1.24,2.61-2.68,2.61s-2.63-1.25-2.61-2.68Z"/></svg>