<?xml version="1.0" encoding="UTF-8"?><svg id="Ebene_1" xmlns="http://www.w3.org/2000/svg" viewBox="0 0 500 500"><path d="M197.35,448.08c-.7-2.72-.18-5.49-.34-8.25-.33-6.48-.56-12.57-.79-19-.75-11.81-2.28-23.54-3.26-35.33-2.22-29.23-3.33-58.39-5.08-87.62-.15-19.89-2.76-39.57-4.46-59.35-.89-30.14-3.14-60.22-3.28-90.35-.06-2.29-.23-4.65-.09-6.92,.22-.79,1.29-.88,1.6-.21,.69,2.62,.64,5.45,1.14,8.13,3.75,34.53,7.13,69.1,8.54,103.82,1.28,20.03,.22,40.27,1.8,60.25,1.1,15.52,1.47,31.09,3.49,46.54,.95,12.02,1.69,24.05,3.14,36.03,1.33,15.72,3.57,31.38,4.28,47.15-.1,2.76,.44,7.06-3.17,7.57-1.57,.18-3.17-.87-3.53-2.45Z"/><path d="M308.41,450.12c-2.13,0-3.99-2.15-3.54-4.27,.26-1.14,.44-2.28,.55-3.45,.32-5.83,.59-11.66,.78-17.5,.52-15.47-.26-30.95-.34-46.42,.32-18.95,1.45-37.86,2.29-56.78,.91-35.08,2.31-70.17,3.56-105.24,1.41-23.16,3.87-46.03,5.57-69.12,.11-1.13,.22-2.25,.41-3.37,.07-.45,.2-1.36,.8-1.43,.22-.02,.35,.11,.4,.27,.3,2.66,.07,5.41,.2,8.1,.38,19.18-.63,38.35-1.55,57.5-.47,22.37-1.09,44.73-1.85,67.09-.71,31.77-3.62,63.46-4.12,95.23-.12,21.27,1.8,42.01,.75,63.2-.19,4.2-.23,8.39-.12,12.6,.04,2.01-1.85,3.64-3.79,3.59Z"/><path d="M234.85,158.4c0-.27,0-.55,0-.54-.17-9.27-3.02-18.51-9.68-25.17-3.6-3.04-8.35-6.65-13.33-5.53-5.33,1.87-7.6,7.91-12.46,10.49-3.52,2.15-6.73-1.27-10.14-1.54-1.74,1.33-3.12,3.36-4.4,4.92-.72,.7-1.93,3.37-3.06,2.36-.7-2.84,1.39-5.72,2.22-8.38,1.66-5.92,7.24-5.78,11.84-3.27,4.8-4.45,9.38-10.43,16.48-10.92,8.51-.1,16.72,5.79,20.42,13.29,3.52,5.96,5.24,12.67,6,19.5,.04,2.31,1.82,6.53-1.53,7.11-1.33,.11-2.39-1.01-2.37-2.32Z"/><path d="M236.34,165c-18.43-.74-50.39,.36-56.11-21.93-.93-3.8,1.81-4.31,3.66-1.24,5.53,9.37,14.19,12.16,24.29,13.54,9.34,.67,18.71,1.15,28.06,1.52,7.57-.02,15.2,.71,22.74-.14,7.36-1.19,15.06-4.25,22.13-5.92,11.22-3.4,23.14-5.85,32.66-12.93-1.53-2.39-5.77-4.15-3.15-7.45,1.11-1.33,3.22-1.43,4.52-.31,6.11,5.33,6.91,9.48-.21,14.28-10.78,7.47-23.73,11.03-36.15,14.84-6.89,1.95-13.72,4.38-20.87,5.14-7.17,.69-14.39,.63-21.58,.62Z"/><path d="M236.46,293.25c-6.99-1.05-13.59-6.69-15.49-13.53-3.29-13.48,4.85-28.99,14.15-38.42,6.91-6.69,16.02-10.42,25.28-12.57,9.36-2.09,18.84-4.63,28.51-4.1,8.1,.93,16.36,4,22.53,9.41,1.23,1.25,3.7,2.77,2.12,4.69-2.49,2.42-5.03-2.57-7.13-3.7-7.15-4.12-15.21-6.68-23.48-6.5-15.65,1.08-32.5,4.94-44.3,15.79-4.85,4.84-8.22,10.84-10.6,17.21-4.1,9.31-3.7,20.2,5.39,26.28,1.69,1.54,4.5,2.11,5.57,4.18,.21,1.43-1.55,1.43-2.54,1.25Z"/><path d="M254.71,278.43c-3.72-.74-3.91-5.4-1.12-7.45,.36-.34,.74-.67,1.11-1.01,.81-1.65,2.94-2.4,4.64-1.84,3.13,.98,3.52,5.32,.9,7.11-1.62,1.41-3.03,3.76-5.52,3.19Z"/><path d="M258.41,262.78v.02c-1.28-.77-2.65-1.71-3.17-3.18-2.56-1.76-1.56-6.1,1.49-6.61,1.22-.27,2.39,.22,3.43,.81,1.73,.3,3.38,1.13,4.62,2.38,3.63,4.45-2.03,8.47-6.37,6.59Z"/><path d="M272.08,263.69c-1.91-2.61,1.05-8.92,3.88-9.91,2.91-1.07,6.19,.02,5.72,3.6h.02c-.57,1.99-1.37,4.21-3.04,5.55h0c-1.25,.72-1.92,2.25-3.6,2.22-1.15,.05-2.37-.44-2.99-1.45Z"/><path d="M288.13,259.1c-3.55-4.19,4.39-10.7,8.48-8.9,6.8,3.89-3.98,13.69-8.48,8.9Z"/><path d="M276.28,245.75c-.85-.41-1.46-1.4-1.39-2.36,.04-.55,.19-1.04,.42-1.5-.61-3.3,4.16-4.69,5.8-1.97,1.98,2.84-1.7,7.23-4.83,5.83Z"/><path d="M268.59,421.71c-2.56-.98-2.26-3.48-1.05-5.44,.61-1.56,.88-3.22,1.1-4.88,.57-9.47-.28-19.15-3.69-27.99-4.4-9.41-11.04-18.26-19.83-23.91-15.07-7.43-32.25-11.24-48.96-11.55-.25,.27-.77,.01-.67-.36-2.19-5.37,13.01-5.28,16.07-4.79,15.94,1.76,32.23,6.97,44.32,17.86,14.96,14.31,18.63,28.52,18.17,48.71-.05,2.88-.5,5.74-1.25,8.52-.23,2.14-1.68,4.68-4.2,3.83Z"/><path d="M219.01,391.16c-5.48-1.08-8.2-9.24-4.7-13.56,1.34-1.67,3.66-2.76,5.76-1.95,3.76,1.76,3.16,6.88,2.81,10.32,.19,2.46-.9,5.52-3.87,5.18Z"/><path d="M229.54,401.41c-.13-1.8,.79-3.38,2.2-4.33,1.09-2.38,4.16-3,6.37-1.86,1.7-.21,3.76-.24,4.91,1.26,1.04,1.2,1.12,3.15,0,4.33-1.72,1.73-4.34,2.07-6.52,2.99-2.7,1.59-6.48,1.33-6.96-2.39Z"/><path d="M235,382.96c-1.81-1.15-1.59-3.79,.01-5.04,.47-.99,1.46-1.73,2.53-1.92,.67-.18,1.67-.92,2.22-.24,1.79,.42,1.96,2.37,1.95,3.88-.13,2.9-4.34,4.83-6.71,3.31Z"/><path d="M276.47,244.18c-1.16-.06-1.31-1.37-.78-2.18,.1-.79,.44-1.68,1.29-1.87,.7-.7,1.54-1.94,2.63-1.8,.3,.19,.18,.66-.15,.73-.31,.47-.63,.93-.94,1.4,1.53,1.36-.48,3.65-2.06,3.71Z"/><path d="M240.3,432.78c-3.79-.17-7.59-.34-11.33-.96-7.47-1.13-14.09-4.97-20.36-8.99-2.87-2-13.62-8.54-11.79-12.31,.56-.59,1.32-.27,1.82,.2,4.25,3.39,9.02,6.12,13.69,8.83,3.27,1.87,6.33,3.61,9.75,5.12,5.87,2.44,12.24,3.03,18.51,3.55,14.15,.86,28.01-1.28,41.12-6.32,7.84-3.54,14.87-8.09,20.56-14.36,1.66-2.11,2.51-6.13,6.04-4.59,1.65,.8,2.27,2.99,1.22,4.52-16.04,20.83-44.26,26.36-69.23,25.31Z"/><path d="M244.77,487.9c-24.04-4.61-51.2-16.39-46.74-45.5-.26-.21-.03-.56,.12-.79,.05-.22,.22-.4,.44-.48,2.99-.36,3.77,10.48,5.13,12.85,2.41,5.7,7.7,9.56,12.8,12.74,11.25,6.29,24,10.53,36.93,11.03,6.88-.32,13.73-1.89,20.31-3.64,8.35-2.39,17.01-5.6,22.83-12.34,3.96-6.14,7.14-12.9,7.86-20.24,1.12-5.99,10.18-4.95,9.88,1.18-.25,4.93-1.16,9.8-2.92,14.42-5.03,14.11-16.01,21.63-29.82,26.06-11.84,3.58-24.42,6.91-36.83,4.72Z"/><path d="M242.11,466.94c-15.17-1.99-29.85-10.1-38.72-22.69-.89-1.32-1.47-2.8-2.15-4.22-.39-.32,0-1.02,.51-.79,1.88,1.54,3.07,3.83,4.9,5.47,4.96,5.05,11.09,8.63,17.59,11.29,14.03,5.41,29.6,4.82,44.1,1.87,8.76-1.29,17.33-4.14,24.4-9.59,2.84-2.3,5.65-4.73,7.96-7.57,1.57-1.93,2.7-4.43,4.97-5.64,3.94-2.32,9.33,1.79,6.21,5.95-2.18,4.16-6.46,7.06-9.99,9.92-16.71,12.94-38.81,19.29-59.79,16Z"/><path d="M202.17,343.23c-9.98-9.96-11.36-28.65-3.66-40.33,5.55-8.28,15.4-11.9,24.71-14.1,9.19-2.35,19.1-1.64,27.74,2.31,11,3.83,16.17,12.44,18.79,23.31,.67,2.46,.95,5.04,1.28,7.57,.1,.77-.51,1.5-1.24,1.65-.82,.17-1.69-.38-1.85-1.22-.65-3.62-1.59-7.17-3.06-10.54-1.93-4.48-4.29-9.13-8.64-11.69-6.95-3.7-14.75-5.56-22.56-4.33-6.55,.98-12.78,3.53-18.6,6.6-10.28,4.88-13.27,16.42-11.41,26.94,.6,4.18,2.14,8.1,3.77,11.97,1.25,4.04-3.07,4.24-5.26,1.88Z"/><path d="M215.22,343.57c-3.25-1.29-5.08-4.62-6.79-7.48-4.92-8.05-3.75-19.05,2.54-25.98,8.13-10.96,23.69-13.36,36.18-9.83,6.93,1.87,13.54,5.54,17.58,11.64,1.01,2.04,5.19,6.66,2.25,8.32-2.47,1.07-3.17-2.13-4.01-3.75-3.67-8.65-12.97-12.96-21.76-14.21-6.58-.73-13.51,.4-19.37,3.49-9.03,5.41-15.46,16.83-11.08,27.16,1.03,2.35,2.29,4.89,3.76,6.94,.68,.89,2.98,3.45,.71,3.71Z"/><path d="M264.64,421.87c-1.05-.06-1.81-.96-1.79-1.98,.09-3.5,.18-7,.15-10.21-.5-14.72-6.17-29.73-16.43-40.37-8.91-8.7-20.84-12.75-32.71-15.22-6.53-1.6-13.14-2.02-19.48-.33-2.05-1.37,1.54-2.35,2.55-2.77,4.7-1.39,9.72-1.12,14.53-.51,24.38,3.29,45.28,12.67,52.68,37.96,2.33,6.82,3.61,14.03,3.2,21.25-.15,3.48-.37,6.95-.72,10.41-.1,1.03-.94,1.85-1.98,1.79Z"/><path d="M233.17,283.48c-11.3-7.04-2.16-29.59,5.97-36.39,8.64-7.97,20.41-11.86,32.07-11.37,8.97,.37,18.43,.78,26.57,4.95,4.89,2.7,9.35,6.33,12.59,10.92,.78,1.61,3.96,4.58,1.75,6.01-.68,.34-1.66,.07-1.96-.66-2.96-6.79-9.2-11.74-15.8-14.76-10.24-3.65-21.48-4.25-32.18-3.21-11.3,2.05-22.28,9.01-27.24,19.59-2.65,6.32-5.58,13.59-2.95,20.36,.81,2.17,2.83,4.49,5.3,4.22h0c.25-.38,.89-.04,.68,.39-1.09,1.03-3.49,.48-4.78-.04Z"/><path d="M258.66,369.11c-5.77-6.36-1.92-22.97,.87-30.4,6.06-18.58,27.18-30.11,46.12-25.74,3.71,.72,3.07,6.35-.73,6.14-18.26-2.28-33.7,11.17-39.42,27.72-2.09,5.38-3.69,10.93-4.55,16.65-.51,1.93-.17,4.76-1.9,6.01-.2,0-.39-.13-.4-.37Z"/><path d="M265.63,367.37c-.3-.14-.23-.48-.1-.71,0,0,0,.02,0,.03,0,0,0,.02-.01,.03,.05-.08,.02-.26,.02-.32-.02-.06-.04-.11-.03-.12-2.07-4.95,.44-10.48,2.15-15.15,3.08-7.74,7.88-14.85,14.9-19.51,6.62-5.07,14.38-9.05,22.86-9.42,.48-.02,.92,.33,.96,.82-.07,1.47-2.09,.88-3.08,1.2-7.68,1.01-14.33,5.36-20.32,10-7.54,5.41-12.21,13.8-15.24,22.37-1.06,3.03-1.85,6.24-1.47,9.46,.13,.47,.08,1.53-.63,1.33Z"/><path d="M286.8,364.73c-3.21-.21-3.95-4.07-1.9-6.17,1.11-1.34,2.65-2.88,4.54-2.46,.77-.17,1.76,.17,1.84,1.06,2.59,2.81-1.36,7.48-4.48,7.57Z"/><path d="M292.2,376.47c-1.51-.95-1.7-3.36-.29-4.49,1.58-1.22,3.96-3.07,5.87-1.4,1.72,1.54,.39,4.05-1.46,4.76-.68,1.51-2.75,2.09-4.12,1.13Z"/><path d="M289.12,149.1c-5.36-9.28-14.19-9.9-23.73-11.39-6.62-1.74-12.36-6.56-19.5-6.3-4.44,.42-10.32-.17-13.4,3.63-.33,.45,.28,.97,.11,1.44-.19,.56-.85,.15-.8-.29-.17-.85-.87-1.43-.77-2.36,.92-4.82,6.95-5.76,11.01-6.55,7.83-1.96,15.12,1.68,22.33,4.13,6.62,1.14,13.61,1.4,19.31,5.44,2.65,1.66,4.87,3.94,6.49,6.61,.9,1.75,3.69,4.22,1.48,5.97-.78,.52-1.93,.4-2.53-.34Z"/><path d="M230.45,330.52c-3.29-.46-7.07-1.93-8.24-5.33-1.19-3.32,1.83-6.39,5.15-6.09,4.35,.08,8.04,3.63,9.85,7.32,.49,2.04-1.79,3.55-3.64,3.01-.28,1.39-2.04,1.27-3.12,1.09Z"/><path d="M314.41,133.1c-6.01-9.04-18.19-3.14-26.98-5.22-9.65-2.25-16.74-4.2-25.82,1.49-.04,.22-.25,.41-.51,.32-2.02,.48-1.22-2.24-.07-3.22,4.51-4.26,11.13-6.06,17.22-5.06,3.91,.7,8.22,2.02,12.16,1.87,5.04-.21,10.06-1.27,15.11-.69,5.27,.37,10.3,3.18,13.08,7.73,1.74,2.77-2.27,5.5-4.19,2.79Z"/><path d="M231.87,130.06c-1.18-23.08-3.03-46.18-3.83-69.31-.65-14.47-.11-29.07-1.61-43.48-.42-.26,.04-1.01,.48-.72,.69,.22,.95,1.04,1.16,1.66,1.78,5.62,2.57,11.49,3.68,17.27,2.76,18.04,4.06,35.96,5.5,54.07,1.24,13.53,2.53,27.15,1.71,40.73-.78,3.73-6.52,3.6-7.09-.22Z"/><path d="M232.69,24.12c-1.14-.09-2.15-.61-3.07-1.25-.56-.39-1.12-.85-1.57-1.38-4.28,.03-2.8-5.37-1.21-7.64,1.05-1.53,2.89-2.45,4.73-2.46,3.53-.03,6.91,2.85,6.79,6.51,.04,3.06-2.4,6.4-5.67,6.22Zm-.23-2.77c3.26-.61,1.77-4.61-1.15-4.08-.68,.93-.81,2.14-1.4,3.1,.78,.47,1.64,.88,2.55,.97Z"/><path d="M244.61,128.36c-.34-15.95-3.21-31.68-4.51-47.55-1.39-20.61-1.11-41.31-2.45-61.92-.08-.88,.55-2.65,1.61-1.71,.83,1.61,.85,3.55,1.29,5.3,4.12,21.73,3.14,43.99,5.73,65.9,1.4,13.12,2.31,26.3,3.45,39.44,.5,3.53-4.87,4.17-5.12,.54Z"/><path d="M222.02,126.62c-3.78-3.93,6.47-15.19,10.37-10.13,1.63,1.94,.67,4.74-1.43,5.88-2.33,1.49-5.97,6.47-8.94,4.25Z"/><path d="M273.25,125.22c-7.65-5.04-16.78-8.41-25.94-8.96-.09,.02-.17,.03-.26,.02-.51-.05-.43-.82,.07-.79,2.51-1.44,5.82-1.01,8.65-1.09,6.18,.28,12.3,1.8,17.73,4.79,1.87,.97,4.7,2.42,3.35,4.95-.68,1.26-2.36,1.78-3.6,1.07Z"/><path d="M245.19,179.23c-10.03-.09-20.09-1.42-29.7-4.33-11.22-3.48-21.52-9.39-32.13-14.21-.31,.17-.66-.16-.55-.46-.06-1.43,2-1.13,2.95-.95,9.07,2.79,17.97,5.74,27.1,8.25,25.29,6.94,53.66,8.51,77.74-3.29,3.38-1.83,6.61-3.73,9.94-5.63,.47-.27,1.07-.16,1.37,.31,.28,.45,.15,1.09-.31,1.37-5.41,3.14-10.6,6.72-16.39,9.13-12.66,5.51-25.97,10.52-40.01,9.81Z"/><path d="M252.5,224.01c-9.62-7.03-20.54-12.41-32.09-15.14-5.44-.84-10.96-.77-16.45-.9-1.71,.09-3.43-.6-3.33-2.46,.22-1.85,2.01-1.97,3.41-2.28,2.51-.55,5.06-.85,7.62-1.07,6.97-.7,13.99,.03,20.66,2.22,7.41,2.29,14.56,5.5,21.15,9.59,3.03,1.93,7.89,4.99,5.06,9.06-1.38,1.9-4.14,2.36-6.03,.97Z"/><path d="M264.81,220.42c-5.85-10.17-13-16.3-23.76-20.76-6.83-3.03-13.84-6.13-21.39-6.65-8.32-.51-16.67,.32-24.2,4.04-.57,.12-1.42,.98-1.82,.28-.1-.33,.15-.68,.48-.56,13.08-7.34,29.38-7.24,43.09-1.59,10.35,3.8,20.93,8.74,26.93,18.47,.79,1.78,5.07,5.76,2.8,7.26-.71,.45-1.68,.23-2.14-.48Z"/><path d="M205.57,240.9c-5.12-.83-1.89-9.31,1.69-10.08,2.14-.42,3.17,1.94,3.43,3.66-.35,2.54-2.08,6.54-5.12,6.42Z"/><path d="M211.11,255.32c-2.7-3.25,.91-7.87,4.76-6.45,1.44-1.05,3.8-1.41,4.69,.49,.68,1.28-.15,2.66-.83,3.75-1.58,2.88-6.06,5.33-8.62,2.21Z"/><path d="M219.73,239.28c-3.13-1.74-.7-6.5,2.49-4.72,1.11-.85,2.12-2.52,3.67-2.27,.63,.14,1.02,.8,.88,1.43-1.05,2.35-3.95,7.08-7.03,5.56Z"/><path d="M307.48,453.1c-3.74-.76-3.04-5.64-3.3-8.54-.54-10.85-.05-21.71-.03-32.56-.68-20.21,.52-40.36,2.08-60.5,1.63-19.5,2.57-39.04,4.01-58.55,1.45-20.63,.55-41.14,.31-61.76,.49-32.51,1.59-65.1,4.77-97.46,.26-2.11-.52-4.28-2.7-4.99-2.6-1.32-.47-5.52,2.19-4.03,2.33,1.42,3.88,3.97,4.06,6.7-.36,10.31,.89,20.58,.67,30.92-.06,10.06-1.1,20.07-1.52,30.11-.67,21.49-.72,42.83-1.92,64.2-.36,15.89,.98,31.77,.65,47.66-.67,19.51-1.43,39.01-2.28,58.51-.93,15.99-1.97,32.12-1.68,48.09,.29,6.59,.57,13.19,.74,19.79-.05,6.24,1.71,21.17-6.08,22.41Z"/><path d="M274.99,289.98c-2.97-.2-4.05-4.39-1.53-5.98-.42-2.16,1.63-4.32,3.68-2.9,1.28,.98,1.4,2.79,1.35,4.28,.77,2.25-1.03,4.89-3.5,4.6Z"/><path d="M245.28,324.99c-2.45-2.1-.41-5.42,1.8-6.78,2.01-1.56,5.6-3.78,7.49-.92,1.51,2.83-1.92,4.97-3.8,6.52-.45,.31-.9,.58-1.21,1.05-1.11,1.22-3.09,1.25-4.28,.13Z"/><path d="M246.34,342.24c-2.34-.37-3.76-2.85-4.77-4.77-1.38-2.06-1.86-4.86,.79-6.16,5.48-2.27,11.79,10.76,3.98,10.93Z"/><path d="M297.95,351.88c-2.09-.43-3.15-3.18-1.81-4.87,.5-.73,1.03-1.39,1.56-2.07-.03-.02-.05-.04-.08-.07-.34-.33,.1-.84,.46-.63,.8-1.59,2.06-.31,1.97,.99,3.02,1.82,1.88,7.55-2.11,6.65Z"/><path d="M253.09,460.38c-11.47-1.39-28.32-3.62-36.17-12.78-2.13-3.38,.09-8.06,4.03-8.62,5.57-.14,11.36,3.23,17.01,3.99-10.24-3.1-20.47-6.82-29.69-12.3-1.61-.7-3.14-3.07-1.07-4.2,2.93-1.05,6.16,.39,9.08,.96,15.94,4.44,32.16,9.12,48.89,7.4,6.66-.5,13.43-.24,19.62-3.07,3.59-.94,7.09,2.57,6.12,6.16-1.22,4.01-4.9,6.74-8.25,9,5.19,1.65,4.68,9.43-.72,10.34-9.58,1.26-19.11,3.89-28.84,3.14Z"/><path d="M303.06,232.04c-7.29-1.75-14.44-4.65-21.79-6.17-5.23-.57-12.64,.23-15.38-5.29-1.4-3.2,.56-6.77,3.67-8.08-.72-.65-1.26-1.49-1.48-2.45-7.45-1.92-15.35-1.53-22.55-4.62-8.68-2.5-16.01-8.11-24.61-10.79-6.5-1.86-13.39-3.48-19.95-2.06-4.9,.65-10.02,6.52-14.65,2.29-6.7-8.77,7.38-15.2,14.25-17.24-3.74,.25-8.7-.32-9.37-4.86-.8-5.22,4.99-7.3,9.27-6.88,13.09,.62,26.06,3.72,38.48,7.79,4.58,1.68,8.92,3.91,13.59,5.38,7.9-1.83,15.95-2.94,23.96-4.12,6.07-3.79,12.52-6.89,17.9-11.67,.95-.75,1.89-1.52,2.81-2.31,2.48-2.17,6.82-.59,7.4,2.61,5.63,.22,6.18,7.21,6.77,11.53,.68,6.02,1.02,12.07,1.21,18.13,1.47,1.82,1.55,4.23,1.85,6.45,.37,3.12,.65,6.25,.48,9.4-.17,4.11-.63,10.39-5.92,10.66,.23,.94,.18,1.94-.19,2.89-.14,.36-.34,.71-.57,1.03,2.49,3.66-.78,9.01-5.19,8.38Zm-2.68-30.52c.1,.06,.21,.12,.31,.18,.87-2.96,1.18-6.39,3.29-8.77-.11-3.3-.29-6.61-.51-9.91-.11-1.21-.22-2.42-.35-3.63-1.31,1.67-2.63,3.34-3.97,4.99,.01,.03,.02,.07,.03,.1,.4,1.36,.34,2.73,0,4.06,5.39,3.33,1.48,8.58-2.05,11.54,.11,.13,.21,.26,.31,.4,1.02,.18,2,.51,2.93,1.03Zm-70.13-16.47c2.58,.52,5.13,1.16,7.69,1.75,1.15,.27,2.31,.52,3.46,.78,0-.1,.02-.2,.04-.29-5.25-1.97-10.95-2.9-16.57-2.85,.22,.07,.44,.14,.65,.21,.56,.18,1.12,.37,1.67,.57,.97-.33,2.04-.37,3.05-.17Z"/><path d="M265.56,315.55c-.74-3.81,2.58-6.71,5.33-8.78-.88-.85-1.5-1.99-1.69-3.18-.03-.16-.04-.32-.05-.48-2.63-1.19-5.37-2.13-7.97-3.36-2.85-1.51-3.71-5.55-1.72-8.09,2.14-2.8,6.03-2.36,9.1-3.24,12.96-3.33,27.3-7.37,39.89-.62,4.89,1.93,5.26,9.09-.04,10.68-2.3,.83-4.26-.69-6.28-1.45,2.82,1.47,4.02,5.36,2.36,8.11,9.09,2.77,4.86,14.54-3.9,10.73-5.06-2.22-10.76-3.05-16.02-.96-5.72,1.86-16.28,10.48-19.02,.66Z"/><path d="M189.37,308.58c-2.22-7.73-.29-16.1-1.83-24.01-.21-2-.77-3.95-.53-5.98,.64-5.63,8.05-6.46,10.75-1.85,.44-.1,.89-.17,1.34-.21-5.65-4.52-15.85-12.58-7.52-19.56-1.06-2.16,1.71-2.49,3.18-1.9,1.73,0,3.54-.49,5.27,.35,2.55,1.05,4.82,2.72,6.91,4.5,4.61,2.45,8.54,5.93,11.84,9.96,2.9,2.95,1.8,8.31-2.61,8.86,.77,2.64-.36,5.61-2.73,7.03,.05,4.26-2.8,7.85-5.75,10.64-.78,5.42-4.64,10.02-7.99,14.17-3.02,3.22-8.7,2.15-10.32-1.99Z"/><path d="M192.17,148.09c-1.2-.52-2.76-2.43-1.03-3.29,1.31-.37,2.77,.01,4.09-.5,4.06-1.36,6.4-5.12,9.29-8,2.15-2.03,5.7-2.32,8.2-1.01,6.75,2.43,2.16,12.19-4.01,8.54-4.6,3.35-10.83,7.2-16.53,4.25Z"/><path d="M304.23,169.11c-1.13-1.77,.27-3.73,2.08-4.23,2.05-2.68,4.49-5.03,5.13-8.51-5.23,3.47-10.73,6.54-16.06,9.87-1.67,.96-3.37,1.82-5.09,2.68-.76,.36-2.14,1.35-2.64,.18-.09-.31,.02-.68,.28-.88,1.27-.95,2.68-1.74,4.02-2.59,6.36-3.67,11.66-9.24,18.25-12.29,1.83,.71-.74,2.71-1.45,3.42,.98-.48,2.62-2.26,3.5-.85,.22,1.58-1,3.07-1.5,4.53,2.94-.52,.66,3.51,.29,4.78,.63,.94,.2,2.29-.8,2.73-.1,.06-.46,.36-.55,.43-1.46,1.71-3.83,3.07-5.45,.73Z"/></svg>