<?xml version="1.0" encoding="UTF-8"?><svg id="Ebene_1" xmlns="http://www.w3.org/2000/svg" viewBox="0 0 500 500"><path d="M223.14,254.64c-22.14-16.68-39.64-38.95-52-63.69-15.91-33.93-20.84-72.62-17.21-109.73,.45-9.3,.68-18.63,2.08-27.84,0-.7,1.16-.6,1.03,.1-.21,1.14-.27,2.32-.4,3.47-1.39,11.39-.84,22.89-2.01,34.31-1.42,26.45,2.11,53.6,12.96,77.87,11.54,22.99,27.53,43.73,45.34,62.11,5.66,4.96,11.45,9.78,17.46,14.31,5.85,4.75-1.16,13.75-7.25,9.08Z"/><path d="M261.74,275.1c-5.92-2.9-10.47-10.14-8.38-16.76,2.24-7.08,9.62-10.5,15.19-14.65,10.96-7.69,22.51-14.89,31.73-24.73,4.69-5.26,7.77-11.66,11.17-17.77,4.91-8.46,10.23-16.71,13.51-25.99,6.87-19.67,9.32-40.37,11.74-60.96,1.61-11.29,2.29-22.69,2.09-34.09-.25-6.26-.63-12.5-1.22-18.74-.3-3.21,2.08-6.15,5.3-6.48,8.55-.28,6.56,10.59,7.36,16.3,1.32,17.43-.3,34.83-2.83,52.07-2.2,20.4-5.75,40.89-13.26,60.06-2.71,6.34-5.9,12.46-9.56,18.31-4.54,7.43-8.13,15.47-13.61,22.3-8.9,10.31-20.42,17.94-31.79,25.26-4.13,3.34-16.27,8.19-15.76,13.9,.41,2.2,1.57,4.17,2.7,6.07,1.08,1.57,3.04,3.96,1.19,5.64-1.61,1.47-3.75,.96-5.56,.25Z"/><path d="M218.12,414.79c-4.73-4,.08-8.7,2.61-12.34,1.82-2.7,3.52-5.46,5.19-8.25,2.21-4.4,6.29-8.48,6.42-13.59-1.21-12.26-2.85-24.48-3.4-36.8-.94-10.08-3.1-20.01-4.94-29.96-1.38-7.68-2.11-15.23-3.77-22.77-1.11-5.88-2.54-12.26-.41-18.07,1.55-5.26,7.59-6.39,10.5-10.42-.05,.14-.1,.26-.15,.41,1.4-4.98-5.67-13.83-9.87-16.04-.26-.15-.4-.53-.26-.82,.48-1.25,2.47-.4,3.22,0,6.17,4.02,13.71,11.02,13.48,18.94-.49,4.69-4.26,7.84-7.77,10.52-.55,.49-1.1,1.04-1.35,1.76-1.55,9.58,2.51,19.13,4.02,28.52,3.4,15.52,6.6,31.08,8.45,46.86,1.88,11.03,3.45,22.46,1.34,33.56-1.44,5.03-4.26,9.51-6.75,14.07-2.58,4.78-5.57,9.35-9.02,13.55-1.88,2.26-5.24,2.68-7.54,.84Z"/><path d="M266.96,422.47c-1.12-.5-1.9-1.4-2.38-2.5-2.57-5.61-4.35-11.5-5.91-17.45-2.39-9.35-4.99-18.71-6.15-28.31-1.11-15.5-1.6-31.18-.32-46.68,1.58-11.36,3.3-22.85,7.17-33.68,3-6.86,6.96-14.31,3.53-21.81-.38-.84-1.25-2.69,.37-2.56,2.16,1.36,2.82,4.44,3.76,6.7,2.32,7.47,.04,15.2-1.8,22.5-3.82,16.8-5.6,34.03-4.98,51.26-.52,19.42,3.3,38.33,9.18,56.75,1.1,3.37,2.28,6.71,3.56,10.01,1.5,3.59-2.52,7.47-6.05,5.77Z"/><path d="M247.6,406.12c-1.21-.04-2.07-1.04-2.08-2.21-.13-7.74-.04-15.5,.26-23.23,.42-15.45,.4-31.02-1.61-46.34-2.92-15.22-8.65-30.21-7.7-45.93,.53-5.67,.47-14.58,6.48-17.25,1.3-.38,2.47,.44,3.08,1.55,.34,.44,.23,1.1-.21,1.43-.54,.4-1.31,.15-1.57-.45-3.16,.25-3.6,10.12-3.79,12.76-1.17,17.15,5.58,33.09,8.33,49.71,2.72,20.79,1.53,41.64,1.09,62.5-.43,2.46,1.27,7.16-2.28,7.46Z"/><path d="M249.47,87.91c-18.95,.04-37.64-3.03-55.97-7.62-11.36-2.78-24.19-3.66-33.4-11.57-20.01-19.79,17.38-27.62,31.52-29.87,24.89-4.77,50.33-4.5,75.54-3.15,20.66,2.12,75.68,1.25,77.76,28.84,.35,4.31-2.25,5.29-3.89,.95-3.22,6.17-10.26,8.61-16.14,11.57-23.67,10.17-50.02,10.94-75.42,10.85Zm-7.82-9.43c22.59,0,45.34-1.35,67.36-6.53,7.42-2.31,15.22-5.03,21.29-9.98,1.26-1.82,2.09-4.15,4.44-4.82h0c-5.42-4.93-13.6-6.75-20.2-8.61-12.9-3.51-26-4.41-39.14-5.74-24.16-2.25-48.59-2.83-72.69,.32-9.41,1.62-40.88,4.76-43.12,14.96v-.12c-.01-.07-.01-.15-.01-.22,2.93,12.45,22.55,12.45,32.79,14.77,16.32,2.87,32.63,6.31,49.29,5.97Z"/><path d="M311.51,74.3c-24.02-8.08-49.4-8.44-74.46-9.04-20.69,.12-41.86-1.93-62.2,2.58-2.47,.77-5.11,1.41-7.23,2.91-.41,.37-.98-.27-.56-.64,1.52-1.88,3.49-3.31,5.67-4.39,11.32-5.3,24.03-7.14,36.41-7.82,19.82-1.63,39.66-.86,59.48,.25,9.92,.29,19.75,1.53,29.34,4.14,4.76,1.16,9.54,2.43,14.11,4.21,2.54,.72,5.12,2.39,4.15,5.43-.65,1.99-2.81,2.96-4.71,2.37Z"/><path d="M240.11,465.15c-14.53-.58-29.44-2.76-42.94-8.3-10.19-4.79-21.03-11.36-25.11-22.44-6.83-23.06,15.24-42.37,34.92-49.64,7.89-3.37,17.11-6.4,25.56-3.43,3.63,1.27,3.76,4.85-.35,5.26-16.82,2.16-42.41,15.49-48.34,32.18-4.29,11.19,1.63,17.93,10.87,23.47,9.26,5.93,20.12,7.97,30.8,9.68,8.99,1.71,18.11,1.45,27.17,.55,6.71-.59,13.54-.43,20.15-1.84,8.13-2.08,15.67-5.94,23-9.94,6.57-3.71,15.08-8.9,14.26-17.56-1.74-9.45-9.59-16.56-18.12-20.23-10.95-4.66-22.81-6.31-34.28-9.18-3.12-.78-5.18-3.87-4.45-7.07,2.46-8.33,12.28-2.58,18.1-2.01,12.43,2.65,25.35,5.62,35.74,13.3,11.28,8.62,19.9,24.96,11.68,38.39-7.38,12.13-27.56,20.79-40.76,25.22-5.45,1.64-11.14,1.95-16.79,2.25-7.03,.36-14.06,1.21-21.1,1.33Z"/><path d="M221.89,444.55c-13.45-.83-32.81-6.47-36.84-21.02-1.28-7.51,4.99-18.48,10.08-23.81,0,.02,0,.03,0,.07,.04-.52,.89-.5,.84,.07-.09,.46-.51,.78-.83,1.08-3.6,3.67-5.76,8.44-7.6,13.15-6.99,15.38,11.95,25.09,24.42,27.62,13.98,3.24,28.18-.63,42.13-2.22,.49-.07,.96,.23,1.06,.73,.09,.47-.24,1-.73,1.06-2.56,.35-5.14,.69-7.71,1.03-8.23,1.04-16.48,2.39-24.81,2.23Z"/><path d="M241.02,257.18c-2.18-.2-5.15-.11-6.63-1.93-.25-.61,.3-1.24,.94-1.02,6.31,1.65,13.2,.02,19.35-1.72,.66-.21,1.39,.11,1.69,.73,1.3,3.86-12.85,3.97-15.35,3.94Z"/><path d="M248.48,252.31c-2.13-.24-15.06-.79-14.66-3.18,.08-.61,1-.41,.84,.19,6.61,1.37,14.27,1.29,20.94,.24,1.16-.18,2.94-1.35,3.55,.23,.69,2.96-8.71,2.37-10.68,2.52Z"/><path d="M172.89,135.45c-.33-.03-.59-.21-.78-.47-1.33-1.87-2.67-3.7-4.09-5.5-3.4-3.87-6.37-8.28-10.37-11.55-.32-.16-.41-.6-.16-.88,1.99-1.21,7.43,6.34,9.07,7.81,2.57,2.83,4.92,5.84,7.22,8.9,.59,.66,0,1.81-.88,1.69Z"/><path d="M176.41,130.87c-5.05-4.94-10.77-9.16-15.75-14.18-.29-.27-.85-.71-.43-1.11,.31-.3,.93-.19,.85,.32,5.59,4.45,11.11,9.01,16.48,13.73,.81,.73-.36,2-1.15,1.24Z"/><path d="M183.34,142.69c-3.82-.75,12.94-13.01,14.21-14.85,2.27-2.07,4.6-4.09,6.84-6.18,.82-.93,2.49-.34,2.51,.91-.42,2.08-3.39,3.12-4.79,4.63-5.86,5.17-12.47,9.64-18.18,14.92,.06,.33-.26,.64-.58,.58Z"/><path d="M181.66,137.1c-1.98-1.21,3.15-4.43,4.03-5.39,2.77-2.26,5.41-4.66,8.22-6.86,2.25-1.73,4.63-3.32,6.85-5.09,1.38-.98,3.14-3.52,4.84-1.7,.7,.84,.48,2.08-.41,2.68-3.13,2.05-6.34,3.98-9.45,6.05-4.44,3.21-8.97,6.38-13.13,9.88-.16,.37-.58,.57-.96,.42Z"/><path d="M225.99,139.45c-4.97-5.53-10.21-11.15-16.7-14.87-.8,.19-2.26-1.19-.93-1.52,1.52,.11,2.87,1.06,4.17,1.78,5.65,3.55,10.52,8.23,15.43,12.73,1.35,1.32-.71,3.32-1.97,1.89Z"/><path d="M219.26,140.88c-3.66-5.01-7.56-9.63-11.21-14.62-1.01-1.68-2.62-3.5-2.44-5.55,.13-.34,.59-.54,.89-.3,.44,.47,.62,1.43,1,1.94,3.98,6.1,9.09,11.31,13.75,16.87,1.1,1.25-.92,2.98-1.99,1.67Z"/><path d="M236.16,140.25c-2.63-1.69,5.57-8.32,6.8-10.05,2.59-2.66,5.33-5.2,8.24-7.5,.96-.76,2.37-.68,3.18,.28,.88,1.01,.6,2.64-.51,3.36-2.35,1.7-4.82,3.25-7,4.81-3.32,2.5-6.68,5.17-9.36,8.27,.03,.74-.83,1.17-1.41,.8l.06,.04Z"/><path d="M240.76,141.82c-.17-.09-.26-.27-.24-.45,.02-.26,.22-.38,.43-.37,5.43-5.11,9.18-11.52,14.01-17.12,1.48-1.63,4.04,.69,2.51,2.32-4.27,4.61-8.62,9.2-13.16,13.55-1.05,.77-2.15,2.21-3.55,2.08Z"/><path d="M277.65,142.51c-4.2-6.37-10.21-10.86-16.3-15.21-.67-2.48,4.58,1.64,5.39,1.93,4.8,2.81,8.89,6.62,12.59,10.74,.8,.69,1.36,1.92,.39,2.72-.59,.5-1.58,.45-2.07-.18Z"/><path d="M268.96,144.93c-2.4-.69-3.01-4.53-4.36-6.45-2.21-4.95-5.78-9.3-7.41-14.46-.07-.41-.03-.88,.26-1.2,.5-.47,1.3,.22,.69,.67,2.46,5.39,6.35,10.2,9.56,15.21,.91,1.55,2.83,2.56,3.25,4.32,.07,1.07-.91,2.01-1.98,1.9Z"/><path d="M287.44,140.78c-3.03-.72,6.01-8.62,6.91-10.05,5.41-5.47,10.71-11.03,15.87-16.73,.86-.78,2.28-.6,3.01,.26,.74,.88,.64,2.28-.27,3.01-2.78,2.27-5.41,4.74-8.09,7.12-5.67,5-11.5,9.89-16.35,15.71-.1,.48-.6,.8-1.08,.69Z"/><path d="M290.99,142.14c0-1.49,1.08-2.72,1.87-3.91,2.69-3.67,5.19-7.46,7.74-11.23,2.2-3.12,4.49-6.2,6.98-9.09,1.21-1.4,3.71-.5,3.73,1.35-.35,2.41-2.97,3.89-4.41,5.72-4.98,5.36-10.05,10.94-14.27,16.89,.55,1.3-1.72,1.71-1.66,.27Z"/><path d="M326.89,139.67c-4.99-7.39-10.65-14.58-16.32-21.32,.16-1.54,1.69,.53,2.18,.9,5.82,6.08,11.37,12.29,17.78,17.75,1.98,2.4-1.88,5.29-3.63,2.67Z"/><path d="M331.96,133.93c-3.77-4.85-8.37-8.92-12.66-13.29-1.77-1.7-3.41-3.71-5.61-4.81-.09-.03-.19-.05-.28-.08h-.08c-.13,.94-1.29,.15-.92-.5,2.2-2.83,10.93,7.4,13.38,8.77,2.87,2.34,5.78,4.68,9.19,6.18,3.29,1.96-.38,6.56-3.02,3.73Z"/><path d="M261.69,152.76c-28,.64-56.1-2.47-83.03-10.29-7.19-1.83-14.34-3.8-21.4-5.99-.75-.11-.46-1.34,.27-.8,22.61,6.39,45.41,12.57,68.89,14.54,17.6,1.3,35.25,.82,52.84-.15,11.52-1.29,22.97-2.86,34.11-6.1,4.58-.96,9.3-1.93,13.61-3.72,2.32-.92,4.51-2.1,6.7-3.3,.49-.26,1.13,0,1.36,.48,.25,.52,0,1.12-.49,1.37-6.95,4.14-14.8,6.01-22.63,7.67-16.28,4.62-33.38,6.2-50.24,6.28Z"/><path d="M166.79,164.55c-.2-.14-.23-.4-.1-.59,2.88-4.51,5.59-9.08,8.29-13.69,.46-.51,.64-1.63,1.4-1.69,.48,.1,.45,.99-.02,1.07-2.97,4.95-5.87,9.96-8.98,14.79-.12,.19-.41,.23-.59,.1Z"/><path d="M191.42,170.41c-3.27-5.93-5.48-12.43-9.29-18.08-.24-.6-1.04-1.38-.6-2.01,.36-.4,1.18,.15,.82,.62,3.89,6.02,6.45,12.73,9.78,19.01,.3,.46-.42,.93-.72,.47Z"/><path d="M198.02,170.94c-.57-2.87-14.4-22.39-10.72-21.88,.48,.23,1.29,1.33,.35,1.44-.07,1.83,14.67,22.9,10.36,20.44Z"/><path d="M211.8,177.23c-.18-.17-.2-.47-.03-.64,1.28-1.35,2.62-2.64,3.95-3.94,6.23-5.93,12.54-11.79,18.7-17.76,.42-.36,.98,.3,.54,.65-1.74,1.49-3.26,3.18-4.92,4.75-3.76,3.7-7.74,7.24-11.56,10.86-2.05,1.99-4.09,3.99-6.05,6.06-.17,.18-.46,.2-.64,.03Z"/><path d="M212.33,182.59c-1.91-1.29-1.62-4.18,.21-5.37,2.14-2.1,4.5-4.02,6.88-5.88,3.05-2.4,5.87-5.08,8.66-7.75,.92-.46,8.49-9.61,8.16-6.62-5.07,6.56-10.19,13.24-15.7,19.52-2.34,2.29-4.04,8.57-8.21,6.1Z"/><path d="M263.45,182.43c-3.87-5.15-7.94-10.12-12.37-14.8-1.45-1.65-2.87-3.29-4.25-4.99-.11-.16-.09-.41,.05-.54,.26-.3,.73-.13,.79,.24,3.4,4.22,7.23,8.05,10.73,12.19,2.01,2.37,3.8,4.91,5.73,7.33,.37,.43-.31,1.02-.68,.57Z"/><path d="M271.18,181.38c-2.58-3.67-6.35-6.37-9.51-9.53-4.32-4.12-8.13-8.85-12.3-13.13-.46,.15-.88-.6-.66-.97,.38-.49,.92,.06,1.26,.34,3.64,3.52,6.83,7.51,10.41,11.07,3.91,4.09,8.63,7.52,12.34,11.71,.18,.9-1.17,1.36-1.55,.5Z"/><path d="M281.38,182.61c-1.98-2.39,8.2-15.52,9.53-19.19,.66-.88,1.01-3.13,2.45-2.63,.41,.22,.61,.77,.37,1.19-.79,1.37-1.51,2.78-2.29,4.16-2.84,5.49-7.52,10.24-9.39,16.1-.03,.32-.4,.52-.68,.37h.01Z"/><path d="M281.47,186.15c-.24-.17-.29-.5-.13-.74,2.26-3.22,4.58-6.4,6.76-9.68,4.76-7.02,9.42-14.19,13.58-21.57,.02-.23,.23-.41,.46-.39,1.65,.16-4.13,7.68-4.56,8.93-3.84,6.37-8.06,12.47-12.25,18.62-1.06,1.55-2.1,3.12-3.12,4.7-.15,.24-.51,.29-.74,.13Z"/><path d="M320.43,172.64c-4.34-4.4-7.59-9.98-12.39-13.86-1.66,1.93-2.08-3.99,2.6,.14,4.03,3.93,7.52,8.19,11.9,11.71,1.47,1.35-.81,3.54-2.11,2.01Z"/><path d="M325.08,170.28c-2.85-3.59-5.21-7.57-8.05-11.15-1.6-1.84-3.13-4.01-5.56-4.66-.44-.24-.39-.9,.09-1.06,2.28-.04,4.06,2.04,5.55,3.56,3.45,3.59,5.91,8.16,9.95,11.16,1.72,1.32-.51,3.76-1.98,2.15Z"/><path d="M183.67,200.32c-1.87-.86,5.9-9.93,6.65-11.76,1.53-2.51,2.78-5.18,4.26-7.71,.22-.37,.67-.54,1.06-.33,.37,.19,.54,.68,.33,1.06-.86,1.54-1.69,3.1-2.56,4.62-2.43,4.43-5.76,8.25-8.72,12.32-.28,.45-.52,.9-.55,1.4-.02,.23-.24,.41-.47,.39Z"/><path d="M221.1,210.9c-7.82-8.18-13.86-17.81-19.94-27.29-.17-.2-.34-.39-.48-.61-.26-.4,.29-.88,.64-.54,5.92,8.61,11.57,17.65,18.78,25.29,.57,.96,2.79,1.9,2.07,3.12-.27,.29-.78,.34-1.07,.05Z"/><path d="M224.33,209.72c-5.57-7.58-12.92-13.98-17.13-22.49-.53-1.23-1.12-2.53-1.08-3.89,.23-1.4,1.38-.62,1.96,.09,.31,.31,.99,.67,.58,1.16-.56,.5-1.02-.39-1.43-.69,3.19,9.14,11.41,15.73,17.5,22.9,.54,.69,1.51,1.2,1.65,2.11,.09,1.06-1.4,1.68-2.05,.8Z"/><path d="M235.69,208.87c-4.62-1.66,17.43-20.25,19.66-22.15,.74-.68,1.62-2.08,2.7-1.15,.46,.42,.48,1.16,.06,1.62-7.21,7.01-16.41,12.29-21.94,20.89,.34,.34-.05,.91-.48,.79Z"/><path d="M237.28,208.32c6.39-8.32,13.11-16.51,20.2-24.22,2.63-2.14,5.9,1.77,3.3,3.98-4.91,4.97-9.9,9.51-15.04,14.15-1.01,.72-8.46,9.43-8.46,6.09Z"/><path d="M293.73,211.66c-4.3-6-8.87-11.76-12.76-18.02-.65-1,.35-1.75,.97-.63h0c.28,.34,.59,.7,.96,.9,.39,.1,.79,.51,.38,.85,3.91,5.26,8.12,10.29,12.32,15.32,1.03,1.2-.88,2.8-1.88,1.57Z"/><path d="M290.5,212c-4.35-5.63-9.25-11.17-15.35-14.9-.52,.25-.85-.55-.37-.82,1.13-.18,2.16,.92,3.1,1.45,5.25,3.68,9.67,8.4,13.96,13.14,.73,.84-.64,2.01-1.35,1.12Z"/><path d="M261.21,225.76c-.18-.14-.23-.38-.16-.59,.51-1.33,1.51-2.43,2.35-3.57,4.62-5.69,9.97-10.79,15.75-15.29,1.2-1.02,2.8,.87,1.57,1.88-6.66,5.15-13.59,10.35-18.59,17.21-.11,.38-.57,.7-.92,.37Z"/><path d="M265.32,226.42c-.57-.55,.07-1.22,.43-1.68,4.22-5.52,8.73-10.82,13.37-15.99,1.58-1.23,3.13-5.14,5.48-3.55,.62,.58,.74,1.69,.09,2.31-6.36,5.7-12.16,11.95-17.81,18.35-.37,.44-.99,1.06-1.56,.56Z"/><path d="M254.54,229.52c-4.54-4.65-9.22-9.13-13.96-13.57-.31-.5-1.31-.84-1.08-1.49,.12-.21,.42-.31,.62-.15,2.4,2.45,5.09,4.58,7.65,6.86,2.66,2.36,5.26,4.76,7.91,7.14,.79,.72-.35,1.97-1.13,1.22Z"/><path d="M262.15,226.64c-5.78-5.11-11.58-10.21-17.43-15.25-.39-.42-1.25-.89-.92-1.56,.01-.03,.05-.07,.07-.11-.02,.04-.04,.07-.07,.11v.02c.12-.26,.43-.4,.71-.25,.13,.07,.21,.19,.25,.32,5.53,4.52,10.96,9.1,16.46,13.64,.74,.88,3,1.53,2.31,2.94-.33,.46-.97,.5-1.38,.15Z"/><path d="M210.55,229.38c4.3-5.33,9.25-10.46,14.12-15.37,.35-.33,.94-.29,1.28,.03,.38,.35,.43,1,.05,1.37-1.47,1.49-3.06,2.92-4.54,4.31-3.46,3.28-6.85,6.66-10.24,10.01-.26,.18-.67-.01-.67-.34Z"/><path d="M214.03,236.46c-1.45-.24,2.48-5.13,2.9-5.94,2.8-3.88,6.21-7.46,9.2-11.14,2.33-2.63,4.14-5.92,6.72-8.22,1.22-.08,1.23,1.21,.47,1.83-3.49,4.37-7.04,8.69-10.9,12.73-2.94,3.22-5.93,6.53-7.93,10.42-.06,.2-.24,.34-.45,.32Z"/><path d="M227.28,241.8c-.54-.04-.48-.9,.07-.85,6.18-2.38,11.44-6.88,17.47-9.73,1.78-.98,3.57-2,5.33-3.04,.25-.15,.56-.09,.72,.15s.08,.56-.15,.72c-1.18,.76-2.4,1.47-3.61,2.15-4.56,2.51-9.3,4.85-13.71,7.67-1.95,1.09-3.87,2.59-6.11,2.93Z"/><path d="M226.39,250.45c-.68-.03-1-.98-.45-1.4,8.07-6.38,16.31-12.55,24.82-18.32,1.44-1.07,2.87-2.13,4.3-3.22,.22-.4,.9-.14,.78,.31-5.04,4.36-10.91,7.91-16.16,12.12-4.61,3.22-8.57,7.61-13.29,10.51Z"/><path d="M268.75,242.57c-2.57-3.46-5.49-6.64-8.11-10.06-.61-.58-.37-1.73,.57-1.26,.42,0,.89,.32,.62,.76,2.78,3.13,5.78,6.06,8.49,9.25,.85,1.01-.74,2.33-1.57,1.31Z"/><path d="M263.97,244.29c-3.79-3.35-7.3-7.17-11.37-10.16-.28-.14-.3-.58-.03-.73,.31-.19,.6,.05,.86,.23,2.57,2.09,5.14,4.3,7.73,6.35,1.28,1.02,2.57,2.03,3.89,3.01,.37,.27,.47,.8,.21,1.18-.3,.42-.9,.47-1.27,.13Z"/><path d="M246.51,105.3c-13.47-.74-26.87-2.85-40.23-4.65-11.45-2.14-22.5-6.44-32.76-11.9-6.76-3.2-13.15-7.4-18.36-12.78-.29-.22-.22-.69,.17-.77,3.64,1.92,7.33,5.47,11.28,7.55,10.66,6.11,22.06,10.76,33.95,13.71,11.9,1.94,24.02,2.36,35.98,3.93,5.87,.63,11.67,1.03,17.53,.67,9.39,.11,18.79,.39,28.04-1.45,14.46-3.63,29.27-7,42.76-13.51,4.14-2.4,7.83-5.49,11.88-8.04,.9-.59,2.16-.3,2.74,.6,1.4,2.41-2.33,3.71-3.6,4.87-6.49,5.38-13.49,9.19-21.34,12.03-12.78,4.63-26.13,8.31-39.72,9.35-9.45,.5-18.87-.09-28.31,.39Z"/><path d="M157.49,148.5c-8.04-24.55-8.98-50.34-7.74-75.96,.24-4.42,1.88-21.4,8.41-19.51,1,.62,.55,1.9,.19,2.7-2.22,12.15-1.19,24.6-2.01,36.88-.32,12.81-1.17,26.2,.8,38.83,1.27,5.39,2.55,10.77,3.92,16.12,.58,2.29-2.89,3.29-3.57,.93Z"/></svg>