<?xml version="1.0" encoding="UTF-8"?><svg id="Ebene_1" xmlns="http://www.w3.org/2000/svg" viewBox="0 0 500 500"><path d="M228.61,139.81c-5.02-.62-12.22-.87-14.41-6.3-.8-5.22,5.85-7.43,9.93-8.27,1.32-1.47,3.64-1.04,5.42-1.42,5.55-.35,12.73-.92,16.77,3.63,5.69,9.87-10.75,13.44-17.71,12.37Zm5.32-6.52c2.52-.33,5.27-.76,7.24-2.49-4.93-2.32-10.63-.85-15.79-1.08-1.62,.51-3.29,1.05-4.65,2.09,4.16,1.56,8.8,1.68,13.2,1.48Z"/><path d="M307.77,138.76c-3.22-.04-6.14-1.69-9.26-2.29-4.25-1.28-9.03-2.46-12.09-5.89-3.68-4.48,.71-10.45,5.87-10.71,4.84-.82,9.61,1.26,13.54,3.92,3.94,1.24,7.79,3.86,9.87,7.48,1.17,2.2,0,4.43-1.72,5.92-1.67,1.48-4.1,1.48-6.22,1.57Zm1-4.1c.89-.06,1.77-.33,2.51-.83-.24-.62-.87-1.08-.92-1.77-3.47-1.24-6.71-3.23-10.25-4.22,1.19,1.25,2.19,2.75,2.78,4.35,.11,.29,.21,.61,.29,.92,1.82,.62,3.67,1.36,5.59,1.54Zm-13.03-4.57c.11-.04,.23-.07,.34-.09-.53-.35-1.13-.58-1.72-.79,.45,.3,.91,.59,1.37,.88Z"/><path d="M250.87,154.8c-5.26,.16-13.77-4-8.86-9.98,4.46-3.91,19.14-4.27,24.79-2.64,2.98,.74,4.4,4.59,1.87,6.68-1.73,4.07-13.62,6.14-17.8,5.95Z"/><path d="M246.69,163.45c-11.93-1.07-23.97-1.41-35.81-3.27-16.15-2.28-32.03-5.62-48.07-8.47-15.05-3.2-31.22-4.98-44.26-13.75-14.03-8.27-18.2-25.48-6.53-37.8,7.68-9.77,19.74-14.57,31.01-18.96,34.26-11.38,70.84-12.87,106.65-11.81,24.64-.34,48.98,2.64,72.86,8.68,16.03,3.95,32.26,7.67,47.11,14.9,3.09-5.48,9.79,1.13,13.74,2.54,8.61,4.02,14.11,13,16,22.07,.71,6.92-2.68,13.18-7.01,18.26-4.3,4.83-10.25,7.82-16.33,9.73-11.31,3.45-22.92,5.87-34.49,8.3-31.15,6.67-63.09,10.38-94.87,9.57Zm12.37-9.26c19.83,.02,39.75-.82,59.34-3.61,15.43-3.08,30.86-6.44,46.13-10.2,10.46-2.27,21.86-7.47,25.14-18.55,1.49-5.6-2.32-12.29-6.09-16.28-3.36-2.6-7.32-4.28-10.89-6.56-1.12-.74-2.55-1.28-3.07-2.62-29.73-11.93-61.69-14.91-93.26-17.67-37.69-1.89-76.19-2.65-113.18,5.38-13.58,3.28-27.24,7.47-38.95,15.29-9.61,7.6-16.46,18.56-5.21,28.38,15.82,11.93,36.61,13,55.32,17.38,16.5,3.1,33.27,6.32,49.86,7.46,11.65,.18,23.21,1.89,34.86,1.59Z"/><path d="M227.34,137.5c-2.71-.24-8.96-.6-6.94-4.76-.89-.19-1.75-.47-2.62-.75-.32,.24-.8-.1-.75-.48,.29-.97,1.65-.45,2.38-.42,4.36,.65,9.27,.09,13.49-.8,2.61-.68,4.62-2.06,7.28-2.15,2.21,.05,2.91,2.8,1.72,4.38,.58,4.48-11.39,5.23-14.56,4.99Z"/><path d="M308.06,136.55c-1.99-.7-7.82-2.07-6.26-5.04-2.23-.99-4.68-2.11-5.97-4.3-.34-.25-.06-.89,.41-.73,.97,1.23,2.54,1.97,3.9,2.57,3.95,1.7,8.25,2.32,12.48,2.91,1.12,.36,.87,2.11-.3,2.16-.73,.03-1.47-.09-2.2-.04,.59,1.27-.71,2.84-2.07,2.47Z"/><path d="M107.39,105.45c-.01-.22,.17-.45,.4-.45s.44,.16,.45,.4c.01,.22-.17,.45-.4,.45s-.44-.16-.45-.4Z"/><path d="M212.56,241.23c-19.34-1.91-38.7-5.36-56.17-14.25-8.45-4.77-16.97-9.6-24.58-15.65-9.45-8.62-18.86-17.93-25.38-29.03-3.81-6.2-4.42-13.31-4.89-20.39-1.43-16.36-1.93-33.21,2.2-49.24,3.05-9.19,9.55-17.63,18.44-21.7,.25-.29,.85-.1,.74,.36-8.87,6.67-16.2,16.45-17.64,27.72-1.92,13.01-1.54,26.09,.37,39.02,1.09,7.82,2.07,15.89,6.88,22.44,8.56,11.24,18.3,22.36,30.44,29.78,11.31,7,22.58,13.55,35.5,16.79,11.6,3.57,23.71,4.8,35.43,7.87,4.02,.93,2.86,7.07-1.35,6.28Z"/><path d="M258.7,242.37c-1.26-7.96,8.45-7.29,13.66-8.89,9.53-2.25,19.11-4.32,28.75-6.04,11.38-2.56,22.62-5.74,33.84-8.93,11.86-2.33,23.21-6.16,33.35-12.64,4.9-2.88,9.43-6.45,13.01-10.88,3.93-4.87,5.65-10.92,6.62-16.99,3.2-11.99,3.96-23.96,4.69-36.18,.54-10.06,2.38-20,3.15-30.03,2.47-2.73,2.23,7.95,2.41,9.09,.15,6.47-1.07,12.87-.85,19.35-.04,13.14,.34,26.39-2.54,39.3-1.15,10.09-6.17,19.48-14,25.96-12.88,10.61-28.19,18.19-44.3,22.44-15.81,5.26-31.76,10.09-48.1,13.42-5.77,1.36-11.5,2.88-17.27,4.27-4.52,1.35-10.9,2.87-12.41-3.27Z"/><path d="M297.44,198.94c-9.38-.13-18.74-.83-28.12-1.14-8.49,.18-16.94-.43-25.3-1.81-15.53-.69-31.03-1.76-46.39-4.37-21.84-2.76-42.82-9.76-64.24-14.54-8.34-2.15-16.68-5.1-23.39-10.67-2.81-1.96-5.08-5.15-8.37-6.08-.48-.15-.3-.83,.13-.83,4.96,1.34,8.38,5.88,12.93,8.17,4.96,2.95,10.44,4.72,16.01,6.1,12.09,2.74,24.31,4.78,36.37,7.65,8.96,1.96,17.95,3.9,27.09,4.79,10.71,1.3,21.37,2.59,32.1,3.24,9.26,.19,18.53,.03,27.7,1.56,14.78,.43,29.62,1.05,44.41,1.35,11.9-.51,23.65-2.78,35.32-5.05,19.51-4.18,40.18-7.4,56.42-19.85,1.65-1.81,5.03-.55,4.82,2-.04,.89-.5,1.63-1.2,2.15-2.4,1.75-4.85,3.41-7.3,5.1-9.95,7.22-21.7,10.82-33.51,13.71-18.24,4.07-36.71,8.3-55.48,8.53Z"/><path d="M248.77,247.76c-10.58-.22-20.67-3.91-31.2-4.24-6.6-.75-13.31-.97-19.81-2.41-2.53-.62-6.17-1.25-6-4.56-9.39-2.86-19.16-4.75-27.74-9.73-.91-.5-1.72-1.11-2.51-1.78-.42-.35,.13-1,.55-.64,3.82,2.57,8.52,3.57,12.84,5.06,14.86,3.7,30.07,4.82,45.28,5.47,11.27-.1,22.45,2.14,33.69,.54,6.9-.42,13.8-1.07,20.54-2.61,5.24-1.03,10.66-3.27,16.03-2.32v.02c3.71,1.01,4.47,6.38,1.24,8.47-2.9,1.85-6.44,2.4-9.65,3.56-10.65,3.79-21.98,5.63-33.26,5.16Z"/><path d="M241.41,236.02c-12.45,.04-24.9-1.61-36.82-5.26-4.64-1.72-10.48-1.96-14.08-5.61-.93,.34-1.87,.34-2.81,.11v.02c-.29-.08-.57-.16-.85-.26-1.62-.44-3.24-.92-4.84-1.44,2.08,3.64-.64,8.44-4.9,8.32-8.78-1.11-15.61-7.86-23.03-12.19-10.05-7.47-37.82-22.89-35.68-36.94-3.47-2.94-7-5.85-10.19-9.09-.97-1.02-1.74-2.18-1.91-3.63-.8-4.89,5.31-8.47,9.19-5.38,8.25,7.24,16.01,16.11,27.15,18.73,2.08-.4,4.23,.12,6.27,.54,4.53-5.5,12.69-1.94,18.59-1.11,6.12,1.32,12.14,3.07,18.24,4.46,16.61,3.75,33.5,6.01,50.39,8.04,4.6,.85,9.59,.56,13.94,2.34,3.58-3.47,8.85-2.57,13.45-2.69,16.76,.37,33.33,3.52,50.11,3.38,2.26-7.26,12.12-6.6,17.97-8.21,7.26-1.49,14.54-2.89,21.84-4.19,6.69-1.08,13.3-3.59,20.06-3.9,3.06-1.07,6.51-2.63,9.75-1.41,4.19,1.51,5.37,7.22,2.13,10.26-1.37,1.33-2.9,2.54-4.4,3.73-2.27,1.77-4.56,3.38-6.44,5.56-2.23,1.31-4.4,2.5-6.4,4.18-1.21,4.43-6.61,5.18-10.2,7-9.9,6.26-21.88,9.26-33.55,8.71-.73,4.97-6.31,5.21-10.31,5.26-1.12,1.44-3.03,1.62-4.71,1.89-16.93,3.79-34.58,6.88-51.93,5.39-4.21,3.9-10.68,3.14-16.03,3.4Zm14.58-12.37c-.32-.07-.65-.15-.97-.23-.05,.06-.11,.11-.16,.17l.35,.03c.26,.01,.52,.02,.78,.04Z"/><path d="M229.21,374.46c-6.45-.98-4.43-6.67-4.22-11.29,.3-8.26,.3-16.53-.04-24.77-.67-19.26-1.85-38.49-2.65-57.75-.53-13.49,.41-28.45-8.48-39.64-2.22-2.83-5.05-5.15-7.27-7.91-.71-1.72,1.1-2.38,2.49-1.56,16.8,6.57,22.05,24.18,22.31,40.75,.45,9.66,.96,19.31,1.33,28.98,.5,12.73,.97,25.46,1.54,38.18,.33,7.46,.6,14.92,.65,21.74-.23,4.73,1.23,13.29-5.67,13.26Z"/><path d="M254.15,375.63c-1.04-.67-1.68-1.69-1.97-2.87-1.38-5.42-1.92-11.04-2.3-16.61-.76-10.66-.9-21.35-1.52-32.03-.58-21.5-8.49-87.24,23.16-87.73,1.28-.14,3.43,.78,2.36,2.31-2.14,1.81-5.37,2.83-7.5,4.61-7.89,6.22-9.5,16.58-10.69,25.93-1.54,12.96-1.3,25.25-.6,38,1.05,15.96,1.81,31.95,3.38,47.87,.51,5.32,1.58,10.56,2.56,15.8,.88,3.76-3.66,6.96-6.87,4.72Z"/><path d="M228.68,430.88c-8.57-.14-18.41-1.76-26.45-3.37-15.22-3.22-31.17-5.74-44.7-13.84-20.36-12.24-23.83-30.81-1.28-43.07,12.44-7.95,26.93-10.95,41.19-13.78,7.69-2.1,15.48-4.1,23-6.75,.48-1.01,2.07-.57,1.94,.57-.07,.62-.52,1.03-.98,1.4-8.77,4.84-17.78,9.11-27,13-13.36,4.45-26.97,9.14-37.95,18.3-11.44,9.02,2.34,17.95,10.51,22.43,16.27,7.15,34.23,9.78,51.67,12.6,17.13,1.81,34.44-.01,51.52-1.66,10.75-.88,21.45-2.22,31.87-5.1,8.8-2.61,30.58-6.08,26.73-19.01-3.28-8.88-10.59-15.93-19.31-19.48-12.25-5.05-25.47-6.8-38.46-8.89-6.2-.95-12.43-1.65-18.59-2.83-1.56-.3-2.93-.99-3.89-2.29-3.09-3.9,.5-9.98,5.42-9.21,7.39,.92,14.77,1.97,22.13,3.12,16.96,2.88,35.3,5.11,49.36,15.81,13.15,9.98,23.39,30.78,7.5,43.15-7.47,5.56-16.62,8.2-25.54,10.47-11.06,3.08-22.38,4.93-33.82,5.79-14.91,1.54-29.87,2.76-44.87,2.63Z"/><path d="M226.46,411.14c-17.18-.85-59.08-7.15-68.51-22.15,.21-.34,.77-.21,.79,.16,.03,.07,.15,.19,.16,.23,8.83,8.35,21.05,11.28,32.57,13.98,18.64,4.43,37.89,4.84,56.93,3.67,20.73-.24,41.31-2.7,62.02-3.26,2.77-.01,2.91,4.37-.01,4.38-28.12,1.2-56.07,3.8-84.18,2.98l.22,.02Z"/><path d="M382.19,123.81c-3.15-5.01-6.87-9.86-12.45-12.28-9.29-4.54-18.78-7.5-28.83-9.44-8.75-1.81-17.64-3.86-26.34-5.74-18.02-2.61-36.23-5.3-54.33-7.07-26.98-.71-54.17-.68-80.9,3.2-12.78,1.59-25.69,3.33-37.81,7.75-8.23,3.48-19.56,11.39-21.7,20.43-.08,.59,0,1.4,.7,1.52h0c.32-.16,.79,.2,.56,.6-.42,.72-1.62-.14-1.98-.45-2.36-4,2.67-9.99,5.28-12.9,12.29-13.77,31.23-16.32,48.53-18.92,16.87-2.39,33.8-4.49,50.87-4.48,14.09-.28,28.25-1.25,42.31,.11,22.14,2.6,44.9,4.59,66.6,9.45,19.1,3.99,42.56,6.9,52.99,25.62,1.56,2.27-1.69,4.88-3.48,2.6Z"/><path d="M135.34,124.59c-3.08-1.81,1.62-6.31,2.65-8.4,14.85-19.53,63.25-19.84,86.3-18.62,1.6,.13,3.24,.16,4.83,.33,.53,.14,.34,.97-.15,.83-1.2-.12-2.47-.17-3.63-.24-22.21-.14-58.39,.84-76.81,13.48-3.34,2.33-6.2,5.3-8.41,8.71-1.33,1.53-2.15,5.1-4.77,3.91Z"/></svg>