<?xml version="1.0" encoding="UTF-8"?><svg id="Ebene_1" xmlns="http://www.w3.org/2000/svg" viewBox="0 0 500 500"><path d="M362.6,236.95l-.02,.02-.06,.06,.08-.08Z"/><path d="M362.6,236.95c.05-.05,.1-.1,.15-.15-.06,.06-.11,.12-.17,.18l.02-.02Z"/><path d="M202.45,432.27c-.26-.18-.52-.36-.77-.54-.27-.22-.54-.45-.8-.67-1.77-1.56-3.53-3.12-5.3-4.68-1-.91-1.98-1.84-2.96-2.78-.43-.42-.84-.87-1.28-1.27-.56-.51-1.09-.91-1.77-1.23-.29-.13-.58-.22-.88-.29-5.51-7.77-10.36-16.02-14.97-24.36-9.14-17.58-17.61-35.61-23.92-54.42-3.41-9.34-6.56-18.8-9.18-28.41-.38-2.19-.78-4.39-1.18-6.58-1.23-6.76-2.5-13.51-3.51-20.31-.47-3.94-.99-7.91-1.19-11.88-.2-3.93-.35-7.84-.42-11.78,.06-5.71,.26-11.4,.55-17.1,.15-2.9,.24-5.8,.47-8.7,.06-.72,.12-1.44,.19-2.16,2.36,4.01,5.43,7.67,8.52,11.09,.04,5.9,.17,11.8,.21,17.71,.06,6.55,.26,13.11,1.26,19.59,4.68,28.62,14.47,56.69,26.35,83.08,6.81,15.21,14.33,30.13,23.62,44.01,3.06,4.44,6.19,8.85,9.52,13.09,2.44,2.96,.83,7.38-2.32,8.77-.08-.05-.17-.11-.26-.17Z"/><path d="M333.51,410.38c-2.66-1.56-3.65-5.14-2.05-7.81,2.71-4.53,5.64-8.93,8.36-13.45,4.17-6.93,7.93-14.09,11.22-21.47,10.83-25.71,19.39-52.71,22.28-80.53,.61-13.71-.19-28.18-1.29-41.69,.07-1.7-.51-6.16-.72-10.57,2-1.93,4.03-3.82,6-5.77,1.06,4.47,2.09,8.95,2.8,13.5,2.78,16.39,4.49,33.07,3.47,49.7-2.74,22.96-8.63,45.6-17.03,67.13-5.15,14.27-11.89,27.95-20.12,40.69-2.75,3.67-5.08,11.07-9.98,11.07-.89,0-1.86-.24-2.94-.8Z"/><path d="M230.42,441.81c-8.43-1.5-16.54-4.2-24.48-7.34-1.18-.69-2.33-1.43-3.48-2.2-.26-.18-.52-.36-.77-.54-.27-.22-.54-.45-.8-.67-1.77-1.57-3.53-3.12-5.3-4.68-1-.91-1.98-1.84-2.96-2.78-.09-.09-.18-.18-.27-.27,.87-2.94,3.87-5.27,7.65-3.75,2.79,1.31,5.71,2.3,8.55,3.49,14.19,6.6,29.82,8.66,45.27,9.9,8.39,1,16.96,1.44,25.31-.13,5.29-1.22,10.46-2.85,15.66-4.4,6.53-2.31,12.07-6.65,17.86-10.36,5.44-3.57,10.06-8.15,14.36-13,2.23-2.34,3.92-5.56,7.2-6.55,1.83-.61,4.29,.03,5.58,1.48,5.71,6.02-4.45,18.13-9.19,22.25-16.06,14.09-41.35,23.7-62.66,24.47-.44,0-.88,0-1.32,0-12.26,0-24.38-1.63-36.2-4.93Z"/><path d="M202.65,432.41s.09,.06,.13,.09c-.04-.03-.08-.06-.13-.09Z"/><path d="M139.45,307.03c-.68-3.74-1.37-7.46-2.02-11.2,1.87,2.67,3.82,5.3,5.78,7.95,1.92,3.22-.15,6.56-3,7.48-.25-1.41-.51-2.82-.76-4.24Z"/><path d="M137.84,281.65c-1.11-.31-2.04-.98-2.7-1.89-.17-1.64-.3-3.28-.39-4.92-.2-3.93-.35-7.84-.42-11.78,.02-1.77,.05-3.54,.1-5.3,2.52,5.43,5.26,10.76,8.59,15.74,2.82,3.32,.2,8.35-3.79,8.35-.45,0-.92-.06-1.4-.2Z"/><path d="M361.77,273.91c-.15-8.27-3.2-9.53-7.88-2.45,.07,.81-1.2,1.06-1.42,.24-.16-.58,.26-1.13,.52-1.61,2.27-3.9,6.61-8.57,9.96-2.83,.93,2.15,2.28,5.27,1.45,7.56-.79,1.11-2.68,.47-2.64-.9Z"/><path d="M344.52,280.8c-1.06-.81-.41-2.26-.57-3.39-.12-1.7-.65-3.38-1.53-4.79-2.14-3.2-5.68-.98-6.43,2.02-.23,.41,.02,1.12-.58,1.18-.87-.2-.15-1.41-.02-1.95,1.51-4.24,6.35-5.57,8.91-1.42,1.27,1.71,5.35,10.17,.22,8.35Z"/><path d="M324.19,285.32c-.7-.51-.66-1.37-.68-2.14-.27-2.09-.48-4.27-2.13-5.67-2.29-1.31-4.86,1.17-6.52,2.61,.15,.24-.04,.52-.24,.65-.53,.65-1.42,1.07-1.76,.02,.04-1.88,1.87-3.24,3.17-4.39,.18-.17,.37-.33,.57-.47,.81-.38,1.62-.77,2.43-1.17,1.74-.44,3.58-.11,4.88,1.38,1.88,2.06,2.46,4.97,2.97,7.63,.18,1.05-.76,1.9-1.72,1.9-.34,0-.68-.11-.97-.35Z"/><path d="M316.38,307.37c.37-.72,1.03-1.43,1.11-2.28,.33-2.37,2.34-4.06,4.09-5.52,4.45-3.75,8.09,1.5,8.3,5.84,.24,2.86-4.03,2.87-3.79,0,.16-1.53,.27-3.5-1.02-4.58,.05,.04,.08,.06,.13,.09-.33-.26-.78-.39-1.13-.35-2.15,.5-4.3,1.85-5.54,3.65-.3,1.16-.47,2.37-1.32,3.29-.14,.45-.87,.36-.82-.16Z"/><path d="M350.22,306.53c-1.55-.43-2.39-2.18-1.77-3.66,.75-1.51,.83-3.96-.87-4.84,.08,.03,.13,.05,.21,.07-2.63-.72-6.41,3.74-7.65,5.75,1.42,1.98-2.05,2.98-2.29,.66,.41-3.06,3.11-5.41,5.15-7.56,3.77-4.05,8.77-2.05,10.12,2.99,.91,2.55,1.07,7.39-2.9,6.6Z"/><path d="M330.5,331.74c-.16-2.07-.09-5.42-2.58-6.03,.04,0,.07,0,.11,0,.04,0,.07,.02,.11,.03-1.21-.14-2.55,.82-2.94,1.91,.06,.04,.15,.05,.21,.03,.26-.11,.64,.05,.58,.42-.17,.62-1.01,.43-1.39,.13-1.24-.38-.79-2.31-.34-3.13,2.76-4.72,8.14-1.91,9.44,2.41,.53,1.78,1.4,3.36,.72,5.01-.91,1.7-3.75,1.17-3.92-.78Z"/><path d="M345,330.11c-2.01-1.09,1.37-4.92,3.09-4.46,1.75,.02,4.35,2.67,2.12,3.9-.84,.38-1.86-.22-1.97-1.13-.03-.23-.11-.49-.23-.66-.8-.77-1.84,.53-2.24,1.15,.88,.52,.05,1.5-.77,1.2Z"/><path d="M162.62,284.56c-.88-3.25,3.61-10.39,7.06-10.92,2.96-.97,10.61,3.24,7.2,6.53-1.09,.84-2.68,.51-3.38-.66-.5-.9-1.08-1.8-2.04-2.27-3.45-1.45-7.03,3.92-7.99,6.71,.63-.16,.68,.75,.17,.97-.36,.22-.84,.02-1.01-.36Z"/><path d="M170.82,302.52c0-.22,.19-.41,.41-.41s.41,.19,.41,.41-.19,.41-.41,.41-.41-.19-.41-.41Z"/><path d="M169.51,303.08c-3.78-1.38-.81-5.25,.8-7.26,2.11-2.94,5.99-3.95,9.2-2.2,1.69,.69,1.36,3.34-.47,3.54-.96,.16-1.61-.58-2.26-1.15-1.97-1.67-4.54,.08-6.11,1.44-1.04,1-2.33,2.28-2.22,3.81,.45,.71,1.32,.95,1.99,1.43,.45,.07,.43,.81-.07,.81-.31,0-.61-.28-.86-.43Z"/><path d="M221.61,399.79c-.62-2.61-1.49-6.55-4.79-6.64-2.76,.39-5.42,3.4-5.22,6.2,.98,.27,.53,1.85-.45,1.54-1.63-.53-1.46-2.76-1.17-4.08,.95-4.39,5.87-8.67,10.31-6.06,2.38,1.23,8.72,8.78,4.57,10.61-1.29,.56-2.87-.18-3.25-1.57Z"/><path d="M221.99,420.15c-1.98-.21-2.02-2.17-1.09-3.53,1.53-2.54,4.44-4.26,7.42-4.24,2.07-.02,4.13,.67,5.89,1.74,2.64,1.68-.27,5.46-2.57,3.33-2.63-2.94-7.67-1.92-9.58,1.29,1.17-.14,1.08,1.65-.06,1.41Z"/><path d="M295.58,363.84c-5.78-.84,3.3-11.84,6.64-10.99,1.96,.13,3.39,1.74,4.45,3.26,.91,1.67,2.9,3.45,2.2,5.5-.54,1.39-2.45,1.89-3.61,.95-1.16-.84-.82-2.35-1.11-3.58-.35-1.32-.89-2.98-2.25-3.51l.02-.02c-2.34-.14-6.85,4.65-6.7,6.9,1.31-.36,1.77,1.46,.36,1.5Z"/><path d="M298.72,377.72c-1.14-2.46-4.25-2.98-6.46-1.78-.51,.26-.95,.56-1.29,.98-.11,.19-.41,.56-.1,.65,.62,.28,1.86-.29,2.04,.51,0,.22-.19,.41-.41,.41-1.43,.08-3.26-.08-2.44-2.01,2.22-3.93,7.98-3.67,11.01-.83,1.9,1.62-.98,4.17-2.36,2.07Z"/><path d="M176.01,323.76c-.98-1.16-.22-2.95,.06-4.27,1.11-3.71,3.34-8.35,7.79-8.43,2.86-.15,8.24,2.33,6.01,5.79-.91,1.23-2.8,1.33-3.88,.29-.82-.79-1.75-1.69-2.99-1.43-2.82,1.04-4.64,4.04-5.62,6.73,.51,.7-.66,2.05-1.37,1.32Z"/><path d="M197.76,300.93c-.45-2.18-1.96-5.27-4.59-4.81-1.02,.35-2.04,1.3-2.1,2.41,.01,.05,.02,.09,.03,.14h0c1.12,.49-.05,2.02-.81,1.1-.28-.3-.46-.64-.56-1.04-.57-3.51,3.95-6.13,6.78-3.98,1.56,.86,5.72,5.82,3.18,7.11-.75,.32-1.71-.1-1.91-.93Z"/><path d="M204.18,289.21c-1.4-.39-1.47-2.15-2.6-2.92-.83-.73-2.09-1.16-3.11-1.23-1.2-.27-7.62,.97-5.68-1.62,.23-.63,1.13-.51,.97,.2,2.82-.53,5.78-1.52,8.55-.21,1.61,.89,4.11,1.84,4.36,3.88,.04,1.27-1.29,2.27-2.5,1.91Z"/><path d="M236.69,404.5c-.5-.18-.92-.52-1.39-.77-.77-.47,.03-1.66,.74-1.09,2.88,2.87,6.99-12.07,15.21-5.82,5.38,3.97-1.91,10.28-4.59,4.26-.92-4.69-7.54,4.17-9.96,3.42Z"/><path d="M139.02,278.28c-.29-.32-.47-.81-.49-1.21-.29-2.56-.54-5.16-.45-7.75-.8-3.43,.11-7.16,.29-10.67-.03,0-.05-.02-.08-.02-.28,.6-.86,1-1.56,.94-2.38-.24-1.24-5.09-1.61-6.86-.28-9.87,.82-19.79,3.29-29.34,2.75-9.03,5.95-18.35,11.2-26.18,1.05-.91,2.86-.42,3.23,.93,.32,2.49-1.36,4.89-1.9,7.3,5.73-.79,.92,9.51,.63,12.38-2.32,8.77-4.5,17.57-6.31,26.46-1.03,9.4-1.8,18.84-2.59,28.27-.25,2.09-.13,8.34-3.63,5.75Z"/><path d="M378.04,245.83c-1.17,.1-1.47-1.33-1.85-2.18-1.39-3.57-2.58-7.22-3.51-10.94,.47,2.54,1.13,5.05,1.72,7.56,.42,.89-.62,2.09-1.36,1.11-2.53-7.86-4.16-16.15-6.31-24.11-1.98-1.03-1.35-3.86-2.06-5.69-.63-1.26-1.6-2.68-.61-4.03-.42-2.45,1.72-5.06,4.25-4.88,5.03,.99,8.42,22.98,10.14,28.23,.82,3.48,1.67,6.45,2.34,9.88,.63,2.49,.84,5.75-2.75,5.06Zm-9.27-26.31l.02,.07c-.14-.76-.21-1.54-.6-2.23h-.05c.22,.73,.43,1.44,.63,2.16Z"/><path d="M340.88,223.49c-1.46-.54-2.3-2.28-1.71-3.75,1.66-3.66,3.37-7.28,5.07-10.92,7.3-15.43,15.7-30.72,18.48-47.69,1.79-12.19,2.15-26.79-10.37-33.38-13.91-7.53-30.1,1.47-41.51,9.78-5.47,3.88-9.95,8.89-14.7,13.57-4.23,3.95-8.05,8.29-11.76,12.72-1.39,1.66-2.59,3.61-2.63,5.83,.49,1.4-1.86,1.53-1.5,.07-1.25-3.43,.49-6.89,2.46-9.7,2.74-3.98,5.6-7.89,8.94-11.4,9.2-10.57,19.92-20.53,33.4-25.18,13.54-5.86,31.39-3.57,39.16,10.11,8.39,16.37,1.09,42.17-6.16,58.08-3.1,6.76-6.49,14.02-9.54,20.63-.81,1.82-1.47,3.24-2.17,5.04-1.09,2.5-1.67,7.4-5.46,6.2Z"/><path d="M341.8,235.94c-.52-.77-.49-1.78-.56-2.67-.2-4.53-.25-9.07-.69-13.6-.55,0-.52-.87,.03-.82,2.69-.55,1.85,13.14,2.65,15.45,7.07-6.22,10.31-15.46,14.61-23.59,5.96-10.58,9.8-22.69,11.22-34.65,.99-7.29,2.78-14.71,.82-22-2.67-8.38-7.74-15.76-13.53-22.25-1.85-1.87-5.76-3.41-3.65-6.61,.94-1.37,2.92-1.68,4.27-.72,4.8,2.97,7.97,7.86,11.5,12.15,7.71,9.49,10.08,22.29,8.78,34.23-.5,19.23-7.29,31.21-17.9,46.57-2.59,3.72-12.67,22.12-17.56,18.5Z"/><path d="M282.04,166.31c5.09-13.53,17.04-23.23,28.4-31.54,13.9-14.15,44.23-22.88,53.85,.19,.48,1.45,.27,3.75-1.68,3.8-1.64-.09-2.39-2.03-3.46-3.06-6.22-9.06-13.28-12.36-24.06-9.24-11.19,2.51-20.43,9.63-27.99,17.97-5.65,5.36-11.38,10.53-16.76,16.14-1.94,1.45-3.77,6.61-6.56,3.98-.34,.64-.67,1.21-.94,1.83-.02,.25-.21,.36-.41,.36-.22,0-.44-.15-.41-.43Z"/><path d="M305.66,219.51c-9.61-2.8-23.54-11.39-27.18-21.05-.8-.47-1.13-1.46-.83-2.35,.75-6.13,3.91-11.63,7.13-16.85,1.72-3.69,4.06-6.96,6.47-10.21,.52-.65,1.3-1.78,2.24-1.39,2.73-2.31,6.46-1.86,9.71-1.2,6.09,1.05,10.78,5.17,16,8.02,2.59,1.46,5.07,3.12,7.57,4.73,4.42,2.7,9.62,4.93,12.31,9.6,2.18,5.37-1.74,10.99-4.38,15.51-5.81,9.62-17.29,18.45-29.04,15.19Zm4.92-3.62c11.76-.6,22.81-12.25,24.97-23.42-.53-5.11-10.51-7.57-14.36-10.38-5.8-2.81-11.19-6.59-17.23-8.85-2.27-.51-4.61-1.29-6.94-1.19-1.36,.67-2.47,1.74-3.6,2.73-5.08,6.09-8.59,14.24-11.69,21.47,2.4,8.83,20.02,19.16,28.85,19.63Z"/><path d="M343.34,234.43c-1.13-.43-1.47-1.65-2.09-2.58-2.8-4.31-5.67-8.81-9.47-12.08-1.63-1.29-3.53-2.14-5.32-3.15-2.65-1.41-1.34-5.54,1.63-5.2-.49-.42-.76-1.38,.02-1.65,3.19,.39,5.73,3.41,7.87,5.67,3.8,4.04,6.26,9.08,9.09,13.77,.55,1.03,1.36,2.12,1.23,3.35-.12,1.4-1.63,2.39-2.96,1.86Z"/><path d="M250.56,260.4c-6.94-.84-13.95-1.58-20.77-3.18-6.96-1.62-13.37-4.93-20.22-6.91-13.39-4.48-26.96-9.49-38.4-17.93-10.48-8.5-20.79-20.07-20.24-34.4-.13-1.18,1.49-1.5,2.05-.61,2.8,3.52,4.81,7.57,7.34,11.27,12.77,16.78,33.12,24.47,52.51,30.8,6.01,1.6,11.6,4.38,17.56,6.1,8.93,2.23,18.16,3.39,27.33,4,14.96-.04,30.14-1.79,44.82-4.46,17.68-4.72,36.37-9.84,49.95-22.78,4.09-4.14,8.98-7.9,11.77-13.06-.8-2.63,1.04-5.64,3.96-5.36,2.51,.22,4,2.78,3.21,5.1-1.09,2.22-2.26,4.43-3.78,6.39-18.61,22.86-36.69,31.37-64.68,38.68-17.24,3.31-34.76,7.86-52.43,6.35Z"/><path d="M265.27,275.36c-29.49,0-52.8-1.56-77.61-19.49-6.91-5-14.36-9.09-21.07-14.34-7.89-6.6-15.88-13.88-20.61-23.13-.62-1.4,.51-2.72,1.95-1.55,4.03,4.09,7.84,8.34,12.08,12.21,7,6.86,14.88,12.83,23.31,17.76,10.88,8.04,22.67,14.96,35.64,19.03,10.36,2.66,20.99,4.38,31.66,4.41,9.04,.53,17.88,.97,26.85,.11,24.82-3.44,48.56-12.84,69.64-26.24,2.94-2.12,5.8-4.34,8.18-6.58,1.55-1.18,2.61-3.35,4.66-3.58,2.22-.15,3.65,2.82,2.02,4.42-4.08,4.13-8.35,7.69-13.1,10.97-24.44,15.34-54.57,26.14-83.6,26.01Z"/><path d="M154.39,210.23c.06-.64,.2-1.23,.18-1.82-1.42-1.63-3.11-3.03-4.06-5.02-11.31-24.46,21.96-51.1,43.99-54.08,3.66-.71,7.38-1.07,11.11-1.02,1.54,.02,2.85,1.2,2.87,2.78-.02,2.79-2.75,2.98-4.81,2.98-5.11,.42-10.01,1.94-14.82,3.59-17.63,7.81-39.7,26.81-33.84,48.16,.59,1.45,.44,3,.2,4.51-.06,.52-.88,.43-.81-.1Z"/><path d="M127.1,336.75c-5.07-2.01-7.04-8.32-9.88-12.56-8.22-13.66-14.75-28.25-19.52-43.45-10.85-29.11-22.01-59.38-21.56-90.82,.44-12.7,2.29-25.38,5.47-37.69,.72-3.28,2.63-7.12,6.5-7.05,3.12-.14,5.68,1.87,7.78,3.96,2.83,2.58,5.58,5.25,8.45,7.78,4.58,3.84,9.07,7.79,13.5,11.79,6.24,5.38,11.31,10.48,17.52,15.04,3.23,2.39,7.57,.78,11.33,1.45,1.5-.29,9.55,2.91,6.72,4.33-5.8,2.31-11.72,5.56-18.02,5.85-7.16-1.31-12.26-7.32-17.68-11.66,.13,.11,.24,.22,.37,.32-9.91-8.85-20.16-17.33-29.86-26.4-7.84,22.25-7.56,46.69-1.94,69.28,4.14,15.6,9.01,31.13,15.05,45.94,7.01,19.47,15.18,37.98,27.06,54.79,4.28-3.66,7.96-7.95,12.16-11.7,4.86-3.9,11.48,2.59,7.65,7.52-5.01,4.58-13.82,15.03-21.09,13.26Z"/><path d="M120.17,324.57c-2.85-4.36,.36-6.8,4.01-8.75,3.76-3.85,8.32-7.46,12.64-10.54,2.07-1.14,7.54-7.05,8.96-2.87-.82,3.98-4.13,7.15-6.74,10.12-3.28,3.57-6.88,6.82-10.01,10.51-1.87,3.32-6.18,4.8-8.86,1.52Z"/><path d="M126.54,211.59c-7.45-4.55-12.5-12.11-19.25-17.58-9.57-7.94-18.87-16.72-26.28-26.68-1.35-2.26-.37-5.18,2.6-4.05,.17,.02,.33,.04,.49,.06,.52,.06,.42,.88-.1,.81-.31-.04-.72-.13-.93,.17,8.95,7.97,18.03,15.82,27.61,23.06,6.47,5,11.52,11.45,17.37,17.09,3.12,2.64,10.68-3.2,14.06-4.46,3.74-1.64,7.02-3.76,10.79-5.16,5.27-1.47,7.79,6.35,2.56,8.18-9.41,2.36-18.96,11.97-28.93,8.55Z"/><path d="M132.01,313.33c-2.88-.74-3.54-4.31-4.82-6.47-1.41-2.72-2.96-5.53-4.13-7.81-7.29-13.95-13.11-28.72-18.42-43.5,.04,.1,.08,.21,.12,.31-7.35-20.03-12.96-40.9-12.89-62.36-.26-6.27-.18-12.57,.33-18.82,.07-.52,.17-1.27,.66-1.58h0c1.61-.85,1.19,5.86,1.47,6.86,.9,12.51,1.85,25.13,4.31,37.44,5.96,25.46,17.36,49.35,28.86,72.68-.03-.06-.06-.11-.09-.17l-.04-.08c2.96,5.82,6.2,11.5,9.39,17.19,1.99,3.13-1.19,7.38-4.75,6.33Z"/><path d="M138.01,235.17c-2.13-.52-.44-7.25-.48-9.11,1.45-11.11,2.84-22.35,6.25-33.05,3.26-8.66,9.68-15.73,16.39-21.9,1.67-1.75,3.49-3.34,5.36-4.87,.61-.5,1.53-.43,2.08,.11,6.63-4.97,14.52-7.69,22.11-10.82,3.22-1.76,8.96-4.68,10.81,.23,3.97-1.54,8.36-2.06,10.42,2.31,1.12,3.2,1.22,7.51-1.7,9.8-1.04,.84-2.35,1.16-3.65,1.32-4.56,1.16-8.96,3.11-12.38,6.4-2.12,1.52-2.91,4.53-5.38,5.54-9.06,4.12-18.03,8.5-25.89,14.7-3.12,2.39-6.9,4.56-8.28,8.45h0c-.74,1.23-2.3-.14-2.92-.9-1.89,4.46-3.06,9.19-4.23,13.88,.08,2.95-2.5,5.48-5.01,3.01-.99,4.52-1.58,9.17-2.07,13.76,.06,.76-.74,1.29-1.43,1.13Z"/><path d="M209.83,202.29c-10.26-.41-19.81-16.88-20.99-25.94,1.05-1.94,3.05,.12,3.92,1.21,4.5,5.03,9.35,10.53,14.83,14.27,1.38,.9,2.77,1.84,4.23,2.61,1.65-.02,3.29,.22,4.93,.3,2.01-5.03,2.77-10.56,5.53-15.29,.82-1.74,2.5-3.36,2.62-5.3-.64-1.02-1.52-1.51-2.37-2.23-8.76-3.57-18.36-1.63-27.14,.59-6.95,1.87-9.92-8.48-3.04-10.55,11.33-2.97,27.17-4.33,34.67,6.59,3.59,6.06-.72,8.16-3.13,13.28-2.76,5.1-2.17,11.62-5.5,16.35-2.56,1.76-5.33,4.01-8.56,4.11Z"/><path d="M246.35,252.06c-.87-.5-1.3-1.36-1.33-2.29h-.02c.4-6.84,.37-13.72,.52-20.59,.04-6.04,.44-12.98-6.31-15.52-4.46-2.14-9.37-2.93-14.13-4.1-5.9-1.18-18.62-6.99-22.15,.21-2.31,5.78-3.76,12.16-5.05,18.17-.45,1.89-.32,4.23-1.92,5.58-1.73,1.4-4.45,.42-5-1.73-.46-1.93-.16-3.95-.04-5.91,.47-5.54,1.82-11.03,3.58-16.27,.88-2.67,1.97-5.44,4.09-7.36,.91-1.9,2.86-10.27,5.7-8.5-.02,0-.03-.02-.04-.03,.75,.29,.13,1.17-.49,.67-.74,1.8-1.09,3.77-1.59,5.65,10.1-3.36,20.3,1.55,29.89,4.45,8.15,2.41,17.73,7.23,17.89,16.92,1.06,.43,1.92,1.37,2.03,2.55,.62,6.76,.71,13.65-.42,20.36-.59,2.92-.56,9.62-5.2,7.75Z"/><path d="M240.15,184.21c-6.48-1.7-9.23-8.94-14.78-12.21-5.92-3.94-13.08-5.65-18.67-10.12-13.52-10.97,4.08-23.35,12.52-30.59-1.72-3.44,1.06-8.07,4.99-7.94,6.35,.6,12.86,1.13,18.94,3.17,7.01,2.36,17.23,11.34,12.03,19.2-.17,1.29,.54,2.49,.74,3.75,.49,3.72-3.26,5.86-5.7,7.94-.54,.42-.05,1.44-.06,1.9,2.47,6.31-.92,8.45-5.14,12.22-1.11,4.05,1.5,12.84-4.87,12.68Zm-.13-7.76c.74-2.21,.77-4.74,2.16-6.68,2.02-2.04,5.49-2.5,6.33-5.63,.58-2.1-1.23-4.06-.98-6.22,.43-3.23,5.56-4,6.14-7.29,.09-1.39-.89-2.55-1.03-3.91-.43-1.58,.83-3.04,.76-4.53-5.41-4.86-12.91-6.71-20.03-6.94-3.24-.21-6.49-.54-9.73-.73-.99-.06-1.99-.53-2.78-1.15-4.03,6.32-10.91,11.21-12.82,18.68,1.1,6.2,14.04,8.03,18.8,12.05,5.48,2.9,9.06,7.93,13.18,12.35Z"/><path d="M227.05,125.63c-1.1-1.76,2.05-2.14,3.14-2.64,6.28-2.74,12.85-4.48,19.55-5.77,3-1.09,3.88-4.64,6.08-6.71,1.45-1.54,3.09-3.01,5.04-3.9,3.81-1.78,8.08-.68,11.9-.59,3.51-1.67,6.55-4.52,10.59-4.98,3.64-.6,7.34-.11,11.01-.31,5.68-.49,10.55-1.76,15.88-3.02,4.12-1.02,8.14-2.37,12.01-4.11,1.11-.7,2.41-1.13,3.73-.76,2.56,.6,3.93,3.81,2.55,6.06-1.06,2.23-4.5,2.23-6.31,2.69-9.33,2.03-18.92,3.64-28.49,3.31-4.7-.41-9.78-1.99-14.07,.59-2.24,1.11-4.13,3.09-6.7,3.39-4.05-.11-8.88-1.38-12.06,1.85-5.33,5.03-4.94,10.63-13.83,11.3-5.48,.87-10.77,2.58-16.15,3.87-1.17,.21-2.84,.64-3.86-.26Z"/><path d="M266.84,139.57c-4.03-.33-8.12-1.15-11.88-2.62-.4-.2-1.02-.58-.93-1.1,.03-.38,.61-.57,.82-.26,15.93,2.67,17.78,.7,27.05-11.45,4.32-3.69,9.89-.62,14.65-2.4,3.44-1.82,6.11-4.82,9.93-6.03,5.16-2.58,7.57-8.9,9.77-13.66,1.52-3.19,3.47-6.16,5.15-9.27,1.92-3.61,7.76-2.93,8.75,1.06,1.07,4.31-3.72,7.06-5.52,10.48-4.33,7.7-10.93,14.58-19.88,16.35-2.78,1.38-4.82,4.11-8.04,4.68-3.62,1.08-7.43-.53-11.02,.47-3.11,1.52-3.95,5.49-6.3,7.86-3.04,3.7-7.68,6.25-12.54,5.88Z"/><path d="M221.46,127.59c-.55-.01-.98-.61-.61-1.07,.26-.36,.81-.11,.77,.26,3.85-2.28,7.03-5.82,8.55-10.01,.65-1.61,.88-3.36-.82-4.37-2.69-2.15-5.12-5.14-4.7-8.79,.1-2.58,1.55-4.91,1.65-7.47-2.33-4.46-8.39-5.78-10.95-10.29-3.33-5.07-5.15-10.94-7.61-16.45-1.25-2.96-3.13-5.57-5.29-7.93-.79-.91-.54-2.39,.38-3.11,3.05-1.89,4.74,2.93,6.34,4.77,4.27,6.58,5.93,14.85,11.51,20.56,4.24,3.29,10.68,4.81,12.44,10.49,1.55,3.57-1.58,7.75,.48,10.97,1.2,1.76,2.71,3.39,3.21,5.52,1.52,8.03-8.03,15.98-15.34,16.93Z"/><path d="M210.78,129.92c-10.39-2.99-28.91-6.43-19.76-21.11-8.25-4.52-7.26-14.81-6.28-22.8-.99-5.97-.49-12.12,1.59-17.84,2.03-5.54,6.92-9.37,11.57-12.68,2.22-2.09,4.6-3.21,7.27-1.08,3.13,2.41,5.79,4.6,8.39,7.41,1.11,1.09,1.16,2.98,.04,4.08-1.09,1.1-2.99,1.16-4.09,.04-2.31-2.4-4.8-4.58-7.35-6.72-10.85,5.72-15.7,14.59-13.76,26.76-.36,5.23-1.22,10.95,1.65,15.65,2.24,2.77,7.47,2.82,7.84,7.15,.3,1.85-.5,3.89,.3,5.64,6.93,3.45,13.97,6.59,21.18,9.39,2.33,1.01,8.25,1.33,8.22,4.55-.07,.29-.33,.43-.57,.41-5.16,1.79-10.88,2.54-16.24,1.16Z"/><path d="M222.76,88.21c-.19-.2-.38-.4-.56-.6-3.5,.52-4.5-6.51-5.89-8.89-1.36-3.31-2.94-6.53-4.72-9.64-.69-1.43-2.22-3.18-1.13-4.77-.88-1.37-2.74-2.22-3.06-3.84,.06-.52,.87-.43,.81,.09,.72,.91,2.6,1.76,3.57,2.93,2.46-.25,3.24,2.82,4.29,4.49,1.25,2.77,2.98,5.26,4.26,8.02,.87,2.14,1.63,4.3,2.99,6.19,1.01,1.9,4.57,3.64,2.53,6-.82,.83-2.27,.88-3.09,.03Z"/><path d="M161.12,164.35c-2.23-1.22-3.51-3.53-5.56-4.95-3.26-1.77-7.25,.59-10.68-.85-4.08-1.44-7.22-4.49-10.59-7.01-4.18-.85-8.78-.67-12.3-3.49-3.22-2.31-5.24-5.91-6.35-9.65-.91-2.95-4.11-19.69,2.43-16.62,5.49,2.84,9.79,4.44,15.61,1.37,6.2-2.34,9.71,.74,14.68,3.8,2.72,1.66,5.42-.26,7.96-1.28,4.06-1.54,8.47-.85,12.7-1.19,10.61-.85,20.23-7.16,31.03-6.64,4.27,.06,3.96,6.47-.31,6.08-7.59-1.44-14.81,1.93-22.16,3.19-6.32,1.73-13.11-.15-19.34,1.52-8.37,4.39-10.3,1.97-17.74-2.09-3.51-.94-6.75,1.47-10.06,2.27-4.42,1.18-8.7-1.27-12.48-3.29,.24,7.58,1.21,17.79,9.45,20.76,3.21,1.18,6.98,.68,9.88,2.66,5.15,4.3,9,7.75,15.96,5.2,2.8-.49,5.65,.61,7.63,2.58,1.92,2.11,3.67,4.59,6.78,4.85,2.83,.47,5.69,.62,8.53,1.11,.17-.05,.31-.21,.45-.28,.1-.11,.22-.21,.32-.32,.23-.46,.93-.05,.71,.42-1.38,1.6-3.41,2.36-5.5,2.58-3.63,.53-7.71,1.19-11.04-.74Z"/><path d="M180.99,146.96c-12.98-.5-26.12-1.57-38.29-6.37-7.6-2.67-15.78-3.88-22.78-8.08-4.74-2.92-.38-10,4.35-6.94,6.17,4.71,13.91,5.95,20.88,8.99,12.54,6.16,26.46,7.12,40.16,8.24,4.43,.18,9.22,.11,13.56-.07,2.81,.12,11.22-2.53,12.37,.34,.07,.24,.03,.47,.01,.71-.19,.69-1.03,.26-.79-.36-.05-.02-.14-.03-.18-.03-9.64,2.03-19.36,4.14-29.29,3.57Z"/><path d="M142.41,149.75c-.21-1.67,1.76-1.68,2.93-1.87,4.19-.66,7.87-2.9,11.71-4.52,.29-.23,.75,.07,.64,.43-1.15,1.65-14.92,9.91-15.28,5.96Z"/><path d="M156.37,154.88c-1.02-3.05,3.09-3.05,4.99-3.86,2.16-.75,4.21-1.78,6.17-2.83,.66-.46,2.67-1.2,2.3,.3-.51,.84-1.39,1.42-2.13,2.07-2.7,2.05-5.61,3.89-8.65,5.37-.99,.47-2.24-.06-2.67-1.05Z"/><path d="M172.4,159.23c-1.97-2.28,1.47-3.63,2.9-4.89,1.84-1.5,3.66-3.07,5-5.01,.14-.21,.27-.54,.36-.73,.3-.99,1.83-.82,1.93,.17-.42,4.35-4.85,7.26-7.47,10.45-.74,.74-1.97,.76-2.71,.02Z"/><path d="M221.05,130.87c-12.42-10.08-19.56-24.99-22.28-40.54-1.83-10.27-3.92-21.03-2.41-31.39h.01c2.17-1.58,1.78,2.62,1.95,3.81,.62,12.16,2.96,24.17,6.85,35.63,3.46,10.58,9.79,20.51,18.29,27.61,3.62,2.05,1.18,7.05-2.42,4.88Z"/><path d="M202.42,87.17c-.91-.31-.3-2.02,.39-1.01,2.42-1.61,3.39-4.65,4.71-7.08,.29-.6,1.11-.77,1.66-.45,1.34,.84,.09,2.25-.43,3.21-1.5,2.08-3.44,5.5-6.32,5.34Z"/><path d="M205.93,99.65c-.47,0-.56-.6-.19-.82,1.28-1.43,2.74-2.75,3.77-4.39,.62-.93,1.15-1.93,1.7-2.91,.51-.96,2.07-.78,2.34,.28,.18,1.3-1.21,2.39-1.85,3.36-1.51,1.74-3.22,3.36-5.35,4.27-.08,.14-.24,.23-.41,.21Z"/><path d="M236.97,174.22c-.35-5.42-2.65-10.07-4.79-14.93-4.05-9.64-7.05-19.7-8.64-30.03-.27-1.93,1.32-4.06,1.72-.87,3.74,13.39,9.96,25.78,15.2,38.59,.62,2.6,2.07,5.79,.86,8.34-1.19,1.69-4.13,.98-4.36-1.11Z"/><path d="M219,156.44c-3.76-1.5,6.99-13.31,9.28-13.9,.53-.24,1.25-.5,1.72-.03,.31,.31,.18,.9-.25,1.01-.94,.54-1.73,1.32-2.48,2.09-2.29,2.45-4.21,5.41-5.65,8.4-.51,1.12-.99,3.03-2.61,2.41Z"/><path d="M225.16,162.39c-3.78-.32,3.47-16.18,6.73-14.31,.77,.33,.48,1.47-.33,1.46-2.96,2.47-3.88,6.57-4.77,10.16-.15,1.08-.08,2.84-1.64,2.69Z"/><path d="M182.17,141.62c-2.42-4.43-5.41-8.45-9.07-11.86-.38-.31-.92-.59-.92-1.15,1.15-3.86,11.57,9.85,12.48,11.51,1,1.59-1.58,3.14-2.5,1.49Z"/><path d="M191.25,142.56c-1.32-5.36-3.48-10.43-5.85-15.36-.35-1.75,2.87-1.75,2.24,0,3.07,4.3,5.35,9.14,7.35,14.02,.4,1.01-.01,2.18-1.03,2.62-1.06,.46-2.38-.13-2.71-1.28Z"/><path d="M247.28,127.93c2.73-4.11,7.82-6.48,12.78-6.08,6.23,1.24,8.89,.11,12.57-5.1,5.57-9.88,14.43-6.49,23.63-7.43,2.67-.43,5.27-1.26,7.85-2.03,3.98-1.11,5.77,4.92,1.76,6.12-4.4,1.54-9.01,2.79-13.71,2.52-3.69-.03-7-.77-10.53,.11-3.46,1.61-5.1,5.45-8.2,7.57-5.1,4.16-8.43,2.97-14.09,1.26-3.73-.53-7.74,.63-10.62,3.02-.36,.47-1.38,1.06-1.44,.04Z"/><path d="M289.08,179.38c-5.54-4.6-10.43-10-17.01-13.19-5.01-3.12-10.5-5.94-16.53-6.08-2.16-.06-4.31-.08-6.44-.2-.89-.15-2.29,.46-2.56-.77-.2-1.72,1.8-2.49,3.11-3.01,9.27-3.45,19.45-2.74,28.19,1.86,7.21,2.67,12.9,7.93,18.58,12.91,4.86,4.91-1.73,12.63-7.35,8.5Z"/><path d="M247.33,231.27c-.57-2.91,1.28-5.44,3.47-7.15-.67-3.95,9.31-6.8,12.21-8.31,4.56-3.03,9.85-4.73,15.12-6.07,3.29-.79,6.04-1.34,9.25-2.05,1.69-.31,3.65-.68,5.14,.4,2.02,1.38,1.35,4.83-1.01,5.38h0c-6.61,.24-12.57,2.98-18.61,5.42-3.28,1.28-6.57,2.61-9.99,3.49-3.08,2.01-6.32,3.75-9.4,5.75-1.18,.82-2.25,1.8-2.26,3.33-.46,2.08-3.66,1.89-3.93-.2Z"/><path d="M325.28,239.85c-4.48-5.11-11.24-7.6-16.01-12.45-5.12-4.54-9.67-10.24-16.27-12.65-4.14-1.09-9.25-1.86-13.06,.49-.78,.38,.41,1.6-.67,1.58-.19-.04-.28-.2-.34-.37-.65-2,1.99-3.19,3.51-3.79,6.15-2,13.1-.89,18.54,2.52,4.76,2.71,8.71,6.54,13.29,9.49,5.09,3.76,11.38,5.72,16.07,10.03,3.3,3.38-1.65,8.43-5.06,5.15Z"/><path d="M281.3,209.78c-6.46-4-12.99-7.92-19.8-11.33-6.51-3.21-13.76-5.1-19.48-9.74-3.82-3.13-4.67-8.78-3.99-13.41,.27-.83,1.45-.76,1.66,.03,1.07,2.55,1.94,4.77,3.59,6.88,2.14,2.09,5.25,2.75,7.97,3.83,5.39,1.69,11.06,2.63,16.22,5.01,6.42,3.04,12.51,6.79,18.46,10.62,4.29,3.24,.37,10.23-4.63,8.11Z"/><path d="M241.07,227.95c-5-4-11.43-5.64-17.56-7.02-11.04-1.72-18.02-4.68-5.76-13.36,.33-.42,1.07-.17,1.06,.37-.1,.73-.9,1.08-1.37,1.57-1.63,1.68-4.1,3.44-4.48,5.76,.13,.35,.49,.62,.75,.79,3.67,2.07,8.01,2.11,12.02,3.1,5.84,1.53,11.92,3.38,16.64,7.29,1.07,.84-.3,2.46-1.3,1.5Z"/><path d="M307.58,243.25c-4.96-2.87-11.19-.93-16.07-4.11-3.97-2.1-7.72-4.79-12.14-5.87-6.33-1.6-14.34-1.46-18.7,4.05-.04,.29-.42,.54-.74,.4-.69-.34-.11-1.04,.15-1.48,7.6-10.2,22.58-6.22,31.81-.63,5.52,3.55,13.53,.62,18.37,5.24,.73,1.61-1.14,3.3-2.67,2.4Z"/><path d="M285.98,207.8c-.77-.59-.95-1.63-1.08-2.53-.06-.37-.11-.73-.15-1.1-.89-.44-1.57-1.37-1.96-2.24-.09-.2-.17-.39-.24-.59-1.17,.16-2.2-.91-2.06-2.07,.29-3.73,.58-7.51,1.7-11.1,.58-2.37,7.68-15.65,10.47-11.78,1.46-1.16,2.84-3.04,4.85-3.09,1.1-.49,2.78-1.02,3.68,.07,.61,.44-.17,.97-.69,.84-.56,.11-.91,.31-1.36,.59,.19,.86-.3,1.61-.85,2.21-1.29,1.54-2.63,3.05-3.83,4.66-3.71,4.65-4.83,10.8-5.36,16.55-.59,2.64,2.09,11.59-3.11,9.58Z"/><path d="M306.53,209.13c-8.7-3.16,6.95-16.09,9.03-20.29,1.04-1.49,3.06-5.39-.16-5.27-.41,.1-.76,.24-1.02,.55-.07,.7-1.16,.41-.93-.19,.68-1.6,3.17-2.06,4.44-.9,5.03,5.96-12.31,17.43-11.35,23.42-.04-.03-.07-.06-.11-.09,.16,.19,.64,.38,.81,.39,3.17,.22,6.1-1.47,8.95-2.63,3.63-1.75,7.52-2.93,11.33-4.2,1.3-.55,3.17-1.74,3.86,.24,.45,1.49-1.18,2.11-2.32,2.2-2.39,.64-4.76,1.34-7.1,2.14-5.06,1.63-9.94,5.4-15.45,4.64Z"/><path d="M179.32,217.98c-1.77-.72-.16-3,.08-4.28,1.32-3.8,3.53-7.33,6.65-9.91-4.27,2.16-7.91,5.4-11.3,8.7-1.03,.93-1.89,2.11-3.09,2.83-1.77,.46-1.71-1.36-1.25-2.53,2.14-11.13,11.13-18.99,20.75-24.02,.69-.46,1.07,.75,.27,.78-8.43,4.96-16.97,12-19.01,22.05,3.11-3.29,6.49-6.41,10.39-8.74,2.86-1.36,5.83-3.31,8.98-3.64,1.11,.31,.81,1.65,.09,2.23-3.85,3.42-8.27,6.65-9.9,11.77-.53,1.28-.92,2.61-1.27,3.95-.15,.6-.79,.96-1.38,.81Z"/><path d="M306.85,168.03c-1.41-2.66-3.01-5.22-4.86-7.58-.75-.83-1.42-1.91-2.58-2.1-.33-.11-.36-.64-.03-.77,.63-.08,1.28,.3,1.74,.72,1.9,1.81,3.28,4.09,4.81,6.21,.65,.98,1.28,1.95,1.88,2.95,.15,.26,.06,.6-.19,.75-.25,.15-.61,.08-.76-.19Z"/><path d="M311.13,170.87c-.47-8.07-2.62-15.78-4.74-23.52-1.1-.35,.1-1.89,.85-1.15,1.7,2.16,9.3,25.67,5.46,25.84-.72,.11-1.5-.42-1.57-1.16Z"/><path d="M318.81,172.81c-1.54-.47-.43-2.49-.36-3.47,1.26-6.5,1.3-13.17,1.19-19.77-.41-5.1-.24-10.53-2.38-15.22-.66-.44,.28-1.32,.67-.6,2.49,3.59,2.42,8.37,3.2,12.55,.61,6.98,.79,14.06-.09,21.02-.5,1.46-.08,5.82-2.23,5.5Z"/><path d="M325.45,172.28c-.5-.2-.7-.77-.52-1.26,1.83-5.15,3.47-10.23,5.37-15.31,1.5-4.76,2.77-9.77,3.68-14.61,.97-4.28,.96-8.87,2.53-12.98,.17-.54,1-.73,1.13-.06-1.73,12.24-3.44,24.6-8.32,36.07-.86,2.62-1.61,5.09-2.6,7.63-.2,.49-.79,.72-1.27,.52Z"/><path d="M324.91,176.73c-1.6-.87,3.93-6.64,4.61-7.93,6.23-8.12,10.95-17.28,17.25-25.34,2.16-2.78,4.24-5.63,6.71-8.14,.34-.34,.91-.35,1.25-.01,.37,.37,.34,1-.08,1.32-7.57,7.24-12.88,16.36-18.75,24.93-3.52,5.29-7.75,9.98-11.01,15.18Z"/><path d="M326.63,173.38c-.52-.17-.27-.77,.08-1.03,4.98-4.77,10.24-9.28,16.41-12.45,2.15-.78,18.59-13.2,17.29-6.83-1.4,1.68-4.01,2.03-5.86,3.19-5.95,3.46-12.13,6.58-17.96,10.25-3.08,2.05-5.77,4.62-8.91,6.57-.31,.17-.67,.4-1.04,.29Z"/><path d="M327.18,175.95c-.18-.29,.04-.73,.38-.75,6.44-2.36,13.09-3.96,19.75-5.59,2.33-.42,12.59-4.1,13.04-.83,.12,.83-.48,1.75-1.35,1.83-7.76,.46-15.1,2.64-22.68,3.89-2.82,.56-5.56,1.5-8.43,1.73-.29,0-.54-.03-.71-.29Z"/><path d="M349.61,189.16c-4.82-2.23-9.79-4.21-14.91-5.6-3.24-.93-6.77-1.48-9.67-3.24-.4-.3-.48-.75-.3-1.21,.25-.75,1.1-.2,.74,.46h0c8.69,1.61,17.53,2.79,25.64,6.52,2.16,.96,.6,4.19-1.5,3.06Z"/><path d="M347.48,203.25c-2.86-3.57-7.55-4.76-11.79-5.88-.49-.02-.97-.54-.56-.99,1.1-.5,2.5,.2,3.66,.34,3.33,.76,6.77,1.72,9.44,3.96,.77,.64,2.01,1.64,1.06,2.67-.51,.52-1.35,.45-1.8-.1Z"/><path d="M278.44,179.93c-8.27-6.94-17.76-8.14-27.76-4.34-2.21,.69-4.2,2.09-6.41,2.67-.68-.03-.56-.85-.49-1.33,.07-.55,.91-.42,.81,.12,11.36-7.36,24.54-7.72,35.16,1.14,1.12,.83-.19,2.58-1.31,1.73Z"/><path d="M274.55,161.03c-.44-.15-.81-.45-1.08-.83-3.52-.66-6.97-1.6-10.37-2.73-3.1-1.01-6.7-1.56-8.97-4.11-1.77-2.41-1.81-6.04-.68-8.73,1.12-2.13,3.62-2.78,5.83-3,5.01-.67,9.94,.69,14.86,1.03,6.51-.58,12.98,.56,19.09,2.74,2.88,.41,3.41,4.66,.71,5.76-1.22,.51-2.55,.31-3.83,.25-.36,2.43-3.55,3.81-4.62,1.09-.35,.58-.82,.99-1.42,1.3-.53,.28-1.08,.46-1.65,.6,1.74,.92,2.31,3.49,.73,4.86-.26,1.83-2.16,2.21-3.72,2.01-1.62-.06-3.32,.27-4.89-.22Z"/><path d="M322.74,179.2c-2.29-1.5,1.17-5.39,1.57-7.41,.02-.13,.01-.25,0-.33v-.05c-2.66-.17-5.57,.33-7.7,2.01,.68,.62-.66,1.17-1.03,.56-.55-.28-.43-.99-.11-1.41,1.58-2.32,4.51-3.2,7.18-3.47,3.94-.66,4.88,2.06,3.48,5.3,1.4,1.53-1.29,5.99-3.39,4.79Z"/></svg>