<?xml version="1.0" encoding="UTF-8"?><svg id="Ebene_1" xmlns="http://www.w3.org/2000/svg" viewBox="0 0 500 500"><defs><style>.cls-1{fill:#00010d;}</style></defs><path d="M270.17,403.83c-2.74-.21-5.32-1.14-7.59-2.66-2.11-.02-4.2,.31-6.28-.14-10.23-2.18-21.45-10.07-21.81-21.38-.43-1.76-2.6-2.31-3.88-3.4-9.34-5.93-8.33-19.39-1.09-26.6-.33-.6,.03-1.29,.15-1.91,.14-2.06-.22-4.14,.37-6.17,2.42-10.53,12.03-19.65,23.25-18.78,.66-.06,1.14-.59,1.57-1.04,2.08-2.67,4.09-5.47,6.91-7.42,6.25-4.06,16.03-5.43,21.4,.74,5.8-4.36,13.57-6.2,20.13-2.34,6.1,2.94,9.74,6.64,8.89,13.76,5.19,7.97,4.82,18.57,1.89,27.32-1.21,3.62-2.96,7.07-4.72,10.44-.19,.41-.4,.91-.29,1.36,4.7,12.32-.04,22.55-12.23,27.38-6.84,8.89-15.35,12.47-26.67,10.83Zm5.98-3.74c6.63-.75,12.9-3.59,17.97-7.83,5.45-2.39,11.62-4.95,14.06-10.77,1.58-3.27,1.8-7.07,1.08-10.55-.38-2.58-2.29-5.28-.69-7.77,1.7-3.38,3.24-6.78,4.45-10.33,2.61-7.75,2.65-16.98-1.74-24.08-.53-.7-1.2-1.36-1.22-2.29,.14-2.11,.52-4.22-.46-6.18-2.5-3.9-7.6-5.67-11.95-6.34-4.97-.31-9.41,2.14-13.42,4.77-2.78,1.29-4.5-2.01-6.79-2.91-4.08-1.58-8.91-.54-12.83,1.09-2.75,1.48-4.78,3.76-6.56,6.25-1.1,1.55-2.02,3.37-3.85,4.17-3.52,1.29-7.41,1.49-10.82,3.16-6.82,3.54-10.64,10.55-12.08,17.86,.67-.32,1.65-.82,2.36-.35,.42,.41,.02,.99-.46,1.1-.31,.14-.56-.11-.59-.37-.59,.13-1.1,.46-1.59,.79-.11,.29-.37,.5-.68,.54-5.94,5.81-8.15,16.31-2.23,22.86,1.89,2.43,5.07,3.4,6.94,5.75,.56,1.28,.34,2.76,.69,4.11,2.46,10.85,15.57,17.42,25.98,14.93,1.99-.42,3.48,1.14,5.22,1.76,2.91,.83,6.37,.72,9.21,.62Z"/><path d="M279.94,363.14c-2.98-.75-3.24-5.85-.39-6.98-7.48-10.49-14.02-21.64-20.31-32.89-.28-.78-1.49-1.78-.85-2.56,.46-.25,.97,.16,1.44,.2,.16,0,.39,.06,.46,.26,.21,.63-.56,.68-.98,.5,6.37,11.19,12.66,22.5,20.25,32.93,2.4-12.5,1.09-25.35,2.6-37.95,.24-.96,1.73-.7,1.61,.31-.11,1.75-.13,3.51-.09,5.26,.16,10.72,.02,21.68-2.64,32.12,6.77-.2,5.35,10.1-1.11,8.81Zm.98-1.15c3.84-.33,3.79-5.26,.14-5.76h0c.39,1.23-1.1,1.53-1.73,2.22-.79,1.28-.28,3.83,1.59,3.53Z"/><path d="M283.28,357.73c-.05-.2,0-.34,.09-.51,.08-.18,.25-.28,.43-.27h0c4.49-5.67,8.72-11.53,13.01-17.34,4.08-4.96,8.69-9.55,12.88-14.39,.93-.99,2.54,.34,1.72,1.45-3.04,4.22-7.09,7.58-10.58,11.42-5.83,6.03-11.1,12.59-16.22,19.24-.26,.41-1.01,1.15-1.33,.41Z"/><path d="M309.66,367.87c-8.22-5.73-17.7-9.19-26.83-13.15-.44-.16-.38-.87,.12-.87,.25,.02,.48,.15,.73,.15h0c.42-.16,.96-.12,.82,.49,7.44,3.34,15.27,5.94,22.21,10.26,1.04,.73,5.39,3.11,2.96,3.12Z"/><path d="M294.41,391.26c-4.16-10.16-8.68-20.19-13.37-30.09,.07-1.08,1.34-.11,1.11,.54,4.8,9.53,8.92,19.38,13.05,29.21,.21,.5-.58,.87-.79,.34Z"/><path d="M262.11,400.31c-.43-.22-.31-.96,.22-.88,4.59-9.39,6.02-20.06,10.83-29.39,1.51-3.22,3.13-6.43,4.18-9.82,.07-.22,.29-.37,.52-.31,.22,.05,.38,.3,.31,.52-1.37,4.25-3.37,8.25-5.16,12.33-2.94,6.78-5.02,13.86-7.34,20.85-.89,2.24-1.38,4.82-2.97,6.66-.17,.12-.4,.15-.59,.05Z"/><path d="M236.65,379.79c-.15-.36,0-.67-.06-1-.24-.08-.59,.13-.89,.15-.43,.03-.59-.59-.23-.79,6.25-2.74,12.08-6.25,18.33-9.02,8.62-3.98,17.75-6.83,26.17-11.26,.45-.28,.94,.45,.44,.74-14.31,6.69-28.92,12.73-43.13,19.66,.28,.34,.13,.84,.17,1.21,.19,.51-.59,.81-.8,.32Z"/><path d="M277.72,356.18c-11.67-1.94-23.09-5.11-34.94-5.98-3.8-.36-7.55-1.45-11.32-1.87-.52,.02-1.13-.08-1.53,.3h0s0,.06,0,.04c.11,.39,.59,.96,.05,1.23-.22,.09-.47-.01-.57-.23-2.81-4.88,12.1,.18,14.3-.23,9.58,.92,19.05,2.65,28.51,4.36,1.88,.34,3.78,.56,5.69,.74,.44,.05,.77,.48,.72,.92-.06,.45-.48,.76-.92,.71Z"/><path d="M265.1,412.8c-15.43-.4-30.26-9.44-38.98-21.95-4.28-7.7-6.71-16.41-8.25-25.05-.73-5.09,.43-10.27,1.31-15.24,2.15-11.02,5.32-22.19,11.65-31.56,.95-.8,1.37,1.28,.29,1-5.88,9.13-8.4,20-10.47,30.52-.87,4.9-1.79,9.87-1.41,14.84,1.2,9.12,4.07,18.16,8.98,25.93,5,6.3,11.53,11.81,18.63,15.53,19.67,9.14,45.41,3.71,56.59-15.72,3.84-5.12,7.65-10.37,9.18-16.67,.16-.59,.76-.96,1.37-.81,1.98,.63-.28,4.96-.54,6.41-9.26,21.84-23.47,35.31-48.36,32.78Z"/><path d="M310.04,384.61c-1.63-.34,1.07-5.31,1.24-6.59,3.31-10.52,4.55-21.52,4.03-32.47-.55-12.51-6.07-24.4-14.82-33.26-6.96-5.06-15.91-6.79-24.31-7.38-6.75-.71-14.19-1.42-20.58,1.16-11.26,3.99-22.14,10.37-28.72,20.61-4.03,6.04-5.59,13.26-6.66,20.33-.9,5.66-1.84,11.32-1.7,17.04,.18,.82-1.2,.9-.86,0-.2-6.31,1.04-12.53,1.92-18.76,.66-7.03,1.1-14.28,4.66-20.51,5.53-9.92,14.83-16.93,25.03-21.57,6.45-3.5,13.97-5.12,21.23-4.52,6.93,.32,13.69,2.11,20.3,4.1,5.29,1.4,11.08,2.5,15.05,6.59,11.06,10.7,12.6,27.42,11.57,42.01-.37,11.22-1.62,22.45-6.42,32.73-.14,.38-.58,.59-.96,.49Z"/><path d="M307.21,386.28c-.19-.1-.28-.34-.2-.53,.62-1.43,1.26-2.82,1.85-4.27-.53-.14-.38-.83-.35-1.25-.19-.06-.3-.27-.29-.46,.73-4.28,1.45-8.58,1.88-12.91-.22,.44-.91,.39-.97-.14-.26,.38-.97,.27-.91-.25,.07-.3,.2-.75,.59-.71,1.18-2.33,.62-6.04,2.58-8.06,.52-.22,.92,.24,.98,.73,.02-.22,.04-.45,.05-.68h0c-.52-.3,.04-1.2,.54-.98,1.7-4.27,1.58-8.86,2.07-13.31,1.81-1.32,1.59,4.99,1.61,5.97,.28,.15,.27,.51,.26,.8-.2,3.34-.73,6.68-1.31,9.98-1.31,6.97-2.83,14.08-5.51,20.61-.75,1.77-1.45,3.58-2.29,5.31-.13,.19-.38,.27-.59,.15Zm4.03-22.92c-.14,2.94-.54,5.86-.92,8.77,.96-2.99,.82-6.18,1.1-9.28-.07,.17-.19,.32-.18,.51Zm3.91-10.05c-.32,3.27-.82,6.53-1.27,9.79,1.16-5.65,2.28-11.42,1.79-17.2-.08,2.38-.28,4.75-.66,7.09,.08,.08,.14,.19,.15,.32Zm-4.41,8.09c-.03,.14-.06,.28-.09,.42,.1-.05,.21-.05,.32-.02,.52-.92,.74-1.95,.61-2.97h0c-.33,.81-.63,1.69-.83,2.57Z"/><path d="M270.78,173.22c-.22-.06-.37-.3-.31-.52,.98-3.48,1.97-6.95,2.97-10.43,3.1-11.96,7.99-23.44,9.56-35.75-.44-.01-.54-.67-.15-.82h-.02c2.89-2.07-1.67,12.97-1.75,14.28-1.42,6.04-3.97,11.74-5.51,17.73-1.34,5.1-2.84,10.13-4.26,15.21-.06,.22-.3,.37-.52,.31Z"/><path d="M284.99,126.05c-1.45-.37-2.3-1.81-2.59-3.2-.79-.21-.61-1.19-.41-1.78-.21-.2-.13-.58,.14-.7,.47-.18,.7-.7,1.18-.9,1.83-.8,4.18,.15,5.39,1.64,1.75,2.48-.84,5.93-3.72,4.93Zm1.35-.73c1.04-.08,1.79-1.1,1.86-2.06,.14-1.92-2.63-2.91-4.14-2.42-.7,.35-.58,1.13-.85,1.71h0c.24,1.53,1.44,3.04,3.12,2.77Z"/><path d="M263.65,171.93c-13.48,.78-24.96-13.39-19.55-26.18-1.84-1.97-4.72-3.07-6.09-5.58-4.34-8.66-2.45-19.73,2.25-27.88,.65-.98,3.75-5.99,4.72-4.8,.09,.21,0,.44-.19,.54-.65,.48-1.17,1.12-1.69,1.71-6.29,8.05-8.74,20.04-4.6,29.55,1.33,2.52,4,3.81,6.09,5.59,1.02,1.32-.32,3.05-.43,4.47-.77,4.11,.18,8.53,2.52,11.95,2.86,4.2,7.22,7.32,12.39,7.52,3.27,.2,6.53,.55,9.58-.89,.69-.24,1.49,.2,1.76,.85,.87,2.87-4.89,3.31-6.76,3.12Z"/><path d="M278.34,175.32c-3.19-.04-6.24-1.68-8.55-3.73-.33-.46-1.29-1.21-.64-1.74,.36-.19,.98,.11,.79,.57,5.92,6.65,19.55,2.5,26.21-1.2,2.39-1.67,4.38-3.57,6.1-5.85,2.35-.98,5.05-1.23,7.14-2.82,7.14-5.13,8.8-14.42,8.37-22.64,2.43-6.4,3.56-13.19,3.03-20-.21-2.1-.48-4.31-1.43-6.18-.65-1.44-1.91-2.45-2.66-3.81-.22-.56,.1-1.17,.32-1.68,2.66-5.54,.38-11.87-1.75-17.14-.93-1.94-2.79-3.29-4.88-3.68-1.85-.38-3.8,.44-5.58-.26-2.07-1.08-3.36-3.21-5.23-4.36-5.35-2.87-12.14-3.23-17.64-.55-1.23,.64-2.2,1.62-3.14,2.6-1.12,1.47-2.97,1.88-4.65,1.18-1.96-.63-4.02-.72-6.07-.57-10.68,.67-19.58,8.91-21.66,19.25-.19,.85-.04,2.33-1.31,2.35-2.26-.3-.65-3.89-.38-5.29,3.66-12.98,17.88-22.16,31.19-18.83,6.13-7.37,17.15-7.55,25.1-3.11,2.26,1.16,3.58,3.31,5.72,4.38,4.64,.18,9.31,2.51,10.26,7.41,1.71,5.73,3.46,12.09,.51,17.7,.4,1.51,2.64,3.15,3.1,5.11,2.36,8.39,.98,17.51-2.01,25.56,.05,5.06,.04,10.3-2.25,14.97-2.44,6.04-7.41,9.81-13.68,11.14-4.68,8.54-15.11,11.69-24.35,11.21Z"/><path d="M281.17,185.2c-10.61-.75-22.57-1.62-30.3-9.82-5.99-5.37-12.27-10.77-15.81-18.16-4.56-10.43-8.1-21.74-7.89-33.22,.86-12.13,5.1-24.75,13.86-33.45,3.79-3.89,8.48-6.72,13.14-9.43,8.51-6.18,18.45-10.07,28.95-11.08-1.07-2.58,4.59-1.65,6-2.02,4.38-.25,8.25,2.31,12.18,3.9,4.51,2.16,9.64,3.42,13.1,7.27,7,7.73,9.56,18.43,10.23,28.6,3.69,33.8-2.78,73.5-43.46,77.44Zm2.27-3.65c34.83-3.13,42.69-36.43,40.44-66.08-.27-12.63-1.93-26.87-11.64-35.95-2.48-2.02-5.38-3.1-8.29-4.23-3.82-1.67-7.62-3.4-11.56-4.73-.13,.35-.72,.38-.83-.01-9.25-.28-18.44,2.38-26.88,5.97-5.14,2.83-9.9,6.28-14.88,9.36-9.7,6.23-15.93,16.31-18.63,27.33-4.62,15.36,.06,32.37,7.43,46.08,3.48,5.22,8.01,9.1,12.86,12.92,2.86,2.28,5.85,4.67,9.41,5.7,7.38,2.02,14.92,3.68,22.56,3.64Z"/><path d="M243.04,150.08c-.06-.14-.07-.32,.02-.46,2.23-1.84,4.84-3.28,7.27-4.88,7.26-4.41,14.5-8.87,21.65-13.46,4.09-2.65,7.9-5.51,11.96-8.17,2.6-.09-3.18,3.01-3.67,3.5-11.65,8.49-24.48,15.33-36.43,23.4h0c-.08,.39-.66,.44-.81,.07Z"/><path d="M283.36,121.16c-7.02-2.52-14.37-3.86-21.15-7-6.07-2.37-11.37-6.4-17.42-8.77-.64-.28,.03-1.19,.53-.75,8.73,3.93,16.72,9.72,26.19,11.89,1.02,.44,15.93,3.53,11.86,4.63Z"/><path d="M285.5,123.85c-1.86-1.98-1.4-5.27-2.07-7.79-.77-5.8-1.87-11.56-3.38-17.19-1.23-5.19-3.51-9.93-5.12-14.97-.14-.76,1.06-.67,.9,.05,5.3,12.37,7.33,25.6,10.35,38.6h0c4.82-8.65,10.54-16.88,15.03-25.68,1.57-3.35,3.03-6.74,4.46-10.15,.09-.22,.34-.33,.56-.24,.22,.09,.33,.34,.24,.56-4,10.92-10.5,20.49-16.28,30.48-1.09,1.87-2.08,3.78-3.15,5.65-.29,.53-.93,1.04-1.55,.69Z"/><path d="M285.66,122.03c-.05-.18,.03-.39,.2-.48,1.39-.67,2.85-1.25,4.24-1.94,9.18-4.47,18.22-9.22,27.31-13.84,.55-.26,.99,.59,.46,.9-3.9,2.11-7.68,4.45-11.75,6.22-6.56,2.96-12.95,6.26-19.49,9.25-.23,.28-.85,.32-.96-.1Z"/><path d="M299.43,162.28c-5.01-12.94-10.04-25.94-13.87-39.28-.05-.04-.1-.1-.13-.17-.05-.11-.04-.24,0-.34h0c-.71-8.89,9.46,19,9.58,19.87,2.29,6.36,4.87,12.62,6.51,19.18,.37,1.28-1.58,1.99-2.09,.74Z"/><path d="M313.19,136.37c-9.33-4.9-18.38-10.36-27.76-15.13-.67,.14-.9-1.19-.09-1.03,2.99,1.74,6.24,2.98,9.16,4.86,6.29,3.66,12.72,7.09,19.12,10.55,.47,.27,.06,1.03-.42,.75Z"/><path d="M239.14,83.62c-1.46-.41-1.07-2.06-.72-3.15,.72-2.47,.78-4.85,.93-7.33,.69-8.95,.96-20.81-8.01-25.78-1.76-.98-3.97-.46-5.63-1.47-1.11-1.92-1.73-5.02-3.1-7.32-1.29-2.41-3.14-5.53-6.3-5.25-5.79,1.16-10.51,5.66-14.41,9.82-2.49,2.72-3.8,6.24-5.85,9.17-4.51,1.63-5.31,7.02-6.49,11.1-1.54,5.25-2.42,10.8,.24,15.76-.24,.79-.98,.21-1.07-.42-3.57-7.37-.26-15.82,2.42-22.95,.96-1.97,2.53-3.52,4.55-4.33,1.04-1.71,1.72-3.59,2.89-5.22,3.83-5.79,11.35-13.4,18.6-13.78,5.23,.93,6.81,7.3,8.97,11.42,.48,1.1,2.01,.41,2.97,.76,10.52,1.66,13.94,14.19,13.59,23.41-.12,2.79,.08,15.95-3.59,15.55Z"/><path d="M217.21,80.39c-.21-1.39-1.12-2.42-2.44-2.82-1.28-.05-2.42,1.38-3.16,2.3-.17,.3-.3,.79-.75,.61-.99-.81,1.58-2.75,2.25-3.25,1.44-1.23,3.43-.06,4.33,1.29,.25,.49,.94,1.74,.34,2.11-.21,.09-.48,0-.57-.23Z"/><path d="M215.33,76.96c-.6-.57,.36-1.52,.5-2.17,2.23-5.24,3.79-10.75,5.76-16.08,1.18-3.78,2.27-7.64,3.55-11.38,.06-.22,.29-.37,.52-.31,.22,.06,.37,.3,.31,.52-2.08,6.43-3.94,12.9-6.3,19.24-1.08,3.44-2.32,6.84-3.83,10.11-.12,.14-.36,.17-.52,.07Z"/><path d="M213.18,79.38c-6.08-8.54-9.45-18.88-16.86-26.43-.38,.05-.62-.42-.45-.74,1.05-1.27,5.33,5.47,6.13,6.42,4.17,6.52,7.33,13.62,11.72,20.03,.52,.39-.03,1.26-.54,.72Z"/><path d="M243.16,81.83c1.42-15.71,.13-37.7-13.08-48.21-6.81-5.36-12.37-7.28-20.36-3.04-9.02,4.83-16.07,12.78-20.64,21.79-3.91,8.26-7.93,16.48-11.39,24.94-.09,.33-.31,.77-.71,.6-.22-.09-.32-.34-.24-.56,.57-1.53,1.23-3.02,1.81-4.55,1-3.28,2.18-6.45,3.51-9.61,4.24-11.3,10.27-22.19,20.02-29.64,5.14-3.84,11.57-7.7,18.2-6.82,6.85,1.86,13.18,6.18,17.45,11.85,6.57,9.36,7.94,21.14,8.5,32.28,.07,3.71-.2,7.42-.13,11.14,0,.8-.67,1.47-1.46,1.48-.87,0-1.59-.78-1.47-1.66Z"/><path d="M227.71,90.76c-11.52-.83-22.94-2.59-34.44-3.64-6.12-.39-12.21-1.36-18.34-1.64-1.21,.19-2.5-.25-3.31-1.3-1.31-1.7-.75-4.09,1.03-5.18,2.16-1.28,4.85,.54,7.02,.67,11.5,1.73,22.85,2.2,34.38,2.09,14.86,.55,29.51-1.83,44.31-2.55,11.04-.34,22.02,1.3,33.06,1.18,11.86-.04,22.97-1.29,34.63-2.37,.27-.09,.59-.27,.86-.14,.25,.11,.36,.43,.18,.66-.24,.32-.56,.56-.78,.9,.06,.38-.48,.71-.77,.34-.13-.17-.14-.36-.08-.55-19.34,7.31-39.91,11.04-60.6,10.26-12.39,.09-24.75,2.01-37.14,1.28Z"/><path d="M289.42,85.64c-.06-.25,.09-.52,.34-.59,9.15-2.49,18.71-3.07,27.82-5.56-.89,.04-1.79,.11-2.68,.08-.36,0-.93,0-.98-.47-.04-.33,.25-.52,.51-.65,.23-.15,.57,0,.63,.26,2.33-.1,5.33,0,7.19-1.46h0c-8.07-1.93-16.19-3.36-24.2-5.52-1.65-.03-2.61-2.33-1.02-3.22,3.7-1.02,7.7,.77,11.39,1.4,5.43,1.37,11.26,1.23,16.4,3.67,1.95,.7,4.36,3.01,2.44,4.98-1.42,1.16-3.56,.64-5.28,.9-7.9,3.27-16.66,3.42-24.96,5.08-2.37,.43-4.75,.97-7.14,1.44-.22,0-.42-.13-.47-.35Z"/><path d="M322.79,74.44c-7.5-.76-14.93-2.06-22.41-3.01-6.41-.5-12.85-.58-19.27-.89-11.86,.14-23.69,2.17-35.57,.96-1.79,.07-3.06-2.22-1.16-3.16,18.66-.61,37.57-4.1,56.16-.47,1.68,.64,10.24,.92,7.84,3.81,4.79,.96,9.68,1.19,14.5,1.9,.55,.03,.46,.95-.1,.86Z"/><path d="M175.57,83.88c-.46-.13-.89-.32-1.31-.55-.35-.2-.71-.5-.97-.81-.24,.9-1.78-.05-1.02-.63-.65-1.58,.31-3.21,1.42-4.32,.34-.47,1.1-.9,1.53-.31,1.21-.25,2.08,1.22,1.35,2.19-.24,.28-.31,.65-.3,1.01,0-.05,0-.1-.01-.15v.04s0,.02,0,0c.05,.93,.67,1.66,.95,2.49,.31,1.1-.82,1.39-1.65,1.04Z"/><path d="M313.82,447.05c-4.99-.88-3.38-6.49-3.16-10.11,.45-7.41,1.12-13.86,1.14-21.1,.74-31.79,3.32-63.81,5.56-95.43,1.03-22.62,1.93-45.27,3.53-67.78,1.34-30.96,1.2-62.21,4.04-93.08,.99-15.44-.43-30.94,.6-46.35,.58-5.59,1.48-11.43,1.81-16.95,.23-6.46,1.16-12.97,.99-19.41-.12-.47-.33-1.02-.6-1.43-.21-.28-.55-.64-.22-.97,.27-.26,.63-.07,.72,.2,3.37,5.69,2.32,12.78,2.98,19.13,.44,7.09-.05,14.17-.71,21.23-.42,7.51-.17,15.02-.17,22.53,.41,18.74-1.34,37.37-1.82,56.03-1.13,20.63-.93,39.25-1.52,59.22-.98,19.46-2.04,38.92-2.25,58.41-.81,19.28-1.2,38.57-.83,57.87-.38,11.63-1.26,23.24-1.68,34.87-.24,11.63-.06,23.32-2.61,34.75-.67,3.44-1.07,8.9-5.77,8.38Z"/><path d="M175.6,451.19c-2.24-20.33-3.26-40.86-4.61-61.26-1.09-31.4-1.81-62.82-2.36-94.24,.03-21.63,.12-43.28,.82-64.9,.09-14.51,2.06-28.7,1.32-43.13-.71-23.43-.12-46.88-.48-70.32,.28-10.11,.35-20.27,1.24-30.35,.11-1.04,.2-2.18,.67-3.14,.23-.47,.76-.4,1.04-.09v-.04c2.06,3.8,1.49,8.59,2.27,12.79,2.89,21.3,1.86,42.26,1.74,63.61-.58,15.6,1.52,31.03,1.22,46.58-1,23.47,.44,46.97-.38,70.45-.49,43.5,.02,87.36,3.16,130.69,.32,6.81,.81,13.59,.94,20.41,.38,7.16-.22,14.39,1.33,21.44,.56,4.81-6.65,6.39-7.91,1.49Z"/><path d="M244.54,473.26c-11.34-.49-22.29-4.26-33.26-6.93-8.63-3.04-18.24-3.89-25.76-9.45-2.31-1.93-5.91-2.87-7.24-5.71-.56-1.75,.52-3.78,2.3-4.28,2.34-.78,4.02,1.43,5.79,2.56,6.53,4.76,14.23,6.43,21.63,9.24,10.87,3.33,21.5,6.74,32.79,7.63,20.12,1.15,40.75-1.09,58.63-10.47,3.85-2.1,7.52-4.51,10.96-6.92,1.47-1.06,3.19-2.09,3.76-3.9-.51-.21-.21-1.01,.3-.8,.37,.15,.68,.43,.57,.87-.69,1.55-1.42,3.11-2.11,4.68-1.63,3-4.47,5.04-7.1,7.11-17.1,13.31-40.07,17.29-61.29,16.38Z"/><path d="M250.74,442.13c-12.7-.82-25.38-1.87-38-3.63-6.5-.95-13.09-1.68-19.24-4.13-3.92-1.64-7.48-3.6-11.53-4.78-1.88-.56-4.47-1.76-3.61-4.16,1.5-3.34,5.29-.6,7.62,.24,6.92,3.28,14.13,5.75,21.72,6.88,13.89,2.85,27.98,4.2,42.12,4.84,12.26,.24,24.47-1.58,36.5-3.79,9.41-2.11,19.12-3.38,28.07-7.05,.79-.29,1.53-1.19,2.39-.9,.39,.27,.08,.82-.3,.78-6.51,4.47-13.71,7.52-21.4,9.38-14.31,4.44-29.32,7.02-44.34,6.32Z"/><path d="M247.37,461.62c-7.12,.63-75.96-9.04-63.99-21.58,2.69-2.22,5.8,.53,8.57,1.2,11.46,3.65,23.27,6.54,35.28,7.57-5.44-1.6-10.56-3.28-16.09-4.41-3.67-1.31-11.12-.87-10.81-6.24,1.42-8.08,13.13-.34,17.89,.61,9.07,3.54,18.51,5.78,27.89,8.26,3.4,.64,4.64,5.3,.67,5.97-7.24,1.65-14.56,3.23-22.07,2.59,7.7,2.11,15.45,4.28,23.33,5.2,.17,0,.34,0,.51-.02,.47-.08,.76,.63,.27,.81-.44,.16-1,.06-1.45,.04Z"/><path d="M238.21,423.19c-22.14-1.15-45.15-5.1-63.11-18.99-.41-.3-.07-.98,.41-.75,4.62,3.41,10.2,5.29,15.43,7.48,10.23,4.3,21.18,6.41,32.2,7.33,29.22,3.87,58.95-2.37,85.4-14.87,.81-.37,1.76-.19,2.28,.57,3.87,3.8-25.36,12.74-28.43,13.83-14.29,4.22-29.33,5.42-44.18,5.4Z"/><path d="M277.73,466.45c-3.6-1.55-3.32-7.07,.36-8.32,1.09-.41,2.17-.82,3.25-1.25-4.27-.32-9.2,.07-12.79-2.64-2.97-2.41-2.4-7.33,1.06-9,6.44-1.63,15.4-1.74,22.36-3,2.25-.18,4.57-.81,6.8-.59,1.59,1.22-3.07,2.82-3.93,3.34,4.42-.4,8.98-3.32,13.36-1.77,1.87,.87,3.08,2.97,2.73,5.03-1.1,6.41-27.2,20.39-33.2,18.21Z"/><path d="M203.17,156.5c-14.84-.6-23.6-15.49-26.44-28.59-.33-1.36-.57-2.74-.73-4.12-.03-.24,.13-.46,.37-.49,.23-.03,.46,.14,.48,.37,1.91,13.1,8.99,28.69,23.21,31.58,10.76,2.38,19.82-5.36,27.85-11.38,.41-.34,.98,.35,.53,.69-7.46,5.51-15.4,12.47-25.27,11.95Z"/><path d="M178.32,295.36c-.48-2.2,.53-4.39,1.25-6.43,3.05-8.22,9.02-14.95,15.9-20.24,4.46-3.41,9.88-6.09,15.62-5.79,9.33,.18,18.21,4.21,24.42,11.18,3.52,3.98,6.13,8.66,8.32,13.47,.43,.97,.86,1.95,1.28,2.93,.09,.22-.01,.47-.23,.57-.22,.09-.47-.01-.57-.23-.7-1.65-1.42-3.28-2.19-4.89-2.74-5.61-6.17-11.02-11.14-14.9-6.58-5.59-15.74-8.15-24.28-6.95-9.46,2.4-17.06,9.92-22.55,17.69-1.78,2.76-3.16,5.76-4.29,8.83-.46,1.47-1.08,3.11-.68,4.6,.02,.47-.7,.59-.86,.15Z"/><path d="M208.09,389.99c-7-1.13-15.39-2.48-20.73-7.45-.07,.15-.22,.25-.39,.25-.83-.17-.22-1.37-.5-1.95-.14-.57,.65-.92,.87-.32,.02,.57,.29,1.05,.66,1.45,2.66,2.87,6.62,3.9,10.25,5.07,6.94,2.36,14.52,3.13,21.23-.34,.22-.09,.48,.01,.57,.23,.12,.91-1.62,.98-2.23,1.38-3.1,1.12-6.4,1.98-9.72,1.7Z"/><path d="M251.54,279.32c-.24,0-.43-.2-.43-.43-.02-2.1,.04-4.21,.23-6.3,.74-7.46,1.92-14.89,3.83-22.14,4.52-18.44,13.24-40.14,33.14-45.95,.82-.24,1.68-.43,2.52-.59,.23-.05,.46,.14,.48,.36,.03,.24-.13,.44-.37,.48-1.2,.22-2.37,.54-3.52,.91-17.62,5.83-26.12,24.85-30.5,41.55-2.69,9.72-4.59,19.76-4.95,29.84-.19,.72,.42,2.03-.44,2.27Z"/><path d="M210.53,202.08c0-2.2,1.84-4.04,4.04-4.04s4.04,1.84,4.04,4.04-1.84,4.04-4.04,4.04-4.04-1.84-4.04-4.04Z"/><path d="M225.66,225.08c0-1.3,1.08-2.38,2.38-2.38s2.38,1.08,2.38,2.38-1.08,2.38-2.38,2.38-2.38-1.08-2.38-2.38Z"/><path d="M243.83,199.74c0-1.16,.96-2.12,2.12-2.12s2.12,.96,2.12,2.12-.96,2.12-2.12,2.12-2.12-.96-2.12-2.12Z"/><path d="M292.01,286c0-2.01,1.67-3.67,3.67-3.67s3.67,1.67,3.67,3.67-1.67,3.67-3.67,3.67-3.67-1.67-3.67-3.67Z"/><path d="M299.79,253.04c0-1.12,.94-2.06,2.06-2.06s2.06,.94,2.06,2.06-.94,2.06-2.06,2.06-2.06-.94-2.06-2.06Z"/><path d="M194.02,348.39c0-.88,.73-1.62,1.62-1.62s1.62,.74,1.62,1.62-.73,1.62-1.62,1.62-1.62-.74-1.62-1.62Z"/><path d="M196.56,371.82c0-1.49,1.24-2.73,2.73-2.73s2.73,1.24,2.73,2.73-1.24,2.73-2.73,2.73-2.73-1.24-2.73-2.73Z"/><path d="M214.91,406.53c0-.52,.44-.97,.97-.97s.97,.44,.97,.97-.44,.97-.97,.97-.97-.44-.97-.97Z"/><path d="M247.36,433.18c-18.35-1.31-37.04-1.75-54.13-9.33-.94-.55-9.49-3.25-7.42-4.27,.31-.08,.72,.01,.73,.39,7.3,3.56,15.15,6.24,23.07,8.01,8.93,1.47,18.02,1.84,27.03,2.38,3.77,.2,7.33,.49,11.01,.7,1.35,.15,1.1,2.34-.29,2.12Z"/><path d="M200.77,124.31c0-1.28,1.07-2.35,2.35-2.35s2.35,1.07,2.35,2.35-1.07,2.35-2.35,2.35-2.35-1.07-2.35-2.35Z"/><path d="M190.22,102.49c0-1.12,.93-2.05,2.05-2.05s2.05,.93,2.05,2.05-.93,2.05-2.05,2.05-2.05-.93-2.05-2.05Z"/><path d="M229.68,179.66c0-.24,.2-.43,.43-.43s.43,.2,.43,.43-.2,.43-.43,.43-.43-.2-.43-.43Z"/><path d="M181.97,354.15c-3.25-24.77-1.3-49.78-.63-74.65,.34-53.92,0-107.92,4.09-161.73-.19-2.44-.08-8.95,1.55-5.57,.62,2.39,.82,4.88,1.08,7.33,4.39,55.49,5.14,111.39,1.96,166.97-.86,12.88-1.97,25.75-2.2,38.66-.26,9.53-.44,19.07-.16,28.6,.05,3.39-5.23,3.93-5.71,.39Z"/><path class="cls-1" d="M280.7,189.23c-10.51-.27-21.87-.73-30.44-7.6-11.41-8.56-22.11-19.95-24.94-34.38-1.88-17.07,3.68-34.49,11.98-49.28,7.84-13.33,21.86-21.61,36.1-26.66,5.92-1.84,12.15-2.87,18.3-3.33,.37-.17,.8,.25,.57,.61-7.42,2.74-15.71,5.45-22.81,8.93-22.23,10.03-32.59,27.73-33.94,51.64-.88,13.76,.51,21.62,9.82,32.19,5.18,5.35,10.75,10.94,17.74,13.8,4.97,1.53,10.22,1.76,15.31,2.71,16.07,3.57,22.61,2.73,34.21-9.76,7.91-9.12,9.86-21.54,11.41-33.05,.06-.61,.67-1.04,1.26-.96,.63,.08,1.02,.65,.96,1.26-.3,3.27-.89,6.49-1.52,9.72-2,12.47-7.19,24.57-16.44,33.39-7.32,8.13-16.77,11.49-27.59,10.75Z"/><path class="cls-1" d="M244.54,99.85c-.79-.11-1.37-.87-1.26-1.66,.55-3.66,1.03-7.32,1.29-11.01,.43-9.35,1.98-18.85,1.28-28.12-.03-11.32-6.12-23.61-17.42-27.18-10.03-1.23-18.43,6.95-25.89,12.56-10.1,8.82-18.68,19.18-24.96,31.04-2.13,3.73-3.98,7.62-6.03,11.39,.05,.53-.8,1-.96,.25-1.02-11.07,2.92-22.27,8.59-31.74,6.46-9.56,16.16-16.51,26.39-21.6,13.24-6.84,24.91-9.68,35.18,3.61,8.51,9.56,7.74,22.97,7.28,34.88-.59,3.7,.43,28.54-3.48,27.58Z"/><path class="cls-1" d="M219.12,376.16c-1.16-10.11-2.65-20.37-1.37-30.53,2.82-19.03,13.54-40.97,33.92-45.4,4.81-.73,9.69-1.28,14.55-1.18,12.08,.16,24.48,2.37,34,10.31,.96,.71,1.89,1.45,2.79,2.25,1.41,1.23,2.2,3.58-.73,2.97-.52,.11-.86-.35-.57-.73-15.7-7.27-33.51-7.87-50.42-5.43-18.08,4.98-28.05,26.18-29.66,43.58-.4,7.87,.31,15.95,.79,23.73,.25,2.13-2.98,2.63-3.3,.45Z"/><path class="cls-1" d="M195.89,328.14c0-.24,.2-.43,.43-.43s.43,.2,.43,.43-.2,.43-.43,.43-.43-.2-.43-.43Z"/><path class="cls-1" d="M260.52,415.06c-9.65-.27-18.08-5.51-25.37-11.41-7.3-5.91-14.53-13.18-15.58-22.98-1.8-23.12,3.02-48.88,15.87-68.44,1.94-3.08,2.34,1.47,.93,.2-13.16,19.45-18.1,46.25-12.39,69.06,4.24,12.17,16.65,19.25,26.99,25.66,5,2.71,10.74,3.48,16.34,3.28,2.16,.24,4.62-.83,6.59,.2,1.53,1.09,.85,3.77-1.05,3.94-4.1,.45-8.21,.72-12.33,.48Z"/><path class="cls-1" d="M218.03,256.53c-7-13.61-9.76-28.9-9.2-44.12,.13-10.97,1.82-21.89,5.53-32.21,.41-1.39,.86-2.8,1.45-4.13,.1-.19,.3-.31,.51-.25,.86,.49-.38,2.09-.49,2.85-7.53,20.48-8.41,43.87-1.83,64.73,1.56,4.25,3.2,8.48,5.21,12.54,.34,.69-.8,1.32-1.18,.59Z"/></svg>