<?xml version="1.0" encoding="UTF-8"?><svg id="Ebene_1" xmlns="http://www.w3.org/2000/svg" viewBox="0 0 500 500"><defs><style>.cls-1{fill:#00010d;}</style></defs><path d="M102.21,187.83c-7.93-2.52-10.14-12.98-11.4-20.24-3.5-19.41,5.79-38.18,17.87-52.82,6.96-8.26,15.12-15.73,25.18-19.99,22.34-9.02,48.7-11.44,70.73-.23,8.43,4.82,15.62,11.62,22.22,18.67,1.57,2.22,6.79,4.96,4.36,7.91-2.98,2.41-5.06-2.47-7.1-4.03-10.12-9.35-21.31-18.66-35.22-21.09-19.18-3.56-39.81,.77-55.95,11.51-14.35,11.03-25.84,26.81-30.41,44.43-1.38,7.59-1.11,15.42,.26,22.99,.37,4,3.64,8.26,1.84,12.16,0,.07,0,.14,0,.21,0,.45-.54,.55-.78,.3-.5,.2-1.05,.29-1.59,.19Z"/><path d="M104.89,185.06c.09-7.56-.4-15.24,1.36-22.65,4.33-16.56,12.49-32.57,24.99-44.4,10.88-9.44,25.24-15.43,39.64-16.38,9.52-.34,18.79,2.39,27.83,5.08,6.84,2.41,13.3,6.04,18.6,11,1.59,1.73,6.01,3.22,4.3,6.09-.7,.91-2.01,1.05-2.92,.38-2.07-1.59-4.15-3.17-6.33-4.61-6.26-4.04-13.59-5.92-20.84-7.28-39.37-10.85-69.84,11.6-83.02,48.15-2.89,7.95-2.87,16.3-2.72,24.62,0,.57-.89,.57-.89,0Z"/><path d="M101.83,189.67c-.36-.33-.07-.76,.31-.92,5.64-5.02,12.85-7.86,19.27-11.72,7.7-4.46,15.44-8.99,23.56-12.65,18.13-9.27,36.6-17.84,54.19-28.1,9.5-4.63,18.38-10.24,26.73-16.7,2.2-1.11,4.92-4.92,7.3-2.46,.8,1.03,.52,2.64-.64,3.29-5.37,3.35-10.36,7.45-15.62,10.89-9.4,6.07-19.27,11.39-29.13,16.68-16.25,8.47-33,15.93-49.53,23.82-9.65,5.06-18.92,10.76-28.85,15.06-2.42,.78-5.14,2.83-7.59,2.83Z"/><path d="M147.12,164.91c-6.95-1.82-14.05-2-21.17-2.05-6.17-.1-12.4-.85-18.54-.22-.22,.37-.86,.28-1.02-.11-.2-.83,1.01-.77,1.56-.86,5.69-.22,11.33-.61,17.02-.86,7.56-.35,15.13-.19,22.55,1.33,1.79,.29,1.44,2.98-.38,2.76Z"/><path d="M147.47,165.86c-5.7-5.22-10.38-11.64-14.81-17.93-3.28-4.65-5.53-10.2-9.47-14.28-.16,.41,.19,1.21-.49,1.25-.87-.05-.48-2.25,.4-2.17,1.37,.32,2.78,2.43,3.91,3.39,5.44,6.21,10.07,13.08,15.39,19.41,2.3,2.75,4.42,5.67,6.78,8.37,1.12,1.1-.46,2.94-1.72,1.95Z"/><path d="M149.3,163.12c1.52-17.17,1.24-34.76,5.65-51.41,.77-.76,1.47,.46,1.99,.93,.4,.16,.34,.86-.17,.86-.55-.08-.82-.69-1.23-1.02,.68,13.39,.36,26.95-1.56,40.27-.59,3.52-1.2,7.03-1.57,10.58-.22,1.87-3.13,1.68-3.11-.21Z"/><path d="M156.51,161.79c-2.21-1.04-.89-3.55,.38-4.83,2.17-2.55,4.26-5.16,6.14-7.93,3.79-5.7,6.39-12.04,9.56-18.08,3.69-7.16,8.44-13.72,12.15-20.87,.38-.5,.7-1.74,1.49-1.36,.29,.19,.24,.7-.08,.79-9.02,15.61-13.35,33.83-24.58,48.14-1.5,1.42-2.52,4.96-5.06,4.13Z"/><path d="M122.12,118.07c0-1.4,1.17-2.57,2.57-2.57s2.57,1.17,2.57,2.57-1.17,2.57-2.57,2.57-2.57-1.17-2.57-2.57Z"/><path d="M157.9,99.24c0-1.21,1-2.22,2.22-2.22s2.22,1,2.22,2.22-1,2.22-2.22,2.22-2.22-1-2.22-2.22Z"/><path d="M190.05,102.86c0-2.34,1.95-4.29,4.29-4.29s4.29,1.95,4.29,4.29-1.95,4.29-4.29,4.29-4.29-1.95-4.29-4.29Z"/><path d="M104.43,154.22c0-1.26,1.05-2.31,2.31-2.31s2.31,1.05,2.31,2.31-1.05,2.31-2.31,2.31-2.31-1.05-2.31-2.31Z"/><path d="M140.11,110.48c0-1.12,.94-2.06,2.06-2.06s2.06,.94,2.06,2.06-.94,2.06-2.06,2.06-2.06-.94-2.06-2.06Z"/><path d="M273.98,140.21c-24.49-.82-48.94-2.08-73.38-3.89-15.6-1.23-31.68-.09-46.55-5.81-2.99-.86-8.1-3.14-1.58-4.41,3.8-.58,7.98,.11,11.69,.08,6.93,.03,13.84-.16,20.75-.58,13.82-.9,27.64,.42,41.45,.8,17.44-.19,34.79,1.66,52.17,2.61,13.85,0,27.62-2.09,41.48-1.88,10.37,.08,20.27-1.05,30.41-2.3,5.97-.77,12.18-.69,17.93-2.64,5.67-1.76,8.1,7.09,2.12,8.35-18.21,2.6-36.3,6.45-54.78,6.63-13.93,.59-27.74,3.03-41.7,3.06Z"/><path d="M367.16,128.32c-1.65-.12-2.83-1.44-3-3.03-.45-1.03-1.36-1.72-2.19-2.43-3.16-2.44-7.2-3.23-10.91-4.5-10.82-3.93-22.22-5.12-33.63-5.89-29.94-4.07-60.25-2.9-90.27-6.2-1.98-.31-15.46-.71-12-2.23,3.9,.47,7.98-.67,11.95-.45,10.25,.06,20.58,.41,30.58,.6,20.42-.08,40.87-.94,61.23,1.02,8.86,.03,17.77-.11,26.36,2.48,8.68,2.92,20.16,3.95,24.54,13.18,1.45,2.69,1.39,7.62-2.67,7.45Z"/><path d="M147.07,276.59c-4.42-4.27-2.48-11.3-2.89-16.83,.05-4.27,.1-8.54,.15-12.82,.05-21.04-.63-42.06-.67-63.11-.01-14.19-.96-28.35-.53-42.55,.3-5.72,.21-11.99,3.2-17.06,2.18-3.33,6.37-3.68,9.86-2.42,2.9,.93,6.2,1.84,8.12,4.38,.35,.23,.95,.51,.77,1.01-.15,.42-.67,.33-.82,.03-2.11-.65-4.78-.03-6.92-.22-1.57,.08-3.34-.18-4.8,.29-1.29,2.78-.94,6.08-1.12,9.08,.26,14.14,2.42,28.16,3.1,42.28,1.2,28.07,2.25,56.15,1.91,84.24-.42,4.83,2.1,11.84-3.16,14.63-2.03,.95-4.55,.6-6.2-.95Z"/><path d="M362.86,283.17c-7.94-1.04-4.95-10.56-4.86-16.05,.85-10.44,1.55-20.89,1.91-31.36,.59-13.95,1.92-27.83,3.18-41.73,1.35-21.7,3.5-43.38,8.16-64.65,5.09-16.41,.53,37.95,1.01,39.47,.19,22.69-1.35,45.55-1.44,68.19,.08,11.37-.44,22.47-1.08,33.77-.14,4.95,0,12.69-6.88,12.36Z"/><path class="cls-1" d="M240.53,294.97c-21.02-.08-41.78-3.81-62.34-7.83-5-1.01-9.95-2.29-14.77-3.94-4.33-1.3-10.61-3.75-8.9-9.41,.82-2.71,3.74-4.72,6.61-4.15,5.46,1.28,10.61,3.68,16.12,4.82,19.65,3.47,39.33,7.72,59.34,8.14,14.21,.63,28.36-.72,42.45-1.2,11.94-.41,23.42-.75,35.23-1.85,14.36-1.39,28.74-2.59,43.08-4.17,2.66-.02,7.99-1.81,8.54,1.74h0c-.15,1.61-1.83,2.29-3.07,3-.68,.56-2.18,2.19-3.03,1.33-17.99,6.02-37.2,7.86-55.96,10.15-21.06,1.48-42.17,3.27-63.29,3.36Z"/><path class="cls-1" d="M335.89,395.29c-3.29-.09-6.2-2.99-6.02-6.36,.82-18.32,2.63-34.98,5.13-52.78,1.53-12.32,3.05-24.65,5.5-36.82,1.31-6.28,.66-12.92,2.3-19.09,.68-1.6,2.57-2.26,4.15-1.61,5.07,2.69,3.16,22.21,2.68,27.68-2.03,18.76-3.58,37.58-5.72,56.33-.88,8.86-1.29,17.74-1.66,26.64-.16,3.37-2.96,6.11-6.36,6.02Z"/><path class="cls-1" d="M172.77,393.17c-3.15-2.01-3.19-6.12-3.72-9.44-.63-4.98-1.08-9.97-1.47-14.98-1.36-14-2.76-27.98-3.58-42.03-.9-10.77-1.5-21.6-2.79-32.34,.03-3.17-3.39-15.2,2.74-13.09,1.98,1.18,2.3,3.8,3.05,5.81,1.45,5.12,2.87,10.27,3.96,15.48,2.55,14.12,4.14,28.37,5.71,42.62,1.86,12.88,3.05,25.86,4.84,38.75,.16,.87,.35,1.73,.56,2.6,1.38,5.15-4.88,9.63-9.3,6.62Z"/><path class="cls-1" d="M218.16,412.37c-10.63-.67-21.01-3.48-31.24-6.31-4.8-1.83-12.06-2.39-13.31-8.38-.84-3.28,1.27-6.74,4.54-7.55,1.56-.39,3.26-.15,4.65,.66,1.05,.67,1.73,1.6,3,1.83,7.54,2.56,15.3,4.45,23.08,6.08,19.17,3.27,37.38,2.2,56.14,.18,20.72-1.8,41.85-3.06,61.81-9.28,2.83-.44,17.02-7.3,15.21-1.23-2.01,2.95-5.61,4.31-8.53,6.17-4.66,2.6-9.48,4.94-14.56,6.57-15.4,4.82-31.47,7.31-47.49,8.9-17.67,2.24-35.48,3.85-53.29,2.36Z"/><path class="cls-1" d="M245.04,375.31c-21.83-.51-52.75-2.43-71.06-14.92-1.61-1.19-5.11-3.48-3.36-5.71h0c.75-.55,1.65-.55,2.54-.45,5.29,.86,10.3,2.89,15.52,4.1,13.55,2.75,27.42,3.89,41.21,4.72,18.21,.68,37.12,0,55.07-2.45,13.55-1.15,26.95-3.61,39.43-9.18,2.26-.87,4.54-1.65,6.8-2.51,4.54-1.53,7.65,5.05,3.51,7.58-14.64,10.43-32.21,15.22-49.96,16.59-13.2,1.6-26.38,2.67-39.69,2.23Z"/><path class="cls-1" d="M274.3,176.2c-14.42,0-28.86,.22-43.15-2.12-11.3-1.59-21.49-3.85-32.55-5.56-17.6-3.03-35.38-5.49-51-14.66,.12,.65-.98,.69-.9,.03-.64-4.58,11.97-.51,14.48-.46,20.62,3.3,41.56,4.05,62.14,7.67,20.97,3.47,42.22,3.24,63.39,2.75,15.56-1.03,30.92-3.91,46.21-6.83,5.61-1.41,11.15-3.09,16.8-4.35,3.5-.71,8.43-3.81,10.63,.6,.89,1.92,.15,4.11-1.56,5.26-12.3,8.31-26.97,11.56-41.41,13.89-14.19,2.52-28.66,4.43-43.1,3.79Z"/><path class="cls-1" d="M197.03,388.98c-2.13-39.39-1.43-79.55-10.23-118.27-5.15-21.96-16.16-9.99-21.51-22.21-2.14-9.65-.59-19.8,.26-29.54,2.03-20.35,5.29-40.7,5.95-61.13,.31-8.05,.25-16.24-.22-24.28-.13-.32,.11-.71,.49-.68,.31,.03,.46,.29,.43,.55,1.15,6.32,1.61,12.74,2,19.14,1.15,19.35,.31,38.76-1.03,58.07-.48,12.6-3.29,25.37-2.26,37.91,.22,.45,.8,1.02,1.01,1.16,3.34,2.26,7.66,2.72,10.58,5.71,7.04,7,7.89,17.68,9.88,26.93,3.29,16.36,4.69,33.12,6.48,49.68,1.69,14.38,2.16,28.81,5.15,42.95,.79,4.17,3.06,7.95,3.55,12.17,.33,6.14-8.71,7.78-10.52,1.84Z"/><path class="cls-1" d="M272.61,401.08c-9.61-.1-19.19-1.33-28.6-3.23-4.92-1.27-13.37-2.23-13.04-8.93,.2-2.52,2.4-4.15,4.7-4.72-1.19-.32-2.23-1.02-3.33-1.52-1.13-.92,.27-2.43,1.25-2.85,9.28-3.96,19.93-2.73,29.83-3.26,6.84-.4,13.78,.34,20.54-.6,3.68-.22,5.72,4.45,2.82,6.85-1.26,1.11-2.94,1.17-4.53,1.31-8.82,1.65-17.31,5.22-26.28,6.42,6.94,.71,13.89,.2,20.8-.53,2.66-.09,5.06,1.81,5.51,4.44,.81,5.78-5.21,6.92-9.68,6.6Zm-36.63-17.72c.38,.08,.41,.51,.21,.73,7.18-.98,14.52,.4,21.68-.81-7.95-.52-15.94-1.52-23.9-.78,.68,.35,1.3,.67,2,.86Z"/><path class="cls-1" d="M300.61,393.82c-3.53-.3-5.91-4.12-4.61-7.42,.71-2.3,2.72-3.66,4.74-4.75,3.68-2.14,7.27-4.43,10.78-6.85-1.92,.05-11.18,2.81-10.37-.75h-.02c.26-.5,.6-.68,1.06-.85,5.34-2.16,11.54-4.07,16.72-6.16,3-.87,5.72-3.17,8.92-3.04,2.79,.22,4.75,3.3,3.67,5.91-1.73,4.08-5.84,6.59-9.09,9.4,11.27-.92,6.32,15.19-1.13,8.66-6.93,1.6-13.49,5.83-20.66,5.84Z"/><path class="cls-1" d="M255.84,409.66c-10.74-.75-21.82,.26-32.32-2.37-4.86-1.16-6.6-5.68-1.15-7.66,12.78-4.53,26.01-8.66,38.23-14.03-7.37,.24-14.75-.24-21.94-1.98-2.92-.82-6.25-1.52-8.53-3.6-.39-.63-.06-1.39,.61-1.64,6.12-1.1,12.48,.06,18.68-.26,7.64-.21,15.15-1.67,22.63-3.06,3.81-.91,8.75,.67,8.83,5.21-.5,7.32-13.49,10.9-19.32,13.21-12.12,4.1-24.57,7.25-37.02,10.1,11.55,2.67,24.2,1.19,35.86-.4,1.63-.3,3.24,.85,3.52,2.47,.48,4.37-5.13,3.82-8.07,4.02Z"/><path class="cls-1" d="M350.74,123.42c-10.43-5.35-22.19-6.35-33.67-6.26-11.89,.16-23.73-1.27-35.6-1.17-15.08,.9-30.17-.26-45.23-1.1-2.08-.42-13.13-.82-12.25-3.29,.63-.85,1.63-.27,.93,.39h0c8.81,2.69,18.2,2.2,27.3,2.85,10,.71,19.95,.72,29.94,.05,15.56,.36,31.02,.98,46.57,1.08,6.66,.37,13.25,1.97,19.45,4.41,1.09,.72,3.99,.97,3.68,2.53-.17,.43-.7,.7-1.13,.51Z"/><path class="cls-1" d="M344,310.91c.11-4.31,2.07-8.34,1.79-12.67-3.82-.14-3.97-4.65-2.72-7.35,.88-2.14,1.26-5.77,4.24-5.68,.3-.63,.62-1.26,.94-1.9-.41,.36-.77,.94-1.36,.95-.53-.05-.5-.83-.02-.89,.75-.57,1.28-1.3,1.93-1.98,2.54-2.07,5.59-9.38,9.37-5.35,.84,.08,.81,.94,.34,1.5-.04,.43-.19,.85-.44,1.23-1.74,1.76-2.82,3.64-3.99,5.77,1.55-2.09,3.39-4.26,5.82-5.29,1.03-.24,1.44,1.08,.6,1.63-6.41,5.96-10.17,14.33-11.69,22.84h0c-.13,.36-.4,.67-.78,.84-.49,.23-1.06,.17-1.49-.12-.69,2.18-1.08,4.45-1.68,6.64-.22,.39-.8,.25-.84-.2Z"/><path class="cls-1" d="M163.54,314.68c-.15-.73-.18-1.5-.24-2.25,0-.07-.02-.13-.03-.2-4.62-11.82-6.84-24.63-12.79-35.96-.3,.04-.58-.21-.5-.56,0,0,0,.02,0,.02,0,0,0,.02,.01,.02v-.03s0,0-.01,0c-.21-.38-.84-.42-.99-.91-.16-.45,.44-.75,.78-.5,.05-.55,.4-1.07,.92-1.31,.63-.29,1.32-.12,1.77,.32,1.44-.94,2.91,.16,4.02,1.1,1.77,1.19,3.03,2.8,4.6,4.23,2.05,.28,2.48,2.81,3.71,4.15,.85,1.83-1.23,3.58-2.97,2.88,1.73,6.87,3.26,13.79,4.31,20.81,.14,2.05,1.64,6.76-1.86,6.34-.02,.64,.59,2.01-.3,2.18-.19,0-.38-.11-.43-.35Z"/><path class="cls-1" d="M221.96,215.93c-.08-2.08,1.63-4.1,3.78-4.1s4.01,1.57,4.1,3.78c.08,2.08-1.63,4.1-3.78,4.1s-4.01-1.57-4.1-3.78Z"/><path class="cls-1" d="M221.14,250.23c-.1-2.39,1.88-4.72,4.36-4.72s4.62,1.81,4.72,4.36c.1,2.39-1.88,4.72-4.36,4.72s-4.62-1.81-4.72-4.36Z"/><path class="cls-1" d="M284.54,233.21c-.07-1.88,1.47-3.71,3.41-3.71s3.62,1.42,3.71,3.41c.07,1.88-1.47,3.71-3.41,3.71s-3.62-1.42-3.71-3.41Z"/><path class="cls-1" d="M326.59,204.38c-.06-1.47,1.15-2.9,2.67-2.9s2.83,1.11,2.9,2.67c.06,1.47-1.15,2.9-2.67,2.9s-2.83-1.11-2.9-2.67Z"/><path class="cls-1" d="M275.65,323.15c-.1-2.51,1.96-4.94,4.55-4.94s4.84,1.89,4.94,4.55c.1,2.51-1.96,4.94-4.55,4.94s-4.84-1.89-4.94-4.55Z"/><path class="cls-1" d="M232.22,339.87c-.08-2.07,1.62-4.08,3.75-4.08s3.99,1.56,4.08,3.75c.08,2.07-1.62,4.08-3.75,4.08s-3.99-1.56-4.08-3.75Z"/><path class="cls-1" d="M256.69,252.05c-.02-.49,.38-.97,.9-.97s.95,.37,.97,.9c.02,.49-.38,.97-.9,.97s-.95-.37-.97-.9Z"/><path class="cls-1" d="M296.26,198.33c-.04-1.15,.9-2.27,2.09-2.27s2.22,.87,2.27,2.09c.04,1.15-.9,2.27-2.09,2.27s-2.22-.87-2.27-2.09Z"/><path class="cls-1" d="M184.84,226.8c-.06-1.37,1.07-2.71,2.51-2.71s2.66,1.04,2.71,2.51c.06,1.37-1.07,2.71-2.51,2.71s-2.66-1.04-2.71-2.51Z"/><path class="cls-1" d="M187.61,192.21c-.13-3.29,2.58-6.5,5.99-6.5s6.36,2.48,6.5,5.99c.13,3.29-2.58,6.5-5.99,6.5s-6.36-2.48-6.5-5.99Z"/><path class="cls-1" d="M242.7,311.02c-.1-2.37,1.86-4.67,4.31-4.67s4.57,1.79,4.67,4.31c.1,2.37-1.86,4.67-4.31,4.67s-4.57-1.79-4.67-4.31Z"/><path class="cls-1" d="M332.77,262.76c-.08-2.06,1.61-4.05,3.73-4.05s3.96,1.55,4.05,3.73c.08,2.06-1.61,4.05-3.73,4.05s-3.96-1.55-4.05-3.73Z"/><path class="cls-1" d="M352.33,262.46c-.44-.06-.71-.46-.67-.89,.76-9.14,1.44-18.29,1.7-27.44,.65-27.04-.32-54.22,3.24-81.1,1.22-8.98,2.24-17.99,3.66-26.94,.07-.61,.43-1.99,1.19-1.25,.22,.46,.65,2.45-.43,2-4.14,30.94-3.64,62.22-4.59,93.36-.29,11.82-1.33,23.44-2.53,35.14-.2,2.15-.4,4.3-.67,6.45-.05,.43-.47,.73-.89,.68Z"/><path class="cls-1" d="M189.17,387.04c-1.92-15.57-2.03-31.36-3.85-46.95-1.56-13.56-3.55-27.08-4.72-40.68-.37-4.86-.85-9.73-.77-14.61,.01-.22,.15-.41,.38-.45,.25-.03,.45,.15,.5,.38,.02,1.6,.31,3.33,.1,4.88,1.86,28.15,6.9,55.98,8,84.2,.54,4.3,.56,8.73,1.22,12.99,.15,.53-.7,.81-.87,.24Z"/></svg>