<?xml version="1.0" encoding="UTF-8"?><svg id="Ebene_1" xmlns="http://www.w3.org/2000/svg" viewBox="0 0 500 500"><defs><style>.cls-1{fill:#00010d;}</style></defs><path class="cls-1" d="M196.69,91.31c.11-.11,.22-.22,.33-.34-1.83,1-3.59-.61-4-2.37-1.22-5.18,2.24-10.07,5.04-14.14,15.5-21.15,47.49-21.85,69.68-11.84,2.02,1.08,1.6,4.38-.64,4.89-1.79,.4-3.88-1.38-5.38-1.75-19.82-6.15-44.53-3.95-58.55,12.82-2.43,3.36-6.79,7.07-6.06,11.52,.44,.04,1.13,.06,1.05,.65-.16,.53-.67,1.11-1.18,1.31-.33,0-.6-.49-.27-.79l-.03,.03Z"/><path class="cls-1" d="M193.07,93.25c-12.04-1.09-18.89-9.58-15.38-21.53,2.3-7.39,8.36-12.92,14.11-17.78,16.2-13.16,44.69-21.04,64.28-11.87,5.22,2.82,9.1,7.42,12.35,12.27,1.05,2.31,5.73,5.45,3.16,7.91-1.04,.81-2.47,.46-3.16-.6-1.75-2.67-3.22-5.13-5.08-7.58-2.92-3.99-6.77-7.25-11.4-8.99-19.28-5.42-40.75,2.17-55.41,15.1-5.63,5.44-12.57,12.51-10.4,21.05,2.56,5.57,9.03,8.09,14.26,10.37,1.09,1.55-6.36,1.95-7.34,1.66Z"/><path class="cls-1" d="M221.48,101.38c-9.5-.99-4.53-14.47-1.24-19.52,6.55-10.85,16.48-15.99,28.73-17.88,11.32-2.18,23.19-4.91,34.52-1.38,8.78,2.62,12.19,13.26,11.78,21.58-1.27,6.36-10.06,4.19-14.81,5.41-8.15,1.04-15.65,2.66-23.55,4.43-11.74,2.52-23.3,7.51-35.43,7.36Zm1.5-4.75c8.86-.35,16.79-4.59,25.38-6.28,13.77-2.69,27.49-5.6,41.46-6.83-.51-4.96-1.45-10.96-5.59-14.22-6.14-3.05-13.57-2-20.12-1-11.47,2.97-24.82,3.52-34.02,11.69-4.5,4.35-9.54,9.84-9.18,16.51,.68,.18,1.38,.14,2.08,.13Z"/><path class="cls-1" d="M265.8,116.34c-14.04,.75-23.96-8.67-11.2-19.95,2.82-2.25,8.03-6.56,11.58-3.98,10.29-3.59,21.17-5.6,31.97-7.03,11.54-.92,25.91-4.62,34.87,4.91,5.52,5.55,6.05,18.18-3,20.36-7.82,1.88-15.98,1.69-23.93,2.78-13.4,1.59-26.78,3.19-40.29,2.91Zm-2.3-3.28c9.48-.98,18.99-2.22,28.21-4.71,9.85-3,19.98-5.08,30.26-5.78,2.1-.24,4.27-.28,6.33-.79,.65-.31,.44-1.3,.61-1.91,1.02-6.26-6.37-9.12-11.5-9.37-15.34-.49-49.61,5.17-61.3,14.69-1.05,2.49-4.86,1.38-4.19-1.31,1.65-6.01,8.27-8.68,13.43-11.11-3.88-1.04-7.4,2.11-10.24,4.33-10.03,9.03-3.56,17.05,8.39,15.98Z"/><path class="cls-1" d="M246.25,85.21c0-.85,.73-1.55,1.58-1.55s1.56,.73,1.55,1.58-.73,1.55-1.58,1.55-1.56-.73-1.55-1.58Z"/><path class="cls-1" d="M261.13,80.97c0-1.36,1.15-2.47,2.51-2.47s2.48,1.16,2.47,2.51c0,1.36-1.15,2.47-2.51,2.47s-2.48-1.16-2.47-2.51Z"/><path class="cls-1" d="M276.5,73.7c.01-1.31,1.12-2.38,2.43-2.38s2.39,1.12,2.38,2.43c-.01,1.31-1.12,2.38-2.43,2.38s-2.39-1.12-2.38-2.43Z"/><path class="cls-1" d="M220.53,82.89c-.17-.17-.16-.44,0-.61,.87-.97,1.72-1.95,2.6-2.91-1.22,.96-2.42,1.94-3.61,2.93-.42,.34-.98-.33-.52-.68,6.28-4.84,12.1-10.28,18.68-14.72,4.11-2.76,9.03-4.28,13.09-7.03-.16-.37-.86-.78-.38-1.2,.54-.35,.95,.49,1.18,.87,.3,.74-.47,1.28-1.03,1.6-5.2,2.83-10.8,4.96-15.49,8.64,7.98-4.65,16.72-8.33,25.94-9.45,1.01-.02,1.05,.91,.11,1.22-9.93,4-20.67,6.34-29.68,12.27-3.47,2.46-6.74,5.19-9.62,8.33-.37,.31-.7,1.16-1.26,.74Zm15.85-12.93c-.12,.06-.23,.13-.35,.21,7.39-3.62,15.3-5.92,23-8.72-8.04,1.36-15.59,4.56-22.65,8.51Z"/><path class="cls-1" d="M270.79,91.54c0-.24,.2-.43,.43-.43s.43,.2,.43,.43c0,.24-.2,.43-.43,.43s-.43-.2-.43-.43Z"/><path class="cls-1" d="M202.05,67.7c0-.61,.52-1.11,1.12-1.11s1.11,.52,1.11,1.12c0,.61-.52,1.11-1.12,1.11s-1.11-.52-1.11-1.12Z"/><path class="cls-1" d="M220.49,55.55c.01-1.72,1.46-3.12,3.16-3.12s3.13,1.46,3.12,3.16c-.01,1.72-1.46,3.12-3.16,3.12s-3.13-1.46-3.12-3.16Z"/><path class="cls-1" d="M247.33,53.24c0-1.2,1.01-2.16,2.19-2.16s2.17,1.01,2.16,2.19c0,1.2-1.01,2.16-2.19,2.16s-2.17-1.01-2.16-2.19Z"/><path class="cls-1" d="M276.62,104.58c.02-2.53,2.14-4.6,4.66-4.6s4.61,2.16,4.6,4.66c-.02,2.53-2.14,4.6-4.66,4.6s-4.61-2.16-4.6-4.66Z"/><path class="cls-1" d="M298.42,97.91c0-1.59,1.34-2.88,2.92-2.88s2.9,1.35,2.88,2.92c0,1.59-1.34,2.88-2.92,2.88s-2.9-1.35-2.88-2.92Z"/><path class="cls-1" d="M240.38,130.28c-28.07-3.23-60.89-11.06-75.44-37.8-13-24.84,18.83-36.4,36.26-44.95,4.03-1.94,8.41-3.23,12.52-4.82,.42-.32,.95,.33,.53,.68-2.52,1.22-5.39,1.82-7.96,2.92-19.96,8.85-58.42,23.79-34.79,50.08,17.87,22.34,56.99,26.88,83.79,26.11,10,.14,20.12-.27,29.92-1.63,10.31-.89,20.75-1.81,30.54-5.39,7.71-3.72,16.75-6.36,22.37-13.14,13.33-19.12-8.29-40.16-25.41-47.31-12.99-5.11-26.96-7.37-40.63-9.72-4.57-.69-9.18-1.22-13.8-1.44-2.22-.32-6.05,1.31-6.77-1.76-1.01-6.48,26.72-2.14,31.02-1.69,22.23,3.44,42.33,8.8,57.47,26.67,11.65,12.11,13.14,35.23-3.66,43.5-12.29,6.97-25.18,12.92-39.21,15.26-18.65,3.89-37.73,5.65-56.76,4.43Z"/><path class="cls-1" d="M243.6,140.34c-16.32-.17-32.6-3.49-47.25-10.82-10.12-4.79-20.09-10.45-28.11-18.37,.08,.47-.66,.63-.82,.21-.46-.89,.15-1.88,1.18-1.03,8.13,7.99,18.15,13.73,28.4,18.54,14.01,6.99,29.62,10.24,45.25,10.58,13.26-.12,26.56-1.36,39.64-3.29,3.31-.71,6.5-1.68,9.75-2.62,.28-.08,.58,.07,.67,.35,.08,.28-.07,.58-.36,.66-6.74,2.15-13.69,3.44-20.75,3.89-9.13,1.1-18.38,1.95-27.6,1.88Z"/><path class="cls-1" d="M319,406.67c-1.38-.12-2.49-1.4-2.34-2.8,.79-8.36,2.55-16.56,4.23-24.78,1.98-8.83,2.42-17.8,3.16-26.77,.93-10.22,2.48-20.36,3.47-30.57,3.95-42.23,6.75-84.58,12.99-126.56,1.74-17.23,2.08-34.56,3.98-51.78,2.25-20.43,3.25-41,2.92-61.52-.08-.89,0-1.84,.25-2.67,.07-.3-.11-.62,.07-.89,.28-.4,.86-.06,.78,.34-.21,1.83-.31,3.64-.23,5.51,1.44,23.45,1.09,46.89,.09,70.34-.46,13.23-.24,26.44-1.18,39.64-.82,10.37-2.49,20.65-4.35,30.87-2.11,13.79-3.02,27.74-4.88,41.56-2.72,23.88-3.73,47.92-6.63,71.78-2.05,12.94-2.33,26.11-4.96,38.96-1.08,5.12-2.31,10.25-3.17,15.41-.57,3.85-.94,7.71-1.41,11.58-.16,1.4-1.39,2.47-2.8,2.34Z"/><path class="cls-1" d="M154.29,399.68c-3.08-20.07-4.16-40.4-5.8-60.63-1-16.92,.08-33.87,.12-50.8,.23-20.66-.91-41.32,1.32-61.93,.69-13.75,1.08-27.52,2.11-41.26,.7-10.37,.16-20.82,1.68-31.12,2.54-15.77,3.55-31.32,5.28-47.14,.85-9.23,3.71-18.32,2.41-27.63-.68-.34,.28-1.81,.76-.94,.91,7.69,.99,15.66,.46,23.38,.7,21.01-.38,42.01-1.9,62.94,.32,29.41-1.11,58.78-2.73,88.12,.03,19.02-.46,38.04-1.5,57.04-1.49,19-.56,37.75,1.03,56.64,.63,10.81,.88,21.65,2.34,32.39,.51,3.43-4.77,4.79-5.57,.95Z"/><path class="cls-1" d="M244.41,461.78c-11,.18-21.55-2.45-31.92-5.74-6.79-1.89-13.21-5.04-18.96-9.12-11.72-8.02-19.85-20.09-27.64-31.72-3.64-5.48-5.95-11.68-8.24-17.81-.38-1.03,.25-2.25,1.22-2.69,1.12-.5,2.43,.02,2.95,1.11,8.88,21.46,27.32,37.22,48.08,46.75,14.89,5.53,31.15,10.1,47.12,7.62,18.61-4.19,37.41-11.45,49.78-26.65,5.63-7.56,11.77-15.26,14.7-24.3,.75-2.8,.07-5.77,.77-8.55,.29-.42,.92-.03,.76,.4-.46,2.46-.02,4.94-.49,7.38-1.01,4.7-3.64,8.81-5.85,13.02-9.41,18.04-23.71,33.47-42.11,42.48-9.46,4.52-19.45,8.76-30.16,7.82Z"/><path class="cls-1" d="M237.66,421.59c-28.4-1.94-58.55-14.52-73.23-40.05-.53-.83-.32-1.98,.44-2.6,2.84-2.05,4.82,3.8,6.64,5.35,22,27.03,64.96,30.82,97.48,28.31,9.2-.56,17.32-5.31,25-10.04,8.47-5.6,17.22-11.35,23.52-19.38,5.17-5.96,8.57-12.99,11.22-20.34,.18-.38,.56-1.28,1.13-1.12,.43,.13,.32,.66,0,.8h.02s.07-.05,.1-.06c-4.05,10.13-9.25,19.99-16.81,28.05-10.09,9.63-21.19,18.44-33.44,25.17-13.13,5.78-27.91,6.56-42.05,5.92Z"/><path class="cls-1" d="M233.21,186.06c-17.99-1.76-33.55-10.71-47.56-21.48-3.63-2.87-6.95-6.1-10.26-9.34-1.02-1.01-1.12-2.66-.11-3.73,.97-1.07,2.68-1.09,3.73-.12,10.6,9.12,22.64,16.8,35.31,22.42,13.87,6.29,29.14,6.07,44.04,6.48,20.1,1.3,39.93-3.86,58.58-10.79,9.35-3.18,18.1-9.06,22.45-18.15,2.9-1.35-4.16,8.09-4.78,8.44-7.83,9.49-19.86,13.43-30.87,17.98-22.32,9.1-46.78,9.53-70.52,8.28Z"/><path class="cls-1" d="M199.01,448.77c-14.24-2.87-23.11-15.83-31.54-26.57-20.42-27.7-16.97-68.68-18.52-101.54-.99-19.87-.19-39.81,.2-59.69,1-18.35,2.66-36.66,4.06-54.99,1.13-23.63,.99-47.34,2.43-70.98,.34-8.03,1.08-16.03,2.06-24.01,1.75-13.57,2.16-28.4,9.78-40.21,.62-.7,1.19-1.58,2.08-1.89,1.29-.13,1.43,1.03,1.28,2.06,.03,.51-.78,.61-.86,.07,0-.39,.04-.64,.03-1.01-.13-.8-.89,.27-1.14,.51-2.56,4.39-3.7,9.35-4.71,14.25-3.3,20.01-2.97,40.46-2.65,60.68,0,19.86,.58,39.75-.34,59.6-1.17,16.13-2.52,32.44-3.98,48.52-1.31,27.71-1.25,55.47-1.19,83.2,.03,13.38,.57,26.67,2.07,39.8,.7,9.1,2.06,18.17,5.22,26.79,3.16,9.58,9.1,17.7,15.09,25.56,4.14,5.35,8.28,10.81,13.86,14.58,2.23,1.42,4.61,2.6,7.17,3.24,.49,.13,.81,.63,.75,1.13-.07,.55-.61,.98-1.16,.89Z"/><path class="cls-1" d="M319.77,409.55c-1.48-.2-2.51-1.59-2.33-3.05,.51-3.46,.89-6.92,1.28-10.4,1.32-16.7,2.53-32.88,5.59-49.3,3.53-26.77,4.98-53.77,9.28-80.46,4.32-30.55,6.18-61.39,10.53-91.93,2.55-26.26,9.07-52.71,5.27-79.15-.16-2.98-1.74-8.46-.05-7.28,.37,3.34,.82,6.75,1.29,10.11,3.49,28.3-.82,56.83-3.04,85.08-2.68,31.73-4.77,63.24-9.02,94.78-2.71,20.11-4.28,40.34-6.3,60.52-1.57,13.25-4.03,26.37-5.27,39.66-.72,7.99-1.24,16.04-2.98,23.9-.85,2.69-.41,7.64-4.24,7.5Z"/><path class="cls-1" d="M306.24,367.07c.38-22.39,2.03-44.79,4.26-67.07,2.27-17.84,4.28-35.72,5.58-53.65,1.86-24.37,3.93-48.72,6.89-72.98,2.66-17.98,6.09-35.84,8.61-53.84,.32-.95,.17-2.24,.99-2.88,.26-.09,.55,.05,.6,.34,.15,1.04,.29,2.08,.43,3.12,.04,.32-.22,.49-.47,.47-.92,28.27-4.52,56.36-5.03,84.67-1.25,24.32-2.08,48.67-4.62,72.9-1.24,12.08-3.22,24.07-4.43,36.15-1.67,17.77-2.84,35.61-5.7,53.24-.66,4.25-6.98,3.98-7.1-.47Z"/><path class="cls-1" d="M232.95,438.44c-8.91-.22-17.74-2.6-25.63-6.7-7.39-4.66-15.34-8.92-21.77-14.86-.41-.21-1.15,.17-1.32-.42-.11-.39,.31-.62,.6-.5,3.01-.65,6.05,.25,8.9,1.24,9.32,3.09,18.09,7.75,27.78,9.66,11.52,2.12,23.12,.6,34.62-.68,9.68-.91,19.21-2.98,27.84-7.59,4.25-2.06,9.36,2.43,7.95,6.91-.38,1.39-1.35,2.84-2.66,3.51-3.56,1.88-7.22,3.53-11.04,4.8-14.57,4.27-30.15,4.85-45.27,4.65Z"/><path class="cls-1" d="M211.29,231.39c0-2.71,2.26-4.97,4.97-4.97s4.97,2.26,4.97,4.97c0,2.71-2.26,4.97-4.97,4.97s-4.97-2.26-4.97-4.97Z"/><path class="cls-1" d="M211.16,271.27c0-1.15,.96-2.1,2.1-2.1s2.1,.95,2.1,2.1-.96,2.1-2.1,2.1-2.1-.95-2.1-2.1Z"/><path class="cls-1" d="M173.6,253.03c0-2.96,2.47-5.43,5.43-5.43s5.43,2.47,5.43,5.43c0,2.96-2.47,5.43-5.43,5.43s-5.43-2.47-5.43-5.43Z"/><path class="cls-1" d="M193.07,316.66c0-1,.84-1.84,1.84-1.84s1.84,.84,1.84,1.84-.84,1.84-1.84,1.84-1.84-.84-1.84-1.84Z"/><path class="cls-1" d="M252.86,281.83c0-.4,.34-.74,.74-.74s.74,.34,.74,.74-.34,.74-.74,.74-.74-.34-.74-.74Z"/><path class="cls-1" d="M233.69,331.7c0-1.18,.99-2.16,2.16-2.16s2.16,.99,2.16,2.16c0,1.18-.99,2.16-2.16,2.16s-2.16-.99-2.16-2.16Z"/><path class="cls-1" d="M225.1,367.48c0-2.41,2.02-4.41,4.41-4.41s4.41,2.01,4.41,4.41c0,2.41-2.02,4.41-4.41,4.41s-4.41-2.01-4.41-4.41Z"/><path class="cls-1" d="M191.34,368.41c0-2.18,1.81-3.99,3.99-3.99s3.99,1.81,3.99,3.99-1.81,3.99-3.99,3.99-3.99-1.81-3.99-3.99Z"/><path class="cls-1" d="M256.45,262.82c0-2.88,2.41-5.29,5.29-5.29s5.28,2.41,5.29,5.29c0,2.88-2.41,5.29-5.29,5.29s-5.28-2.41-5.29-5.29Z"/><path class="cls-1" d="M282.81,211.14c0-.34,.29-.64,.63-.64s.63,.3,.63,.64c0,.34-.29,.64-.63,.64s-.63-.3-.63-.64Z"/><path class="cls-1" d="M262.66,320.87c0-3.28,2.74-6.02,6.02-6.02s6.02,2.74,6.02,6.02c0,3.28-2.74,6.02-6.02,6.02s-6.02-2.74-6.02-6.02Z"/><path class="cls-1" d="M251.46,280.59c0-1.5,1.26-2.76,2.76-2.76s2.76,1.26,2.76,2.76-1.26,2.76-2.76,2.76-2.76-1.26-2.76-2.76Z"/><path class="cls-1" d="M261.34,215.93c0-3.28,2.74-6.02,6.02-6.02s6.02,2.74,6.02,6.02c0,3.28-2.74,6.02-6.02,6.02s-6.02-2.74-6.02-6.02Z"/><path class="cls-1" d="M184.02,193.96c0-.96,.8-1.76,1.76-1.76s1.76,.8,1.76,1.76-.81,1.76-1.76,1.76-1.76-.8-1.76-1.76Z"/><path class="cls-1" d="M244.64,115.55c-15.11,.29-30.55-1.24-44.13-8.37-14.59-6.91-31.27-24.74-14.17-38.5,1.62-1.02,3.97-.84,5.07,.85,1.56,2.61,.57,5.93,.85,8.84-1.62,2.62-.43-6.89-1.12-7.51-.39-1.19-1.55-2.11-2.82-1.96-4.58,1.17-6.86,6.44-8.01,10.59-1.36,5.71,1.66,11.3,5.36,15.44,11.22,12.05,28.12,17.48,44.12,18.74,7.1,.39,14.22,.39,21.34,.28,.42,0,.76,.36,.76,.76,.21,1.52-6.07,.54-7.24,.83Z"/><path class="cls-1" d="M157.41,127.2c-1.45-.9-1.83-2.58-2.08-4.15-.48-3.23-.39-6.53-.41-9.79,.37-10.42,.31-21.02,2.4-31.27,2.71-10.78,9.06-20.95,18.84-26.58,8.62-4.34,18.44-5.54,27.44-9.02,4.71-1.4,7.64,5.56,3.28,7.91-4.22,2.1-8.44,4.19-12.76,6.09-5.4,2.55-11.4,4.2-16,8.15-10.63,9.03-11.96,23.48-13.84,36.4-.66,5.25-1.73,10.47-1.85,15.77-.03,1.67,.01,3.33-.34,4.97-.47,1.99-3.09,2.82-4.67,1.53Z"/><path class="cls-1" d="M215.48,94.92c-7.19-2.93-15.03-2.58-22.52-3.93-.76,.66-1.07-.85-.82-1.38,.27-.62,1.12-1.03,1.65-1.37,7.29-3.25,15.83-4.57,23.74-3.26,7.1,1.25,4.84,11.66-2.05,9.95Z"/><path class="cls-1" d="M220.5,84.23c-7.19-1.97-14.69-2.74-22.08-3.12-.77-.09-.84-1.12-.53-1.67,2.87-3.53,8.16-3.61,12.33-4.44,4.23-.51,8.6-.81,12.76,.32,5.82,1.68,3.42,10.45-2.49,8.92Z"/><path class="cls-1" d="M230.08,72.97c-4.93-1.61-10.49-2.71-15.59-2.93-1.63-.28-3.56,.2-5.01-.52-.03-3.86,13.17-5.07,16.37-5.21,1.99-.12,4.01-.18,5.99,.15,6.03,1.03,4.12,9.98-1.76,8.51Z"/><path class="cls-1" d="M334.37,107.16c-.64-.18-1.01-.86-.85-1.5,.86-3.5,1.76-7.21,2.1-10.74,.89-14.96-10.98-26.82-23.92-32.29-6.14-2.79-12.97-3.33-19.55-4.34-6.29-.86-12.61-1.6-18.96-1.59-2.17-.31-13.76,1.39-13.61-.73,.18-.36,.79-.47,.94-.03,.05,.01,.1,.02,.09,.01,9.95,.45,19.94-.92,29.9,.27,9.38,.74,19.03,1.66,27.27,6.61,12.93,6.72,22.78,21.22,19.8,36.14-.48,2.46-1.02,4.92-1.71,7.33-.17,.64-.87,1.02-1.49,.85Z"/></svg>