<?xml version="1.0" encoding="UTF-8"?><svg id="Ebene_1" xmlns="http://www.w3.org/2000/svg" viewBox="0 0 500 500"><defs><style>.cls-1{fill:#00010d;}</style></defs><path class="cls-1" d="M163.69,172.88c-6.61-.64-6.43-10.37,.21-10.78,7.51-1.88,15.17-7.25,16.09-15.49,.87-9.46-1.63-18.94-5.08-27.68-3.18-7.35-6.11-15.12-11.24-21.36-3.96-4.61-10.99-2.99-15.46-.05-.41,.3-.89-.33-.54-.65,3.99-4.24,9.37-8.3,15.56-6.65,5.96,1.33,9.85,6.64,13.15,11.37,7.33,10.33,11.83,22.75,12.95,35.29,2.09,12.63-1.12,25.11-12.89,31.71-3.92,2.12-8.12,4.71-12.74,4.3Z"/><path class="cls-1" d="M163.4,167.11c-.62-1.27,.36-2.38,1.51-2.83,14.4-7.5,6.56-21.44-1.08-30.87-5.42-8.61-24.16-32.8-10.38-40.08,.67-.34,1.45-.95,2.22-.7,.68,.54-.3,1.03-.83,.93-11.65,6.62,3.89,25.37,8.7,32.68,6.42,8.3,14.44,17.23,12.93,28.53-.62,4.15-3.16,7.73-6.27,10.43-1.68,1.26-5.13,4.58-6.8,1.91Z"/><path class="cls-1" d="M156.75,188.67c-3.66-3.71-4.96-9.22-8.71-12.97-5.43-6.02-12.37-10.46-19.08-14.92-4.75-3.16-10.74-7.06-10.64-13.45,1.26-12.68,21.75-8.18,29.47-4.44,9.52,3.9,17.22,14.04,28.15,13.48,.49-.15,1.79-.74,1.84,.18,.02,.4-.43,.53-.69,.36-9.81,4.16-19.59-1.1-28.38-5.29,8.04,8.45,19.04,21.88,14.13,34.17-.83,2.38-3.66,4.61-6.08,2.88Zm2-3.1c6.35-9.89-4.95-20.71-11.9-26.91-2.87-2.17-6.06-4.52-9.11-6.34-1.78-1.19-4.36-2.04-4.68-4.45-2.61-.15-5-.29-7.47,.24,.25,2.78,3.13,4.55,5.03,6.31,4.18,3.26,8.53,6.31,12.44,9.9,7.07,5.65,11.96,13.15,15.7,21.25Z"/><path class="cls-1" d="M232.38,120.28c-15.57-.93-31.38,.2-46.81-2.26-1.16,.07-2.57-.36-2.57-1.76,0-.98,.78-1.69,1.72-1.75,4.25-.15,8.49,.5,12.74,.75,6.21,.21,12.42-.08,18.62-.15,13.97-.19,28.01,.77,41.81-1.12,7.74-.85,15.5-1.44,23.28-1.86,12.2-1.45,24.37-3.18,36.56-4.75,15.76-2.71,74.57-15.12,58.27-39.14-3.23-4.35-10.75-5.23-15.21-7.41-32.5-10.79-66.75-16.42-101-16.29-10.98,.33-21.98-.15-32.94,.48-14.28,.91-28.38,3.49-42.4,6.22-17.25,3.98-35.25,7.2-50.68,16.3-6.85,4.13-12.22,12.99-7.39,20.58,5.65,6.7,14.74,9.44,22.03,13.96,.73,.06,.48,1.08-.13,.86-.29-.13-.61-.13-.92-.17-17.27,.17-38.7-8.84-31.86-29.74,7.66-17.99,30.64-21.73,47.61-26.19,27.77-5.96,55.94-11.89,84.51-10.22,34.48-.63,69.33,2.31,102.64,11.58,9.56,2.96,19.83,5.14,28.23,10.77,6.53,6,9.33,16.19,5.88,24.51-6.08,13.62-21.59,19.57-34.8,24.14-18.44,6.76-37.22,7.99-56.47,9.52-7.85,.99-15.74,.91-23.63,1.32-12.34,.95-24.68,2.24-37.07,1.81Z"/><path class="cls-1" d="M257.1,231.46c-4.09-3.56,2.81-8.95,4.7-12.12,5.18-6.49,10.67-12.73,16.04-19.05,21.11-26.13,45.36-49.38,68.38-73.77,12.98-14.65,27.08-28.79,36.55-45.95-.11-.09-.16-.23-.11-.41,.26-.81,.45-1.75,1.1-2.33,.28-.25,.79-.05,.72,.35-2.64,7.65-7.6,14.45-11.83,21.32-21.1,31.23-46.86,58.88-71.25,87.49-10,11.66-20.14,23.2-30.49,34.55-2.18,2.41-4.34,4.86-6.61,7.18-1.87,1.91-4.44,4.85-7.2,2.72Z"/><path class="cls-1" d="M167.79,155.6c-13.06-12.96-24.25-27.92-34.63-43.02l.05,.08s.04,.05,.05,.08c-5.43-8.9-12.11-17.34-16.35-26.87-.22-.4,.31-.91,.67-.54,11.56,9.33,18.93,22.46,27.74,34.18,7.27,9.77,14.89,19.28,22.32,28.94,1.14,2.19,5.39,4.47,3.29,7.09-.87,.9-2.24,.86-3.15,.06Z"/><path class="cls-1" d="M229.32,232.95c-16.49-17.73-30.69-37.41-43.07-58.18-.61-1.27-8.95-14.12-3.43-10.2,.03,.02,.07,.03,.1,.04,.4-.16,.82,.42,.42,.73-.35,.27-.79,.09-1.14-.13,14.91,16.51,30.44,32.47,43.18,50.79,2.82,3.86,5.54,7.79,8.25,11.73,1.41,1.54,1.81,4.03,0,5.42-1.21,.96-3.23,.98-4.31-.21Z"/><path class="cls-1" d="M283.08,414.85c-3.67-5-9.75-7.36-14.11-11.7-20.31-16.61-25.68-34.51-24.02-60.13,.81-13.42,2.38-26.78,3.63-40.17,1.03-12.88,.6-25.28,2.22-38.03,1.08-11.44,2.75-22.81,3.56-34.28-.07-1.14,.39-2.57,1.79-2.56,.96-.01,1.76,.79,1.78,1.74,.25,13.38-1.01,26.72-1.74,40.07-.31,19.83-.88,39.68-.8,59.52,.5,14.96-.14,30.44,4.53,44.72,1.47,4.11,3.76,8.06,6.2,11.57,5.5,7.91,10.64,16.17,14.87,24.83,.67,1.46,1.8,2.62,2.75,3.89,.25,.31-.05,.69-.35,.69-.11,0-.22-.05-.31-.16Z"/><path class="cls-1" d="M205.27,408.97c22.32-13.5,22.45-43.59,25.55-66.71,.98-12.61,2.46-25.75,3.44-38.26,.72-17.16,.17-34.35-.86-51.43-.18-5.84,.28-11.73-.58-17.52-1.4-4.28-4.97-7.47-7.27-11.3-.88-1.28-.4-3.19,.77-4.1,1.37-1.08,3.38-.82,4.46,.53,2.38,3,4.74,6.04,6.63,9.39,2.94,5.37,2.78,11.66,3.25,17.6,.3,13.65-.49,27.3-.15,40.95,.16,8.52,.63,17.39,.03,25.82-2.07,28.03-2.35,81.6-32.05,94.5-1.03,.47-3.77,2.13-3.2,.55Z"/><path class="cls-1" d="M238.72,239.1c-3.41,0-6.7-1.58-8.35-4.63-4.19-5.77-8.76-11.25-12.9-17.05-11.79-16.01-22.42-32.68-34.88-48.17-.4-.25-.99-.88-.57-1.32,.15-.13,.41-.13,.56,.03,.63,.69,1.23,1.42,1.81,2.16,4.16,5.11,7.89,10.55,11.79,15.85,11.92,16.4,23.95,33,37.62,47.97,5.51,3.7,12.54-.37,17.02-3.98,2.46-1.99,4.34-3.86,6.59-5.95,.35-.33,.78-.55,1.27-.55,1.55-.06,2.4,1.94,1.31,3.03-1.97,2.16-3.99,4.3-6.17,6.25-4.16,3.64-9.4,6.69-15.1,6.36Z"/><path class="cls-1" d="M243.48,238.53c-5.44-1.66-9.59-5.91-13.23-10.11-1.4-1.8-10.51-12.65-5.14-12.82,4.84,3.17,8.76,7.68,13.69,10.79,4.7,3.26,9.12,4.57,13.99,.83,4-2.44,8.62-3.19,12.95-4.58,.34-.18,.83,.17,.59,.57-.14,.23-.37,.27-.62,.3-1.65,.56-1.99,2.64-3,3.91-4.12,6.53-10.62,14.22-19.23,11.12Z"/><path class="cls-1" d="M238.37,209.51c-11.66-.78-22.3-7.14-30.94-14.66-6.12-4.79-9.77-12.64-16.45-16.56-.48-.06-.31,.6-.17,.85,.28,.48-.45,.91-.73,.43-.47-.71-.37-2.03,.66-2.14,1.5,0,2.64,1.29,3.71,2.2,4.03,3.91,7.31,8.57,11.29,12.5,7.03,6.64,16.03,11.46,25.35,13.89,5.03,.99,10.19,.67,15.23,.27-.09,0-.14,.01-.22,.02,9.89-.6,19.74-3.58,28.67-7.61,1.55-.93,3.09-1.96,4.52-2.97,.34-.24,.8-.21,1.07,.13,1.18,1.39-8.17,6.79-9.58,7.53-9.9,5.41-21.27,7.01-32.41,6.13Z"/><path class="cls-1" d="M239.95,222.48c-3.18-.21-7.16-1.16-7.81-4.83-1.05-.49-4.4-2.19-2.63-3.41,.93-.44,1.99,.37,2.84,.7,.02-.06,.04-.12,.06-.17,.09-.22,.19-.43,.3-.64-2.39-4.43,2.01-10.76,7.04-8.74,1.76,.69,3.1,2.41,3.36,4.28,1.58,1.97,2.62,4.6,1.48,7.07,3.02,1.22,2,6.02-1.2,5.91v.02c-1.18,.06-2.27-.03-3.45-.19Zm-7.84-6.57s.01-.07,.02-.11c-.73-.32-1.45-.84-2.23-.79,.47,.68,1.49,.65,2.22,.9Z"/><path class="cls-1" d="M232.87,208.23c-1.1-.43-1.91-1.28-2.37-2.33h-.01c-7.2-16.1-15.07-31.93-23.33-47.53-4.64-8.38-8.86-17.13-15.03-24.51-.75,.88-1.98-.93-2.34-1.54-.24-.43,.37-.91,.77-.85,4.47,3.06,7.29,8.21,10.55,12.49,6.13,9.06,11.85,18.38,17.63,27.66-3.44-12-5.82-24.85-8.08-36.96-.29-1.69,.9-3.38,2.51-3.83,1.73-.48,3.36,.45,4.12,2,1.96,4.38,3.05,9.1,4.65,13.63-.62-6.72-1.08-13.47-1.14-20.22,.08-7.18,10.46-8.02,11.61-.88,1.78,12.11,2.45,24.35,3.41,36.53,1.43,8.37,2.99,16.74,3.65,25.21,.08,2.75,1.03,5.63-.21,8.24,1.1,2.78,2.19,6.24-.58,8.45,.42,3.02-2.92,5.65-5.79,4.41Z"/><path class="cls-1" d="M220.2,175.95c-4.54-3.3-7.92-7.86-11.73-11.92-2.21-2.18-4.09-5.4-2.88-8.54-3.57-3.48-9.76-7.68-7.66-13.41-2.88-1.33-4.84-4.74-3.98-7.87-1.58-.52-3-1.54-3.69-3.1-.67,.45-1.34,.02-1.46-.73-.03-.62,.47-1.12,.96-1.46-.06-4.71,4.76-6.54,8.68-5.09,3.6,.65,7.21,1.15,10.84,1.66,5.2,1.02,10.94,1.22,15.69,3.6,5.83,2.92,2.95,10.92-2.71,11.99,1.49,3.75-.8,8.35-4.78,9.24,2.18,2.12,3.23,5.38,2.15,8.29,2.5,2.73,4.86,5.62,7.64,8.08,1.14,.99,1.94,2.21,2.15,3.74,.85,4.95-5.28,8.55-9.22,5.51Z"/><path class="cls-1" d="M258.38,225.66c-.72-.5-1.24-1.2-1.53-1.99-5.36-1.85-3.91-8.11-.3-11.02-.24-.51-.51-1.09-.89-1.43-.43-.14-.48-.75,0-.87,5.07-1.14,8.58-5.68,13.66-6.68,3.12-.27,4.99,3.76,2.85,6.02-2.26,2.19-4.79,4.51-6.44,6.95,2.19,4.14-2.36,12.24-7.34,9.02Zm-1.21-13.69c.27-.29,.55-.59,.83-.87,.14-.14,.28-.28,.41-.41l-.33,.05c-.49,.07-.97,.17-1.45,.27,.22,.29,.39,.64,.54,.96Z"/><path class="cls-1" d="M239.34,397.3c-1.11-.46-11.16-5.53-9.37-6.55,.37-.16,.78,.09,.87,.47,3.62,1.23,7.25,2.52,11.04,2.64,4.22,.83,10.63-5.53,13.04-.11,1.73,6.56-12.15,5.72-15.58,3.55Z"/><path class="cls-1" d="M236.6,463.64c-20.88-.59-42.6-2.23-61.72-11.31-12.73-6.32-35.53-18.46-28.25-35.77,10.05-22.05,35.45-29.45,57.25-34.4,7.63-1.65,15.2-4.57,22.98-5.01,.5,.2,.21,.96-.28,.8-1.08-.03-2.06,.33-3.09,.55-22.11,9.61-49.6,15.44-63.62,36.74-1.24,2.82-4.46,6.04-2.92,9.22,5.28,9.38,16.01,13.61,25.16,18.32-.04-.02-.08-.04-.13-.06,27.91,10.87,60.5,10.36,89.88,6.89,12.11-1.92,23.83-4.85,34.91-9.87,8.51-3.36,13.05-6.43,16.83-15.04,2.92-5.47,1.87-12.52-3.19-16.34-9.41-7.7-21.5-10.73-33.14-13.26-4.78-.97-9.52-2.15-14.26-3.33-2.49-.61-4.2-3.05-3.93-5.61,.31-2.81,2.91-4.9,5.73-4.6,7.39,.77,14.76,1.75,21.98,3.55,14.92,3.84,33.69,9.98,39.32,25.87,3.87,12.08-3.94,27.23-13.81,34.25-25.81,14.91-56.36,18.67-85.72,18.41Z"/><path class="cls-1" d="M175.47,415.29c-2.09-1.52-2.29-4.7-.49-6.52,4.83-5.56,10.4-10.53,16.98-13.91,7.98-4.59,17.21-5.78,26.14-7.31-.21,0-.41,.01-.62,.04-.55,.05-.68-.79-.13-.85,.74,.04,5.54-.54,4.36,.85-10.6,5.05-22.6,7.81-31.28,16.27-3.46,3.07-6.28,6.76-8.88,10.57-1.33,1.95-4.27,2.22-6.09,.85Z"/><path class="cls-1" d="M235.94,451.37c-2.43-2.29-.71-6.61,2.63-6.65,7.03-.33,14.07-.48,21.11-.79,18.83-1.03,39.53-2.46,54.86-14.32,8.36-6.65,5.98-17.03-3.24-21.27-3.43-1.4-7.58-3.06-11.18-1.85-.21,.5-.98,.18-.79-.32,.15-.37,.57-.61,.93-.71,9.13-1.21,20.42,5.24,21.19,15.05-.85,20.6-41.33,27.56-57.63,29.37-8.34,1-16.69,1.92-25.06,2.59-1.02,.08-2.1-.41-2.81-1.11Z"/><path class="cls-1" d="M135.65,95.95c-1.66-1.13,1.16-4.22,1.97-5.27,11.07-12.93,28.79-16.75,44.44-21.39,18.93-5.04,38.55-5.75,57.96-7.23,13.22-1.53,26.49-.41,39.72,.32,18.51,1.29,37.14,2.94,55.05,8.05,9.08,2.65,17.77,6.47,26.3,10.53,2.03,1.05,2.95,3.75,2.07,5.85-.96,2.41-3.71,3.55-6.11,2.65-4.42-1.66-8.83-3.29-13.23-4.99-7.29-2.89-14.77-5.26-22.38-7.13-21.4-5.06-43.47-6.57-65.39-7.3-10.72-.08-21.38,1.49-32.09,1.84-16.23,.21-83.47,6.92-87.92,23.32,.44,.26,.07,.97-.37,.76Z"/><path class="cls-1" d="M259.46,136.91c-17.95-.29-35.75-2.35-53.32-5.97-4.14-.74-8.34-1.5-12.26-3.07-.43-.17-1.28-.46-.97-1.05,.16-.31,.58-.24,.74,0,11.1,4.11,23.26,4.86,34.98,5.96,16.92,.75,33.92,.05,50.75-1.86,13.43-1.36,26.89-2.89,40.01-6.15,7.83-2.4,15.18-6.16,23.08-8.4,2.08-.67,3.31,2.59,1.23,3.43-9.33,3.62-18.16,8.65-27.98,10.87-18.47,4.51-37.34,6.09-56.26,6.23Z"/><path class="cls-1" d="M187.58,129.01c-6.2-.12-5.19-9.42,.9-8.2,11.98,2.16,24.51,3.82,36.64,2.35-.46-.89,1-.77,1.49-.55,.45,.18,.25,.75-.05,.97-12.72,3.26-25.92,4.82-38.98,5.42Z"/><path class="cls-1" d="M247.06,187.92c0-.23,.19-.43,.42-.43s.43,.18,.43,.42c0,.23-.19,.43-.42,.43s-.43-.18-.43-.42Z"/><path class="cls-1" d="M310.98,100.33c-.09-.55,.3-1.02,.82-1.12,3.84-.79,7.67-1.56,11.52-2.32,7.87-2.03,17.31-2.14,24.28-6.36-.03-.1,0-.23-.09-.31-1.8-1.32-3.98-1.66-6.04-2.27-5.65-1.4-11.35-2.05-17.08-2.83-26.51-4.12-53.28-3.16-79.99-3.59-11.46-.56-22.93-.09-34.27,1.7-9.9,1.34-19.87,2.51-29.74,3.83-.44-.18-.27-.92,.24-.81,1.95-.24,3.88-.58,5.83-.85,13.65-1.62,27.26-3.71,40.94-5.02,9.45-.62,18.93-.33,28.39-.5,18.53-.39,37.12-1.15,55.6,.74,11.35,1.38,23.02,1.75,33.99,5.18,2.58,.78,6.26,2.94,4.56,6.07-4.15,4.1-11.28,4.1-16.71,5.52-7.02,1.35-14.07,2.55-21.12,3.77-.53,.09-1.05-.3-1.12-.83Z"/><path class="cls-1" d="M336.34,119.29c0-.23,.19-.43,.42-.43s.43,.18,.43,.42c0,.23-.19,.43-.42,.43s-.43-.18-.43-.42Z"/><path class="cls-1" d="M263.68,221.97c-5.5-1.64,4.19-12.1,5.68-14.77,4.47-6.24,8.11-11.95,12.2-18.08,10.52-16.01,22.26-31.18,33.94-46.35,8.87-12.01,19.59-22.67,28.1-34.87,.41-.64,.77-1.33,1.09-2,.23-.49,1-.21,.79,.31-.31,.74-.79,1.53-1.19,2.18-13.29,20.39-26.46,40.71-40.18,60.76-7.03,8.87-32.24,53.36-40.43,52.82Z"/><path class="cls-1" d="M268.72,209.22c-.26-.12-.38-.41-.31-.69,2.06-5.75,5.76-10.79,9.17-15.81,9.27-13.57,19.62-26.35,29.13-39.75,10.47-15.71,21.06-31.37,33.28-45.78,.6-.61,1.72,.15,1.25,.94-8.26,12.21-17.57,23.72-25.29,36.3,.03-.05,.07-.11,.1-.17-9.04,14.4-19.52,27.65-30,40.99-5.61,7.41-12.52,14.17-16.55,22.61,.8,.26-.2,1.63-.78,1.35Z"/><path class="cls-1" d="M319.68,145.15c-.67-.61,.82-1.79,1.03-2.43,.57-.87,1.15-1.76,1.7-2.6,1.1-3.71,3.98-6.6,6.01-9.83,3.61-5.89,7.43-11.64,11.24-17.38-5.05,5.66-9.93,11.53-13.93,18.01-.26,.41-.82,.72-1.25,.35-.19-.11-.29-.38-.16-.58,1.11-1.99,2.5-3.78,3.92-5.54,4.12-5,7.47-10.63,11-16.05,.4-.42,.53-1.48,1.23-1.34,.46,.18,.23,.92-.1,1.12-1.54,2.52-3.17,4.97-4.79,7.44,.83-.52,6.66-9.01,6.4-5.71-1.12,2.65-3.32,5-4.72,7.45l-.03,.36c1.99-2.51,3.78-5.18,5.87-7.59,.15-.14,.38-.17,.56-.04,.19,.14,.22,.41,.09,.59-3.54,4.75-7.17,9.44-10.6,14.26-3.59,5.11-7.03,10.35-10.45,15.57-.84,1.29-1.63,2.5-2.45,3.78-.13,.2-.37,.28-.58,.16Z"/><path class="cls-1" d="M160.5,110.91c-.01-.37,.3-.71,.69-.71s.71,.29,.71,.69c.01,.37-.3,.71-.69,.71s-.71-.29-.71-.69Z"/><path class="cls-1" d="M165.27,120.99c-.04-1.78,1.44-3.41,3.26-3.41s3.36,1.41,3.41,3.26c.04,1.78-1.44,3.41-3.26,3.41s-3.36-1.41-3.41-3.26Z"/><path class="cls-1" d="M159.51,109.6c-.01-.38,.31-.73,.71-.73s.73,.31,.73,.71c.01,.38-.31,.73-.71,.73s-.73-.31-.73-.71Z"/><path class="cls-1" d="M159.56,112.23c-.19-.05-.34-.23-.33-.43-.09-.03-.19-.06-.28-.09-.14-.07-.27-.13-.4-.2-.91,.37-.7-1.34,.09-.94,.33,.22,.74,.45,1.11,.46,1-.86,1.63,.7,.36,.84h0c-.08,.23-.29,.43-.55,.36Z"/><path class="cls-1" d="M158.29,112.14c-.03-1.18,.95-2.26,2.16-2.26s2.24,.93,2.26,2.16c.03,1.18-.95,2.26-2.16,2.26s-2.24-.93-2.26-2.16Z"/><path class="cls-1" d="M138.36,158.11c-.01-.57,.45-1.08,1.02-1.08s1.06,.45,1.08,1.02c.01,.57-.45,1.08-1.02,1.08s-1.06-.45-1.08-1.02Z"/><path class="cls-1" d="M157.69,102.29c-.02-.76,.61-1.44,1.38-1.44s1.43,.6,1.44,1.38c.02,.76-.61,1.44-1.38,1.44s-1.43-.6-1.44-1.38Z"/><path class="cls-1" d="M175.09,135.17c-.01-.71,.57-1.35,1.28-1.35s1.33,.56,1.35,1.28c.01,.71-.57,1.35-1.28,1.35s-1.33-.56-1.35-1.28Z"/><path class="cls-1" d="M137.13,158.89c-.02-.99,.8-1.9,1.82-1.9s1.87,.79,1.9,1.82c.02,.99-.8,1.9-1.82,1.9s-1.87-.79-1.9-1.82Z"/><path class="cls-1" d="M152.95,171.17c-.06-2.55,2.06-4.87,4.66-4.87s4.81,2.02,4.87,4.66c.06,2.55-2.06,4.87-4.66,4.87s-4.81-2.02-4.87-4.66Z"/><path class="cls-1" d="M236.22,201.71c-3.12-.35-5.36-3.43-4.94-6.49,1.04-5.82,6.39-4.83,10.8-5.17-.05,0-.11,0-.17,0h-.09c1.37-.09,2.52-.15,3.86-.21-2.55-.62-5.05-1.44-7.63-1.88,.6,.45,1.19,1.01,1.84,1.33,.49,.23,.16,1.02-.34,.78-.49-.23-.92-.56-1.34-.9-8.8-5.81,13.2-2.33,15.51-2.19,5.31,.91,10.9,.63,16.08,2.03,2.02,.74,3.31,3.39,2.59,5.42-1.67,6.42-14.01,5.01-19.28,5.84-5.67,.06-11.26,1.61-16.9,1.42Z"/><path class="cls-1" d="M212.27,205.22c-3.44-1.63-4.09-5.92-6.23-8.78-5.24-5.73-9.06-13.48-13.85-19.76-3.68-6.31-16.02-19.91-10.48-26.92,8.1-7.69,14.03,6.38,17.69,12.04,5.18,9.07,10.52,18.04,15.91,26.98,1.9,4.17,6.66,8.48,4.79,13.34-1.21,2.96-4.92,4.43-7.83,3.11Z"/><path class="cls-1" d="M168.48,155.26c-1.49-.21-3.11-1.04-3.95-2.33-2.74-4.32-5.21-8.8-7.92-13.14-6.88-11.42-14.84-21.84-20.19-34.06-.96-2.06-2.08-4.3-1.4-6.62,1.13-4.64,7.72-5.87,10.46-1.97,4.41,7.97,8.93,15.97,13.35,23.94,5.48,8.29,10.6,16.8,15.63,25.37,2.52,4.04-1.33,9.62-5.97,8.81Z"/><path class="cls-1" d="M192.5,177.81c-1.37-4.32-2.83-8.67-4.22-12.96-.05-.4,.12-.67,.35-.98,.15-.19,.48-.22,.64-.03,.61,.63,1.03,1.46,1.77,1.92,.51,.21,.17,1-.34,.79-.66-.31-1.08-.96-1.53-1.5,1.23,4.08,3.48,7.87,6.26,11.12,1.47,2.01-1.95,3.95-2.92,1.65Z"/><path class="cls-1" d="M188.38,173.14c-1.56-.48-2.87-1.55-4.1-2.61-3.33,1.38-6.02-3.02-3.15-5.26,2.44-1.86,6.16,.16,6.31,3.12,.78,1.26,2.56,2.31,2.46,3.89-.19,.68-.88,.99-1.52,.86Z"/><path class="cls-1" d="M169.29,153.47c-4.83-1.33-8.22-5.3-11.16-9.12-8.5-9.35-13.24-21.02-19.19-31.96-1.69-2.94-5.53-4.41-6.06-7.99-.47-3.35,2.81-6.64,6.18-5.57,2.39-.9,4.68,1.08,4.99,3.43,4.51,3.79,6.21,9.69,8.41,14.93,2.22,5.61,4.2,11.35,6.79,16.8,1.68,2.27,8.9,21.55,11.56,18.35,.35-.42,1.01,.11,.67,.53-.48,.8-1.42,.96-2.25,.59l.05,.02Z"/><path class="cls-1" d="M209.06,447.95c-14.76-2.37-29.85-7.46-40.03-18.94-10.18-10.21-2.29-20.8,6.24-28.69,2.11-2.09,4.56-3.92,6.9-5.72,.07-.24,.39-.38,.63-.2,.21,.13,.28,.43,.11,.63-2.8,2.29-5.73,4.43-8.25,7.06-4.68,5.25-10.64,13.19-6.15,20.21,5.36,7.09,13.39,11.46,21.45,14.78,6.52,2.65,13.26,4.76,19.9,6.98,2.32,.64,1.6,4.26-.8,3.9Z"/><path class="cls-1" d="M228.95,105.81c-.9-.29-3.23,.08-3.21-1.23,0-1.75,1.03-3.08,2.27-4.17,1.43-1.98,7.04-6.83,5.54-9.21-2.93-.7-5.89,.78-8.74,1.39-9.69,2.62-18.93,6.45-28.03,10.62-1.6,.74-3.23,1.42-4.88,2.02-.26,.12-.6-.09-.6-.4-.12-.45,.6-.87,.96-.66,4.17-1.28,44.92-21.36,42.87-11.82-.97,4.06-4.74,6.92-7.27,10.08-.45,.45-.59,.98-.59,1.55,4.51,.7,8.73-1.35,13.05-2.3,5.66-1.57,11.38-2.94,17.1-4.27,11.86-2.25,23.9-3.36,35.94-4.22,1.75-.07,1.99,2.77,.2,2.93-11.91,.9-23.85,1.79-35.65,3.71-9.76,1.55-19.16,5.22-28.97,5.96Z"/><path class="cls-1" d="M215.82,131.5c.07-1.49,.66-2.89,.71-4.39-7.62-.25-15.24-.95-22.78-2.09-3.24-.1-6.49-.29-9.7-.68-2.08-.23-4.71-.34-5.55-2.63-1-2.2,.8-4.99,3.24-4.89,9.76,.53,19.36,2.63,29.09,3.34,3.2,.03,6.39,.05,9.59,.03,1.97-.09,2.72,2.78,1,3.72,.66,1.29,.32,2.8-.04,4.13,1.12-.17,2.17,.23,3.14,.75,.94-.51,2.27-.17,2.56,.94,.44,2.4-2.88,2.81-4.24,1.4-1.79,.09-2.77,2.35-4.63,2.45-1.19,.21-2.45-.87-2.38-2.08Z"/><path class="cls-1" d="M244.8,218.04c-1.34-12.48-.2-25.43-.39-37.82-.29-19.09,.11-38.48-2.81-57.37,.07,.75,.13,1.55,.34,2.23,.15,.53-.66,.79-.81,.26-.21-1.06-1.24-5.07,.83-3.98,1.43,2.14,1.83,4.92,2.33,7.43,2.15,14.08,3.03,28.31,3.79,42.52,.47,11.05,.73,22.12,.9,33.18,.07,3.87,.1,7.74,.28,11.61,.22,1.53,.05,3.47-1.8,3.79-1.21,.23-2.39-.61-2.65-1.84Z"/></svg>