<?xml version="1.0" encoding="UTF-8"?><svg id="Ebene_1" xmlns="http://www.w3.org/2000/svg" viewBox="0 0 500 500"><defs><style>.cls-1{fill:#00010d;}</style></defs><path class="cls-1" d="M333.8,129.29c-23.47-5.04-31.41-28.21-11.49-43.61,12.84-8.99,29.71-4.61,36.67,9.41,3.54,7.77,.7,16.68-4.3,23.11-3.37,7.92-12.35,13.04-20.88,11.09Zm6.46-10.2c7.49-.95,10.07-10.35,7.63-16.6-1.46-4.36-5.33-7.16-8.56-10.19-7.91-.48-15.77,5.11-17.03,13.08-.08,8.02,10.97,13.48,17.96,13.71Z"/><path class="cls-1" d="M289.3,137.08c-6.15-2.91-11.88-7.51-14.49-13.96-3.54-8.48-.22-19.39,7.5-24.39-.19-6.17,6.79-5.69,11.15-5.39,6.42,.54,12.73,2.32,18.15,5.86,25.04,14.23,1.68,50-22.31,37.88Zm10.04-5.96c7.68-.57,14.97-9.03,12.72-16.76-5.01-8.63-16.45-9.12-25.25-10.92-6.13,3.82-9.04,12.93-4.68,19.09,3.93,5.29,10.67,8.82,17.21,8.59Z"/><path class="cls-1" d="M353.26,95.7c14.18-8.43,29.83-14.35,45.13-20.3-.07-.74,.16-1.49,.68-2.06-.81-13.16,13.63-19.59,21.35-8.15,3.74,6.51,2.6,17.04-6.44,17.72-5.48,.08-11.88-2.13-15.31-6.53-14.15,5.04-28.2,10.79-41.39,18.02-1.26,.65-2.5,1.47-3.77,2.08-.36,0-.61-.54-.26-.78Zm61.19-16.5c1.8-.12,3.64-1.24,4.35-2.91,.34-2.63,.17-5.28-.82-7.65-2.05-3.78-7.42-5.83-10.88-2.66-2.07,2.04-2.69,5.04-3.85,7.61,2.69,3.25,6.95,5.62,11.2,5.61Z"/><path class="cls-1" d="M355.03,102.54c-2.93,.08-4.07-4.02-1.51-5.47,1.88-1.09,4.05-1.59,6.05-2.44,14.53-6.09,29.78-10.2,44.31-16.25,.68-.29,1.27-.94,1.97-1.02,.38,.07,.54,.59,.17,.8-9.51,6.06-19.75,10.76-29.92,15.6-6.84,3.27-13.77,6.75-21.07,8.78Z"/><path class="cls-1" d="M353.97,92.79c-1.26-2.19,.82-4.1,2.81-4.74,2.97-1.21,5.96-2.36,8.94-3.54,11.67-4.57,23.31-9.22,34.83-14.14,.48-.27,.94,.55,.38,.78-13.55,5.39-25.35,14.47-38.71,20.25-2.53,.99-6.05,4.65-8.26,1.39Z"/><path class="cls-1" d="M286.4,128.89c-17.66-9.7-3.34-27.35,12.46-23.61,5.23,1.27,14.52,6.54,13.03,12.9-.41,.98-1.27,1.43-2.3,1.36-1.24,.18-2.51,.35-3.77,.31,2.22,11.85-11.34,14.05-19.43,9.04Zm19.36-9.91c1.24,.06,2.4-.1,3.61-.27-.34-2.55-4.78-3.79-7.02-4.73,.97,.94,1.8,2.02,2.46,3.24,.3,.55,.56,1.15,.77,1.76,.06-.02,.12-.02,.18,0Z"/><path class="cls-1" d="M333.08,117.55c-6.27-.99-12.59-6.6-11.98-13.33,1.03-6.15,6.84-10.98,12.92-11.65,4.04-.53,11.18,1.38,8.86,6.74-.17,.53-1,.31-.83-.22,2.47-6.85-8.48-4.06-10.66-.71,17.38-4.65,19.64,21.24,1.69,19.16Z"/><path class="cls-1" d="M252.42,148.13c-34.6-.86-75.14-7.4-104.68-25.97-7.27-4.4-15.74-8.6-18.89-17.06-5-15.8,10.65-24.96,23.66-28.56,10.01-3.23,20.16-6.11,30.52-8.02,15.63-2.61,31.29-3.41,46.69-4.26,17.32-.86,34.67-2.09,52-.75,23.97,1.61,48.39,5.64,70.17,16.15,3.5,2.13,7.3,4.15,10.01,7.26,1.12,1.34,.69,3.49-.66,4.49-3.46,2.36-5.45-2.49-8.1-3.91-11.79-7-26.19-7.77-39.49-9.72-21.21-2.79-42.64-3.94-64.01-2.7-34.89,1.66-70.94,1.47-103.75,15.03-4.94,1.97-10.45,7.22-7.15,12.79,3.34,4.74,9.01,6.84,13.79,9.79,7.12,4.42,14.85,7.62,22.68,10.57,19,6.31,38.39,10.4,58.25,12.58,17.14,1.73,34.49,1.03,51.66,.07,19.44-1.53,38.35-7.27,55.87-15.71,7.97-4.42,23.83-11.21,24.35-21.38-.08-.79-.33-1.5-.64-2.21-.28-.28-.84-.76-.51-1.18,.25-.32,.68-.12,.76,.17,1.21,1.04,2.72,1.66,3.54,3.12,6.5,15.23-22.2,29.94-33.27,35.27-25.6,12.73-54.64,14.68-82.78,14.13Z"/><path class="cls-1" d="M259.21,220.42c-14.21,.22-28.13-2.58-41.84-6.04-12.2-2.4-24.42-5.27-35.28-11.56-21.37-11.99-36.94-25.69-48.26-47.71-4.93-11.33-7.94-23.45-9.87-35.64-1.11-7.28,.21-13.7,.85-20.83,.39-4.37,6.59-5.96,9.07-2.36,1.97,2.76,.4,6.27,.2,9.34-1.57,10.86,.91,21.87,3.72,32.33,2.26,9.54,6.67,18.15,11.99,26.32,5.99,9.64,14.54,17.2,23.93,23.42-.16-.11-.31-.21-.47-.32,8.18,5.7,16.87,10.73,26.33,13.98,6.72,2.23,13.61,3.18,20.45,4.68,16.99,4.22,34.6,6.34,52,3.51,29.76-3.91,60.31-15.81,79.48-39.75,8.43-10.59,14.64-23.3,15.01-37.03,.32-9.53-.02-19.07-.39-28.6,.14-2.14-1.01-7.61,1.99-7.41,4.58,2.38,6.01,13.03,6.92,17.85,1.99,13.35,3.03,27.46-1.93,40.3-17.24,45.24-68.51,65.02-113.9,65.5Z"/><path class="cls-1" d="M130.93,116.63c-7.21-5.73,10.93-17.09,15.29-19.96,19.17-11.95,42.21-14.85,64.36-15.82,22.55-.54,45.27,.35,67.36,5.2,13.1,2.5,25.95,6.26,39.19,7.84,.46,.17,.26,.89-.22,.82-13.62-1.7-27.18-3.95-40.85-5.23-17.67-2.02-35.63-1.26-53.13-.03-20,1.23-40.52,1.63-59.45,8.87-6.61,2.64-12.89,6.11-18.43,10.59-2.87,2.31-5.65,4.73-8.19,7.4-1.53,1.61-4.21,1.66-5.92,.33Z"/><path class="cls-1" d="M247.73,159.47c-27.52-.5-54.95-6.58-80.13-17.69-9.19-4.2-19.66-6.39-27.36-13.26-1.66-1.46-3.28-3-4.83-4.58-.61-.61-.59-1.65,.03-2.25,1.81-1.56,3.52,1.55,4.75,2.35,9.16,8.85,22.14,11.18,33.31,16.55,34.68,14.16,72.89,18.61,109.95,13.41,18.37-2.86,37.53-4.4,54.38-12.82,4.83-2.88,11.59-5.25,14.48-10.2-.64,.12-.74-.84-.11-.86,2.62,.27-.55,3.51-1.47,4.22-14.64,10.92-32.66,16.02-50.38,19.36-17.26,3.77-34.94,6.14-52.63,5.77Z"/><path class="cls-1" d="M125.83,101.76c-.96-.46-.2-1.87,.14-2.56,.87-3.4,2.06-7.84,5.97-8.72,.45-.04,1.17-.36,1.45,.13,.09,.23-.02,.46-.23,.57-.58,.11-1.17,.12-1.68,.33-2.21,.85-3.26,3.21-3.94,5.28,1.08-1.42,2.21-2.81,3.45-4.09,.16-.17,.44-.17,.61,0,.17,.17,.16,.44,0,.61-1.79,1.92-3.5,3.95-4.82,6.2-.26,.69-.03,2.11-.96,2.26Z"/><path class="cls-1" d="M210.12,407.09c-.78,.2-1.2-.81-.31-.86,7.17-7.23,11.88-16.4,15.26-25.94l-.05,.16c-.04,.13-.09,.26-.09,.26,5.19-15.25,8.4-31.12,10-47.14,.32-10.19,.51-20.38,.66-30.57,.68-21,.85-42.04,1.36-63.05-.41-6.55,0-13.51-1.24-19.92-.8-2.02,.36-4.65,2.74-4.61,.07-2.22,.33-5.67,3.43-5,3.57,.91,1.1,9.18,1.42,12.07-1.34,15.61,.93,31.12,1.14,46.74,.08,22.03-.82,44.1-3.26,66.01-.2,20.64-.29,43.39-13.6,60.42-4.19,5.48-10.24,11.25-17.48,11.46Z"/><path class="cls-1" d="M274.6,411.83c-6.14-2.92-9.75-10.39-13.24-15.97-8.79-14.52-8.81-32.16-8.5-48.61,.62-18.58,.71-37.15,1.1-55.73-.09-17.41,2.31-34.53,1.63-51.79-.07-5.49-.43-10.98-.28-16.47,.13-3.14-.03-8.29,4.3-8.18-.02-.79,.99-.57,.89,.16,2.88,.86,2.61,4.36,2.69,6.8-.01,4.42-.1,8.85-.31,13.27-.46,9.68-.64,19.38-1.12,29.06-.89,23.33-.78,46.68-1.46,70.01,.11,11.79-1.34,23.57-.41,35.35,.49,11.11,4.51,21.53,10.69,30.7,1.65,2.21,3.26,4.67,5.6,6.19,1.41,.33,2.87-.15,4.26-.37,1.27-.26,2.56,.71,2.89,1.9,.94,4.18-6.09,4.28-8.74,3.69Z"/><path class="cls-1" d="M255.52,456.3c-7.01-.38-14.01-1.18-20.98-2.05-11.44-1.69-23.22-2.35-34.24-6.07-15.56-5.74-38.22-12.23-39.33-32-.24-8.89,4.74-16.83,10.43-23.27,10.63-12.5,26.9-17.9,42.44-21.38,5.62-1.05,11.59-2.55,17.25-1.67,.78,.7-1.21,1.35-1.52,.78-23.59,6.4-50.91,16.09-61.82,39.76-6.76,19.77,18.56,27.67,32.87,32.38,8.01,2.77,16.69,3.25,25.05,3.9,9.31,.62,18.65,1.2,27.99,1.16,13.33-.23,26.8-2.08,39.63-5.75,16.13-5.6,28.93-17.63,23.46-35.9-3.51-10.39-15.44-12.62-24.23-16.85-9.71-4.91-20.02-8.23-30.76-9.83-6.11-.81-6.1-9.88,0-10.63,2.24-.17,4.47-.28,6.71-.03,12.72,1.19,23.96,7.52,35.57,12.28,8.09,3.23,16.52,7.33,21.13,15.1,6.51,10.73,5.94,25,.11,35.89-4.82,7.79-12.74,13.47-20.97,17.24-8.53,4.01-17.95,5.23-27.23,6.17-7.16,.76-14.36,1.18-21.56,.76Z"/><path class="cls-1" d="M256.82,441.25c-.43-.13-.83-.57-.94-1.02-.13-.54,.7-.77,.83-.23,.02,.07,.09,.18,.12,.22,3.01,1.24,6.55,.15,9.69-.18,9.55-1.13,18.09-4.74,25.83-10.15,12.3-7.46,17.99-16.11,10.23-29.8-3.91-5.14,3.22-11.21,7.43-6.21,9.2,11.24,6.29,30.05-6.96,36.77-9.09,4.91-18.67,9.85-29.15,10.56-5.66,.2-11.48,.88-17.08,.03Z"/><path class="cls-1" d="M174.31,404.96c-3.5-2.14,9.06-12.54,11.12-14.03,14.56-11.4,28.24-13.17,46.16-12.62,.54-.05,1.1-.07,1.65-.14,.41-.14,.8,.44,.41,.75-.51,.24-1.13,.13-1.68,.22-8.64,.66-17.28,1.95-25.51,4.6-11.11,4.23-21,11.19-28.89,20.01-.74,1.04-1.99,2.19-3.25,1.2Z"/><path class="cls-1" d="M327.84,96.95c-3.11-2.05-7.24-1.92-10.83-2.63-4.13-.53-8.54-1.11-12.62-1.65-20.09-2.37-40.31-4.49-60.17-8.25-1.1-.58-.99-2.44,.38-2.55,7.8-.67,15.63-.25,23.43,.36,12.53,1.29,25.22,.76,37.68,2.66,7.76,1.31,15.41,3.75,22.48,7.17h0c1.2,.74,.66,2.79-.77,2.81-.88,.04-1.73-.25-2.55-.53,.86,.47,5.76,2.4,3.35,3.36-.43,.11-.66-.48-.36-.74Z"/><path class="cls-1" d="M153.23,113.41c-2.19-3.2,26.59-11.1,30.02-12.23,35.44-9.24,72.86-10.43,109.05-5.32,2.44,.43,4.87,.87,7.31,1.37,.23,.04,.38,.28,.34,.5s-.28,.38-.5,.34c-2.23-.44-4.46-.86-6.69-1.25-33.33-4.86-67.66-4.06-100.59,3.07-9.29,1.96-18.31,4.94-27.26,8.08-3.72,1.62-8.41,2.26-11.17,5.35-.12,.14-.34,.19-.51,.1Z"/><path class="cls-1" d="M276.88,129.87c-12.65-12.35-8.54-28.96,7.66-35.11,4.71-1.36,10.4-1.64,14.76,.85,2.33,2.35-2.31,2.35-3.71,2.63,.71,.46,2.7,1.24,2.26,2.27-.34,.41-1.23,.12-.99-.44-.82-.7-1.83-1.2-2.81-1.57-11.77,2.13-15.37,5.98-19.12,16.92-.29,.82-1.56,1.59-2.08,.56-.53-7.47,4.36-15.67,11.28-18.76,2.94-1.27,6.31-1.13,9.24,.1,1.79-.3,3.66-.3,5.43-.67-13.12-6.31-31.31,7.94-25.44,22.24,1.47,3.29,3.92,5.96,6.15,8.73,1.46,1.67-1.19,3.96-2.62,2.23Zm4.76-28.39c2.76-1.85,5.93-3.03,9.18-3.69-3.43-.25-6.74,1.35-9.18,3.69Z"/><path class="cls-1" d="M293.84,141.59c-12.79-.14-25.91-17.07-22.37-29.49,.17-2.38,1.73-8.74,4.85-8,4.67-3.94,11.22-5.54,17.25-5.54,.84,.05,2.52,.04,2.4,1.23-.05,.62-.56,1.02-1.12,1.19-5.09,1.58-10.77,3.1-14.59,6.95-2.29,2.28-4.48,5.06-4.69,8.4,1.31,5.26,2.9,10.61,7.31,13.94,2.35,1.99,5.22,3.1,8.15,3.88,.31,.14,.45,.5,.37,.81,2.84,1.44,6.44,1.22,9.08,2.78,2.2,3.6-4.42,3.97-6.65,3.85Zm-16.58-36.7c.81-.66,1.67-1.26,2.56-1.8-.06,.03-.13,.07-.19,.1h0c-.5,.29-.98,.6-1.44,.94,.02-.02,.04-.03,.06-.05-.35,.26-.68,.53-1,.82Z"/><path class="cls-1" d="M240.73,143.07c-1.19-2.5,.13-5.49,2.73-6.38,5.39-1.75,10.8-3.41,16.15-5.27,7.05-2.46,14.04-5.21,21.05-7.7,.51-.13,1.29-.09,1.15,.59,0,0,.01,0,0,0,.51,.25,.14,1.07-.36,.79-.27-.16-.42-.34-.48-.56-10.58,5.03-19.86,12.5-30.04,18.3-3.2,2.3-7.69,4.89-10.22,.24Z"/><path class="cls-1" d="M253.26,144.94c-1.64-.73-2.33-2.93-1.51-4.5,.9-1.67,2.9-2.13,4.48-2.94,.17-.72,.66-1.25,1.3-1.6,4.69-2.54,9.47-4.94,14.31-7.19,2.51-.76,5.73-4.06,8.13-1.69,.66,.78,.75,1.81,.38,2.7,1.13-.31,4.26-2.35,3.47-.6-.2,.18-.44,.49-.71,.33-5.93,2.53-25,17.92-29.85,15.47Z"/><path class="cls-1" d="M309.28,405.84c-2.03-.78-3.4-2.82-5.09-4.15-5.62-5.24-11.3-10.71-17.8-14.84-8.06-3.24-16.55-6.23-25.22-7.05-.02,.6-.78,.51-1.04,.12-.65-3.41,17.77,3.08,20.09,3.47-.64-4.96,11.08,3.49,12.43,4.69,2.76,1.32,5.49,2.74,7.98,4.51,1.79,.77,13.78,12.99,8.66,13.25Z"/><path class="cls-1" d="M198.34,183.45c-.05-2.25,1.81-4.29,4.1-4.29s4.24,1.78,4.29,4.1c.05,2.25-1.81,4.29-4.1,4.29s-4.24-1.78-4.29-4.1Z"/><path class="cls-1" d="M256.29,191.51c-.02-.85,.69-1.62,1.55-1.62s1.6,.67,1.62,1.55c.02,.85-.69,1.62-1.55,1.62s-1.6-.67-1.62-1.55Z"/><path class="cls-1" d="M290.68,178.94c-.03-.98,.79-1.86,1.78-1.86s1.84,.77,1.86,1.78c.03,.98-.79,1.86-1.78,1.86s-1.84-.77-1.86-1.78Z"/><path class="cls-1" d="M223.49,189.58c-.01-.46,.37-.88,.84-.88s.87,.36,.88,.84c.01,.46-.37,.88-.84,.88s-.87-.36-.88-.84Z"/><path class="cls-1" d="M256.96,173.79c-.03-1.51,1.22-2.88,2.75-2.88s2.84,1.19,2.88,2.75c.03,1.51-1.22,2.88-2.75,2.88s-2.84-1.19-2.88-2.75Z"/><path class="cls-1" d="M213.67,114.81c-.01-.57,.45-1.08,1.02-1.08s1.06,.44,1.08,1.02c.01,.57-.45,1.08-1.02,1.08s-1.06-.44-1.08-1.02Z"/><path class="cls-1" d="M244.69,109.44c-.02-.83,.68-1.6,1.53-1.6s1.58,.67,1.6,1.53c.02,.83-.68,1.6-1.53,1.6s-1.58-.67-1.6-1.53Z"/><path class="cls-1" d="M231.69,124.36c-.03-1.35,1.09-2.58,2.46-2.58s2.55,1.07,2.58,2.46c.03,1.35-1.09,2.58-2.46,2.58s-2.55-1.07-2.58-2.46Z"/><path class="cls-1" d="M188.32,110.14c-.02-.89,.72-1.7,1.62-1.7s1.68,.7,1.7,1.62c.02,.89-.72,1.7-1.62,1.7s-1.68-.7-1.7-1.62Z"/><path class="cls-1" d="M255.13,266.15c-.85-4.91-1.41-9.85-1.94-14.81-1.26-8.53-.48-17.92-4.45-25.76-5.18,3.1-6.08,10.11-6.53,15.63,.13,2.49-2.48,1.96-3.32,.21-3.9-8.95-.98-26.15,11.25-25.71,4.27,.44,7.22,4.28,8.45,8.12,3.72,13.55,2.23,27.98,2.8,41.9-.05,3.83-5.65,4.25-6.27,.42Z"/><path class="cls-1" d="M167.52,407.75s-.01-.06-.01-.09c0-.07,.01-.13,.04-.18-.25-.68,.03-1.44,.21-2.1,2.27-4.85,5.87-8.96,9.35-12.99-.03,.03-.06,.07-.09,.1l-.06,.06c13.87-13.7,33.89-20.39,53.06-21.76,6.9-.05,7.65,10.37,.77,11.27-16.26,.69-32.26,5.2-46.08,13.85-5.82,3.48-10.41,8.95-16.41,12.02-.22,.31-.7,.22-.78-.18Z"/><path class="cls-1" d="M183.65,442.65c-4.59-4.5-9.44-9.09-12.28-14.95,.46,4.38-1.09,4.34-1.35,.09-.75,.82-2.1,.88-2.91,.11-.83-.81-.59-2.08-.82-3.12-.97-6.02-1.45-12.41,1.16-18.11,1.55-3.74,7.96-13.11,12.38-8.56,.52-.29,1.18-.94,1.79-.68,.51-.82,9.19-9.12,8.24-6-1.99,1.24-3.72,2.67-5.39,4.26-2.93,2.72-5.18,5.92-6.87,9.51-2.52,4.9-5.14,10.07-4.74,15.69,.27,6.09,4.52,10.96,8.3,15.2,1.43,1.6,2.87,3.16,4.42,4.64,.53,.51,.52,1.41,0,1.93-.54,.54-1.38,.5-1.93,0Z"/><path class="cls-1" d="M253.74,387.15c-1.15-.89-2.11-2.35-2.22-3.84-.23-3.73-.12-7.47-.28-11.21-1.36-23.99-.31-47.99,.96-71.97,.8-14.83,1.61-29.69,.79-44.54-.91-10.09-.93-20.17-1.57-30.27-.09,.56-.09,1.11-.09,1.68,0,.56-.86,.56-.86,0,.03-1.1,.02-2.23,.46-3.24,1.09-.9,1.32,.88,1.39,1.68,.45,10.54,1.59,20.97,2.94,31.42,2.39,25.67,3.59,51.46,4.48,77.22,.23,10.17,.88,20.32,1.87,30.45,.52,5.43,1.12,10.85,1.43,16.3,.25,1.84,.12,3.75-1.09,5.25-1.87,2.52-5.75,3.03-8.2,1.06Z"/><path class="cls-1" d="M258.37,232.33c0-.24,.2-.43,.43-.43s.43,.2,.43,.43-.2,.43-.43,.43-.43-.2-.43-.43Z"/><path class="cls-1" d="M254.62,355.31c-2.28-1.3-2.27-4.15-2.32-6.46-1-11.46-1.23-22.95-1.2-34.45,.59-26.66,1.95-53.31,2.77-79.97,.59-5.91,.35-12.1,1.88-17.83,.33-.61,1.06-.94,1.74-.84,2.88,.44,1.23,7.59,1.48,9.83,1.77-4.02,4.57-7.53,8.09-10.15,.75-.98,2.14-1.44,3.19-.62,2.13,1.79-.43,3.77-1.61,5.2-4.2,5.86-6.31,12.9-9.74,19-2.27,8.54-1.6,17.26-1.02,25.96,1.03,22.86,1.13,45.74,1.19,68.62-.04,6.56,.11,13.13-.32,19.68-.16,1.88-2.55,3.05-4.14,2.02Z"/><path class="cls-1" d="M281.94,195.88c0-.24,.2-.43,.43-.43s.43,.2,.43,.43-.2,.43-.43,.43-.43-.2-.43-.43Z"/><path class="cls-1" d="M268.17,203.16c-.07-.27,.09-.54,.35-.62,9.66-2.87,19.38-5.56,28.92-8.79,27.29-9.13,44.49-23.32,58.32-48.51,.76-1.3,1.53-2.61,2.12-3.97,.12-.34,.68-.35,.79,0-.06,1.07-.95,2.05-1.38,3.03-10.25,18.82-24.13,35.05-44.06,43.89-10.2,5.04-21.11,8.39-31.98,11.63-4.15,1.24-8.31,2.49-12.46,3.69-.26,.07-.55-.09-.62-.35Z"/></svg>