<?xml version="1.0" encoding="UTF-8"?><svg id="Ebene_1" xmlns="http://www.w3.org/2000/svg" viewBox="0 0 500 500"><defs><style>.cls-1{fill:#00010d;}</style></defs><path class="cls-1" d="M339.3,197.79c-10.5-3.59-9.28-17.46-4.66-25.37,3.95-8,9.6-15.04,15.92-21.29,5.37-5.03,10.62-10.96,17.62-13.66,2.34-.67,5.9-1.68,5.23,2.14,0,.59-.93,.59-.93,0,0-.48,.02-.99,0-1.42-1.29-1.12-3.47,1.51-4.72,2.21-3.82,3.32-7.17,7.15-10.54,10.9-6.31,7.32-12.4,14.97-16.59,23.72-7.08,13.03-.44,22.53,12.46,12.19,4.01-3.84,7.47-8.03,10.81-12.34,5.05-6.09,12.55-21.31,22.17-16.31,9.86,8.14,2.72,28.75-5.41,36.03-3.38,2.58-8.1,3.2-12.08,2.23-3.6-.71-7.86-1.53-9.66-5.12-5.07,5.05-12.52,8.02-19.63,6.09Zm36.41-6.93c8.48-.98,12.95-18.4,9.81-25.2-.64-1.14-1.78-3.19-3.3-2.17-7.05,6.06-10.98,14.85-17.26,21.63,1.15,.34,1.95,1.28,2.64,2.24,2.23,1.95,5.04,3.68,8.1,3.5Z"/><path class="cls-1" d="M386.85,172.57c.43-8.13,.83-16.71-3.57-23.95-4.5-8.31-15.27-13.35-23.19-6.48-.6,.51-.96,1.08-1.25,1.78-.28,.53-1.07,.07-.8-.46,.22-.58,.57-1.13,.99-1.59,9.02-8.14,24.11-3.13,29.75,6.71,3.91,6.15,4.91,13.58,4.42,20.74-.1,2.47,.08,6.27-3.3,6.31-1.66,0-3.07-1.39-3.07-3.06Z"/><path class="cls-1" d="M290.11,154.56c-4.88-4.24,2.26-12.57,4.15-17.11,7.02-12.38,15.38-25,27.99-32.24,20.08-10.83,56.61,.4,48.95,28.01-.49,3.29-1.83,6.3-3.04,9.35-.21,.56-1.07,.2-.86-.36,.81-2.54,.32-5.28,.24-7.9-.21-3.19-.6-6.4-2.06-9.29-7.49-.53-15.01,.77-21.88,3.71-5.78,3.13-10.44,7.86-15.25,12.24-4.6,4.06-8.35,9.57-14.26,11.77-4.88,1.32-9.9,2.27-14.9,3.05-3.02,.41-6.53,.82-9.1-1.25Zm14.63-3.87c3.86-.38,8.34,.46,11.74-1.73,15.19-12.97,24.71-28,47.18-27.25-7.82-11.29-25.04-11.53-36.68-6.65-14.36,8-22.39,22.92-31.87,35.71,3.17,.55,6.44,.03,9.63-.07Z"/><path class="cls-1" d="M275.55,127.72c-16.75-3.17-9.43-18.26,.94-24.6,5.96-3.92,13.11-5.69,20.18-5.98,9.45-.16,20.68,4.83,25.11,13.38-.03,.72-.94,.44-.93,.04-1.69-4.27-13.29-7.26-17.64-7.59-10.63-.34-26.2,4.64-30.4,15.24,4.03,5.98,23.63-1.52,30.15-2.24,5.94-1.12,11.97-1.37,17.97-1.92,.91-.07,1.75,.49,1.88,1.43,.12,.91-.53,1.74-1.43,1.88-3.57,.56-7.13,1.14-10.4,1.76-11.72,3.01-22.91,10.35-35.44,8.6Z"/><path class="cls-1" d="M313.28,128.87c.04-1.89,1.63-3.35,3.49-3.35s3.39,1.66,3.35,3.49c-.04,1.89-1.63,3.35-3.49,3.35s-3.39-1.66-3.35-3.49Z"/><path class="cls-1" d="M327.54,121.15c.03-1.38,1.18-2.44,2.54-2.44s2.46,1.21,2.44,2.54c-.03,1.38-1.18,2.44-2.54,2.44s-2.46-1.21-2.44-2.54Z"/><path class="cls-1" d="M358.48,161.46c.04-1.68,1.45-2.97,3.1-2.97s3.01,1.48,2.97,3.1c-.04,1.68-1.45,2.97-3.1,2.97s-3.01-1.48-2.97-3.1Z"/><path class="cls-1" d="M368.83,152.65c.01-.81,.7-1.43,1.49-1.43s1.45,.7,1.43,1.49c-.01,.81-.7,1.43-1.49,1.43s-1.45-.7-1.43-1.49Z"/><path class="cls-1" d="M341.57,166.81c-.52-.3-.8-.88-.74-1.47,.19-1.7,.33-3.75,.43-5.4,.63-7.95,.5-16.17-.03-24.06-3.34-3.64,3.55-7.92,5.31-3.12,1.1,8.09-.69,16.48-1.42,24.59-.72,2.01-.25,11.15-3.55,9.46Z"/><path class="cls-1" d="M317.38,359.89c-3.77-1.43-.85-6.35-.89-9.24,1.9-11.38,3.58-22.78,4.64-34.26,1.04-14.19,2.46-28.33,5.38-42.28,2.64-12.12,3.93-24.47,6.01-36.69,1.9-11.13,5.01-22.01,6.16-33.26,.27-4.5,1.84-9.05,1.58-13.5-.08-.31-.21-.65-.23-.96-.02-.56,.81-.59,.91-.1,.39,1.27,.43,2.6,.44,3.91-.29,7.3-.11,14.65-.6,21.93-.58,8.1-2.14,16.08-2.83,24.18-1.51,18.84-4.56,37.46-7.3,56.15-1.78,18.52-3.21,37.17-8.33,55.14-1.32,2.86-.54,9.68-4.94,8.99Z"/><path class="cls-1" d="M133.67,372.61c-5.7-33.67-10.3-67.55-14.18-101.47-2.65-16.76-6.2-33.38-7.73-50.3-2.63-21.3-1.47-42.78-3.25-64.13-.93-8.44,.61-17.17-1.25-25.46-.65,.03-.79-1.17-.26-1.43,.86-.3,1.08,1.04,1.29,1.62,1.24,4.19,2.35,8.43,2.92,12.76,2.59,16.11,6.2,31.81,6.97,48.11,2.42,28.24,7.15,56.19,10.67,84.29,1.67,22.6,4.43,45.11,6.99,67.63,1.08,9.12,1.05,18.49,2.07,27.55,.37,2.47-3.59,3.49-4.23,.83Z"/><path class="cls-1" d="M237.52,175.99c-14.79,.09-29.42-2.05-43.95-4.63-13.57-2.52-27.23-4.76-40.37-9.09-13.85-5.56-46.65-14.37-44.87-33.02,4.82-20.29,46.69-34.08,65.31-38.31,33.25-7.02,67.45-3.87,100.84,.4,8.22,1.29,16.74,3.01,24.16,6.83,1.06,1.15-.84,1.81-1.72,1.18-.48-.36,.06-1.09,.54-.76,.09,.02,.18,.03,.27,.03-13.17-5.94-28.13-4.19-42.21-5.1-36.2-2.14-73.61,.57-107.39,14.61-11,4.11-22.69,8.8-30.59,17.8-12.15,14.02,27.95,24.56,36.77,27.87,20.29,5.7,41.37,7.91,62.28,10.1,16.87,1.33,33.77,.07,50.61-1.1,21.21-2.18,44.75-4.54,61.19-19.46,3.3-2.98,5.44-6.95,7.98-10.55,1.52-2.29,4.89-2.81,7.2-1.53,2.36,1.32,3.58,4.41,2.49,6.94-2.33,5.38-5.58,10.47-9.93,14.44-5.83,5.51-12.35,10.36-19.95,13.13-24.99,9.58-52.24,9.74-78.66,10.21Z"/><path class="cls-1" d="M110.43,168.73c0-.25,.2-.47,.46-.47s.47,.2,.47,.46-.2,.47-.46,.47-.47-.2-.47-.46Z"/><path class="cls-1" d="M247.74,199.33c-22.96-1.03-46.16-.25-68.84-4.56-17.53-4.11-35.92-6.35-51.95-15.05-17.31-9.16-19.22-26.56-3.41-38.55,9.97-8.1,22.57-12.01,34.86-15.05,16.51-3.74,33.03-7.99,49.92-9.39,19.94-.88,39.96,.25,59.55,4.12,5.59,1.08,11.46,1.33,16.68,3.74,.3-.11,.69,.25,.6,.59-.07,.53-.73,.47-1.03,.22-7.1-2.93-14.95-3.09-22.39-4.67-5.21-.9-10.45-1.78-15.73-2.13-14.94-.83-30.03-1.1-44.91,.58-15.65,2.45-31.07,5.84-46.41,9.63-18.01,4.01-53.86,20.5-35.68,42.87,11.33,11.02,28.09,13.74,43.01,16.85-.03,0-.04,0-.06,0,12.19,2.25,24.46,4.84,36.93,5.1,17.27,.99,34.53-.37,51.8-.64,26.12-.85,50.78-10.62,74.66-20.39,1.5-.58,3.02-1.1,4.54-1.62,3.46-1.03,5.66,4,2.45,5.84-14.2,8.16-29.61,14.29-45.32,18.85-12.76,3.39-26.12,3.96-39.27,3.68Z"/><path class="cls-1" d="M224.75,412.82c-30.18-2.85-67.31-10.82-86.6-36.16-1.39-1.2-2.8-4.75-4.76-4.35-.43,.19-1,.54-1.39,.1-.35-.39,.14-.92,.53-.74,2.62-1.28,5.32,1.25,7.61,2.37,7.32,4.85,15.07,9.08,23.1,12.62,26.39,10.07,55.18,15.63,83.45,13.03,20.17-2.63,39.13-11.35,55.13-23.77,2.73-2.15,5.36-4.46,7.63-7.1,.74-.81,1.95-1.02,2.88-.41,2.44,1.71-.41,4.45-1.44,5.92-21.4,30.18-49.83,41.11-86.14,38.5Z"/><path class="cls-1" d="M289.33,390.98c-1.12-1.63,.45-3.03,1.88-3.66,2.25-1.35,4.47-2.75,6.61-4.27,5.16-3.61,9.55-8.21,13.19-13.26-3.22,3.18-6.61,6.17-9.97,9.21-1.37,1.02-3.08,3.5-4.93,2.19-2.15-2.7,2.61-4.47,4.23-5.95,3.52-2.58,6.82-5.26,9.97-8.23,3.86-3.62,6.86-7.9,9.47-12.49,.27-.55,.81-1.41,1.42-1.49,.32,.03,.7,.27,.76,.62,.05,.4-.45,.67-.76,.44-.05,.07-.1,.14-.15,.2-.57,4.12-2.96,7.84-5.09,11.35-5.01,8.23-10.77,16.21-18.58,22.01-2.19,1.16-5.75,6.11-8.06,3.34Z"/><path class="cls-1" d="M156.15,381.51c-.17-.32,.07-.67,.37-.67,6.97-4.55,13.27-10.12,19.97-15.03-.04,.03-.07,.06-.1,.08,1.28-1.01,2.47-1.96,3.72-2.94l-.02,.02-.06,.05c9.94-7.49,18.95-15.92,28.31-24.09,10.13-8.61,21.44-15.76,30.99-25.05,13.45-13.33,26.95-26.76,40.5-39.97,6.63-6.91,12.64-14.37,19.06-21.47,9.79-11.12,20.76-21.35,28.51-34.1,1.97-3.12,3.95-6.23,5.84-9.4,.42-.71,1.4-.93,2.12-.58,.84,.41,1.12,1.39,.76,2.23-9.17,22.83-27.51,39.91-42.16,59.19-9.25,11.37-20.41,20.96-30.76,31.29-8.6,8.39-16.97,17.07-26.3,24.67-5.72,4.54-11.84,8.5-17.65,12.92-14.06,10.65-26.96,22.79-42.1,31.97-6.59,4.13-13.45,7.91-20.49,11.13-.2,.03-.43-.05-.51-.25Z"/><path class="cls-1" d="M203.75,394.7c.07-.3,.21-.42,.43-.63,.23-.22,.51-.13,.66,.06,11.23-9.9,22.85-19.48,34.19-29.31,8.39-8.28,16.08-17.25,24.43-25.51,10.48-11.51,22.02-21.99,31.53-34.34,10.63-14.41,21.87-28.63,29.85-44.74,1.24-2.5,2.39-5.04,3.56-7.57,.33-.71,1.2-1.06,1.94-.8,.81,.27,1.29,1.2,1,2.01-5.2,15.9-14.61,29.81-23.77,43.64-11.1,17.48-25.78,32.06-40.09,46.87-8.34,8.07-16.52,16.39-25.25,24.03-7.97,6.35-16.07,11.9-24.43,17.63-3.18,2.15-6.39,4.31-9.35,6.64-1.35,.92-2.54,2.31-4.2,2.56-.28,0-.54-.24-.48-.55Z"/><path class="cls-1" d="M243.85,401.84c5.47-4.88,10.89-10.1,15.76-15.69,8.01-8.91,16.76-17.16,24.39-26.41,11.37-14.5,21.07-30.1,30.64-45.8,1.46-2.27,5.09-.29,3.89,2.22-9.6,19.96-21.27,39.83-37.91,54.72-10.54,9.26-21.37,18.22-31.73,27.67-1.43,1.3-2.88,2.59-4.41,3.75-.29,.13-.64-.15-.62-.46Z"/><path class="cls-1" d="M128.59,345.95c-.23-.36,.12-.87,.54-.72,.04-.02,.09-.04,.08-.02,12.16-7.73,24.86-14.73,37.23-22.14,11.93-8.36,23.52-17.32,34.94-26.36,18.05-14.1,35.41-28.95,50.75-45.95,10.27-10.38,20.27-20.98,28.32-33.22,2.12-3.01,4.23-6.02,6.3-9.05,.26-.39,.79-.51,1.19-.25s.49,.79,.24,1.19c-2.26,3.7-4.61,7.34-7.01,10.94-8.63,13.74-20.08,25.28-31.08,37.1-21.4,23.47-47.49,41.93-73.03,60.55-10.2,8.04-22.28,13.02-33.49,19.41-4.55,2.63-8.86,5.64-13.38,8.31-.49,.25-1.18,.75-1.59,.2Z"/><path class="cls-1" d="M127.08,299.15c-.61-.11-.47-1.07,.13-.95,18.1-10.68,35.56-22.57,50.09-37.9,15.24-14.89,29.95-30.27,42.39-47.56-.03,.04-.09,.11-.1,.14,3.05-4.08,6.12-8.11,9.22-12.15,.41-.45,1.17-.48,1.64-.11,.63,.49,.6,1.38,.09,1.96-4.69,7.07-9.52,14.03-14.57,20.85-11.36,15.6-24.67,29.63-38.5,43.03-7.41,6.84-15.07,13.57-23.73,18.78-8.53,5.28-17.91,9.2-26.67,13.92Z"/><path class="cls-1" d="M122.43,268.12c-1.03-.38-.52-1.76,.34-.88,5.85-1.22,10.08-6.19,14.44-9.97,13.13-12.18,23.19-27.09,33-41.95,6.46-9.02,12.69-18.2,17.75-28.08,.63-1.27,2.65-.34,2.01,.99-4.08,9.05-8.8,17.75-14.39,25.94-7.77,12.16-15.66,24.36-26.01,34.53-5.09,5.1-10.66,9.7-16.47,13.96-3.31,2.04-6.64,5.4-10.68,5.46Z"/><path class="cls-1" d="M217.5,400.19c-14.68-10.12-26.17-24.09-37.16-37.96-25.35-32.51-43.21-70.43-56.71-109.2-.93-3.37-2.6-6.82-3.22-10.12,.23-.28,.69-.16,.81,.17,1.3,3.37,2.3,6.84,3.49,10.25,14.44,41.93,34.6,82.41,63.45,116.35,8.12,9.94,17.09,19.3,27.12,27.33,.96,.72,1.92,1.44,2.9,2.14,.28,.2,.37,.57,.18,.86-.19,.28-.58,.37-.86,.18Z"/><path class="cls-1" d="M285.68,392.38c-23.22-6.85-40.68-24.57-59.54-38.84-16.93-13.16-30.18-29.98-44.02-46.18-21.72-24.79-39.05-53.38-51.98-83.65-4.13-9.19-7.53-18.82-12-27.82-.35-.21-.47-.88,.12-.96,.74,.09,.96,1.07,1.28,1.63,3.72,7.94,6.88,16.19,10.33,24.24,12.46,29.78,30.81,56.94,53.08,80.27,10.44,11.2,20.42,23.45,31.25,34.19,12.27,11.99,25.69,22.68,39.01,33.47,6.84,5.49,13.84,10.82,21.57,15.01,3.99,2,8.05,3.81,12.17,5.51,1.81,.8,.67,3.83-1.28,3.11Z"/><path class="cls-1" d="M317.99,360.66c-33.07-12.25-58.35-38.36-82.73-62.85l.03,.03,.04,.04c-25.25-23.58-50.96-47.31-70.21-76.25-7.96-11.7-14.77-24.14-20.82-36.92-.38-.41,.28-1.09,.7-.62,.2,.27,.32,.6,.49,.89,10.83,22.95,24.46,44.75,41.97,63.2,18.17,20.97,39.9,38.37,59.44,57.95,13.32,13.31,27.21,26.1,42.68,36.83,9.03,6.4,18.68,11.98,28.96,16.08,.43,.17,.7,.62,.54,1.09-.15,.44-.65,.7-1.08,.54Z"/><path class="cls-1" d="M327.33,314.87c-6.03-2.16-11.91-4.76-17.15-8.5-10.08-6.66-19.77-13.85-28.83-21.86-9.55-8.51-20.08-15.48-29.41-24.12-18.35-17.93-36.45-36.26-50.82-57.63-1.68-2.54-3.72-5.04-5.28-7.55,.59-1.79,3.35,3.5,3.93,4.02,16.25,23.99,36.06,45.5,58.1,64.27,15.55,10.96,29.66,23.88,45.37,34.57,6.36,4.22,12.49,8.86,19.53,11.9,1.86,.82,3.72,1.62,5.6,2.4,.62,.26,.89,1.04,.69,1.65-.23,.69-1.04,1.11-1.72,.85Z"/><path class="cls-1" d="M327.3,261.51c-18.81-6.11-33.41-19.68-46.19-34.28-6.38-7.11-12.58-14.4-18.2-22.13-2.23-3.52-5.45-6.79-6.28-10.97-.17-.62,.79-.99,.91-.23,0,.25,.05,.57,.11,.78,5.24,10.7,13.59,19.73,21.51,28.54,8.53,8.99,17.29,17.95,27.71,24.76,5.26,3.41,10.78,6.37,16.5,8.92,1.65,.73,3.3,1.45,4.96,2.15,.6,.25,.88,1.02,.67,1.62-.22,.67-1.02,1.1-1.69,.83Z"/><path class="cls-1" d="M242.09,193.74c-1.8-11.71-2.61-23.53-3.99-35.28-1.08-6.47-.11-13.78-3.42-19.64-1.35-1.24-3.59,.32-5.18,.5-16.42,4.97-32.92,8.9-49.81,11.74-11.17,1.62-22.45,2.92-33.51,4.88-.58-.13-.41-1.04,.18-.91,2.32-.11,4.54-.92,6.83-1.25,20.86-2.6,41.69-5.79,61.75-12.25,19.61-5.85,23.59-13.46,26.82,12.12v-.07s-.02-.08-.03-.12c2.31,13.16,2.99,26.51,3.51,39.84,.18,1.9-2.77,2.35-3.15,.45Z"/><path class="cls-1" d="M281.89,185.96c-2.55-.84-2.32-5.2-3.18-7.4-1.99-7.96-3.27-16.09-5.38-24.02-.96-2.77-1.18-5.93-3.73-7.59-4.27-3.09-9.42-4.16-14.43-5.23-5.03-1.23-10.03-2.15-15.22-1.45-1.26,.02-2.56,.28-3.8,.08-.18-.08-.29-.27-.28-.46-.02-.42,.45-.57,.73-.39,2.34-.03,4.67-.27,7.01-.35-3.74-.82-7.54-1.67-11.39-1.73-1.19,.06-2.91,.25-3.05-1.36,.04-3.23,7.87-1.24,9.99-1.15,6.37,1.25,12.54,3.38,18.82,4.89,6.59,.41,13.71,1.94,16.14,8.93,1.53,3.82,15.59,38.8,7.78,37.23Z"/><path class="cls-1" d="M154.18,189.45c-2.54-9.51-8.55-25.07-2.47-33.93,1.83-1.88,4.64-1.73,7.05-1.96,3.71-.3,7.44-.7,11.1-1.21,15.64-2.53,30.78-7.42,46.4-10.1,5-.76,9.83-2.51,14.88-2.94,4.12-.22,8.22,.51,12.29,1.09,1.5,.06,1.24,1.41-.27,.94-2.5-.39-5.04-.19-7.54-.43-.28-.04-.41-.33-.41-.59-7.32-.34-14.02,3.16-21.08,4.51-15.48,3.63-30.66,8.73-46.45,10.9-4.24,.65-8.56,.87-12.79,1.6-.46,.12-.74,.32-1.07,.63-3.02,4.96-1.72,11.79-1.03,17.29-.04-4.32-.22-8.6-.04-12.86,.07-1.04,1.69-.95,1.62,.1,.01,5.76-.06,11.38,.51,17.08-.17,1.45,2.63,12.4-.7,9.9Z"/><path class="cls-1" d="M223.29,364.83c-23.75,.04-47.9-4.68-68.15-17.58-7.41-4.11-14.46-8.86-20.4-14.95-3.57-3.56-7.33-7.38-9.02-12.23-.28-.25-.11-.78,.29-.79,.17-.02,.36,.06,.46,.2,.4,.95,.66,1.92,1.21,2.79,12.49,19.25,43.98,35.59,66.53,38.43,18.03,3.24,36.43,1.76,54.63,1.07,28.13-1.27,50.23-8.35,70.48-28.61,1.2-.78,1.98-3.42,3.64-2.42,.46,.41,.49,1.08,.12,1.54-2.79,3.48-6.14,6.49-9.61,9.28-25.16,22.59-58.15,23.3-90.17,23.27Z"/><path class="cls-1" d="M153.5,183.07c-2.07-3.94-1.29-9.37-2.41-13.7-.31-2.36-.79-4.75-.67-7.14,.03-.34,.3-.62,.64-.65,.42-.03,.74,.32,.75,.73,.1-.96,.21-5.74,1.91-4.34,.42,.54,.3,2-.64,1.56-1.36,7.45,.43,14.96,1.36,22.33,.09,.59-.14,1.63-.93,1.21Z"/><path class="cls-1" d="M151.98,159.74c-.53,.05-1.16-.31-.81-.89,.03-.56,.88-.63,.94-.04,8.34-1.19,16.35-4.01,24.56-5.89,6.15-1.48,12.35-2.79,18.24-5.16,8.85-3.57,17.73-7.27,26.91-9.87,3.98-1.01,8.01-2.47,12.14-2.44,2.94,.65,5.98,1.73,8.41,3.52,2.01,3.36-6.59,2-7.35,.55-.18-.12-.36-.17-.55-.26-.7-.33-.17-1.41,.53-1.07,.72,.4,1.45,.6,2.27,.58-1.71-.66-3.37-1.77-5.26-1.38-10.21,1.61-20,5.06-29.63,8.72-8.32,3.68-17.1,5.97-25.98,7.84-8.15,1.84-16.11,4.74-24.4,5.8Z"/><path class="cls-1" d="M242.7,189.59c-1.2-7.94-1.86-15.96-2.79-23.93-.6-5.81-1.39-11.73-.4-17.54-.08-2.6-.9-5.89,1.04-8-1.24-.04-2.45-.08-3.69-.17-.27,.21-.69,.02-.73-.31-.23-1.23,2.37-.32,3.12-.49-2.16-.85-4.48-1.27-6.75-1.66-.51-.08-.86-.62-.75-1.12,.35-2.16,9.81,1.4,10.54,2.84,9.84-.51,19.22,2.78,28.86,4.11,.59,.05,2.17,.28,1.42,1.13-.69,.39-1.56,.35-2.33,.48-9.15,.65-18.14-2.12-27.11-3.55-.14,2.28-1.16,4.4-1.33,6.68-.57,3.23,.1,6.42,.32,9.65,.79,8.61,.63,17.27,1.3,25.88,.11,1.94,.33,3.85,.38,5.79,.14,.67-.97,.93-1.09,.22Zm25.43-45.49c.46,0,.92-.03,1.38-.06-6.56-.35-12.99-1.79-19.47-2.77,5.97,1.2,11.98,2.68,18.09,2.83Zm-27.1-.83c.23-.61,.54-1.23,.57-1.88-.41,.46-.48,1.15-.55,1.66,0,.07-.01,.15-.02,.22Z"/><path class="cls-1" d="M154.16,189.58c-.57-.06-.55-.91-.02-.93,.14-.16,.23-.35,.24-.58-.3-3.45-2.35-6.37-3.71-9.47-8.09-15.65-.36-24.32,15.12-28.45,9.49-2.19,19.13-2.69,28.52-5.11,10.26-1.8,20.04-5.31,30.04-8.1,.04-2.77,4.68-1.09,6.48-1.31,3.04-.44,6.12,0,8.98,1.1,2.05,.53,7.81,1.51,5.66,4.56-.57,.51-1.38,.46-2.09,.29-3.17-1-6.39-2.49-9.8-1.96-5.51,1.04-10.53,2.93-15.65,5.07-8.32,3.41-17.03,5.82-25.74,7.99-12.28,3.76-30.43,1.86-38.92,12.78-2.43,5.33,.06,11.39,.93,16.85,.28,1.95,.88,3.86,1.1,5.81-.08,.65-.39,1.48-1.15,1.48Z"/><path class="cls-1" d="M116.52,147.46c-3.31-2.43,8.33-9.12,10.09-10.81,8.1-5.46,16.92-9.87,26.19-12.86,15.57-5.22,31.68-9,48.05-10.5,12.19-.99,24.45-.55,36.67-.32,7.97,.11,15.92,.72,23.73,2.3,1.74,.54,4.31,.11,5.34,1.83,1.83,.39,11.69,2.54,9.94,5.21-1.51,.74-3.68-.28-5.17-.79-.44-.37,.08-1.03,.53-.76,1.34,.41,2.61,.96,3.97,.85-2.51-2.19-6.19-2.52-9.37-3.04-.18,.31-.45,.56-.77,.71,1.56,.53,4.09,.34,4.33,2.43,.11,1.96-2.04,2.47-3.59,1.96-14.82-3.22-29.92-5.27-45.05-5.89-13.17-.48-26.4-.4-39.26,2.77-11.97,2.64-24.13,5.3-35.49,9.76-9.15,3.77-17.71,8.83-25.62,14.76-1.49,.65-2.83,3.22-4.52,2.39Z"/><path class="cls-1" d="M215.71,384.89c-28.4-1.46-61.01-7.99-77.69-33.36,.02,.04,.04,.07,.07,.11h.01c-1.64-2.28,.2-5.52,2.98-5.41,1.96,0,3.87,.95,5.45,2.07,7.44,5.94,14.91,11.92,24.03,15.1,23.65,9.23,49.06,8.83,74.02,9.19,11.4,.77,22.5-1.73,33.18-5.52,6.72-2.16,12.67-3.42,18.99-5.85,6.91-3.14,13.04-7.71,19.7-11.31,2.38-5.02,9.7-.48,6.22,3.88-6.79,4.23-13.68,8.74-20.66,12.84-6.47,3.52-13.43,5.97-20.36,8.42-7.08,2.49-14.05,5.39-21.41,6.97-14.62,2.83-29.68,3.11-44.53,2.88Z"/><path class="cls-1" d="M150.9,331.91c.01-.26,.23-.44,.49-.44s.45,.24,.44,.49c-.01,.26-.23,.44-.49,.44s-.45-.24-.44-.49Z"/><path class="cls-1" d="M148.91,338.33c.01-.26,.23-.44,.49-.44s.45,.24,.44,.49c-.01,.26-.23,.44-.49,.44s-.45-.24-.44-.49Z"/><path class="cls-1" d="M125.04,178.14c.01-.26,.23-.44,.49-.44s.45,.24,.44,.49c-.01,.26-.23,.44-.49,.44s-.45-.24-.44-.49Z"/><path class="cls-1" d="M141.47,351.66c-2.23-4.63-1.81-10.03-2.8-15-1.08-7.8-1.84-15.65-2.63-23.48-2.26-20.05-4.39-40.11-6.34-60.2-2.6-23.42-2.9-47.02-5.15-70.46-.72-6.75-1.4-13.54-1.19-20.33-.18-.62,.16-1.33,.71-1.6,1.74-.64,1.97,.88,2.28,2.21,1.64,6.78,2.95,13.67,4.15,20.54,4.41,28.45,6.81,57.81,11.25,86.18,3.13,20.32,6.02,40.66,8.62,61.05,.76,5,1.54,9.99,2.27,15,.71,1.62,1.1,3.35,.53,5.08-1.45,5.28-9.3,6.03-11.69,1.02Z"/><path class="cls-1" d="M318.99,152.92c0-1.8,2.13-3.28,3.18-4.66-.35,.22-.72,.76-1.15,.42-.43-.26-.38-.8-.09-1.15,3.53-3.72,6.86-8.09,10.88-11.16,.86-.69,1.76-1.32,2.69-1.91,.21-.14,.49-.09,.65,.12,.14,.2,.09,.51-.12,.65-.95,.63-1.9,1.29-2.77,1.99-.33,.74-.9,1.29-1.35,1.98,.51-.33,1.5-1.78,1.89-.67,.4-.03,.63,.46,.38,.76-1.1,1.52-1.92,3.13-2.65,4.83-.08,.42-.43,1.03-.91,.65-.42-.48,.2-1.16,.34-1.68-3.17,3.36-6.38,6.72-9.84,9.79-.3,.23-.86,.37-1.12,.03Z"/><path class="cls-1" d="M323.3,179.54c-.58-.88,.96-1.47,1.42-2.08,4.08-3.08,7.99-6.51,11.95-9.66,.65-.71,1.31-1.42,1.92-2.17-3.84,3.46-8.3,6.11-12.3,9.36-.71,.37-6.81,5.76-5.75,2.89,2.98-3.7,7.74-5.99,11.32-9.14,3.38-2.56,5.88-5.89,9.05-8.61,2.18-.33-.95,2.88-1.42,3.46,.47-.5,1.76-1.34,1.7-.06-.6,1.25-1.58,2.29-2.47,3.36,3.26,.11-12.43,14.58-11.13,10.07-1.27,.9-2.48,2.08-3.84,2.78-.17,0-.35-.08-.46-.21Z"/><path class="cls-1" d="M343.65,158.09c-1.34-.3-.54-2.24-.59-3.22,1.23-10.09,2.49-20.16,4.86-30.05-.16-.38,.3-.84,.69-.66,.2,.1,.31,.29,.28,.51-.18,.87-.37,1.86-.51,2.72-.96,9.81-2.11,19.67-3.87,29.36-.02,.57-.11,1.37-.86,1.35Z"/><path class="cls-1" d="M338.95,134.22c.81-2.29,3.03-3.88,4.55-5.73,.43-.47,1.96-2.18,2.01-.65,.39-.19,.9,.05,.8,.53,1.57-1.17,3.42-1.86,5.38-1.64,1.1-.3,1.68-1.42,2.39-2.24,.5-.44,.89-1.81,1.7-1.39,.19,.17,.22,.46,.06,.65-1.13,1.27-1.95,3-3.53,3.76-.74,.34-1.58,.02-2.35,.15-1.87,.53-4.06,1.56-4.85,3.42,.64-.14,.84,.86,.18,.92-.52,.09-1.23,.01-1.21-.67-.86,.49-4.84,5.17-5.13,2.88Zm1.76-1.15c1.37-1.26,2.92-2.46,4.21-3.74-1.42,1.21-2.91,2.4-4.21,3.74Z"/><path class="cls-1" d="M326.55,139.55c-.1-1.04,.82-1.75,1.79-1.75,1.9-.39,3.79-1.32,5.56-2.04,5.64-2.45,11.09-5.3,16.85-7.47,4.56-1.84,9.79-3.12,13.48-6.41-.25-.09-.53-.08-.75-.25-.42-.34,.05-1.03,.53-.76-.02,0,.02,0,0,0,6.6,1.58-17.23,10.59-18.76,11.94-3.72,1.92-7.41,3.93-11.12,5.87-1.95,.77-6.68,4.24-7.6,.86Z"/><path class="cls-1" d="M337.89,158.07c-4.68-5.72,3.42-10.87,6.7-14.96-.2-1.26-.04-2.57,.48-3.73-.13-.12-.25-.24-.36-.37-1.17-1.29-1.8-3.2-1.57-4.98-2.36-3.62,1.41-7.02,4.37-8.69,3.51-2,7.26-5.56,11.59-4.08,6.35-2.03,13.51,3.41,12.19,10.23-.6,6.14-6.84,8.39-11.03,11.77-4.19,5.12-8.98,9.7-13.62,14.4-2.12,2.73-6.4,3.03-8.73,.4Z"/><path class="cls-1" d="M372.38,197.67c-1.93-.08-4.02-1.11-5.05-2.8-.49-.8-.89-1.58-1.1-2.46-3.73-.4-5.86-4.86-3.81-8.01,2.1-3.28,4.64-6.16,6.77-9.1,3.78-3.94,5.07-12.21,11.53-12.23,3,.09,5.55,2.58,6,5.47,4.02,.61,6.51,5.37,4.7,9.03-1.74,3.33-4.22,6.28-6.46,9.29-3.76,3.82-6.61,10.58-12.59,10.81Z"/></svg>