<?xml version="1.0" encoding="UTF-8"?><svg id="Ebene_1" xmlns="http://www.w3.org/2000/svg" viewBox="0 0 500 500"><path d="M222.62,149.14c-7.77-5.37-2.31-16.78,.94-23.43,4.48-7.98,11.54-14.21,19.49-18.63,1.03-.62,2.31-.99,3.07-1.95,0-.58,.96-.56,.89,.06-.08,.66-.76,1.08-1.21,1.42-10.2,9.3-21.99,19.49-23.74,33.99-.49,3.66,2.55,6.31,6.1,5.92,10.05-1.19,23.44-18.98,23.03-28.75-6.17-1.78-24.95,14.59-23.45,20.7,6.52,1.13,17.83-10.66,20.23-16.31-4.04,1.28-7.11,4.88-9.86,7.88-.35,.4-.94,.52-1.38,.18-1.46-1.46,2.5-3.69,3.34-4.85,1.65-1.4,8.66-7.79,9.45-3.27,0,.85-.68,1.69-1.09,2.36-3.61,5.46-8.41,10.2-14.13,13.42-6.02,3.21-10.19,2.76-6.73-4.94,1.7-4.45,5.09-8.45,8.05-11.88,2.8-3.32,5.86-6.46,9.77-8.44,7.03-3.78,14.68,.04,13.28,8.54-1.76,13.62-21.41,35.86-36.05,27.99Z"/><path d="M292.58,162.17c-14.38-7.63-22.93-22.49-28.49-37.28-2.66-6.28-2.78-14.27-8.52-18.66-11.56-5.76-20.05,8.25-26.58,15.67-.09,.17-.1,.28-.14,.44-.08,.56-.95,.45-.88-.12,.09-.67,.51-1.13,.93-1.62,7.19-8.62,16.8-21.97,29.66-17.23,7.79,3.68,10.82,12.46,14.9,19.47,2.77,5.5,5.49,11.68,9.08,16.49,4.24,6.53,8.69,11.35,14.83,15.73,4.14,3.26-.17,9.74-4.78,7.12Z"/><path d="M281.75,169.88c-23.85-1.98-42.32-12.86-61.02-26.69-.47-.22-1.13-.33-1.04-.97,.06-.5,.76-.47,.87-.07,12.93,6.48,26.62,11.41,40.41,15.74,5.92,2.42,11.99,4.54,18.28,5.68,6.61,1.82,13.35,.27,19.92-.92,1.13-.19,2.26,.59,2.57,1.68,.35,1.27-.41,2.46-1.61,2.86-5.89,1.88-12.15,3.46-18.37,2.69Z"/><path d="M249.18,157.47c-2.14-.55-4.15-1.52-6.24-2.21-.11,.23-.35,.33-.6,.32-3.48,.07-6.79-1.22-9.91-2.64-3.31-1.87-7.2-2.26-10.5-4.15-.65-.3-1.65-1.14-.76-1.76,1-.41,1.87,.62,2.81,.82,0-.16,.06-.31,.17-.45,.19-.24,.47-.35,.74-.32-1.91-.96-3.76-2.19-5.88-2.54-.13,.51-.96,.34-.87-.18,.91-2.56,8.89,3.31,10.88,3.77,6.67,2.86,13.22,6.01,20.1,8.32,.6,.1,.85,1.04,.07,1.03Zm-15.81-6.48c-2.58-1.13-5.18-2.19-7.68-3.49,2.24,1.85,4.89,2.81,7.68,3.49Z"/><path d="M250.96,149.27c-8.94-1.81,4.76-6.34,7.47-6.72,1.39-.3,2.86-.54,4.25-.17,.24,.03,.42,.26,.39,.49-.04,.38-.49,.46-.76,.33-2.74-.41-5.44,.65-8.02,1.45-1.54,.82-4.8,1.38-5.3,3.02,3.87,2.44,14.97-2.15,18.2-4.93-.77-.45-3.98,.69-3.34-.84,1.04-.63,2.51-.08,3.85-1.03,.2-.11,.4-.21,.6-.33-1.34-2.91-3.83-4.04-6.67-5.12-2.01-.98-3.76-2.47-5.06-4.28-.91-1.06-1.74-3.79,.53-3.55,2.03,.58,3.51,2.3,5.01,3.7,2.43,2.79,4.77,5.41,7.95,7.33,.66,.51,.51,1.46-.16,1.9,.45,.83,2.13,1.45,1.26,2.51-1.2,.96-1.77-1.02-2.36-1.75-.3,.18-.62,.34-.93,.49-.11,.05-.22,.1-.33,.15,3.69,2.64-14.55,8.27-16.56,7.34Zm17.5-10.53c.29,.37,.57,.74,.86,1.11,.72-.54-.59-.94-.98-1.26,.04,.05,.08,.1,.12,.15Zm-4.18-3.57c-2.15-2.32-4.26-5.26-7.28-6.38,1.41,3.04,4.33,5.06,7.28,6.38Z"/><path d="M315.88,151.23c-2.97-.53-5.65-2.43-7.52-4.75-2.03-2.24-3.14-5.79-6.16-6.84-14.57-2.96-13.63-12.89-20.4-22.89-1.97-2.18-4.96-2.83-7.7-3.5-10.73-2.41-13.5-6.89-16.01-17.1-.71-1.91-1.31-3.98-2.8-5.42-2.98-2.33-6.64-4.92-.91-6.95,4.45-1.42,9.54-1.06,13.47,1.59,2.57,1.99,5.37,3.6,8.72,3.44,12.8-1.38,12.59,13.14,15.43,21.78,7.86-.34,11.14-1.26,14.23,7.25,3.29,7.92,8.78,15.14,8.77,24.11,2.92,1.16,6.4,2.28,5.47,6.21-.53,2-2.56,3.36-4.58,3.07Zm-13.63-18.48c1.35,.18,2.74,.45,4.01,.97-1.33-3.83-2.31-7.8-3-11.8-.55-2.67-.29-5.97-2.36-8.02-2.86-1.69-6.02,.87-9.05,.77-3.45,.28-4.54-3.44-4.96-6.19-1.27-5.06-1.48-10.84-4.71-15.03-3.24-2.48-7.67-.52-11.28-1.97-2.91-1.03-5.22-3.26-8.17-4.27-2.76-.91-5.8-.81-8.6-.11,4.95,3.75,5.69,10.07,7.53,15.59,2.46,8.37,12.22,8.14,18.89,10.89,9.38,5.37,7.89,19.22,21.68,19.17Z"/><path d="M317.2,150.75c-4.07-.44-1.25-4.39-2.04-6.79-2.11-9.08,0-18.24,.72-27.33,.52-7.08-2.02-13.8-3.02-20.6-.54-6.74,3.36-13.24,2.6-19.99,.18-13.97-18.26-12.96-15.7-27.71-4.4,4.78-6.31,11.57-5,17.91,.62,2.68,1.02,5.69-.75,8.03-4.37,5.49-9.67,11.67-7.71,19.21,.29,1.24,.99,2.56,2.28,2.93,.66-.07,.7,.96,.03,.9-3.74-.89-3.65-5.86-3.48-8.95,.48-3.69,2.25-7.04,4.26-10.11,1.47-2.29,3.75-4.29,4.15-7.07,.09-1.82-.52-3.5-.92-5.23-1.44-6.33,.13-13.19,4.32-18.17,1.05-1.45,2.29-2.78,3.21-4.32,.27-1.05,1.22-2.18,2.39-1.5,.48,.27,.78,.85,.7,1.4-.35,1.71-.62,3.56-.76,5.15-1.76,14.11,18.44,9.27,17.34,29.8,.15,5.92-2.93,11.41-3.65,17.1,.09,6.49,2.06,12.84,1.82,19.38,1.79-6.39,5.3-12.16,6.74-18.65,2.01-8.24,4.41-16.89,10.61-23.02,3.35-3.86,8.5-4.81,13.25-5.86,3.16-.53,6.09-1.52,9.25-1.7,6.02,1.06-2.13,6.69-3.93,8.31-15.58,10.41-3.53,19.32-12.06,32.11-5.73,10.04-17.64,16.28-19.44,28.34-.76,3.99-1.28,8.03-2.1,12.01-.42,1.76-.8,4.41-3.09,4.42Zm1.88-21.88c-.05,.36-.11,.73-.16,1.09,2.65-7.76,9.69-12.02,14.85-17.91,14.81-15.73,.1-22.25,10.76-34.6,3.87-4.08,9.43-6.23,13.39-10.19-5.95,.37-12.07,1.89-17.6,4.09-8.04,4.88-10.74,14.68-12.45,23.34-1.75,11.81-7.55,22.3-8.79,34.17Z"/><path d="M334.99,76.3c-2.37-.73-1.09-3.43-.64-5.1,8.11-21.73-7.91-22.25-2.22-43.9-3.37,7.62-6.03,16.13-12.75,21.57-2.14,1.69-4.43,2.99-5.71,5.42-1.22,4.22,.04,8.78-.61,13.08-.08,.57-.96,.46-.88-.11,.07-.6,.15-1.2,.19-1.77,.2-3.82-1.6-7.6-.66-11.39,1.12-3.12,4.11-4.84,6.54-6.84,2.95-2.51,5.02-6.07,6.75-9.38,1.82-2.86,5.58-17.47,9.02-16.66,1.11,.56,.69,2.03,.65,3.02-2.28,14.34-2.78,15.31,3.44,28.57,1.67,5.38,1.76,11.17,.58,16.65-.82,2.17-.34,7.32-3.69,6.84Z"/><path d="M312.4,137.39c-2.99-7.11-4.57-14.99-4.99-22.7-.21-6.58,2.04-13,2.37-19.53,.55-4.97-1.07-9.68-3.25-14.05-3.09-6.72-7.45-12.79-8.83-20.16-.58-2.77-1.53-5.69-.71-8.5,.3-1.5,1.36-1.61,2.22-.32l-.02-.02c.56,.08,.45,.95-.12,.88-.52,0-.66-.59-1.04-.81-1.39,4.54,.92,9.41,2,13.79,3.12,7.95,9.44,14.56,11.26,23.11,1.82,10.82-2.85,21.68-.23,32.42,1.04,4.95,3.02,9.46,5.04,14.04,1.01,2.27-2.45,4.07-3.7,1.86Z"/><path d="M310.31,93.05c-6.3-4.89-11.62-11.06-16.82-17.08-.43-.63-1.64-1.56-.76-2.27,.27-.17,.6-.22,.91-.16,.67,.11,.38,1.08-.25,.87,3.18,3.98,6.62,7.95,10.39,11.3,2.4,2.08,4.81,4.2,7.39,6.07,.76,.54-.06,1.77-.86,1.28Z"/><path d="M310.18,98.3c-4.77-1.42-8.48-4.88-12.37-7.81-2.67-2.26-6.56-4.56-7.13-8.24,.18-.76,1-.44,1.54-.38,.24,.03,.42,.26,.39,.5-.08,.52-.67,.37-1.04,.31,.3,1.03,1.15,1.92,1.9,2.62,4.27,3.33,8.9,6.15,13.6,8.81,1.39,1.05,5.1,1.01,4.77,3.24-.19,.71-.96,1.16-1.66,.96Z"/><path d="M311.8,105.86c-5.64,.04-10.32-3.48-15.1-6.03-2.8-1.6-5.41-3.52-7.7-5.78-.31-.31-.69-.72-.63-1.2,.12-.58,.79-.46,1.22-.39,.52,.06,.49,.85-.02,.88,4.89,5.15,11.85,7.69,18.61,9.35,1.54,.45,3.43-.08,4.79,.77,.96,.9,.12,2.59-1.17,2.4Z"/><path d="M307.31,135.27c-3.06-7.24-7.81-14.28-15.57-16.88-3.33-1.12-6.91-1.88-9.73-4.09-5.18-4.64-8.13-11.22-12.79-16.32-2.74-3.15-6.33-5.31-9.8-7.51-.44,.24-.7-.35-.97-.59-.35-.35,.09-.97,.54-.71,4.58,2.86,9.32,5.67,12.76,9.91,4.66,4.65,7.54,11.35,13.29,14.7,5.22,2.22,11.01,3.4,15.36,7.31,4.05,3.49,6.75,8.18,9.19,12.86,.34,.63,.17,1.43-.47,1.8-.6,.35-1.47,.16-1.8-.47Z"/><path d="M314.24,127.45c-.85-.11-1.4-.88-1.33-1.72,.39-3.72,1-7.43,1.54-11.13,2.99-16.88,8.62-33.29,11.87-50.09,2.15-11.67,3.67-23.47,5.37-35.2,.13-.47,.9-.42,.9,.11-.06,1.16-.07,2.34-.18,3.5-.02,.2-.19,.36-.39,.39-1.78,12.01-3.36,24.03-4.88,36.07-2.29,13.36-6.04,26.48-8.78,39.75-1.03,5.63-1.88,11.29-2.39,17-.08,.83-.92,1.43-1.72,1.33Z"/><path d="M291.64,115.95c0-.24,.19-.45,.44-.45s.45,.19,.45,.44-.19,.45-.44,.45-.45-.19-.45-.44Z"/><path d="M287.33,114.82c0-.24,.19-.45,.44-.45s.45,.19,.45,.44-.19,.45-.44,.45-.45-.19-.45-.44Z"/><path d="M293.82,161.08c-.18-1.23,.03-2.5,.57-3.61-6.12-3.87-11.17-9.11-15.14-15.14-5.02-7.04-10.41-14.19-12.59-22.7-.46-1.93-.57-5.52,2.05-5.74,1.08,.02,1.41,1.29,2.22,1.82,.23-.33,.87-.17,.81,.31-.05,.35-.36,.61-.71,.63,3.35,5.35,7.63,10.1,11.79,14.82,4.52,4.87,8.69,10.17,14.25,13.91,2.79,1.87,5.76,3.45,8.88,4.71,1.91,.79,3.96,1.52,5.23,3.25,1.51,2.04,1.75,4.81,.46,7.03-1.46,2.66-4.6,3.15-7.12,4.36-3.69,3.21-10.06,1.4-10.71-3.67Z"/><path d="M249.99,197.03c-12.42-.58-23.82-1.71-36-2.84-10.72-.77-21.4-2.48-31.44-6.49-20.94-7.46-42.04-25.69-39.81-49.84,1.3-10.34,9.19-18.26,17.77-23.39,5.48-3.5,10.69-7.51,16.75-9.96,11.8-5.34,24.22-9.23,37.1-10.8,15.2-3.62,30.79-5.15,46.38-3.33,.6-.44,1.22,.68,.4,.87-8.53-.52-17.12-1.33-25.64-.27-7.63,.88-14.94,2.95-22.45,4.4-5.54,1.01-11.11,1.99-16.47,3.72-16.18,5.05-31.49,13.36-44.02,24.75-3.02,3.99-6.16,8.58-6.64,13.66-.25,7.99,2.14,16.22,7.39,22.33,10.84,12.37,27.33,18.1,42.88,21.64,10.05,1.9,20.33,1.83,30.5,2.57,12.31,.55,24.65,1.87,36.94,.33,16.31-2.73,33.92-4.3,48.37-12.75,10.77-6.49,17.2-15.35,14.54-28.37-1.44-7.2-3.85-15.24-10.49-19.27-5.6-2.52-2.18-10.5,3.36-7.75,17.88,7.22,23.17,37.42,10.36,51.24-11.52,13.2-27.43,21.58-44.52,24.91-11.5,2.99-23.34,4.9-35.26,4.63Z"/><path d="M325.37,417.35c-5.39-.48-4.23-6.55-3.52-10.33,1.18-7.09,1.36-14.29,2.05-21.45,2.07-23.12,3.94-46.28,5.13-69.47,3.46-41.07,2.61-82.33,4.53-123.48,.37-9.15-.46-17.91-.47-26.99-.28-8.07,2.09-16.08,1.52-24.11-.29-.36-.51-.81-.62-1.26-.11-.5-.24-1.3,.34-1.55,.62-.13,.82,.65,.93,1.13,1.38,7.76-.22,15.9,.08,23.65,.3,8.67,1.74,17.26,1.98,25.93,.45,14.73-.24,29.45-.27,44.17,.07,29.47-1.55,58.91-3.15,88.32-.98,23.06-1.36,46.16-2.77,69.19-.21,5.53-.64,11.07-.89,16.6,.04,3.73,.25,9.7-4.88,9.63Z"/><path d="M153.17,442.06c-1.08-1.96-.42-4.01-.35-6.08-.38-9.09-1.16-18.17-1.38-27.28-.47-12.86-2.3-25.63-2.75-38.48,.42-17.91-1.57-35.68-2.5-53.53-.94-19.34-1.94-38.68-2.51-58.03-1.2-17.95,.26-35.93-1.48-53.83-1.45-19.56,.6-39.12,1.06-58.67-.2-2.83,1.2-6.23-.29-8.7-.38-.42,.27-1.03,.66-.6,1.56,1.93,1.05,4.91,1.21,7.28,.12,17.02,.4,33.88,1.17,50.85,1.51,16.35,3.11,32.68,2.59,49.13,1.08,25.91,2.29,51.81,3.67,77.71,1.24,16.37,2.98,33.14,2.67,49.51,1.5,19.54,3.32,39.09,5.05,58.62,.33,1.96,.46,3.97,.88,5.91,.75,1.31,1.46,2.65,1.37,4.22-.01,4.73-7.04,6.36-9.09,1.98Z"/><path d="M229.53,478.81c-14.34-.2-28.25-4.19-41.47-9.5-5.03-2.08-10.37-3.58-14.98-6.53-4.55-3.01-8.67-6.65-12.37-10.66-2.42-2.5-9.31-12.29-5.63-14.88,1.93-.84,4.02,.61,5.45,1.79,6.59,6.6,13.74,12.98,22.42,16.7,11.04,4.35,21.47,9.31,33.19,11.17,13.3,2.28,26.84,.74,39.93-2.09,12.52-3.03,23.85-9.25,34.21-16.78,10.36-8.21,20.82-17.52,26.06-29.93,1.21-2.78,1.92-5.72,2.55-8.67,1.57-6.86,11.8-5.48,11.35,1.65-1.3,20.69-18.52,35.9-34,47.65-20.18,14.74-41.99,20.02-66.72,20.08Z"/><path d="M226.15,450.84c-20.8-1.51-41.8-8.34-58.26-21.37-2.55-2.18-4.95-4.28-7.12-6.69-2.89-3.28,1.44-8.26,5.07-5.71,4.37,3.33,8.53,6.95,13.33,9.68,20.41,12.45,44.84,17.99,68.58,14.84,17.87-2.66,35.45-8.05,50.37-18.41,9.23-6.5,22.09-13.34,24.68-25.14-.19-.45,.49-.86,.79-.41,.24,2.14-1.11,4.33-1.86,6.28-4.67,12.59-15.87,20.79-26.27,28.52-17.82,12.36-47.7,20.64-69.32,18.39Z"/><path d="M232.4,460.22c-22.5-1.94-47.74-4.77-64.31-21.74-2.75-3.08-7.16-5.86-7.34-10.35,.71-5.24,7.22,2.39,9.5,3.16,12.34,8.82,26.81,13.87,41.81,15.75,7.06,.95,14.16,1.58,21.2,2.6,1.4,.19,2.65,.73,3.59,1.82,3.12,3.4,.11,9.25-4.45,8.76Z"/><path d="M209.93,465.58c-7.37-.34-14.37-2.98-21.26-5.4-7.3-2.83-15.1-6.03-19.36-13-1.68-2.46-2.57-5.35-3.61-8.07-.33-.38,.17-.96,.58-.66,1.47,.52,3.26,.53,4.67,1.31,.53,.21,.24,1.05-.3,.84-.81-.37-1.63-.67-2.52-.81,3.44,2.81,6.67,5.92,10.5,8.22,4.14,2.3,9.02,3.71,13.24,4.91,7.45,1.9,15.04,3.8,22.79,2.95,4.09-.36,6.63,5,3.81,7.96-2.15,2.27-5.7,1.74-8.55,1.76Z"/><path d="M142.16,198.36c-.6-10.02-.86-19.92-2.05-29.88-.34-10.75,.06-21.8,2.14-32.31,.18-1.37,1.58-2.84,1.88-.53-.81,7.27-.16,14.64-.68,21.95-.75,8.63-.78,17.3-.92,25.96-.17,4.95,.17,9.81,.51,14.72,.06,.56-.84,.66-.88,.08Z"/><path d="M140.82,150.12c-.89-.11-.25-1.92-.34-2.5,.91-7.29,5.98-13.13,10.88-18.24,13.81-11.92,31.22-18.95,48.45-24.36,9.78-3.14,19.48-6.4,29.49-8.59,4.47-.57,23.59-3.47,25.49-.12-.08,.26-.37,.4-.63,.32-1.06-.34-2.12-.62-3.22-.74-9.08-.18-18.35,.48-27.16,2.77-22.38,6.54-45.33,12.71-64.85,25.92-7.28,4.81-13.94,11.65-16.87,19.97-.55,1.67-.82,3.37-.76,5.12-.01,.24-.22,.44-.47,.42Z"/><path d="M250.01,200.86c-12.69-.68-25.37-2.35-38.07-2.62-5.58,.08-11.08-.38-16.63-.26-.41,.05-.87-.39-.52-.77,5.58-.47,11.47,.3,17.09,.14,16.18,.22,32.26,3.2,48.45,2.7,8.82-.32,17.58-1.98,26.06-4.21,10.21-1.84,19.96-5.36,28.55-11.23,6.44-3.4,11.8-8.38,15.94-14.34,.45-.61,1.32-.77,1.95-.32,2.12,1.71-2.61,5.02-3.61,6.45-3.78,4.23-8.47,7.21-13.47,9.8-8.09,5.16-17.12,8.44-26.55,10.12-12.83,3.05-25.96,5.48-39.21,4.53Z"/><path d="M239.36,233.21c-11.54-.43-22.97-2.47-34.37-4-6.71-.28-13.28-1.48-19.83-2.91-13.85-2.65-28.28-6.27-39.63-15.01-.83-.8-1.85-1.67-2.07-2.85-.04-.57,.85-.63,.89-.06,0,.13,.13,.33,.16,.4,2.64,3.62,6.99,5.49,10.88,7.5,7.01,3.33,14.28,5.98,21.88,7.48,6.57,1.31,13.11,2.89,19.75,3.82,5.48,.46,11.17,.64,16.57,1.63,7.94,.83,15.87,1.59,23.85,1.87,6.65-.1,13.26-1.21,19.83-1.99-.02,0-.05,0-.08,.01,10.19-1.36,20.17-4.01,29.96-7.04,10.08-3.17,20.13-6.55,29.6-11.29,2.24-1.11,3.99,2.26,1.75,3.43-24.4,12.28-51.85,18.77-79.14,19Z"/><path d="M174.36,223.48c-2.28-10.46-7.71-19.94-11.39-29.94-2.35-7.04-3.34-15.57,.82-22.12,8.48-11.41,21.46-18.22,33.29-25.55,7.54-4.94,15.75-8.76,24.51-10.93,.3-.13,.75-.15,.83,.26,.06,.25-.11,.47-.34,.53-1.32,.37-2.64,.74-3.96,1.14-8.35,2.26-15.81,6.72-23.08,11.28-9.17,5.62-18.72,10.87-26.01,18.99-4.87,4.39-5.73,10.91-4.49,17.06,2.08,13.22,7.41,25.78,10.47,38.7l.02,.02v.02s0-.02-.01-.06c.38,.45-.29,1.03-.67,.6Z"/><path d="M267.76,222.81c-1.61-6.69-2.44-13.59-4.39-20.19-1.94-7.34-4.86-14.36-7.26-21.55-1.62-5.28-2.93-10.67-4.02-16.09-.59-2.75-1.03-5.57-2.08-8.19-.13-.22-.24-.71-.55-.56,.02-.02,.03-.02,.05-.03-3.74,3.1-2.87,8.86-5.37,12.77-2.72,4.66-8.52,3.52-13.08,3.56-5.24-.21-10.5-.19-15.74-.42-12.5,.25-25.11,1.75-37.48-.94-2.86-.57-5.8-.64-8.63-1.27-.34-.1-.66-.42-.56-.78,.16-.54,.84-.6,1.25-.88,.5-.31,.91-.7,1.27-1.12,.16-.19,.44-.21,.63-.05,.57,.74-1.2,1.77-1.79,2.11,6.79,.71,13.45,2.36,20.27,2.61,8.49,.53,16.96-.63,25.44-.56,6.17,.21,12.32,.31,18.49,.47,2.39-.15,5.13,.38,7.16-1.1,3.49-2.44,3.49-7,4.78-10.71,.51-1.59,2.83-6.57,4.57-3.68,2.58,7.42,3.29,15.45,5.87,22.88,3.95,11.46,8.87,22.67,10.96,34.7,.54,2.96,1.59,5.81,1.93,8.8,.05,.42-.29,.83-.69,.91-.46,.1-.91-.21-1.02-.67Z"/><path d="M288.9,237.92c-.24-.01-.43-.23-.42-.47,.23-3.9,.45-7.8,.85-11.69,.73-11.17,3.27-22.12,4.5-33.21,.78-8.78-.35-17.53-.5-26.31,.29-.74,1.04-.2,.95,.45-.02,.37,.34,.85-.07,1.13,.41,7.83,1.09,15.68,.61,23.52-.35,6.68-1.99,13.2-2.93,19.8-1.13,8.51-2.04,17.12-2.47,25.73-.04,.41,.06,1.06-.51,1.05Z"/><path d="M225.76,433.44c-25.22,.5-49.38-13.05-65.35-32.05-5.22-6.6,1.08-3.27,4.32-1.17,13.46,8.88,27.11,17.55,42.14,23.35,9.24,3.07,19.1,3.81,28.77,3.41,8.91-.38,17.51-1.97,26.25-3.55,2.73-.55,3.88,3.67,1.14,4.49-12.18,3.16-24.64,5.66-37.28,5.52Z"/><path d="M173.44,394.82c-4.41-38.4-8.6-76.82-12.43-115.28-1.42-17.53-1.53-35.18-3.22-52.67-.26,.04-.5-.17-.51-.43-.04-.76-.13-1.46-.18-2.2,.02-.67-.34-1.53,.14-2.09,.22-.26,.65-.12,.74,.19,2.65,16,3.61,32.36,4.91,48.48,0-.05-.01-.1-.01-.16,3.08,31.38,6.97,62.67,10.1,94.05,.62,6.08,1.17,12.11,1.68,18.15,.33,3.92,.62,7.85,.9,11.78,.07,1.26-1.96,1.49-2.12,.18Z"/><path d="M187.39,404.74c-2.73-34.12-10.3-67.82-12.09-102.08v.06c-1.76-19.49-4.21-38.97-5.16-58.53,.15-1.85-1.58-21.42,.53-19.65,.68,1.06,.75,2.53,1.13,3.74,.05,.24-.15,.47-.38,.51-.25,.03-.46-.14-.51-.38,0-.01,0-.03-.32-1.33-.04,20.44,2.13,40.8,4.2,61.11,1.79,17.56,2.99,35.2,5.64,52.67,2.58,19.18,6.48,38.21,8.08,57.51,.15,2.11,.26,4.23,.36,6.34,.02,.4-.33,.75-.72,.76-.42,0-.73-.33-.76-.73Z"/><path d="M201.15,410.07c-3.44-27.86-7.15-55.67-12.28-83.28-3.18-19.15-4.45-38.56-6.97-57.8-1.38-12.66-3.77-25.47-3.15-38.2,.31-.67,1.05-.35,1.45,.07,.34,.48-.29,.93-.7,.61-.13,16.18,2.88,32.18,4.59,48.23,1.68,15.23,3.01,30.51,5.43,45.65,4.23,23.41,8.31,46.85,11.02,70.51,.59,4.68,1.16,9.37,1.65,14.06,.11,.65-.96,.86-1.05,.16Z"/><path d="M207.23,394.29c-4.08-23.76-6.88-47.72-10.14-71.6-2.25-15.1-3.27-30.55-7.15-45.33-.66,.21-.69-.71-.67-1.14,1.89-2.85,3.65,11.07,3.98,12.28,2.82,17.93,4.88,35.95,7.34,53.93,2.31,17.27,4.75,34.55,8.25,51.63,.17,1-1.46,1.33-1.61,.24Z"/><path d="M260.71,285.82c.05-1.11,.97-1.89,2.04-1.89s1.93,1.01,1.89,2.04c-.05,1.1-.97,1.89-2.04,1.89s-1.93-1.01-1.89-2.04Z"/><path d="M260.27,320.91c.04-1.1,.97-1.88,2.03-1.88s1.92,.99,1.88,2.03c-.04,1.1-.97,1.88-2.03,1.88s-1.92-.99-1.88-2.03Z"/><path d="M297.87,290.94c.05-1.17,1.04-2.01,2.18-2.01s2.05,1.07,2.01,2.18c-.05,1.17-1.04,2.01-2.18,2.01s-2.05-1.07-2.01-2.18Z"/><path d="M291.26,359.77c.04-.99,.88-1.71,1.85-1.71s1.74,.91,1.71,1.85c-.04,.99-.88,1.71-1.85,1.71s-1.74-.91-1.71-1.85Z"/><path d="M234.7,390.84c0-.24,.22-.42,.47-.42s.43,.23,.42,.47c0,.24-.22,.42-.47,.42s-.43-.23-.42-.47Z"/><path d="M223.61,281.66c.1-2.51,2.22-4.31,4.67-4.31s4.41,2.29,4.31,4.67c-.1,2.51-2.22,4.31-4.67,4.31s-4.41-2.29-4.31-4.67Z"/><path d="M232.57,361.46c.04-1.07,.94-1.83,1.98-1.83s1.87,.97,1.83,1.98c-.04,1.07-.94,1.83-1.98,1.83s-1.87-.97-1.83-1.98Z"/><path d="M262.92,161.14c-6.15-3.84,2.85-11.25,6.35-13.77,1.42-.81,8.74-7.21,8.78-3.23-.22,.71-.95,4.74-2.06,3.41,0-.51,1.31-2.74,1.17-3.81h0c-2.23,.71-3.89,2.84-5.78,4.19,.46,.68-.21,1.36-.42,2.01-1.58,4.11-2.16,11.61-8.04,11.19Zm.6-1.6c4.05-.89,4.13-6.1,5.19-9.35-1.67,1.42-8.67,7.61-5.19,9.35Z"/><path d="M235.25,319.18c0-.33,.29-.56,.6-.56s.58,.3,.56,.6c0,.33-.29,.56-.6,.56s-.58-.3-.56-.6Z"/><path d="M228.86,331.69c.07-1.72,1.52-2.95,3.19-2.95s3.02,1.57,2.95,3.19c-.07,1.72-1.52,2.95-3.19,2.95s-3.02-1.57-2.95-3.19Z"/><path d="M264,376.22c.05-1.21,1.06-2.06,2.23-2.06s2.11,1.1,2.06,2.23c-.05,1.21-1.06,2.06-2.23,2.06s-2.11-1.1-2.06-2.23Z"/><path d="M246.18,404.82c.04-1.19,1.05-2.04,2.2-2.04s2.09,1.08,2.04,2.2c-.04,1.19-1.05,2.04-2.2,2.04s-2.09-1.08-2.04-2.2Z"/><path d="M298.61,323.57c.04-1.06,.94-1.81,1.97-1.81s1.86,.97,1.81,1.97c-.04,1.06-.94,1.81-1.97,1.81s-1.86-.97-1.81-1.97Z"/><path d="M294.47,247.9c.05-1.21,1.07-2.08,2.25-2.08s2.12,1.11,2.08,2.25c-.05,1.21-1.07,2.08-2.25,2.08s-2.12-1.11-2.08-2.25Z"/><path d="M286.19,390.03c.1-2.59,2.29-4.44,4.8-4.44s4.54,2.36,4.44,4.8c-.1,2.59-2.29,4.44-4.8,4.44s-4.54-2.36-4.44-4.8Z"/><path d="M204.72,252.23c.03-.83,.73-1.43,1.54-1.43s1.46,.76,1.43,1.54c-.03,.83-.73,1.43-1.54,1.43s-1.46-.76-1.43-1.54Z"/></svg>