<?xml version="1.0" encoding="utf-8"?>
<!-- Generator: Adobe Illustrator 26.3.1, SVG Export Plug-In . SVG Version: 6.00 Build 0)  -->
<svg version="1.1" id="Ebene_1" xmlns="http://www.w3.org/2000/svg" xmlns:xlink="http://www.w3.org/1999/xlink" x="0px" y="0px"
	 viewBox="0 0 400 400" style="enable-background:new 0 0 400 400;" xml:space="preserve">
<style type="text/css">
	.st0{fill:#00010D;}
</style>
<path d="M299.3,247.9c-8.6-16.2-23.9-29.7-41.9-34.2c-9.8-2.8-19.8-0.9-29.4,1.4c-2.2,0.3-5.4,0.1-5.5,3.1c0.1,5.7,12.7,2.4,19.7,2
	c-2.7,1.3-5.2,3-7.3,5.2c-2.6,2.3-6.1,7.7-5.6,11.5c-1.7,0.1-3.4,0.1-5.1,0.1c-0.5-1.1-1.1-2.2-1.4-3.4c-1.2-4.2-2-8.5-2.6-12.8
	c0.9-21.3,9.1-41.9,7.8-63.4c-0.4-10.3-2.3-20.7-5.3-30.6c-3.6-11.6-6.9-23.4-12.8-34.2C201.8,78.1,193.5,63.2,181,52
	c-7.3-6.7-15.8-11.4-25-14.9c-2.6-1.8-4.8-3.2-5.4-3.6c-12.2-7-26.6-14.3-40.9-10.5h0c-5.2-0.6-11.1,2.1-15.5,4.4
	c-11.4,7.3-5,21.6,7.1,22.9c2.2,0.3,4.5,0.4,6.8,0.3c2,0.1,4,0.1,5.9,0.3c11.9,0.9,23.9,1.6,35.6,4.5c4.7,1.1,9.3,2.7,13.7,4.6
	c8.3,5.4,16,11.7,22.7,18.9c0.8,1.3,1.6,2.6,2.4,3.9c12.8,20.6,20.3,41.8,25.2,66.1c0.6,3.2,1,6.5,1.3,9.8c0,0.3,0,0.7,0,1
	c-0.1,13-1.4,25.9-3.6,38.7c-0.3-0.6-0.9-0.5-2.1,0.8c-0.4,0.2-0.4,0.9,0.2,0.9c0.5,0,0.8-0.6,1.1-0.9c0.1,1.2-0.3,2.4-0.7,3.6
	c-3.9,9-9.5,12.9-16.2,14.2c-4.6,0.2-9.3-0.3-14.2-0.8c-6.1-1.6-12.1-3.7-18.2-4.3c-2.6,0-5.1,0.2-7.5,0.7c0,0,0,0,0,0
	c-5.2-0.7-10.7,2-15.2,6.4c-12.2,8-21.5,21.4-26.1,34.3c-12.8,36-3.3,81.4,30.2,102.8c20.5,15.1,45,25.7,70.9,24.7
	c37.8,1,70.2-21.1,83.2-56.6C303.9,299.8,311.4,272.2,299.3,247.9z M150.7,51.6c-9-3-18.3-4.7-27.6-5.8c1.4-1,2.7-2.2,3.9-3.6
	c3-3.4,0-9.2-4.5-8.6c-1.9,0.1-3,1.7-4.7,2.2c-5.5,1-11.7,2.9-17.1,0.7c2.1-2.9,5.5-6.1,9.2-7.3c0.1,0,0.2,0,0.3,0
	c1.6-0.1,3.2-0.2,4.8-0.2c0,0,0,0,0,0c0,0,0,0,0,0c-0.5,0.1-0.5,1,0.1,1c0.5,0,0.8-0.5,1-0.9c0.1,0,0.1-0.1,0.2-0.1c2,0,4,0.1,6,0.3
	c0.3,0.1,0.5,0.2,0.8,0.2c0.1,0.4,0.5,0.8,1,0.8c12.7,5.1,25.1,11.6,36.1,19.9c2.5,1.7,4.8,3.6,7.1,5.7
	C161.8,53.7,156.3,52.3,150.7,51.6z M170.2,60.1c-0.4-0.2-0.8-0.5-1.2-0.7c1.1,0.4,2.1,0.9,3.2,1.4c0.3,0.3,0.6,0.6,0.9,0.9
	C172.1,61.2,171.1,60.6,170.2,60.1z M173.2,64.7c1.4,0.7,2.8,1.4,4.2,2.2c0.6,0.8,1.2,1.5,1.8,2.3C177.3,67.6,175.3,66.1,173.2,64.7
	z M215.2,191.2c-0.4,7.7-0.1,15.4,0.8,23c-0.7,7,0,14.1,2.8,20.6c0.3,0.6,0.6,1.2,0.8,1.9c-3.9-0.3-7.9-0.9-11.8-1.8
	c0.3-0.9,0.5-1.8,0.5-2.7c0.4-2.4,1.4-5.1,1.2-7.6c0.9-3.1,1.5-6.2,2-9.4c0.3-0.4,0.5-0.8,0.3-1.1c0-0.1-0.1-0.1-0.1-0.1
	C213,206.4,213.6,198.7,215.2,191.2z M205.3,218.9c0.7-0.2,1.4-0.5,2.1-0.7c-0.1,0.5-0.2,1.1-0.3,1.6
	C206.5,219.4,205.9,219.1,205.3,218.9z M195.1,241.3c-0.5-0.3-0.9-0.7-1.4-1c0.4,0,0.9,0.1,1.5,0.2c0.5,0.3,1,0.5,1.5,0.8
	c0.3,0.2,0.6,0.3,0.9,0.5C196.7,241.6,195.9,241.5,195.1,241.3z M210.2,204.4c-0.3,1.7-0.7,3.5-1.1,5.2c-0.2,0.9-0.5,1.9-0.7,2.8
	c-2.8,1.9-5.5,3-8.3,3.8C204.3,213.6,207.7,209.8,210.2,204.4z M174.6,284.3c-8.9-0.7-18.2-1.3-26.2-5.6
	c-8.5-4.8-16.3-13.4-16.1-23.7c-0.2-8.8,1.1-18.1,7.6-24.7c1.5-1.5,4-3.9,6.5-5.3c2.1-0.3,4.3,0,6.6,1.1c0.1,0.2,0.3,0.5,0.4,0.8
	c12.6,32.3,41.6,19.8,59.4,20.8c2.3,0.6,4.5,1.1,6.8,1.4c1.1,0.5,2.1,1.1,3,1.8c0.4,0.7,0.8,1.4,1,2.2
	C224.7,274.9,192.5,285.6,174.6,284.3z M263.6,234c4.3,1.5,8.1,4.6,11,8.4c-0.9-1-1.9-2-2.9-2.9c-0.2-0.2-0.4-0.3-0.6-0.5
	C268.9,237,266.4,235.3,263.6,234z M261.4,234.9C261.4,234.8,261.4,234.8,261.4,234.9c0.3,0,0.6,0,1,0.1
	C262,234.9,261.7,234.9,261.4,234.9z M250.3,231.9c-2.6,0.4-5.2,1.1-7.5,2.3c-0.9,0.3-1.9,0.5-2.8,0.8c3.4-2.3,7.4-3.4,11.5-3.5
	C251.1,231.6,250.7,231.7,250.3,231.9z M290.7,305.9c-0.1,0.3-0.2,0.6-0.3,0.9c0-1.6,0-3.3-0.1-4.9c-0.7-15.1-1.3-32.1-7.4-46.2
	c0.4-2.9-5.9-12.2-7-13.3c-4.1-5.6-10.2-9.5-16.9-11.1c-1.3-0.9-3-1.1-4.5-0.7c-2.2-0.2-4.4-0.1-6.6,0.3c-4.1,0.4-7.5,2.7-10.9,4.9
	c-1.8,0.4-3.6,0.8-5.4,1c0,0,0,0-0.1,0c0,0,0,0,0-0.1c0.9-7.9,8.3-12.9,15.2-16.1c23,3.1,44.6,21.6,48.3,45
	C297.8,279.3,294.8,292.5,290.7,305.9z"/>
</svg>
