<?xml version="1.0" encoding="utf-8"?>
<!-- Generator: Adobe Illustrator 26.3.1, SVG Export Plug-In . SVG Version: 6.00 Build 0)  -->
<svg version="1.1" id="Ebene_1" xmlns="http://www.w3.org/2000/svg" xmlns:xlink="http://www.w3.org/1999/xlink" x="0px" y="0px"
	 viewBox="0 0 400 400" style="enable-background:new 0 0 400 400;" xml:space="preserve">
<style type="text/css">
	.st0{fill:#00010D;}
</style>
<g>
	<path d="M301.7,76c-0.4-2.7-2.8-3.7-4.9-3.2c1.7-1.8,1.9-5-1-6.6c-1.5-0.9-3.3-1-5-1c-3.2-0.1-6.3-0.2-9.5-0.3
		c-9-0.2-18-0.2-27-0.4c-11.3-0.1-22.5-0.7-33.8-0.6c-9.7,0-19.4,0.7-29.1,0.4c-17.5-0.3-35.1-1-52.7,0.3
		c-9.4-0.2-18.8,0.1-28.1,0.8c-3.1,0.2-6.3,0.3-9.4,0.8c-0.1,0-0.3,0-0.4,0.1c-0.3,0-0.7,0.1-1,0.1c-1,0.2-1.9,1.1-2,2.2
		c-0.1,0.9,0.4,1.7,1.1,2.2c-1,4.7-1,9.7-1,14.6c-0.6,13.5,9.6,24.3,21,30c11,5.8,23.4,8.4,34.8,13.2c11.2,3.8,23.5,8.8,27.7,20.8
		c2.2,7.5,4.2,15.1,6.1,22.6c2.7,14.2,2.8,28.7,3.7,43.1c1.1,26.9,0.3,53.9-0.5,80.9c-5.8,4.5-17.3,4.2-23.5,5.2
		c-10.4,1.4-28.7,3-35.8,11.2c-4.1,6.5,2.7,12.9,8.5,15.2c16.4,6.1,34.4,6.8,51.8,7.7c17.4,0.6,34.8-0.7,51.8-4.1
		c4.8-0.9,9.7-1.8,14.4-3.1c4.1-1.3,8.7-2.2,11.9-5.3c8.1-10.5-12.3-16.3-19.4-18.9c-9.9-3.3-20.2-5.2-30.6-6.4
		c-0.3,0-0.6,0-0.9,0.1c-1.5-0.6-2.9-1.2-4.4-1.9c-0.1-0.1-0.3-0.2-0.4-0.3c0.6-0.3,1.1-1.1,0.5-1.8c-1.3-1.5-2.4-3.2-3.1-5.1
		c-0.5-1.4-1-3-1.4-4.5c2.4-26.2,2.1-52.6,1.7-78.9c0.4-11.8,0-24,3.4-35.5c1.4-4.5,3.8-8.6,6.1-12.7c2.1-3.7,3.8-7.7,6.8-10.7
		c2.5-2.2,5.2-4,8.1-5.6c3.5-1.9,7-4.2,11-5.1c9.5-1.7,18.9-3.8,28.5-5c12.5-1.4,20.3-13.2,22.6-24.7C300.8,96.1,302.7,86,301.7,76z
		 M211.4,294C211.3,294,211.3,293.9,211.4,294C211.3,293.9,211.3,293.9,211.4,294C211.3,293.9,211.4,293.9,211.4,294z M209.1,295.1
		c0.1,0.1,0.2,0.2,0.3,0.3c0,0.1,0,0.1,0.1,0.2c-0.1,0-0.1,0-0.2,0c-0.1,0-0.1,0-0.2,0.1C209.1,295.5,209.1,295.3,209.1,295.1z
		 M212.3,299.5c-0.9-0.2-2-0.1-2.8-0.8C210.3,299.1,211.4,299.2,212.3,299.5z M211.5,292.7c-0.1-0.1-0.1-0.2-0.2-0.2
		c0,0,0-0.1,0-0.1C211.3,292.5,211.4,292.6,211.5,292.7z M291.9,97.2c-1.8,8.6-3.7,18.6-11.9,23.3c-4.1,2.2-9,2-13.5,2.9
		c-3.4,0.5-6.7,1.1-10.1,1.8c-4.8,1.3-9.8,1.4-14.5,3.1c-3.5,1.4-6.6,3.3-9.9,5.1c-12.3,6.3-15,14.3-21.2,25.7
		c-7.2,13.4-6.4,29.1-7.1,43.9c0.3,19.3,0.4,38.7,0.2,58c0,7.1-0.1,14.2,0.3,21.2c0.6,6,0.6,12.5,3.7,17.8c0.2,0.2,0.5,0.3,0.7,0.2
		c0.3-0.1,0.3-0.6,0-0.6c0-0.2,0.1-0.5,0.1-0.7c0.7,0.9,2,1.2,3.1,1.3c2.7,0.2,5.3,1,8,1.4c4.8,1,9.5,2,14.2,3.1
		c6.4,1.6,12.7,3.7,18.8,6.2c4.1,2,8.8,3.7,11.8,7.2c-4.4,2.9-10.1,3-15.1,4c-16.7,2.3-33.5,5.2-50.4,4.8c-12-0.1-55-1.2-61.3-10.7
		c1.7-2.5,5.2-3.6,7.8-5.1c7.8-3.9,16.5-5.9,25-7.9c5.1-1.5,14.9-2.6,20.3-6.5c0,0.8,0,1.6-0.1,2.4c0.2,5.1,7.6,5.2,8.1,0.3
		c0.1-9.6,0.7-19.2,0.9-28.8c0.7-22.3,0.8-44.6-0.7-66.9c-0.9-12.6-1.1-25.3-4.3-37.6c-1.7-5.9-3-11.9-4.9-17.8
		c1.7,0.7,3.3,1.2,4.6,1.2c3.1,0.2,6.2-0.5,9.2-1c1.8-0.3,3.6-0.7,5.4-1.2c0.7-0.2,1.2-0.7,1.6-1.3c1.1-2-1-4.4-3.1-3.7
		c-5.2,1.2-10.4,3.5-15.9,3.1c-1-0.2-2.1-0.5-3.1-0.8c-4.7-11-15.2-18.2-26.3-21.9c-6.6-2.4-13.2-5-19.8-7.2
		c-12.1-3.9-25.7-7.9-33.5-18.7c-1.7-2.5-3-5.4-3.7-8.3c-1.1-5.5-1.2-11.1-2-16.6c0-0.2-0.1-0.5-0.1-0.9c4.9-0.2,9.8-0.5,14.7-0.8
		c4,1.5,9,0.6,13.2,0.9c22.4-0.1,44.6,0.8,67.1,1.4c18.1-0.6,36.2-0.2,54.4,0.3c13.2,0.4,26.3,0.1,39.5,0.8c1,0.5,1.9,0.6,2.7,0.4
		c-0.6,0.7-1,1.5-1,2.6C293.8,83.5,293.1,90.4,291.9,97.2z"/>
</g>
</svg>
