<?xml version="1.0" encoding="UTF-8"?><svg id="Ebene_1" xmlns="http://www.w3.org/2000/svg" viewBox="0 0 400 400"><defs><style>.cls-1{fill:#00010d;}</style></defs><path class="cls-1" d="M247.6,281.98c.54-7.42,1.27-14.85,1.29-22.29,0-7.35-.24-14.8-.54-22.28,.27,.02,.5-.22,.49-.49-.04-1.36-.07-2.73-.13-4.1-.04-1.25-.12-2.5-.18-3.75,.02-.31-.05-.71-.39-.81,0-.02,0-.05,0-.08-.04-.44,.04-1-.22-1.39-.33-8.01-.62-16.01-.66-23.92,0,.07,0,.13,0,.2-.05-19.93,.48-39.76-.07-59.76-.21-9.81-1.27-19.58-1.71-29.38-.3-7.36-.52-14.72-.99-22.08-.16-2.59-.36-5.19-.48-7.79-.09-1.91-1.85-3.38-3.73-3.26-.29,.02-.56,.08-.82,.17-12.13-9.07-40.44-7.4-54.69-6.9-11.12,.99-23.32,2.61-32.02,10.22-2.34,2.84-1.96,5.86-.29,8.36-.03,.12-.07,.22-.09,.34-.19,19.79,.76,39.8,1.26,59.62,.37,14.58,1.13,29.15,1.36,43.73-.08,21.19,.34,42.67,1.86,63.85,.81,12.34,1.76,24.69,3.46,36.94,.76,4.62,1.51,9.26,2.73,13.78,.58,1.86,.88,3.92,2.09,5.5,.38,.42,.97,.73,1.53,.63,10.8,5.4,22.54,8.8,34.65,9.28,9.38,.42,18.68-1.63,27.74-3.85,5.52-1.79,11.65-2.85,16.38-6.35,.65-.6,.92-1.28,.94-1.95,.08-.1,.09-.23-.02-.33,0-.05-.01-.11-.02-.16,.87-10.55,.74-21.14,1.26-31.71Zm-.66-52.89l.07,.03c.07,1.28,.11,2.55,.12,3.83-.11-.04-.22-.09-.33-.14,.05-1.24,.09-2.48,.13-3.73Zm-43.12-149.89c8.35-.59,16.73-.43,24.99,.94,2.93,.51,6.05,1.02,8.77,2.31-.33,.52-.51,1.14-.53,1.78-.68,.09-1.36,.4-1.96,1.02-10.34,8.67-31.96,7.68-45.03,8.24-8.47-.14-25.99,1.73-31.91-4.8,12.69-8.93,30.71-8.58,45.67-9.5Zm37.85,232.75c-3.03,2.57-6.89,4.03-10.53,5.52-8.37,3.08-17.19,5.49-26.18,6.08-12.7,.41-25.52-1.92-37.32-6.67-.11-.05-.23-.1-.35-.15,.23-.22,.33-.52,.32-.86,.11-1.03,.4-2.15,.84-3.12,.23-.13,.07-.49-.19-.45,0,0-.04,0-.07,.02-.55,.52-.63,1.49-.83,2.23-.2-1.72-.38-3.44-.55-5.17,6.15,5.59,15.6,7.35,23.85,7.81,8.79,.42,17.59-.18,26.38-.45,2.86-.3,2.42-4.56-.41-4.35-6.44,.45-12.89,1.03-19.35,1.33-9.78,.56-22.94,.62-30.65-5.97-1.54-15.66-2.25-31.37-3.12-47.08-.97-14.36-1.07-28.75-1.61-43.12,0-9.16,.16-17.94-.04-27.26-.88-30.9-2.32-61.7-2.5-92.57,5.19,2.3,10.95,2.54,16.54,2.78,8.08,.28,16.17-.1,24.25-.28,10.08-.34,28.31-1.2,37.35-8.04,.03,.53,.07,1.06,.1,1.59,.51,7.94,.64,15.91,1.07,23.85,1.28,15.91,1.88,31.86,1.82,47.81,.02,17.11-.53,34.03,.09,51.17,.05,1.02,.1,2.03,.14,3.05-.27,.33-.46,.75-.48,1.22-.02,1.01-.02,2.03-.02,3.05,.07,.42,.13,.85,.19,1.27,.15,1.04,.29,2.08,.4,3.12,.12,1.09,.23,2.18,.3,3.27,.06,.93,.07,1.87,.07,2.81,.07,.04,.15,.06,.23,.09,.39,8.52,.75,17.04,.95,25.56-.09,9.13-.63,18.27-.38,27.38-1.52-4.61-9.83-7.6-14.11-8.73-6.09-1.71-12.4-2.42-18.67-3.09-8.63-.79-17.31-2.15-25.98-1.31-1.86,.18-3.7,.58-5.53,.96-.53,.11-.88,.63-.77,1.17,.21,.98,1.27,.79,2.01,.65,2.78-.38,5.61-.61,8.5-.57,11.4,.8,43.01,3.13,49.62,12.08-12.18,5.84-26.14,5.92-39.43,5.12-10.16-.8-20.54-1.36-30.42-3.82-.06-.21-.29-.24-.45-.13-1.01,1.22,9.25,2.19,10.54,2.77,13.1,2.81,26.36,5.34,39.78,5.72,7.05,.08,18.14-.77,23.63-5.48,.73-.94,1.17-1.83,1.38-2.68,.14,2.97,.37,5.93,.74,8.89,.5,2.61,.23,8.56,1.3,12.3-.78-.2-1.66-.05-2.45,.65Z"/><path class="cls-1" d="M240.44,233.49c0-.54,0-1.07-.02-1.6-.03-.74-.07-1.48-.12-2.22,.03,1.18,.07,2.36,.11,3.54,0,.1,.01,.19,.03,.28Z"/></svg>