<?xml version="1.0" encoding="UTF-8"?><svg id="Ebene_1" xmlns="http://www.w3.org/2000/svg" viewBox="0 0 400 400"><defs><style>.cls-1{fill:#00010d;}</style></defs><path class="cls-1" d="M276.61,83.28c.04-.06,.05-.14,.04-.2-.08-.31-.54-.24-.76-.23-2.48-1.06-5.15-1.67-7.79-2.19-11.91-2.67-24.08-3.32-36.25-3.65-12.22-.6-24.47-.92-36.68-.08-5.12,.37-10.24,.75-15.36,1.18-.34,.03-.65,.17-.9,.38-4.96,.27-9.88,.61-14.84,.97,.03,0,.06,0,.1,0-10.89,.5-22,1.5-32.74,3.6-1.68,.38-4.07,.71-5.46,2.03-.05,.05-.08,.1-.13,.15-1.13-.49-2.54-.33-3.5,.48-2.32,2.05-.76,4.48,.86,6.32,4.65,6.45,9.64,12.67,14.94,18.61,8.46,10.21,15.73,21.47,24.05,31.98,.29,.37,.59,.74,.89,1.11,1.89,3.25,3.85,6.46,6.05,9.49,7.22,10.33,13.46,21.55,17.66,33.45,4.42,15.1,5.4,30.92,7.14,46.48,.7,7.19,1.35,14.4,1.15,21.63-.09,10.97,.17,22.23-3.71,32.67-1.67,4.5-4.1,8.82-6.59,13-.56,.7-.99,1.81-.07,2.45,.59,.42,1.42,.28,1.85-.31,1.36-1.88,2.55-3.87,3.71-5.87,5.76-10,7.77-21.54,8.64-32.91,1.34-12.02,1.77-24.11,.92-36.18-.62-14.22-2.38-28.52-6.27-42.23-3.14-9.64-8.45-18.48-14.32-26.7-1.74-2.06-3.58-4.04-5.43-6.02-6.58-9.19-13.36-18.23-19.31-27.87-3.17-4.97-6.1-10.08-9.51-14.89-3.62-4.64-7.29-9.21-10.84-13.89,13.39,4.15,27.76,4.26,41.68,4.75,22.62-.31,45.2-2.23,67.77-3.64,10.03-1.11,20.15-2.82,29.64-6.3,.28-.11,.56-.23,.85-.35-3.31,3.44-6.7,6.83-9.47,10.74-8.03,10.95-15.78,22.11-24.04,32.89-7.95,10.82-15.7,21.8-22.71,33.26-.2,.13-.42,.56-.62,1.01-.22,.35-.43,.7-.65,1.06-.17-.06-.38,0-.46,.17-.29,.67-.7,1.27-1.05,1.91-.88,1.54-2.6,5.65-3.93,9.78-1.98,3.78-3.5,7.8-4.34,12.07-3.14,15.01-2.06,30.39-.73,45.54,.47,6.61,.68,13.24,.95,19.86,.83,11.04,1.8,22.08,2.2,33.15-1.09,0-2,.37-2.37,1.7-.23,1.16,.55,2.28,1.69,2.51,.27,.06,.54,.12,.8,.17,.02,.86,.05,1.73,.06,2.59,0,.75,.69,1.35,1.41,1.32,.69-.02,1.23-.56,1.32-1.23,.09-.71,.17-1.42,.23-2.13,3.22,.49,6.47,.71,9.72,1.05,5.16,1.03,22.41,3.34,22.43,9.9-1.96,1.51-4.62,2.16-7.02,2.91-6.8,1.64-13.59,3.34-20.51,4.4-12.5,2.05-25.22,3.58-37.89,2.48-7.33-.38-14.62-1.5-21.45-4.31-2.22-1.02-4.75-1.94-6.3-3.92,4-3.19,9.14-4.5,13.84-6.32,3.65-1.28,7.34-2.41,11.05-3.47,3.54-1.11,7.35-1.7,10.5-3.74,.37,.08,.49-.57,.09-.56-3.44,.41-6.86,.84-10.33,1.31-9.39,1.4-19.51,2.67-28.05,7.18-4.29,2.23-4.89,7.21-1.55,10.61,2.85,2.91,6.77,4.48,10.56,5.79,8.77,2.97,18.08,3.21,27.24,3.44-.11,0,.16,0,.42,0,16.97-.19,35.55-3.19,52.41-7.76,8.65-2.3,15.67-8.04,5.89-15.07-6.51-4.13-14.2-5.9-21.7-7.27-2.7-.41-5.44-.5-8.15-.91-.3,0-.63-.05-.98-.11,.02-.97,.04-1.94,.04-2.91,.26-12.84-1.48-25.58-1.99-38.38-.45-9.92-1.14-19.84-1.34-29.77,.5-11.5,1.87-22.73,4.55-34.01,1.79-6.85,4.77-13.67,8.67-19.78,1.16-1.99,2.31-4.01,3.52-5.99,1.75-2.44,3.51-4.87,5.37-7.23,.07-.08,.13-.17,.2-.25,.06-.03,.13-.07,.19-.08,0,0,0,0,0,0h.02c.26,0,.3-.28,.18-.42,6.04-7.73,12.52-15.08,18.36-23,4.92-6.78,9.49-13.81,14.08-20.81,3.94-6.85,8.82-13.07,13.04-19.73,.31-.46,.79-1.52,1.08-2.45,.76-1.55-.26-3.57-1.98-4.38Zm-63.12,93.08c-.23,.65-.43,1.3-.64,1.95-.06,.1-.12,.2-.18,.3,.27-.75,.55-1.5,.83-2.25Zm33.64-84.74c-9.84,1.04-19.75,.97-29.62,1.56-14.14,.41-28.3,1.15-42.45,1.04-13.31-.68-26.94-1.11-39.78-4.97,11.12-2.25,22.42-3.13,33.7-4.16,20.82-2.36,41.77-3.47,62.73-3.11,6.13,.18,12.25,.56,18.39,.51,4.64,.05,9.3-.32,13.86,.78,3.41,.72,7.13,1.21,10.38,2.73-8.87,2.69-18.04,4.29-27.2,5.64Z"/><path class="cls-1" d="M224.76,143.89c7.53-9.61,15.4-18.95,23.25-28.31,1.39-2.01,11.58-12.22,8.44-13.94-4.22-3.34-33.18,35.87-37.12,40.9-3.36,4.27-6.61,8.67-10.5,12.48-3.54,3.05-7.5,5.57-11.76,7.52-4,1.41-7.95-1.99-11.41-3.64-.75-.51-1.99-.43-.98,.59,2.52,2.66,5.72,5.14,9.2,6.44,3.57,.98,6.99-1.03,10.13-2.5,8.82-4.16,14.74-12.16,20.74-19.55Z"/></svg>