<?xml version="1.0" encoding="utf-8"?>
<!-- Generator: Adobe Illustrator 26.3.1, SVG Export Plug-In . SVG Version: 6.00 Build 0)  -->
<svg version="1.1" id="Ebene_1" xmlns="http://www.w3.org/2000/svg" xmlns:xlink="http://www.w3.org/1999/xlink" x="0px" y="0px"
	 viewBox="0 0 400 400" style="enable-background:new 0 0 400 400;" xml:space="preserve">
<style type="text/css">
	.st0{fill:#00010D;}
</style>
<g>
	<path d="M291.9,59.9c0-0.1,0.1-0.2,0-0.2c-0.1-0.4-0.6-0.3-0.9-0.3c-3-1.3-6.2-2-9.4-2.6c-14.3-3.2-28.9-4-43.5-4.4
		c-14.7-0.7-29.4-1.1-44-0.1c-6.1,0.4-12.3,0.9-18.4,1.4c-0.4,0-0.8,0.2-1.1,0.5c-6,0.3-11.9,0.7-17.8,1.2c0,0,0.1,0,0.1,0
		c-13.1,0.6-26.4,1.8-39.3,4.3c-2,0.5-4.9,0.9-6.6,2.4c-0.1,0.1-0.1,0.1-0.2,0.2c-1.4-0.6-3-0.4-4.2,0.6c-2.8,2.5-0.9,5.4,1,7.6
		c5.6,7.7,11.6,15.2,17.9,22.3c10.2,12.3,18.9,25.8,28.9,38.4c0.4,0.4,0.7,0.9,1.1,1.3c2.3,3.9,4.6,7.7,7.3,11.4
		c8.7,12.4,16.2,25.9,21.2,40.1c5.3,18.1,6.5,37.1,8.6,55.8c0.8,8.6,1.6,17.3,1.4,26c-0.1,13.2,0.2,26.7-4.5,39.2
		c-2,5.4-4.9,10.6-7.9,15.6c-0.7,0.8-1.2,2.2-0.1,2.9c0.7,0.5,1.7,0.3,2.2-0.4c1.6-2.3,3.1-4.6,4.5-7c6.9-12,9.3-25.8,10.4-39.5
		c1.6-14.4,2.1-28.9,1.1-43.4c-0.7-17.1-2.9-34.2-7.5-50.7c-3.8-11.6-10.1-22.2-17.2-32c-2.1-2.5-4.3-4.9-6.5-7.2
		c-7.9-11-16-21.9-23.2-33.4c-3.8-6-7.3-12.1-11.4-17.9c-4.3-5.6-8.7-11.1-13-16.7c16.1,5,33.3,5.1,50,5.7
		c27.1-0.4,54.2-2.7,81.3-4.4c12-1.3,24.2-3.4,35.6-7.6c0.3-0.1,0.7-0.3,1-0.4c-4,4.1-8,8.2-11.4,12.9
		c-9.6,13.1-18.9,26.5-28.8,39.5c-9.5,13-18.8,26.2-27.2,39.9c-0.2,0.2-0.5,0.7-0.7,1.2c-0.3,0.4-0.5,0.8-0.8,1.3
		c-0.2-0.1-0.5,0-0.5,0.2c-0.3,0.8-0.8,1.5-1.3,2.3c-1.1,1.8-3.1,6.8-4.7,11.7c-2.4,4.5-4.2,9.4-5.2,14.5c-3.8,18-2.5,36.5-0.9,54.7
		c0.6,7.9,0.8,15.9,1.1,23.8c1,13.3,2.2,26.5,2.6,39.8c-1.3,0-2.4,0.4-2.8,2c-0.3,1.4,0.7,2.7,2,3c0.3,0.1,0.6,0.1,1,0.2
		c0,1,0.1,2.1,0.1,3.1c0,0.9,0.8,1.6,1.7,1.6c0.8,0,1.5-0.7,1.6-1.5c0.1-0.8,0.2-1.7,0.3-2.6c3.9,0.6,7.8,0.9,11.7,1.3
		c6.2,1.2,26.9,4,26.9,11.9c-2.3,1.8-5.5,2.6-8.4,3.5c-8.2,2-16.3,4-24.6,5.3c-15,2.5-30.3,4.3-45.5,3c-8.8-0.5-17.5-1.8-25.7-5.2
		c-2.7-1.2-5.7-2.3-7.6-4.7c4.8-3.8,11-5.4,16.6-7.6c4.4-1.5,8.8-2.9,13.3-4.2c4.2-1.3,8.8-2,12.6-4.5c0.4,0.1,0.6-0.7,0.1-0.7
		c-4.1,0.5-8.2,1-12.4,1.6c-11.3,1.7-23.4,3.2-33.7,8.6c-5.2,2.7-5.9,8.7-1.9,12.7c3.4,3.5,8.1,5.4,12.7,6.9
		c10.5,3.6,21.7,3.8,32.7,4.1c-0.1,0,0.2,0,0.5,0c20.4-0.2,42.7-3.8,62.9-9.3c10.4-2.8,18.8-9.6,7.1-18.1c-7.8-5-17-7.1-26-8.7
		c-3.2-0.5-6.5-0.6-9.8-1.1c-0.4,0-0.8-0.1-1.2-0.1c0-1.2,0-2.3,0-3.5c0.3-15.4-1.8-30.7-2.4-46.1c-0.5-11.9-1.4-23.8-1.6-35.7
		c0.6-13.8,2.2-27.3,5.5-40.8c2.1-8.2,5.7-16.4,10.4-23.7c1.4-2.4,2.8-4.8,4.2-7.2c2.1-2.9,4.2-5.8,6.4-8.7c0.1-0.1,0.2-0.2,0.2-0.3
		c0.1,0,0.2-0.1,0.2-0.1c0,0,0,0,0,0c0,0,0,0,0,0c0.3,0,0.4-0.3,0.2-0.5c7.3-9.3,15-18.1,22-27.6c5.9-8.1,11.4-16.6,16.9-25
		c4.7-8.2,10.6-15.7,15.7-23.7c0.4-0.6,1-1.8,1.3-2.9C295.2,63.3,294,60.9,291.9,59.9z M216.2,171.6c-0.3,0.8-0.5,1.6-0.8,2.3
		c-0.1,0.1-0.1,0.2-0.2,0.4C215.5,173.4,215.9,172.5,216.2,171.6z M256.6,69.9c-11.8,1.2-23.7,1.2-35.5,1.9c-17,0.5-34,1.4-50.9,1.2
		c-16-0.8-32.3-1.3-47.7-6c13.3-2.7,26.9-3.8,40.4-5c25-2.8,50.1-4.2,75.3-3.7c7.4,0.2,14.7,0.7,22.1,0.6c5.6,0.1,11.2-0.4,16.6,0.9
		c4.1,0.9,8.6,1.5,12.5,3.3C278.6,66.4,267.6,68.3,256.6,69.9z"/>
	<path d="M229.7,132.7c9-11.5,18.5-22.7,27.9-34c1.7-2.4,13.9-14.7,10.1-16.7c-5.1-4-39.8,43-44.5,49.1c-4,5.1-7.9,10.4-12.6,15
		c-4.2,3.7-9,6.7-14.1,9c-4.8,1.7-9.5-2.4-13.7-4.4c-0.9-0.6-2.4-0.5-1.2,0.7c3,3.2,6.9,6.2,11,7.7c4.3,1.2,8.4-1.2,12.2-3
		C215.4,151.1,222.5,141.5,229.7,132.7z"/>
</g>
</svg>
