<?xml version="1.0" encoding="utf-8"?>
<!-- Generator: Adobe Illustrator 26.3.1, SVG Export Plug-In . SVG Version: 6.00 Build 0)  -->
<svg version="1.1" id="Ebene_1" xmlns="http://www.w3.org/2000/svg" xmlns:xlink="http://www.w3.org/1999/xlink" x="0px" y="0px"
	 viewBox="0 0 400 400" style="enable-background:new 0 0 400 400;" xml:space="preserve">
<style type="text/css">
	.st0{fill:#00010D;}
</style>
<g>
	<path class="st0" d="M327.4,180c-0.3-9.2-1.1-18.5-2.9-27.6c-0.7-3.6-1.6-7.2-3.5-10.3c-1.7-3.2-3.7-6.2-5.9-9.1
		c-1.5-2.2-3.6-4.1-4.5-6.6c2.1-3.2,6.3-4.6,7.7-8.3c1.9-4.9,1.8-11.3-1.4-15.6c-0.1-0.1-0.2-0.3-0.4-0.4c0-0.1,0.1-0.1,0.1-0.2
		c0.2-0.3-0.4-0.6-0.5-0.3c0,0,0,0,0,0.1c-0.8-0.5-1.8-0.7-2.5-0.4c-0.8-0.4-1.6-0.8-2.5-1.2c-11.1-3.8-23.1-3.5-34.6-4.4
		c-11.9-2.1-24.2-3.3-36.3-4c-16.3-1.3-32.8-1.7-49.1-0.2c-12.4,0.9-29.9,4.6-39.9,12c-0.1,0.2-0.2,0.3-0.3,0.5
		c-0.4,0.1-0.8,0.2-1.1,0.3c-0.9,0.3-1.7,0.7-2.5,1.2c-7.7,5.2-0.7,14.7,4,19.5c-3.2,3.8-5.1,8.2-6.7,12.8
		c-6.6-5.3-14.3-8.8-22.2-11.4c-11-3.5-22.7-4.3-34.2-2.9c-9.2,1-18.9,2.7-26.1,9c-12.3,10.6-20,29.9-16.7,46
		c3.1,16.9,10,30.9,21.9,43.3c3.7,3.6,6.3,7.3,10.4,10.8c7.4,5.4,14.6,11.1,22.6,15.7c16,9,32.4,18.5,50.4,22.6
		c0.4,0.7,0.8,1.3,1.2,2c4,6.2,8.7,11.9,12.8,18c2,2.4,3.1,6.6,6.1,7.7c0.5,0.2,0.9,0.2,1.4,0.2c3.5,2.1,7.1,4.1,11.2,5.1
		c8.2,2.5,16.8,2.6,25.3,3.3c13.7,1.1,27.5,1.9,41.2,2c8.5,0.2,17.1-0.5,25.5-2.7c4.1-1.2,8.3-2.6,12.2-4.3c2.4-1,5.3-2.7,5.6-5.4
		c1.3-1.1,2.6-2.7,3.6-3.8c3.2-3.7,6-7.7,8.7-11.7c5.1-7.9,8.7-16.6,11.9-25.3c1.8-4.4,3.2-8.9,4.8-13.4c1.1-2.9,2.2-5.9,2.7-9
		c1.5-9.3,2.7-18.7,2.7-28.1C327.8,197,327.8,188.5,327.4,180z M166.6,102.1c8.9-2.2,18.2-2.6,27.4-3c19.9-1.5,39.8-1.2,59.7-0.4
		c0.3,0.3,0.7,0.5,1.2,0.5c2.1,0,4.1,0,6.2,0.1c5.7,0.1,11.5,0.6,17.3,0.9c9.2,1.2,25.7,0.9,32.6,7.1c-17.3,10.6-52.4,9.8-73.1,10.8
		c-18.3,0.2-36.6-0.3-54.9-2.6c-5.4-0.7-30.2-1.9-29.6-8.9C157.2,103.9,162.2,103.4,166.6,102.1z M132.4,210
		c0.9,9.8,1.6,19.8,4.3,29.3c0.3,1.1,0.6,2.2,1,3.3c-3.9-2.3-7.8-4.5-11.7-6.8C115.2,229.4,104,223.6,94,216
		c-7.4-5.7-15.4-11.4-20-19.8c-3.9-8-8.1-15.9-9.1-25c-0.7-7-0.3-16,6-20.6c3.8-2.5,8.4-3.3,12.8-4c6.5-1.3,13.1-1.3,19.6-0.3
		c4.5,0.4,9,0.9,13.3,2.4c7.4,1.9,14.3,6.8,21.2,10.5C132.9,175.6,131.1,192.9,132.4,210z M115.8,250.2
		c-20.5-11.5-40.3-25.8-52.9-46.1c-2.7-4.6-5.1-9.6-6.9-14.8c-2.3-6.8-5-13.8-4.9-21.1c0.6-14.9,8.3-31.2,23-36.7
		c21.5-6.4,47-3.8,64.7,10.8c1.1,1,2.2,2,3.3,3c-0.5,1.9-1.1,3.8-1.6,5.7c-1.2-0.6-2.4-1.3-3.7-1.9c-8.1-4.2-16.8-7.8-26.1-8
		c-8.8-0.5-17.6-1.1-26.3,0.8c-13,1.9-22.3,6.9-23.8,21.1c-0.8,9.9,1.3,20,5,29.1c2.1,5.4,4.3,10.7,8,15.2
		c4.4,5.7,10.3,9.9,15.8,14.4c3.7,3.1,7.5,6,11.7,8.4c12.8,7.3,26.1,13.8,39.4,20.2c2.3,6,5,11.7,8.1,17.3
		C137.4,262.5,126.7,256.1,115.8,250.2z M320.8,204.4c-0.2,9.5-2.1,18.7-3.8,28c-2.6,8.6-6,16.9-9.3,25.2c-2.8,7.6-6.5,14.8-11,21.5
		c-2.1,3.1-4.4,6-6.8,8.9c-1.4,1.6-3.4,3.1-4.3,4.8c-3.6,1-7,2.7-10.6,3.7c-7.7,2.4-16.1,2.9-24.2,3.3c-8.3,0.5-16.8,0.1-25.2-0.6
		c-13.6-1-27.2-1.2-40.7-3.3c-3.1-1-5.4-1.8-8.5-3.4c-0.6-0.3-1.2-0.6-1.9-1c-2.2-3.6-4.5-7.1-7-10.4c-5.9-7.5-11.2-15.4-15.2-24.1
		c-8.1-15.5-10.8-33.4-11.8-50.7c-0.4-10.8,0-21.7,2.2-32.3c0.9-4,2-8,3.1-12c1-0.3,1.8-1,2.6-2.5c0.6-1.5,0.2-2.9-0.7-3.9
		c1.6-5.4,3.3-10.8,4.8-16.2c1.2-3.3,3-6.4,5.1-9.1c10,5.9,26.6,7.5,36.1,8.6c9.1,0.7,18.1,2,27.2,2c10.9-0.3,21.8-0.1,32.6-1
		c6.4-0.5,12.7-1.8,19-2.3c5.1-0.6,10.4-0.6,15.4-1.6c2.9-0.9,1.8-5.3-1.1-4.8c-11.4,0.2-22.7,1.6-34.1,2.4
		c-15.8,0.1-31.6,0-47.3-1.2c-8.5-0.8-17-0.6-25.4-1.7c-6.8-0.8-13.7-1.4-20.2-3.3c1.2-2.5-0.2-5.3-2.6-7.2c-2.5-2.9-6-5.5-6.7-9.5
		c0-0.2,0-0.4,0.1-0.6c1.7,2.6,5.2,4.6,7.9,5.3c8.9,2.8,18.3,3.5,27.6,4.4c14.6,1.8,29.2,1.9,43.8,2.8c14,0.8,28,0.1,41.9-0.6
		c9.1-0.5,18.3-0.8,27.3-2.4c3.1-0.7,6.5-1.3,9.6-2.4c-5,3.6-8.9,8.2-5.1,14.7c11.3,15.7,12.5,16,14.9,35.9
		C320.1,180,321.5,191.9,320.8,204.4z"/>
</g>
</svg>
