<?xml version="1.0" encoding="utf-8"?>
<!-- Generator: Adobe Illustrator 26.3.1, SVG Export Plug-In . SVG Version: 6.00 Build 0)  -->
<svg version="1.1" id="Ebene_1" xmlns="http://www.w3.org/2000/svg" xmlns:xlink="http://www.w3.org/1999/xlink" x="0px" y="0px"
	 viewBox="0 0 400 400" style="enable-background:new 0 0 400 400;" xml:space="preserve">
<style type="text/css">
	.st0{fill:#00010D;}
</style>
<g>
	<g>
		<path d="M263.4,74.2c-2.7,31.5-7.1,64.5-25.9,89.9c-8.7,11.8-20.3,21.5-27,34.5c-8.2,15.9-8.2,34.6-8,52.4
			c0.2,17.3,0.4,34.5,0.6,51.8c0,3.2-0.6,11,1.8,13.5c0.9,1,2.2,1.5,3.4,2c4.9,2,9.9,3.9,14.8,6.1c5,2.3,10,4.5,15,6.7
			c1.4,0.6,18.2,8.5,19,6.8c-2.5,4-7.8,5-12.5,5.6c-31.9,3.6-64.3,3.1-96.1-1.6c5.8-4,12.1-7.7,18.7-10.4c4.5-1.9,10.7-2.1,14-6.1
			c0.7-0.9,1.3-1.9,2.1-2.7c0.8-0.8,1.9-1.4,2.6-2.4c3.3-4.3,6.3-14.2,4.6-19.4c0.1-0.9,0.3-1.8,0.4-2.7c2.7-21.7,3.3-43.6,2-65.4
			c-0.5-11.1-0.4-22.4-3.5-33.2c-3.3-12-13-20.4-20.5-29.7c-3.4-4.6-6.1-9.7-8.8-14.8c-3.1-5.9-6.6-11.6-9.1-17.8
			c-5.7-13.3-10.5-27.2-11.6-41.7c-0.4-5.1-0.8-10.2-0.9-15.2c5.5,2.2,13.9,1.9,18.2,2.3c13,0.6,26-1.2,39-2.1
			c14.2-0.9,28.5-1.2,42.7-2.3c6.4-0.6,13.1-0.7,19.2-2.7c8.4-2.9,8.9-6.8,0.4-9.7c-17.6-4.5-36.1-4-54.2-4.3
			c-7.8,0.5-15.5-0.6-23.3-0.9c-9.6-0.3-19.3-0.3-28.9,1.1c-7.1,1.1-19,4.3-18.4,13.3c0.2,1,0.6,1.8,1.2,2.6
			c-2.6,25.2,1.5,46.5,13.1,69.9c5.6,9.5,10.7,19.6,17.7,28.1c6.3,6.6,13.8,12.3,17.5,20.9c2.7,6,3.7,12.5,4.2,19.1
			c1.2,11.1,1.1,22.2,1.4,33.4c0.4,10.8,0.9,21.6,0,32.4c-1.2,14.7,1.6,33.9-14.3,41.8c-7.4,3.7-16.3,3.2-23.8,6.7
			c-3.2,1.5-6.2,3.9-7.6,7.1s-1,7.4,1.6,9.8c2.1,1.9,5.1,2.3,8,2.6c32.5,3.5,65.5,3.1,97.9-1.2c5.6-0.7,12.6-3,13.2-8.6
			c0.4-4.3-3.3-7.7-7-9.9c-12.1-7.1-26.7-8.2-39.4-14.1c-3.4-1.6-6.8-3.6-8.7-6.9c-1.8-3.2-1.8-7-1.7-10.6
			c0.2-15.9,0.4-31.9,0.5-47.8c0.2-16.8,0.5-34.3,8-49.3c6.5-12.9,17.7-22.8,26-34.7C259.3,140.1,262.2,106.3,263.4,74.2z
			 M143.2,70.4c15.9,0.1,31.7,0.9,47.6,0.5c18.2,0.4,36.1-0.4,54.1-2.7c4.9-0.2,10-0.7,14.7,0.7c1.2,0.5,4.4,1.3,2.6,2.9
			c-4.8,3.6-11.1,3.9-16.9,4.3c-10.6,0.6-21.4,1-32.1,0.5c-16.6-0.9-33.2,0.2-49.8-0.6c-3.8-0.3-8.7-0.4-12.8-0.3
			c-3.4-0.1-7.7,0.7-10.2-2.1C140.5,72.2,142.1,71.3,143.2,70.4z M220.9,318.8c-0.6-0.2-1.2-0.4-1.8-0.5c-0.2-0.1-0.4-0.3-0.7-0.4
			C219.2,318.2,220.1,318.5,220.9,318.8z"/>
		<path d="M163.2,338.9c-2.5,0.1-1.8,1.9,0.2,1.3c17.9,2,35.9,3.4,53.9,4.3c8.7,0.1,17.1-1.2,25.6-3.5c1.1-0.3,1.8-1.5,1.5-2.6
			c-0.3-1-1.3-1.8-2.4-1.6c-7.7,1.6-15.6,2.9-23.5,2.9C200.1,339.4,181.6,337.7,163.2,338.9z"/>
	</g>
	<path d="M220.8,173c-0.8-1.4-2.8-1.9-4.1-1c-2.6,1.5-5.4,2.7-8.1,3.9c-4.9,2.3-10.3,4.6-15.6,2.5c-4.8-1.8-10-3.1-14-6.4
		c-1.4-1.5,0-1.8,1.4-1.9c0.4-0.1,0.3-0.8-0.1-0.7c-1.5,0.1-3.2,0.5-2.4,2.4c1.7,3,5.1,4.6,7.9,6.3c3.7,2,7.4,4.4,11.6,5
		c5.6,0.8,10.9-1.9,16.1-3.5C216.3,178.4,223,177.5,220.8,173z"/>
</g>
</svg>
