<?xml version="1.0" encoding="UTF-8"?><svg id="Ebene_1" xmlns="http://www.w3.org/2000/svg" viewBox="0 0 400 400"><defs><style>.cls-1{fill:#00010d;}</style></defs><g><path class="cls-1" d="M249.7,105.22c-2.09,24.81-5.6,50.8-20.41,70.81-6.86,9.27-15.96,16.95-21.25,27.2-6.46,12.51-6.45,27.23-6.29,41.3l.45,40.78c.03,2.5-.46,8.7,1.39,10.63,.73,.76,1.74,1.18,2.72,1.58,3.89,1.59,7.83,3.08,11.65,4.81,3.93,1.79,7.88,3.55,11.84,5.27,1.1,.48,14.33,6.72,15,5.38-1.97,3.17-6.17,3.96-9.88,4.38-25.14,2.84-50.65,2.42-75.69-1.26,4.59-3.18,9.54-6.09,14.72-8.21,3.56-1.46,8.46-1.67,11.02-4.82,.56-.69,1.02-1.48,1.65-2.11,.65-.65,1.47-1.13,2.03-1.86,2.63-3.41,4.93-11.19,3.65-15.29,.1-.71,.21-1.41,.3-2.12,2.11-17.09,2.59-34.33,1.55-51.51-.43-8.71-.31-17.68-2.78-26.13-2.6-9.47-10.22-16.05-16.19-23.4-2.69-3.63-4.79-7.66-6.93-11.63-2.44-4.64-5.22-9.12-7.17-14-4.5-10.47-8.24-21.43-9.11-32.89-.33-4-.6-8-.67-12.01,4.34,1.72,10.92,1.47,14.34,1.79,10.28,.44,20.51-.92,30.74-1.62,11.21-.73,22.45-.94,33.65-1.84,5.05-.48,10.29-.52,15.14-2.14,6.64-2.25,7.03-5.35,.28-7.68-13.87-3.57-28.46-3.15-42.69-3.37-6.14,.37-12.22-.48-18.34-.72-7.59-.2-15.24-.2-22.77,.83-5.56,.9-14.99,3.37-14.49,10.48,.15,.78,.46,1.45,.91,2.03-2.03,19.82,1.19,36.6,10.3,55.09,4.41,7.5,8.4,15.4,13.91,22.17,4.97,5.18,10.87,9.71,13.77,16.5,2.13,4.74,2.88,9.88,3.31,15.02,.98,8.73,.84,17.52,1.08,26.28,.28,8.51,.68,17.03-.03,25.54-.96,11.59,1.25,26.68-11.25,32.89-5.83,2.9-12.84,2.51-18.73,5.29-2.52,1.19-4.85,3.05-5.98,5.6-1.13,2.55-.78,5.86,1.29,7.72,1.67,1.5,4.05,1.83,6.28,2.07,25.62,2.76,51.58,2.44,77.12-.95,4.44-.59,9.95-2.33,10.37-6.79,.32-3.35-2.63-6.08-5.53-7.79-9.5-5.57-21.03-6.48-31.03-11.08-2.69-1.24-5.39-2.86-6.82-5.45-1.38-2.49-1.38-5.49-1.35-8.34l.42-37.66c.15-13.24,.41-27.01,6.33-38.85,5.1-10.2,13.92-17.99,20.45-27.34,14.47-20.71,16.75-47.34,17.72-72.59Zm-94.75-3.01c12.49,.06,24.96,.72,37.46,.41,14.36,.31,28.4-.31,42.65-2.16,3.85-.19,7.85-.58,11.59,.56,.91,.37,3.46,1.05,2.05,2.28-3.8,2.85-8.73,3.04-13.34,3.39-8.33,.5-16.88,.79-25.26,.42-13.1-.74-26.14,.15-39.25-.44-3.03-.22-6.82-.31-10.09-.25-2.64-.12-6.1,.58-8.04-1.62,.13-1.19,1.41-1.87,2.24-2.59Zm61.22,195.68c-.47-.13-.95-.28-1.42-.42-.17-.1-.34-.2-.51-.3,.64,.24,1.29,.48,1.93,.72Z"/><path class="cls-1" d="M170.71,313.71c-1.97,.07-1.44,1.5,.15,1.01,14.13,1.57,28.27,2.69,42.48,3.38,6.88,.06,13.44-.92,20.14-2.76,.88-.25,1.43-1.17,1.19-2.07-.21-.78-1.04-1.39-1.86-1.24-6.09,1.24-12.27,2.25-18.5,2.28-14.52-.21-29.07-1.56-43.59-.61Z"/></g><path class="cls-1" d="M216.13,183.02c-.64-1.11-2.18-1.47-3.26-.79-2.06,1.18-4.24,2.13-6.4,3.09-3.84,1.84-8.08,3.62-12.33,1.99-3.75-1.38-7.87-2.48-11.01-5.05-1.13-1.18-.02-1.45,1.1-1.52,.34-.05,.26-.59-.09-.54-1.15,.04-2.52,.41-1.87,1.87,1.37,2.38,4.01,3.6,6.25,5,2.9,1.59,5.79,3.45,9.11,3.98,4.39,.6,8.56-1.46,12.65-2.74,2.28-1.02,7.54-1.7,5.84-5.27Z"/></svg>