<?xml version="1.0" encoding="UTF-8"?><svg id="Ebene_1" xmlns="http://www.w3.org/2000/svg" viewBox="0 0 400 400"><defs><style>.cls-1{fill:#00010d;}</style></defs><path class="cls-1" d="M270.19,161.26c.22-6.42,.34-12.85,.38-19.28,.15-1.7,.27-3.39,.39-5.09,.67-2.35,.63-5.8,.49-8.47,0-.1,.01-.2,.02-.29-.01-.06-.03-.11-.04-.17-.07-1.21-.15-2.22-.17-2.84-.17-1.76-.41-3.54-.86-5.26,.09-2.82-.53-5.88-2.61-7.9-1.1-1.07-2.82-1.92-4.25-1.4-2.46-1.19-5.01-2.24-7.64-2.97-1.54-.5-3.09-.95-4.64-1.39-.55-.15-1.12-.06-1.61,.2-.68-.07-1.37-.15-2.05-.23-2.9-.49-5.8-.59-8.74-.52-14.77-2.2-29.73-2.41-44.65-1.89-16.85,.85-33.81,1.57-50.43,4.61-3.51,.6-8.18,2.28-11.05,4.98-.02-.35-.04-.71-.07-1.05-.43,.43-.85,.86-1.26,1.31-.19,.22-.38,.44-.56,.66-.49,.76-.94,1.54-1.35,2.34-.16,.31-.32,.62-.47,.93-.01,.61-.03,1.22-.07,1.82-1.23,24.51,.34,49.02,.68,73.54,.54,16.43,.43,32.88,1.12,49.3,.57,11.79,1.85,23.54,2.72,35.3,.12,.84,.63,1.54,1.32,1.94-.03,.03-.06,.06-.08,.09-.28,.54,.44,.95,.82,1.14,.57,.31,1.14,.61,1.71,.92,4.67,2.48,9.49,4.69,14.46,6.5,6.98,2.22,14.23,3.52,21.4,4.95,10.95,1.65,21.39,3.28,32.58,3.44,15.39,0,30.93-1.23,45.79-5.42,3.91-1.12,7.8-2.38,11.57-3.9,1.05-.47,1.68-1.21,1.97-2.03,2.05-.65,2.12-3.72,2.09-5.74,.09-2.84,.16-5.69,.26-8.53,.31-8.98,1.19-17.87,1.84-26.84,1.88-24.89,1.59-49.87,1.18-74.81-.04-2.65-.1-5.3-.17-7.96Zm-6.63,58.11c-.51,14.08-1.15,28.16-1.5,42.25-.48-.92-1.54-1.55-2.65-1.24-7.1,1.66-14.1,3.74-21.24,5.21-6.83,1-13.7,1.76-20.58,2.34-9.31,.57-18.68,.25-27.99-.14-7.58-.58-15.2-.79-22.72-2.38-6.42-1.35-12.86-2.67-19.1-4.75-3.34-.98-6.58-2.39-9.88-3.52-.28-5.15-.54-10.3-.66-15.46,0-.64,0-1.27-.01-1.91,8.14,8.12,18.84,11.36,30.59,13.83,13.54,3.35,27.42,5.87,41.4,6,10.05,.04,20.02-1.57,29.91-3.2,4.08-.79,3-6.77-1.03-6.18-10.92,1.19-21.82,3.1-32.84,2.7-12.47-.45-24.79-2.65-37.01-5.13-14.7-2.5-21.39-4.7-31.07-12.7-.03-8.68,.06-17.35-.21-26.03-.51-16.49-.55-33-1.45-49.47-.36-11.32-.55-22.66-1.49-33.94,3.23,2.47,7.63,3.47,11.49,4.5,10.17,2.63,20.74,2.99,31.19,3.48,14.18,.63,28.36,1.46,42.55,1.91,1.06,.01,2.13,.02,3.19,.02,7.1,0,14.2-.26,21.29-.8,7.72-.38,15.63-2.38,22.04-6.77,.02,.53,.02,1.07,.03,1.6-2.28,29.85-1.48,59.87-2.27,89.78Zm-117.33-104.39c10.8-1.88,21.76-2.81,32.68-3.67,12.49-.94,25.03-1.76,37.56-1.76,3.85,0,7.7,.08,11.54,.25,7.41,.52,14.77,1.55,22.19,2.1,1.53,.14,3.07,.24,4.61,.37,1.16,.38,2.31,.76,3.46,1.15,.75,.51,1.48,1.07,2.18,1.68,.25,1.33,1.59,2.01,2.47,2.94,.46,.69,.9,1.4,1.29,2.13-3.07,3.35-7.85,5.08-12.16,6.35-20.81,3.71-42.18,1.47-63.17,.74-11.61-.64-23.07-.64-34.66-2.2-8.85-1.47-29.62-5.88-7.99-10.07Zm71.02,174.4c-19.61,1.1-39.31-1.5-58.55-5.15-7.05-1.1-13.61-4.49-20.72-5.17,1.24-1.28,.78-3.82,.72-5.59-.17-4.79-.43-9.57-.69-14.35,.35,.25,.7,.5,1.06,.72,5.81,4.46,12.69,6.95,19.61,9.14,13.32,4.72,27.53,5.38,41.52,6,12.35,.69,24.59-1.17,36.71-3.3,3.79-.66,8.25-2,12.06-3.17,3.88-1.2,7.76-2.4,11.62-3.66,.6-.19,1.1-.53,1.42-1.09-.03,1.26-.07,2.53-.09,3.79-.09,3.91-.07,7.84-.32,11.75-.03,.36-.07,.75-.11,1.15-.36,.03-.73,.09-1.12,.24-13.69,5.56-28.43,7.77-43.12,8.69Z"/><path class="cls-1" d="M261.69,273.79c.12-.07,.16-.22,.09-.34-.43-.75-.88-1.48-1.32-2.23-.07-.12-.22-.16-.34-.09-.12,.07-.16,.22-.09,.34,.45,.74,.9,1.48,1.32,2.23,.07,.12,.22,.16,.34,.09Z"/></svg>