<?xml version="1.0" encoding="utf-8"?>
<!-- Generator: Adobe Illustrator 26.3.1, SVG Export Plug-In . SVG Version: 6.00 Build 0)  -->
<svg version="1.1" id="Ebene_1" xmlns="http://www.w3.org/2000/svg" xmlns:xlink="http://www.w3.org/1999/xlink" x="0px" y="0px"
	 viewBox="0 0 400 400" style="enable-background:new 0 0 400 400;" xml:space="preserve">
<style type="text/css">
	.st0{fill:#00010D;}
</style>
<g>
	<path d="M284.2,153.5c0.3-7.7,0.4-15.4,0.5-23.1c0.2-2,0.3-4.1,0.5-6.1c0.8-2.8,0.8-7,0.6-10.2c0-0.1,0-0.2,0-0.4
		c0-0.1,0-0.1,0-0.2c-0.1-1.4-0.2-2.7-0.2-3.4c-0.2-2.1-0.5-4.3-1-6.3c0.1-3.4-0.6-7.1-3.1-9.5c-1.3-1.3-3.4-2.3-5.1-1.7
		c-3-1.4-6-2.7-9.2-3.6c-1.8-0.6-3.7-1.1-5.6-1.7c-0.7-0.2-1.4-0.1-1.9,0.2c-0.8-0.1-1.6-0.2-2.5-0.3c-3.5-0.6-7-0.7-10.5-0.6
		c-17.7-2.6-35.7-2.9-53.6-2.3c-20.2,1-40.6,1.9-60.5,5.5c-4.2,0.7-9.8,2.7-13.3,6c0-0.4,0-0.8-0.1-1.3c-0.5,0.5-1,1-1.5,1.6
		c-0.2,0.3-0.5,0.5-0.7,0.8c-0.6,0.9-1.1,1.8-1.6,2.8c-0.2,0.4-0.4,0.7-0.6,1.1c0,0.7,0,1.5-0.1,2.2c-1.5,29.4,0.4,58.8,0.8,88.2
		c0.6,19.7,0.5,39.5,1.3,59.2c0.7,14.2,2.2,28.2,3.3,42.4c0.1,1,0.8,1.8,1.6,2.3c0,0-0.1,0.1-0.1,0.1c-0.3,0.6,0.5,1.1,1,1.4
		c0.7,0.4,1.4,0.7,2.1,1.1c5.6,3,11.4,5.6,17.4,7.8c8.4,2.7,17.1,4.2,25.7,5.9c13.1,2,25.7,3.9,39.1,4.1c18.5,0,37.1-1.5,55-6.5
		c4.7-1.3,9.4-2.9,13.9-4.7c1.3-0.6,2-1.5,2.4-2.4c2.5-0.8,2.5-4.5,2.5-6.9c0.1-3.4,0.2-6.8,0.3-10.2c0.4-10.8,1.4-21.4,2.2-32.2
		c2.2-29.9,1.9-59.8,1.4-89.8C284.4,159.9,284.3,156.7,284.2,153.5z M276.3,223.2c-0.6,16.9-1.4,33.8-1.8,50.7
		c-0.6-1.1-1.8-1.9-3.2-1.5c-8.5,2-16.9,4.5-25.5,6.3c-8.2,1.2-16.4,2.1-24.7,2.8c-11.2,0.7-22.4,0.3-33.6-0.2
		c-9.1-0.7-18.2-1-27.3-2.9c-7.7-1.6-15.4-3.2-22.9-5.7c-4-1.2-7.9-2.9-11.9-4.2c-0.3-6.2-0.6-12.4-0.8-18.6c0-0.8,0-1.5,0-2.3
		c9.8,9.7,22.6,13.6,36.7,16.6c16.3,4,32.9,7,49.7,7.2c12.1,0,24-1.9,35.9-3.8c4.9-1,3.6-8.1-1.2-7.4c-13.1,1.4-26.2,3.7-39.4,3.2
		c-15-0.5-29.7-3.2-44.4-6.2c-17.6-3-25.7-5.6-37.3-15.2c0-10.4,0.1-20.8-0.3-31.2c-0.6-19.8-0.7-39.6-1.7-59.4
		c-0.4-13.6-0.7-27.2-1.8-40.7c3.9,3,9.2,4.2,13.8,5.4c12.2,3.2,24.9,3.6,37.4,4.2c17,0.8,34,1.8,51.1,2.3c1.3,0,2.6,0,3.8,0
		c8.5,0,17-0.3,25.5-1c9.3-0.5,18.8-2.9,26.5-8.1c0,0.6,0,1.3,0,1.9C276.3,151.3,277.2,187.3,276.3,223.2z M135.5,98
		c13-2.3,26.1-3.4,39.2-4.4c15-1.1,30-2.1,45.1-2.1c4.6,0,9.2,0.1,13.8,0.3c8.9,0.6,17.7,1.9,26.6,2.5c1.8,0.2,3.7,0.3,5.5,0.4
		c1.4,0.5,2.8,0.9,4.1,1.4c0.9,0.6,1.8,1.3,2.6,2c0.3,1.6,1.9,2.4,3,3.5c0.6,0.8,1.1,1.7,1.5,2.6c-3.7,4-9.4,6.1-14.6,7.6
		c-25,4.5-50.6,1.8-75.8,0.9c-13.9-0.8-27.7-0.8-41.6-2.6C134.4,108.3,109.5,103,135.5,98z M220.7,307.3
		c-23.5,1.3-47.2-1.8-70.3-6.2c-8.5-1.3-16.3-5.4-24.9-6.2c1.5-1.5,0.9-4.6,0.9-6.7c-0.2-5.7-0.5-11.5-0.8-17.2
		c0.4,0.3,0.8,0.6,1.3,0.9c7,5.4,15.2,8.3,23.5,11c16,5.7,33,6.5,49.8,7.2c14.8,0.8,29.5-1.4,44.1-4c4.6-0.8,9.9-2.4,14.5-3.8
		c4.7-1.4,9.3-2.9,13.9-4.4c0.7-0.2,1.3-0.6,1.7-1.3c0,1.5-0.1,3-0.1,4.6c-0.1,4.7-0.1,9.4-0.4,14.1c0,0.4-0.1,0.9-0.1,1.4
		c-0.4,0-0.9,0.1-1.3,0.3C256,303.5,238.3,306.2,220.7,307.3z"/>
	<path d="M274,288.5c0.1-0.1,0.2-0.3,0.1-0.4c-0.5-0.9-1.1-1.8-1.6-2.7c-0.1-0.1-0.3-0.2-0.4-0.1c-0.1,0.1-0.2,0.3-0.1,0.4
		c0.5,0.9,1.1,1.8,1.6,2.7C273.7,288.6,273.9,288.6,274,288.5z"/>
</g>
</svg>
